<?xml version="1.0" encoding="UTF-8" standalone="no"?>
<svg width="114px" height="100px" viewBox="0 0 114 100" version="1.1" xmlns="http://www.w3.org/2000/svg" xmlns:xlink="http://www.w3.org/1999/xlink" xmlns:sketch="http://www.bohemiancoding.com/sketch/ns">
    <!-- Generator: Sketch 3.0.3 (7891) - http://www.bohemiancoding.com/sketch -->
    <title>Untitled 2</title>
    <desc>Created with Sketch.</desc>
    <defs></defs>
    <g id="Page-1" stroke="none" stroke-width="1" fill="none" fill-rule="evenodd" sketch:type="MSPage">
        <g id="andbang-small" sketch:type="MSLayerGroup" fill="#000000">
            <path d="M59.9417064,64.4416378 C66.2019395,57.9741638 71.6311465,52.893195 73.9081017,49.7561707 L84.4018963,60.6627452 C80.7218873,65.4499423 74.3274493,71.5468282 70.102951,75.91188 L87.8026887,97.1084198 L65.8620694,97.1084198 L57.5650559,87.5869665 C47.3867306,97.8547867 39.9580416,99.2201845 30.1460789,99.2201845 C13.6559303,99.2201845 -0.0695930709,88.161707 -0.0814449513,72.3918108 C-0.0915539082,58.4084198 9.56180272,50.4378317 20.1915452,43.679008 C13.3774111,35.794233 10.5754871,30.5845443 10.5754871,23.9668973 C10.5754871,10.4495963 21.6308514,1.42675894 36.0762023,1.42675894 C50.2496569,1.42675894 61.227984,9.26966552 61.227984,22.0828143 C61.227984,31.2347173 55.1389062,38.2752018 43.555436,45.3153403 L59.9417064,64.4416378 L59.9417064,64.4416378 Z M18.1202547,70.4852365 C18.1202547,77.9475202 23.7676758,83.3741638 31.8081309,83.3741638 C36.3055709,83.3741638 41.8093751,82.3703575 47.7530932,75.9001153 L29.53501,54.7914648 C19.8589953,61.4091118 18.1202547,65.6976932 18.1202547,70.4852365 L18.1202547,70.4852365 L18.1202547,70.4852365 Z M45.1143068,23.327451 C45.1143068,17.8361015 41.2983499,13.3419838 35.5745888,13.3419838 C30.5323109,13.3419838 26.8526505,17.976932 26.8526505,23.1866205 C26.8526505,28.67797 31.4100471,32.0035755 34.4082243,35.9464822 C42.1757377,30.5959632 45.1143068,28.1146482 45.1143068,23.327451 L45.1143068,23.327451 L45.1143068,23.327451 Z" id="Shape" sketch:type="MSShapeGroup"></path>
            <path d="M102.616842,77.0921568 C108.928317,77.0921568 113.948983,82.1803922 113.948983,88.577278 C113.948983,94.828835 108.928317,99.9174163 102.616842,99.9174163 C96.4479383,99.9174163 91.4272727,94.828835 91.4272727,88.577278 C91.4272727,82.1803922 96.4479383,77.0921568 102.616842,77.0921568 L102.616842,77.0921568 L102.616842,77.0921568 Z M92.9362959,-0.0708189158 L112.039087,-0.0708189158 L112.039087,67.0835063 L92.9362959,67.0835063 L92.9362959,-0.0708189158 L92.9362959,-0.0708189158 Z" id="Shape" sketch:type="MSShapeGroup"></path>
        </g>
    </g>
</svg>