<?xml version="1.0" encoding="UTF-8" standalone="no"?>
<svg width="679px" height="600px" viewBox="0 0 679 600" version="1.1" xmlns="http://www.w3.org/2000/svg" xmlns:xlink="http://www.w3.org/1999/xlink" xmlns:sketch="http://www.bohemiancoding.com/sketch/ns">
    <!-- Generator: Sketch 3.0.3 (7891) - http://www.bohemiancoding.com/sketch -->
    <title>Untitled 2</title>
    <desc>Created with Sketch.</desc>
    <defs></defs>
    <g id="Page-1" stroke="none" stroke-width="1" fill="none" fill-rule="evenodd" sketch:type="MSPage">
        <g id="andbang-large" sketch:type="MSLayerGroup" fill="#000000">
            <path d="M357.021216,386.649827 C394.308043,347.844983 426.645162,317.35917 440.207027,298.537024 L502.70954,363.976471 C480.79089,392.699654 442.70472,429.280969 417.543015,455.47128 L522.965137,582.650519 L392.283729,582.650519 L342.865552,525.521799 C282.242018,587.12872 237.995704,595.321107 179.554277,595.321107 C81.3366372,595.321107 -0.414506098,528.970242 -0.485097561,434.350865 C-0.545307927,350.450519 56.951439,302.62699 120.263677,262.074048 C79.6777378,214.765398 62.9890854,183.507266 62.9890854,143.801384 C62.9890854,62.6975779 128.836387,8.56055363 214.874924,8.56055363 C299.294009,8.56055363 364.682466,55.6179931 364.682466,132.496886 C364.682466,187.408304 328.415064,229.651211 259.42229,271.892042 L357.021216,386.649827 L357.021216,386.649827 Z M107.92678,422.911419 C107.92678,467.685121 141.563613,500.244983 189.453692,500.244983 C216.241076,500.244983 249.022506,494.222145 284.424125,455.400692 L175.914665,328.748789 C118.282963,368.454671 107.92678,394.186159 107.92678,422.911419 L107.92678,422.911419 L107.92678,422.911419 Z M268.707143,139.964706 C268.707143,107.016609 245.978768,80.0519031 211.887244,80.0519031 C181.854729,80.0519031 159.938155,107.861592 159.938155,139.119723 C159.938155,172.06782 187.082649,192.021453 204.940213,215.678893 C251.204613,183.575779 268.707143,168.687889 268.707143,139.964706 L268.707143,139.964706 L268.707143,139.964706 Z" id="Shape" sketch:type="MSShapeGroup"></path>
            <path d="M611.200314,462.552941 C648.792345,462.552941 678.696134,493.082353 678.696134,531.463668 C678.696134,568.97301 648.792345,599.504498 611.200314,599.504498 C574.457457,599.504498 544.553668,568.97301 544.553668,531.463668 C544.553668,493.082353 574.457457,462.552941 611.200314,462.552941 L611.200314,462.552941 L611.200314,462.552941 Z M553.541622,-0.424913495 L667.320527,-0.424913495 L667.320527,402.501038 L553.541622,402.501038 L553.541622,-0.424913495 L553.541622,-0.424913495 Z" id="Shape" sketch:type="MSShapeGroup"></path>
        </g>
    </g>
</svg>