<?xml version="1.0" encoding="UTF-8" standalone="no"?>
<svg width="340px" height="300px" viewBox="0 0 340 300" version="1.1" xmlns="http://www.w3.org/2000/svg" xmlns:xlink="http://www.w3.org/1999/xlink" xmlns:sketch="http://www.bohemiancoding.com/sketch/ns">
    <!-- Generator: Sketch 3.0.3 (7891) - http://www.bohemiancoding.com/sketch -->
    <title>Untitled 2</title>
    <desc>Created with Sketch.</desc>
    <defs></defs>
    <g id="Page-1" stroke="none" stroke-width="1" fill="none" fill-rule="evenodd" sketch:type="MSPage">
        <g id="andbang-medium" sketch:type="MSLayerGroup" fill="#000000">
            <path d="M178.77351,193.324913 C197.444381,173.922492 213.636753,158.679585 220.427672,149.268512 L251.724954,181.988235 C240.749488,196.349827 221.678358,214.640484 209.078977,227.73564 L261.867668,291.32526 L196.430733,291.32526 L171.685254,262.760899 C141.328846,293.56436 119.173107,297.660553 89.9093581,297.660553 C40.728213,297.660553 -0.207558282,264.485121 -0.242905995,217.175432 C-0.273055516,175.225259 28.5176572,151.313495 60.2203979,131.037024 C39.8975418,107.382699 31.5409264,91.753633 31.5409264,71.900692 C31.5409264,31.3487889 64.5130657,4.28027681 107.595691,4.28027681 C149.867398,4.28027681 182.609777,27.8089965 182.609777,66.248443 C182.609777,93.704152 164.449369,114.825605 129.902178,135.946021 L178.77351,193.324913 L178.77351,193.324913 Z M54.0428648,211.455709 C54.0428648,233.84256 70.8860507,250.122491 94.8663553,250.122491 C108.279773,250.122491 124.694627,247.111072 142.421506,227.700346 L88.086872,164.374394 C59.2285824,184.227335 54.0428648,197.093079 54.0428648,211.455709 L54.0428648,211.455709 L54.0428648,211.455709 Z M134.551441,69.982353 C134.551441,53.5083045 123.170517,40.0259515 106.099651,40.0259515 C91.0612781,40.0259515 80.0868523,53.930796 80.0868523,69.5598615 C80.0868523,86.03391 93.6790879,96.0107265 102.62102,107.839446 C125.787288,91.7878895 134.551441,84.3439445 134.551441,69.982353 L134.551441,69.982353 L134.551441,69.982353 Z" id="Shape" sketch:type="MSShapeGroup"></path>
            <path d="M306.050231,231.27647 C324.873928,231.27647 339.847843,246.541176 339.847843,265.731834 C339.847843,284.486505 324.873928,299.752249 306.050231,299.752249 C287.651746,299.752249 272.677831,284.486505 272.677831,265.731834 C272.677831,246.541176 287.651746,231.27647 306.050231,231.27647 L306.050231,231.27647 L306.050231,231.27647 Z M277.178426,-0.212456748 L334.151663,-0.212456748 L334.151663,201.250519 L277.178426,201.250519 L277.178426,-0.212456748 L277.178426,-0.212456748 Z" id="Shape" sketch:type="MSShapeGroup"></path>
        </g>
    </g>
</svg>