<?xml version="1.0" encoding="UTF-8" standalone="no"?>
<svg width="876px" height="600px" viewBox="0 0 876 600" version="1.1" xmlns="http://www.w3.org/2000/svg" xmlns:xlink="http://www.w3.org/1999/xlink" xmlns:sketch="http://www.bohemiancoding.com/sketch/ns">
    <!-- Generator: Sketch 3.0.3 (7891) - http://www.bohemiancoding.com/sketch -->
    <title>Untitled 2</title>
    <desc>Created with Sketch.</desc>
    <defs></defs>
    <g id="Page-1" stroke="none" stroke-width="1" fill="none" fill-rule="evenodd" sketch:type="MSPage">
        <g id="andyet-labs" sketch:type="MSLayerGroup">
            <g id="Group" transform="translate(0.424938, -0.416185)" sketch:type="MSShapeGroup">
                <path d="M399.797344,536.954335 C394.595332,536.954335 389.489105,536.227746 384.438608,534.793642 C383.433734,534.507514 382.454982,534.183237 381.495388,533.834682 C373.768127,560.307514 362.4167,574.143931 349.027658,576.90289 C348.125535,577.088439 347.197288,577.215029 346.270783,577.280925 C326.424072,578.716763 299.579809,552.958382 274.461423,508.371098 C268.688183,498.126012 263.097805,487.076301 257.714672,475.357225 C276.765495,461.767052 296.319626,446.153179 315.926004,428.857225 L301.291753,398.095954 L301.291753,393.939306 C288.399054,389.96474 275.424501,385.63815 262.458656,380.957803 C247.446489,375.538728 232.777408,369.793642 218.538489,363.778035 C214.593877,348.869942 210.981901,333.585549 207.747841,318.03237 C204.719284,303.455491 202.093026,288.977457 199.865583,274.69711 C209.320461,263.73237 219.217694,252.809249 229.508517,242.012717 C242.32633,228.568208 255.389702,215.706358 268.557567,203.524277 C279.405686,206.67341 290.3374,210.110405 301.291753,213.769364 L301.291753,188.820809 C297.286187,187.518497 293.284103,186.236994 289.297694,184.998844 C304.640755,171.760694 320.029097,159.517919 335.253734,148.476879 C341.977861,164.969942 348.285757,182.522543 354.090346,200.883237 L381.838473,210.554335 C373.952732,183.611561 365.002903,158.061272 355.220612,134.63526 C356.265543,133.941618 357.313956,133.227168 358.357145,132.549133 C398.275229,106.513295 434.161622,91.1734104 459.407141,89.3473988 C471.704231,88.4578035 480.863046,90.7710983 486.631062,96.2231214 C501.085932,109.882659 496.585765,145.804624 474.591722,192.315029 C469.231229,203.649133 462.982545,215.350867 455.936231,227.298844 L484.013511,225.927168 C488.400477,217.952023 492.446099,210.091329 496.08594,202.391908 C531.15903,128.220809 519.199801,94.3849711 502.985964,79.065896 C492.169193,68.8381503 476.927141,64.3606936 457.684748,65.7514451 C427.385249,67.9433526 388.163785,84.7277457 345.460962,112.558382 C340.33732,101.616185 335.029074,91.249711 329.565829,81.5526012 C298.486115,26.3924855 265.89996,-1.59248555 235.316588,0.61849711 C233.353861,0.760693642 231.384167,1.03468208 229.46672,1.4283237 C207.575427,5.93872832 179.499889,28.4040462 170.025853,109.84104 C168.29301,124.743931 167.322966,140.682081 167.093082,157.430058 C137.841996,153.613295 110.879308,152.444509 87.3770815,154.143931 C28.9167078,158.371676 9.2546004,179.560694 3.05642147,196.593064 C-4.56112127,217.516763 -0.062695825,253.10578 64.6219801,303.819653 C80.8340755,316.53237 99.4512525,329.049133 119.964978,341.108092 C107.033964,361.031214 96.0029821,380.517341 87.2151173,399.105202 C52.1420278,473.278035 64.1012565,507.112139 80.3098688,522.432948 C91.1283817,532.660694 106.370433,537.136416 125.614569,535.743931 C155.912326,533.553757 195.137272,516.76763 237.841837,488.931792 C242.965479,499.879191 248.275467,510.247399 253.738712,519.947977 C284.816684,575.101156 317.406322,603.091329 347.991435,600.878613 C349.952421,600.73815 351.920374,600.464162 353.837821,600.068786 C371.286417,596.475723 392.662211,583.969364 405.417328,536.791329 C403.562577,536.888439 401.693893,536.954335 399.797344,536.954335 L399.797344,536.954335 Z M212.277614,225.724277 C206.608867,231.67052 201.060286,237.658382 195.626648,243.67052 C193.272072,223.537572 191.767372,203.963006 191.13693,185.227746 C207.48835,188.149711 224.423189,191.820809 241.716787,196.209827 C231.847419,205.660694 222.014624,215.510405 212.277614,225.724277 L212.277614,225.724277 Z M193.627348,112.563584 C199.567777,61.5028902 214.762807,28.6156069 234.278624,24.5959538 C235.182489,24.4121387 236.107252,24.2820809 237.035499,24.2144509 C256.880469,22.7803468 283.72299,48.5404624 308.841376,93.1277457 C314.614616,103.371098 320.204994,114.417341 325.586386,126.134682 C304.90373,140.890173 283.625463,158.00578 262.331523,177.101734 C237.69903,170.330058 213.693495,164.938728 190.81126,161.016185 C190.94536,143.898844 191.870123,127.65896 193.627348,112.563584 L193.627348,112.563584 Z M184.480724,322.823699 C186.490473,332.498266 188.646513,342.073988 190.936652,351.53526 C178.162378,345.578613 165.840907,339.417341 154.048867,333.098266 C162.070449,321.746821 170.689384,310.293064 179.836008,298.830636 C181.269304,306.793642 182.81406,314.796532 184.480724,322.823699 L184.480724,322.823699 Z M79.3189264,285.233526 C38.7616938,253.433526 18.601503,223.310405 25.3918091,204.653179 C30.6913479,190.095376 53.9131849,180.283815 89.0977336,177.739884 C111.643849,176.109827 138.226879,177.445087 167.263753,181.438728 C167.98998,208.70578 170.520453,237.7 174.788994,267.578613 C159.691491,285.547399 145.769535,303.611561 133.251268,321.455491 C113.200795,309.726012 95.0503539,297.568208 79.3189264,285.233526 L79.3189264,285.233526 Z M224.942171,468.949711 C185.022346,494.983815 149.137694,510.323699 123.893917,512.149711 C111.596827,513.039306 102.434529,510.724277 96.669996,505.277457 C82.2186083,491.614451 86.7170338,455.692486 108.707594,409.185549 C117.239451,391.149133 128.009201,372.191908 140.675499,352.771676 C158.869479,362.60578 178.275579,372.060116 198.606441,380.971676 C207.159197,411.595954 217.096485,440.562428 228.083928,466.860116 C227.035515,467.553757 225.987101,468.268208 224.942171,468.949711 L224.942171,468.949711 Z M248.050807,453.015029 C240.37231,434.182659 233.233694,413.96474 226.769058,392.739306 C235.833829,396.34104 245.036183,399.83526 254.360445,403.199422 C267.65196,407.997688 280.887746,412.42659 294.005105,416.494798 C278.662044,429.731214 263.273702,441.977457 248.050807,453.015029 L248.050807,453.015029 Z" id="Shape" fill="#000000"></path>
                <path d="M306.575618,437.787861 C281.418918,437.787861 259.705264,429.611561 242.035491,413.486127 L241.890942,413.352601 C224.273416,396.809249 215.33926,376.112717 215.33926,351.833526 C215.33926,322.828902 229.198521,298.610405 256.533901,279.850867 L263.357296,275.212139 C251.560032,259.378035 245.596962,243.292486 245.596962,227.236416 C245.596962,207.00289 252.470863,190.163006 266.025352,177.183237 C279.74703,164.319653 297.242648,157.849711 318.13429,157.849711 C338.440771,157.849711 355.617686,164.113295 369.193074,176.465318 C383.128962,189.150289 390.196175,205.332948 390.196175,224.562428 C390.196175,237.956647 386.303809,250.247977 378.628795,261.096532 C373.536501,268.436994 365.689074,276.561272 354.828763,285.701734 L379.543109,315.448555 C380.85798,313.945087 382.132795,312.46763 383.376262,311.007514 C384.964557,309.150289 387.397503,306.431214 390.063817,303.450289 C394.370672,298.636416 399.732907,292.645087 401.939451,289.79422 L414.929678,273.020231 L446.669439,330.478035 L441.704278,337.551445 C438.487634,342.136416 434.276565,347.442775 429.189495,353.324855 C426.416946,356.560694 423.303054,360.101734 419.790346,364.012139 L475.991928,433.057225 L394.206966,433.057225 L375.103897,409.717919 C353.379793,428.357803 330.384358,437.787861 306.575618,437.787861 L306.575618,437.787861 Z M286.805535,368.848555 C292.547427,374.283237 298.447801,376.926012 304.835809,376.926012 C310.765789,376.926012 320.525439,374.047399 335.034298,361.652023 L303.250998,323.142775 C291.582608,331.646821 286.013129,336.899422 283.355523,339.949711 C280.248596,343.598266 278.689909,347.219075 278.689909,350.902312 C278.689909,357.243931 281.345773,363.115607 286.805535,368.848555 L286.805535,368.848555 Z M317.657105,216.028902 C313.590584,216.028902 311.547746,217.400578 310.224167,218.593642 L309.962934,218.824277 C308.715984,219.89422 307.993241,220.971098 307.993241,223.305202 C307.993241,227.189595 309.759173,231.230058 313.393789,235.653757 L315.917296,238.686705 C317.573511,237.36185 319.104334,236.10289 320.487125,234.923699 C324.053821,231.863006 325.32167,230.290173 325.626441,229.880925 L325.811046,229.631214 L326.006099,229.390173 C326.713169,228.523121 327.650123,226.99711 327.650123,223.771676 C327.650123,220.641618 326.664406,219.295954 325.598577,218.307514 C325.013416,217.768208 323.123833,216.028902 317.657105,216.028902 L317.657105,216.028902 Z" id="Shape" fill="#000000"></path>
                <path d="M318.13429,171.722543 C334.924581,171.722543 348.813447,176.713295 359.793924,186.706936 C370.77266,196.698844 376.263769,209.309249 376.263769,224.562428 C376.263769,235.06763 373.261336,244.594798 367.239054,253.107514 C361.326489,261.628902 350.608986,271.816763 335.091769,283.709249 L379.116429,336.7 L380.547984,335.116763 C385.288485,329.976879 389.788652,324.930636 394.004946,319.974566 C398.233431,315.039306 409.064135,303.313295 412.973917,298.265318 L430.28493,329.604046 C427.33126,333.814451 423.449344,338.70289 418.632215,344.271098 C413.84295,349.860116 408.111507,356.265896 401.451817,363.512717 L446.766966,419.184393 L400.824859,419.184393 L376.4327,389.383815 C354.032875,412.424855 330.751825,423.915029 306.575618,423.915029 C284.922918,423.915029 266.554783,417.044509 251.448573,403.260116 C236.671515,389.383815 229.271666,372.249133 229.271666,351.833526 C229.271666,327.554335 240.992302,307.365896 264.440541,291.27341 L280.441909,280.393642 C280.649153,280.293064 281.023586,280.031214 281.546052,279.604624 C282.070258,279.184971 282.808676,278.60578 283.764787,277.87052 C267.611905,260.735838 259.529368,243.859538 259.529368,227.236416 C259.529368,210.83526 264.917726,197.491329 275.68225,187.182081 C286.671435,176.881503 300.823276,171.722543 318.13429,171.722543 L318.13429,171.722543 Z M313.702044,257.83815 L316.713185,255.63237 C321.88559,251.747977 326.159356,248.349133 329.546672,245.46185 C332.923539,242.565896 335.353002,240.117341 336.831579,238.123121 C339.992493,234.238728 341.582529,229.452601 341.582529,223.771676 C341.582529,217.364162 339.412557,212.158382 335.091769,208.154335 C330.751825,204.15896 324.945495,202.156069 317.657105,202.156069 C311.007865,202.156069 305.414004,204.214451 300.870298,208.313873 C296.333559,212.205202 294.060835,217.197688 294.060835,223.305202 C294.060835,230.449711 296.903046,237.490173 302.610107,244.436994 L311.793304,255.474566 C312.120716,255.994798 312.756382,256.785549 313.702044,257.83815 L313.702044,257.83815 Z M304.835809,390.798844 C319.079952,390.798844 335.513225,381.484971 354.097312,362.89711 L305.790179,304.365896 L303.722958,305.791329 C288.618489,316.20289 278.318958,324.556069 272.82959,330.861272 C267.451682,337.175145 264.757503,343.86185 264.757503,350.902312 C264.757503,360.998266 268.825765,370.235838 276.944875,378.654913 C285.400103,386.756647 294.687793,390.798844 304.835809,390.798844 L304.835809,390.798844 Z M318.13429,143.976879 C293.576684,143.976879 272.867905,151.716185 256.584406,166.978035 L256.476429,167.080347 L256.368453,167.182659 C240.206863,182.657803 231.664557,203.425434 231.664557,227.236416 C231.664557,242.217341 235.8913,257.036994 244.271642,271.537572 C208.980859,297.757225 201.406855,329.460116 201.406855,351.833526 C201.406855,379.686705 212.101718,404.447977 232.331571,423.445087 L232.476119,423.582081 L232.62241,423.715607 C252.942823,442.258382 277.822616,451.660694 306.575618,451.660694 C329.689479,451.660694 351.922115,444.075723 372.960048,429.060116 L387.589074,446.930058 L505.218632,446.930058 L438.02264,364.378035 L439.799022,362.317919 C445.241368,356.019653 449.602211,350.519075 453.125368,345.498844 L463.053948,331.353757 L416.885439,247.775145 L390.906728,281.323121 C389.029336,283.745665 383.548676,289.875723 379.832207,294.03237 L374.090314,287.121965 C380.810958,280.716185 386.112239,274.700578 390.096907,268.976301 C399.407237,255.771098 404.128581,240.828324 404.128581,224.562428 C404.128581,201.60289 395.297177,181.430058 378.593964,166.227168 C362.369678,151.463006 342.028366,143.976879 318.13429,143.976879 L318.13429,143.976879 Z M293.984207,348.920231 C294.949026,347.82948 297.007539,345.731214 301.077543,342.358382 L314.950736,359.167052 C308.686378,362.874566 305.405296,363.053179 304.835809,363.053179 C303.677678,363.053179 301.011364,363.053179 296.666195,359.040462 C292.712875,354.788439 292.624056,352.168208 292.622314,350.980347 C292.691976,350.798266 292.995006,350.10289 293.984207,348.920231 L293.984207,348.920231 Z" id="Shape" fill="#FFFFFF"></path>
                <path d="M394.156461,253.424855 C402.798036,254.298844 410.823101,254.793064 418.15503,254.933526 C425.525272,255.091329 433.680954,255.157225 442.622076,255.157225 C451.274099,255.157225 460.075897,255.091329 469.017018,254.933526 C477.958139,254.793064 486.768644,254.298844 495.410219,253.424855 L495.410219,258.59422 C489.069233,259.169942 483.019085,261.051445 477.238879,264.198844 C471.476087,267.363584 468.595563,272.534682 468.595563,279.706936 C468.595563,285.460694 470.45728,293.153179 474.215547,302.765318 C477.958139,312.393064 482.353813,322.730058 487.406052,333.784971 C492.454807,344.86763 497.655078,356.118497 502.985964,367.62948 C508.3273,379.121387 512.581909,389.737572 515.744565,399.498844 C517.203984,396.646243 519.438394,391.898266 522.46695,385.286127 C525.49899,378.673988 528.961193,371.128902 532.850076,362.67341 C536.7407,354.200578 540.650481,345.353179 544.521948,336.169364 C548.450887,326.976879 552.041964,318.363584 555.371809,310.306936 C558.665082,302.269364 561.395833,295.239306 563.565805,289.19422 C565.753193,283.159538 566.820763,279.146821 566.820763,277.13526 C566.820763,273.679191 566.033583,270.951445 564.445288,268.941618 C562.853511,266.928324 560.90994,265.268786 558.590195,263.975145 C556.287865,262.700578 553.557113,261.693064 550.357885,260.968208 C547.216127,260.260694 544.149256,259.459538 541.286147,258.59422 L541.286147,253.424855 C547.928421,254.298844 554.568954,254.793064 561.188588,254.933526 C567.830863,255.091329 574.602012,255.157225 581.542091,255.157225 C588.165209,255.157225 594.673384,255.091329 601.016111,254.933526 C607.355356,254.793064 613.846115,254.298844 620.48839,253.424855 L620.48839,258.59422 C612.42501,259.747399 604.549718,264.701734 596.899085,273.455491 C589.248453,282.230058 582.196915,292.213295 575.725312,303.426012 C569.213654,314.619653 563.490918,325.608671 558.590195,336.373988 C553.68773,347.139306 549.946879,355.112717 547.346744,360.289017 C535.244708,385.286127 524.283388,406.686705 514.462783,424.513295 C504.650887,442.319075 495.765495,457.182081 487.844922,469.104046 C479.90171,481.022543 472.69169,490.447399 466.21138,497.340462 C459.718879,504.230058 453.51025,509.465318 447.588978,513.060116 C441.678155,516.653179 435.908398,518.945665 430.29538,519.97052 C424.673654,520.95896 418.82901,521.460116 412.759706,521.460116 C407.559435,521.460116 402.451467,520.733526 397.402712,519.299422 C392.359181,517.867052 387.871205,515.649133 383.989288,512.630058 C380.089956,509.614451 376.909885,505.795954 374.449074,501.214451 C372.017869,496.594798 370.783109,491.154913 370.783109,484.842775 C370.783109,479.085549 372.878195,473.907514 377.040501,469.326012 C381.23938,464.725434 386.206282,462.417341 391.986489,462.417341 C398.627022,462.417341 403.947459,464.07341 408.007014,467.389017 C412.038704,470.685549 414.039746,475.769942 414.039746,482.680347 C414.039746,487.56185 412.890322,491.657803 410.587992,494.971676 C408.289145,498.252601 407.127531,500.617919 407.127531,502.071098 C407.127531,503.803468 409.222616,504.86474 413.414529,505.310405 C417.585543,505.738728 421.692119,505.945087 425.749932,505.945087 C434.391507,505.945087 442.902465,502.423121 451.274099,495.382659 C459.635284,488.343931 467.052549,480.295954 473.553757,471.26474 C480.053225,462.210983 485.310966,453.587283 489.360072,445.409249 C493.400469,437.215607 495.410219,431.963006 495.410219,429.672254 C495.410219,428.813873 494.400119,425.853757 492.388628,420.842197 C490.359722,415.834104 487.62897,409.350289 484.177217,401.435838 C480.69934,393.554335 476.798266,384.727746 472.475738,374.949133 C468.15495,365.17052 463.835905,355.483815 459.513376,345.87341 C455.173431,336.233526 450.843936,326.895376 446.503992,317.852023 C442.183205,308.798266 438.440612,301.114451 435.262282,294.793642 C432.380016,288.198844 429.920946,282.882081 427.900748,278.848555 C425.88229,274.825434 423.421479,271.593064 420.55837,269.154913 C417.669137,266.721965 414.198227,264.776301 410.168278,263.333526 C406.117431,261.899422 400.777837,260.324855 394.156461,258.59422 L394.156461,253.424855" id="Shape" fill="#000000"></path>
                <path d="M631.467125,323.222543 C631.467125,338.180925 633.414179,350.531214 637.285646,360.289017 C641.212843,370.048555 646.096151,377.817341 652.02439,383.553757 C657.936954,389.309249 664.27794,393.33237 671.068247,395.623121 C677.839396,397.932948 684.107237,399.089595 689.885702,399.089595 C702.006895,399.089595 712.968215,397.133526 722.750505,393.257803 C732.572851,389.383815 741.662004,383.274566 750.044087,374.949133 L757.395173,381.840462 C745.573527,394.487283 733.452334,404.097688 721.050751,410.709827 C708.62827,417.321965 693.776326,420.637572 676.47402,420.637572 C664.035865,420.637572 652.940445,418.180347 643.138998,413.298844 C633.320135,408.419075 624.957209,401.956069 618.036286,393.909827 C611.115364,385.865318 605.859364,376.664162 602.249129,366.325434 C598.638895,355.986705 596.82594,345.353179 596.82594,334.436994 C596.82594,323.522543 598.638895,312.885549 602.249129,302.55896 C605.859364,292.213295 611.115364,283.020809 618.036286,274.974566 C624.957209,266.928324 633.320135,260.465318 643.138998,255.583815 C652.940445,250.70578 664.035865,248.255491 676.47402,248.255491 C699.258728,248.255491 717.59029,254.430636 731.451292,266.779191 C745.27398,279.146821 753.767523,297.958382 756.96501,323.222543 L631.467125,323.222543 L631.467125,323.222543 Z M715.867897,310.306936 C714.970998,302.55896 713.828541,295.593064 712.370863,289.409249 C710.948016,283.235838 708.62827,278.066474 705.467356,273.90289 C702.269869,269.730636 698.079698,266.574566 692.916,264.432948 C687.71573,262.263584 681.075197,261.181503 673.013559,261.181503 C666.952962,261.181503 661.378258,262.700578 656.346918,265.707514 C651.277264,268.716185 646.973893,272.609249 643.3654,277.339884 C639.753423,282.091329 637.005256,287.397688 635.115674,293.283237 C633.245249,299.177457 632.327451,304.860116 632.327451,310.306936 L715.867897,310.306936 L715.867897,310.306936 Z" id="Shape" fill="#000000"></path>
                <path d="M745.012748,268.511561 L745.012748,261.609827 C754.234258,261.330636 762.16528,259.031214 768.844127,254.718497 C775.465503,250.416185 781.207396,244.948555 786.129018,238.33815 C791.028,231.734682 795.145026,224.404624 798.473129,216.367052 C801.766402,208.339884 804.739229,200.583237 807.339364,193.104046 L813.380803,193.104046 L813.380803,255.583815 L872.680604,255.583815 L872.680604,268.511561 L813.380803,268.511561 L813.380803,368.914451 C813.380803,372.658382 813.62462,376.308671 814.056525,379.903468 C814.467531,383.498266 815.345272,386.720231 816.637503,389.607514 C817.927992,392.475723 819.798417,394.766474 822.267936,396.498844 C824.718298,398.213873 828.103873,399.089595 832.442076,399.089595 C841.102807,399.089595 848.305861,397.206358 854.066911,393.481503 C859.847117,389.737572 865.608167,385.024277 871.407531,379.251445 L875.278998,383.553757 C870.380016,387.875145 865.608167,392.272832 861.00699,396.703468 C856.386656,401.175723 851.560819,405.19711 846.527738,408.772832 C841.459825,412.369364 835.979165,415.235838 830.068342,417.377457 C824.138362,419.539884 817.720748,420.637572 810.799825,420.637572 C798.661217,420.637572 790.449805,416.969942 786.129018,409.648555 C781.787332,402.309827 779.61736,393.611561 779.61736,383.553757 L779.61736,268.511561 L745.012748,268.511561" id="Shape" fill="#000000"></path>
                <g transform="translate(548.880716, 424.716763)" fill="#000000">
                    <path d="M67.474311,80.7855491 L85.3678166,80.7855491 L92.6619845,62.8920435 L126.397511,62.8920435 L133.691679,80.7855491 L152.04107,80.7855491 L117.849658,0.43573082 L101.665723,0.43573082 L67.474311,80.7855491 Z M98.9304101,47.3919367 L109.529748,21.5204349 L120.129086,47.3919367 L98.9304101,47.3919367 Z" id="A"></path>
                    <path d="M0.401181855,80.7855491 L57.7287827,80.7855491 L57.7287827,64.8295568 L17.9527734,64.8295568 L17.9527734,1.00558769 L0.401181855,1.00558769 L0.401181855,80.7855491 Z" id="L"></path>
                    <path d="M277.537931,81.9252629 C294.747608,81.9252629 306.828574,73.0354957 306.828574,57.1934748 L306.828574,56.9655321 C306.828574,43.0610245 297.710864,37.2484845 281.526929,33.0315436 C267.736392,29.4984311 264.317251,27.7888605 264.317251,22.5461773 L264.317251,22.3182345 C264.317251,18.4432078 267.850364,15.3659807 274.574675,15.3659807 C281.298986,15.3659807 288.25124,18.3292365 295.317465,23.2300055 L304.435175,10.0093262 C296.343207,3.5129579 286.427698,-0.134126048 274.802618,-0.134126048 C258.504711,-0.134126048 246.879631,9.43946933 246.879631,23.9138338 L246.879631,24.1417765 C246.879631,39.9837974 257.251026,44.428681 273.32099,48.5316504 C286.65564,51.9507916 289.390953,54.2302191 289.390953,58.6751027 L289.390953,58.9030454 C289.390953,63.5758717 285.060041,66.4251561 277.879845,66.4251561 C268.762135,66.4251561 261.240024,62.6641007 254.059828,56.7375893 L243.688433,69.160469 C253.262028,77.708322 265.456965,81.9252629 277.537931,81.9252629 L277.537931,81.9252629 Z" id="S"></path>
                    <path d="M165.305134,80.7855491 L203.257602,80.7855491 C221.265079,80.7855491 233.118101,73.4913812 233.118101,58.9030454 L233.118101,58.6751027 C233.118101,47.9617936 227.419533,42.605139 218.187851,39.0720264 C223.88642,35.880828 228.673218,30.8660875 228.673218,21.862349 L228.673218,21.6344063 C228.673218,16.1637804 226.849676,11.7188968 223.202592,8.07181284 C218.643737,3.5129579 211.46354,1.00558769 202.345831,1.00558769 L165.305134,1.00558769 L165.305134,80.7855491 Z M182.40084,33.2594864 L182.40084,16.3917231 L199.724489,16.3917231 C207.132628,16.3917231 211.235598,19.3549788 211.235598,24.597662 L211.235598,24.8256047 C211.235598,30.7521162 206.334829,33.2594864 198.584775,33.2594864 L182.40084,33.2594864 Z M182.40084,65.3994137 L182.40084,47.8478222 L202.687745,47.8478222 C211.691483,47.8478222 215.680481,51.152992 215.680481,56.5096466 L215.680481,56.7375893 C215.680481,62.6641007 211.007655,65.3994137 203.257602,65.3994137 L182.40084,65.3994137 Z" id="B"></path>
                </g>
            </g>
        </g>
    </g>
</svg>