<?xml version="1.0" encoding="UTF-8" standalone="no"?>
<svg width="558px" height="300px" viewBox="0 0 558 300" version="1.1" xmlns="http://www.w3.org/2000/svg" xmlns:xlink="http://www.w3.org/1999/xlink" xmlns:sketch="http://www.bohemiancoding.com/sketch/ns">
    <!-- Generator: Sketch 3.0.3 (7891) - http://www.bohemiancoding.com/sketch -->
    <title>Untitled 2</title>
    <desc>Created with Sketch.</desc>
    <defs></defs>
    <g id="Page-1" stroke="none" stroke-width="1" fill="none" fill-rule="evenodd" sketch:type="MSPage">
        <g id="andyet-medium" sketch:type="MSLayerGroup" fill="#000000">
            <path d="M91.5478348,96.5546218 L129.540468,142.240896 L130.769092,140.878533 C134.867064,136.442577 138.747468,132.10084 142.387266,127.827858 C146.037303,123.577795 155.385082,113.455564 158.756119,109.108735 L173.696697,136.126814 C171.139624,139.752992 167.789064,143.967405 163.63734,148.7726 C159.500973,153.582888 154.555762,159.106188 148.809385,165.357779 L187.91034,213.363891 L148.274422,213.363891 L127.22144,187.664884 C107.896211,207.522282 87.8107705,217.443341 66.9523211,217.443341 C48.2593211,217.443341 32.4049542,211.515152 19.3789816,199.623122 C6.61921101,187.664884 0.243165137,172.887701 0.243165137,155.301757 C0.243165137,134.357015 10.351156,116.954418 30.5850551,103.081232 L44.3917155,93.7000255 C44.5760092,93.6134455 44.8934036,93.3817164 45.3438991,93.0124776 L47.2559449,91.5278839 C33.3213027,76.7456073 26.3463027,62.2001527 26.3463027,47.8686021 C26.3463027,33.7254903 30.9997155,22.2128852 40.2886238,13.3333333 C49.7669449,4.44868858 61.9840735,0.00254647313 76.9195321,0.00254647313 C91.4172934,0.00254647313 103.391257,4.30353961 112.867018,12.9182582 C122.34278,21.5457092 127.08322,32.41151 127.08322,45.5538579 C127.08322,54.6193021 124.490312,62.8316782 119.291697,70.1706136 C114.187789,77.5222815 104.937275,86.3076139 91.5478348,96.5546218 L91.5478348,96.5546218 L91.5478348,96.5546218 Z M66.2586604,114.369748 L64.4797155,115.594602 C51.4486238,124.573466 42.561578,131.774892 37.8288164,137.203972 C33.1805229,142.650878 30.8614955,148.413547 30.8614955,154.481793 C30.8614955,163.188184 34.3681926,171.166285 41.3815872,178.408454 C48.6663027,185.39343 56.685633,188.879552 65.4446973,188.879552 C77.7386146,188.879552 91.916422,180.863254 107.944844,164.820474 L66.2586604,114.369748 L66.2586604,114.369748 Z M73.098,74.2551567 L75.6909083,72.3453018 C80.1574679,69.0094218 83.8484586,66.0733385 86.7638807,63.5854342 C89.6741836,61.0898906 91.7807616,58.9814106 93.0554586,57.2549018 C95.7840274,53.9113827 97.1534313,49.7759103 97.1534313,44.8892285 C97.1534313,39.3557424 95.2848991,34.8739497 91.5503946,31.4183855 C87.8133304,27.9781003 82.7964494,26.2490451 76.5099908,26.2490451 C70.7712934,26.2490451 65.9463854,28.0213904 62.0224679,31.5533485 C58.108789,34.914693 56.1404313,39.2156864 56.1404313,44.4766997 C56.1404313,50.6442576 58.6053577,56.7125033 63.5275321,62.7018079 L71.4495964,72.2179782 C71.7260366,72.6687039 72.2737982,73.3562515 73.098,74.2551567 L73.098,74.2551567 L73.098,74.2551567 Z" id="Shape" sketch:type="MSShapeGroup"></path>
            <path d="M142.515248,70.4507258 C149.976578,71.1993888 156.895266,71.6271964 163.232918,71.749427 C169.585926,71.8869367 176.630037,71.9429591 184.34733,71.9429591 C191.795863,71.9429591 199.395413,71.8869367 207.115266,71.749427 C214.83256,71.6271964 222.429551,71.1993888 229.890881,70.4507258 L229.890881,74.9070536 C224.420945,75.4061624 219.199293,77.023173 214.210569,79.7402597 C209.244881,82.4700791 206.751798,86.9315 206.751798,93.1117903 C206.751798,98.0723197 208.356688,104.703336 211.607422,112.989559 C214.83256,121.298701 218.620816,130.208811 222.987551,139.737713 C227.341486,149.284441 231.833642,159.001782 236.428184,168.907563 C241.030404,178.818436 244.706037,187.980647 247.439725,196.401833 C248.693945,193.921568 250.623908,189.837026 253.234734,184.135472 C255.850679,178.436465 258.837771,171.932773 262.193449,164.637128 C265.551688,157.341482 268.930404,149.712248 272.275844,141.795264 C275.646881,133.868093 278.751715,126.440031 281.628743,119.500891 C284.477615,112.556659 286.842715,106.503692 288.703569,101.301248 C290.590018,96.0911636 291.521725,92.6279603 291.521725,90.8887191 C291.521725,87.9220779 290.833184,85.5640439 289.46634,83.8324421 C288.094376,82.0982939 286.420376,80.6722688 284.416184,79.5492742 C282.41967,78.4542909 280.062248,77.5859433 277.318321,76.9544182 C274.587193,76.3458109 271.950771,75.6608097 269.483285,74.9096003 L269.483285,70.4532721 C275.196385,71.2019355 280.937642,71.6297427 286.653303,71.7519736 C292.379202,71.889483 298.230523,71.9455055 304.212384,71.9455055 C309.922926,71.9455055 315.549,71.889483 321.021494,71.7519736 C326.481193,71.6297427 332.089348,71.2019355 337.817807,70.4532721 L337.817807,74.9096003 C330.847926,75.9078176 324.062339,80.1757067 317.463604,87.7209067 C310.872551,95.2864782 304.788304,103.896104 299.185266,113.557423 C293.569431,123.213649 288.637018,132.689076 284.413624,141.963331 C280.18767,151.255411 276.949734,158.135982 274.702376,162.599949 C264.266752,184.132926 254.785871,202.589763 246.323725,217.944996 C237.856459,233.305322 230.195477,246.126814 223.358697,256.396741 C216.50656,266.687038 210.278973,274.800102 204.688734,280.738477 C199.090816,286.697224 193.730945,291.201935 188.621918,294.2959 C183.520569,297.397505 178.542082,299.368475 173.701816,300.249554 C168.848752,301.110262 163.801156,301.545709 158.561587,301.545709 C154.082229,301.545709 149.671982,300.91673 145.312926,299.684237 C140.958991,298.446652 137.088826,296.529157 133.743385,293.934301 C130.369789,291.326712 127.625863,288.039216 125.503926,284.084543 C123.407587,280.101859 122.34278,275.416348 122.34278,269.964349 C122.34278,265.008913 124.144762,260.557678 127.741046,256.595365 C131.365486,252.630507 135.650312,250.641711 140.646715,250.641711 C146.370055,250.641711 150.959477,252.067736 154.458496,254.922332 C157.944715,257.759104 159.675027,262.159409 159.675027,268.113063 C159.675027,272.312198 158.676771,275.846702 156.687936,278.698752 C154.70422,281.53807 153.708523,283.585434 153.708523,284.825567 C153.708523,286.315253 155.513064,287.239623 159.129826,287.619048 C162.733789,287.983193 166.273762,288.166539 169.77534,288.166539 C177.228991,288.166539 184.582816,285.131143 191.790743,279.062898 C199.011468,273.002292 205.418229,266.065699 211.018707,258.273491 C216.637101,250.466005 221.172771,243.022664 224.66667,235.979119 C228.160569,228.922842 229.888321,224.39012 229.888321,222.41151 C229.888321,221.665393 229.018046,219.121467 227.285174,214.795009 C225.526707,210.466005 223.169285,204.894322 220.194991,198.06468 C217.192541,191.263051 213.831743,183.664375 210.099798,175.230456 C206.370413,166.80163 202.638468,158.446652 198.911642,150.150242 C195.172018,141.853832 191.434954,133.801884 187.682532,125.999491 C183.960826,118.20219 180.725449,111.571174 177.978963,106.126814 C175.496119,100.445633 173.374184,95.8467024 171.633633,92.373313 C169.887963,88.907563 167.771147,86.1217215 165.295982,84.0157882 C162.808018,81.9149479 159.808129,80.2444615 156.329587,79.0017824 C152.838248,77.766743 148.228349,76.4069264 142.512688,74.9121467 L142.512688,70.4507258 L142.515248,70.4507258 L142.515248,70.4507258 Z" id="Shape" sketch:type="MSShapeGroup"></path>
            <path d="M347.288449,130.631525 C347.288449,143.521772 348.977807,154.16603 352.30789,162.599949 C355.699405,171.01095 359.920238,177.705628 365.044625,182.648332 C370.133176,187.613955 375.597991,191.079705 381.456991,193.050675 C387.310872,195.036924 417.634845,194.357015 426.073955,191.016043 C434.548899,187.67507 442.391616,182.403871 449.622577,175.225363 L455.960229,181.168831 C445.762652,192.067736 435.296313,200.364146 424.594485,206.05806 C413.887542,211.751974 401.066339,214.60657 386.128321,214.60657 C375.408577,214.60657 365.832991,212.49809 357.365726,208.283677 C348.898458,204.087089 341.685414,198.50522 335.70611,191.563535 C329.739604,184.637128 325.201375,176.699771 322.081185,167.787115 C318.958432,158.882098 317.414973,149.707155 317.414973,140.292845 C317.414973,130.888719 318.960991,121.716323 322.081185,112.80876 C325.201375,103.891011 329.739604,95.96384 335.70611,89.0323403 C341.685414,82.0932009 348.898458,76.5215176 357.365726,72.3071045 C365.835551,68.1028776 375.408577,65.9867585 386.128321,65.9867585 C405.786304,65.9867585 421.612515,71.3114336 433.573679,81.9658773 C445.509247,92.6254139 452.837476,108.848994 455.589083,130.631525 L347.288449,130.631525 L347.288449,130.631525 Z M420.125366,119.498345 C419.354917,112.80876 418.364339,106.806723 417.117798,101.474408 C415.878935,96.1471861 413.884982,91.6984976 411.161533,88.1054239 C408.392009,84.5123503 404.782926,81.7901706 400.326604,79.9337918 C395.82933,78.0697733 390.11111,77.1352176 383.143789,77.1352176 C377.927256,77.1352176 373.115146,78.4517442 368.763771,81.0440539 C364.397036,83.6363636 360.67533,86.9849758 357.560256,91.0720652 C354.442625,95.1617009 352.067286,99.7402597 350.452155,104.820474 C348.831908,109.900688 348.035863,114.795009 348.035863,119.498345 L420.125366,119.498345 L420.125366,119.498345 Z" id="Shape" sketch:type="MSShapeGroup"></path>
            <path d="M445.273762,83.4555639 L445.273762,77.5095494 C453.23678,77.2701809 460.078679,75.2890248 465.830176,71.5686276 C471.558634,67.8507767 476.511524,63.1448942 480.750274,57.4484339 C484.994146,51.75452 488.52644,45.43672 491.395789,38.5001273 C494.252339,31.5737203 496.809414,24.8892284 499.06189,18.4415585 L504.268185,18.4415585 L504.268185,72.3071045 L555.440366,72.3071045 L555.440366,83.4555639 L504.270744,83.4555639 L504.270744,170.015279 C504.270744,173.24166 504.475515,176.396741 504.84922,179.495798 C505.212687,182.594856 505.96522,185.383244 507.08122,187.853323 C508.202339,190.328495 509.814908,192.317291 511.934286,193.796792 C514.05622,195.289025 516.98444,196.032595 520.716384,196.032595 C528.193074,196.032595 534.418101,194.420677 539.37867,191.207028 C544.372515,187.9781 549.338202,183.901197 554.342286,178.933028 L557.697964,182.648332 C553.448973,186.368729 549.338202,190.150242 545.37589,193.972498 C541.382863,197.832951 537.21322,201.296155 532.877202,204.39012 C528.507908,207.489178 523.777705,209.959256 518.671238,211.807996 C513.546854,213.672014 508.030845,214.609116 502.041304,214.609116 C491.580083,214.609116 484.492458,211.446397 480.757955,205.131143 C477.015771,198.810797 475.147238,191.319073 475.147238,182.648332 L475.147238,83.4555639 L445.273762,83.4555639 L445.273762,83.4555639 Z" id="Shape" sketch:type="MSShapeGroup"></path>
        </g>
    </g>
</svg>