<?xml version="1.0" encoding="UTF-8" standalone="no"?>
<svg width="438px" height="300px" viewBox="0 0 438 300" version="1.1" xmlns="http://www.w3.org/2000/svg" xmlns:xlink="http://www.w3.org/1999/xlink" xmlns:sketch="http://www.bohemiancoding.com/sketch/ns">
    <!-- Generator: Sketch 3.0.3 (7891) - http://www.bohemiancoding.com/sketch -->
    <title>Untitled 2</title>
    <desc>Created with Sketch.</desc>
    <defs></defs>
    <g id="Page-1" stroke="none" stroke-width="1" fill="none" fill-rule="evenodd" sketch:type="MSPage">
        <g id="andyet-labs" sketch:type="MSLayerGroup">
            <g id="Group" transform="translate(0.424938, -0.416185)" sketch:type="MSShapeGroup">
                <path d="M199.898672,268.477168 C197.297666,268.477168 194.744553,268.113873 192.219304,267.396821 C191.716867,267.253757 191.227491,267.091618 190.747694,266.917341 C186.884064,280.153757 181.20835,287.071965 174.513829,288.451445 C174.062767,288.54422 173.598644,288.607514 173.135392,288.640462 C163.212036,289.358382 149.789905,276.479191 137.230712,254.185549 C134.344091,249.063006 131.548903,243.53815 128.857336,237.678613 C138.382748,230.883526 148.159813,223.07659 157.963002,214.428613 L150.645877,199.047977 L150.645877,196.969653 C144.199527,194.98237 137.71225,192.819075 131.229328,190.478902 C123.723245,187.769364 116.388704,184.896821 109.269245,181.889017 C107.296938,174.434971 105.49095,166.792775 103.87392,159.016185 C102.359642,151.727746 101.046513,144.488728 99.9327913,137.348555 C104.660231,131.866185 109.608847,126.404624 114.754258,121.006358 C121.163165,114.284104 127.694851,107.853179 134.278783,101.762139 C139.702843,103.336705 145.1687,105.055202 150.645877,106.884682 L150.645877,94.4104046 C148.643093,93.7592486 146.642052,93.1184971 144.648847,92.499422 C152.320378,85.8803468 160.014549,79.7589595 167.626867,74.2384393 C170.98893,82.4849711 174.142879,91.2612717 177.045173,100.441618 L190.919237,105.277168 C186.976366,91.8057803 182.501451,79.0306358 177.610306,67.3176301 C178.132771,66.9708092 178.656978,66.6135838 179.178573,66.2745665 C199.137614,53.2566474 217.080811,45.5867052 229.703571,44.6736994 C235.852115,44.2289017 240.431523,45.3855491 243.315531,48.1115607 C250.542966,54.9413295 248.292883,72.9023121 237.295861,96.1575145 C234.615614,101.824566 231.491272,107.675434 227.968115,113.649422 L242.006755,112.963584 C244.200239,108.976012 246.22305,105.045665 248.04297,101.195954 C265.579515,64.1104046 259.599901,47.1924855 251.492982,39.532948 C246.084596,34.4190751 238.463571,32.1803468 228.842374,32.8757225 C213.692624,33.9716763 194.081893,42.3638728 172.730481,56.2791908 C170.16866,50.8080925 167.514537,45.6248555 164.782915,40.7763006 C149.243058,13.1962428 132.94998,-0.796242775 117.658294,0.309248555 C116.67693,0.380346821 115.692083,0.51734104 114.73336,0.71416185 C103.787714,2.96936416 89.7499443,14.2020231 85.0129264,54.9205202 C84.146505,62.3719653 83.6614831,70.3410405 83.5465408,78.7150289 C68.920998,76.8066474 55.4396541,76.2222543 43.6885408,77.0719653 C14.4583539,79.1858382 4.6273002,89.7803468 1.52821074,98.2965318 C-2.28056064,108.758382 -0.0313479125,126.55289 32.3109901,151.909827 C40.4170378,158.266185 49.7256262,164.524566 59.9824891,170.554046 C53.5169821,180.515607 48.0014911,190.258671 43.6075586,199.552601 C26.0710139,236.639017 32.0506282,253.556069 40.1549344,261.216474 C45.5641909,266.330347 53.1852167,268.568208 62.8072843,267.871965 C77.956163,266.776879 97.5686362,258.383815 118.920918,244.465896 C121.48274,249.939595 124.137734,255.123699 126.869356,259.973988 C142.408342,287.550578 158.703161,301.545665 173.995718,300.439306 C174.976211,300.369075 175.960187,300.232081 176.918911,300.034393 C185.643209,298.237861 196.331105,291.984682 202.708664,268.395665 C201.781288,268.44422 200.846946,268.477168 199.898672,268.477168 L199.898672,268.477168 Z M106.138807,112.862139 C103.304433,115.83526 100.530143,118.829191 97.8133241,121.83526 C96.6360358,111.768786 95.8836859,101.981503 95.5684652,92.6138728 C103.744175,94.0748555 112.211594,95.9104046 120.858394,98.1049133 C115.92371,102.830347 111.007312,107.755202 106.138807,112.862139 L106.138807,112.862139 Z M96.813674,56.2817919 C99.7838887,30.7514451 107.381404,14.3078035 117.139312,12.2979769 C117.591245,12.2060694 118.053626,12.1410405 118.51775,12.1072254 C128.440235,11.3901734 141.861495,24.2702312 154.420688,46.5638728 C157.307308,51.6855491 160.102497,57.2086705 162.793193,63.067341 C152.451865,70.4450867 141.812732,79.0028902 131.165761,88.5508671 C118.849515,85.1650289 106.846748,82.4693642 95.4056302,80.5080925 C95.4726799,71.949422 95.9350616,63.8294798 96.813674,56.2817919 L96.813674,56.2817919 Z M92.2403618,161.41185 C93.2452366,166.249133 94.3232565,171.036994 95.468326,175.76763 C89.0811889,172.789306 82.9204533,169.708671 77.0244334,166.549133 C81.0352247,160.87341 85.3446918,155.146532 89.918004,149.415318 C90.6346521,153.396821 91.4070298,157.398266 92.2403618,161.41185 L92.2403618,161.41185 Z M39.6594632,142.616763 C19.3808469,126.716763 9.30075149,111.655202 12.6959046,102.32659 C15.345674,95.0476879 26.9565924,90.1419075 44.5488668,88.8699422 C55.8219245,88.0549133 69.1134394,88.7225434 83.6318767,90.7193642 C83.9949901,104.35289 85.2602266,118.85 87.394497,133.789306 C79.8457455,142.773699 72.8847674,151.80578 66.6256342,160.727746 C56.6003976,154.863006 47.5251769,148.784104 39.6594632,142.616763 L39.6594632,142.616763 Z M112.471085,234.474855 C92.511173,247.491908 74.5688469,255.16185 61.9469583,256.074855 C55.7984135,256.519653 51.2172644,255.362139 48.334998,252.638728 C41.1093042,245.807225 43.3585169,227.846243 54.3537972,204.592775 C58.6197256,195.574566 64.0046004,186.095954 70.3377495,176.385838 C79.4347396,181.30289 89.1377893,186.030058 99.3032207,190.485838 C103.579598,205.797977 108.548243,220.281214 114.041964,233.430058 C113.517757,233.776879 112.993551,234.134104 112.471085,234.474855 L112.471085,234.474855 Z M124.025404,226.507514 C120.186155,217.091329 116.616847,206.98237 113.384529,196.369653 C117.916915,198.17052 122.518091,199.91763 127.180223,201.599711 C133.82598,203.998844 140.443873,206.213295 147.002553,208.247399 C139.331022,214.865607 131.636851,220.988728 124.025404,226.507514 L124.025404,226.507514 Z" id="Shape" fill="#000000"></path>
                <path d="M153.287809,218.893931 C140.709459,218.893931 129.852632,214.80578 121.017746,206.743064 L120.945471,206.676301 C112.136708,198.404624 107.66963,188.056358 107.66963,175.916763 C107.66963,161.414451 114.59926,149.305202 128.26695,139.925434 L131.678648,137.606069 C125.780016,129.689017 122.798481,121.646243 122.798481,113.618208 C122.798481,103.501445 126.235431,95.0815029 133.012676,88.5916185 C139.873515,82.1598266 148.621324,78.9248555 159.067145,78.9248555 C169.220386,78.9248555 177.808843,82.0566474 184.596537,88.232659 C191.564481,94.5751445 195.098087,102.666474 195.098087,112.281214 C195.098087,118.978324 193.151905,125.123988 189.314398,130.548266 C186.76825,134.218497 182.844537,138.280636 177.414382,142.850867 L189.771555,157.724277 C190.42899,156.972543 191.066398,156.233815 191.688131,155.503757 C192.482278,154.575145 193.698751,153.215607 195.031909,151.725145 C197.185336,149.318208 199.866453,146.322543 200.969726,144.89711 L207.464839,136.510116 L223.33472,165.239017 L220.852139,168.775723 C219.243817,171.068208 217.138282,173.721387 214.594748,176.662428 C213.208473,178.280347 211.651527,180.050867 209.895173,182.006069 L237.995964,216.528613 L197.103483,216.528613 L187.551948,204.85896 C176.689897,214.178902 165.192179,218.893931 153.287809,218.893931 L153.287809,218.893931 Z M143.402767,184.424277 C146.273714,187.141618 149.223901,188.463006 152.417905,188.463006 C155.382895,188.463006 160.26272,187.023699 167.517149,180.826012 L151.625499,161.571387 C145.791304,165.82341 143.006565,168.449711 141.677761,169.974855 C140.124298,171.799133 139.344954,173.609538 139.344954,175.451156 C139.344954,178.621965 140.672887,181.557803 143.402767,184.424277 L143.402767,184.424277 Z M158.828553,108.014451 C156.795292,108.014451 155.773873,108.700289 155.112083,109.296821 L154.981467,109.412139 C154.357992,109.94711 153.99662,110.485549 153.99662,111.652601 C153.99662,113.594798 154.879586,115.615029 156.696895,117.826879 L157.958648,119.343353 C158.786755,118.680925 159.552167,118.051445 160.243563,117.46185 C162.026911,115.931503 162.660835,115.145087 162.813221,114.940462 L162.905523,114.815607 L163.00305,114.695087 C163.356584,114.261561 163.825062,113.498555 163.825062,111.885838 C163.825062,110.320809 163.332203,109.647977 162.799288,109.153757 C162.506708,108.884104 161.561917,108.014451 158.828553,108.014451 L158.828553,108.014451 Z" id="Shape" fill="#000000"></path>
                <path d="M159.067145,85.8612717 C167.46229,85.8612717 174.406724,88.3566474 179.896962,93.3534682 C185.38633,98.349422 188.131885,104.654624 188.131885,112.281214 C188.131885,117.533815 186.630668,122.297399 183.619527,126.553757 C180.663245,130.814451 175.304493,135.908382 167.545885,141.854624 L189.558215,168.35 L190.273992,167.558382 C192.644243,164.988439 194.894326,162.465318 197.002473,159.987283 C199.116716,157.519653 204.532068,151.656647 206.486958,149.132659 L215.142465,164.802023 C213.66563,166.907225 211.724672,169.351445 209.316107,172.135549 C206.921475,174.930058 204.055753,178.132948 200.725909,181.756358 L223.383483,209.592197 L200.412429,209.592197 L188.21635,194.691908 C177.016437,206.212428 165.375913,211.957514 153.287809,211.957514 C142.461459,211.957514 133.277392,208.522254 125.724286,201.630058 C118.335757,194.691908 114.635833,186.124566 114.635833,175.916763 C114.635833,163.777168 120.496151,153.682948 132.22027,145.636705 L140.220954,140.196821 C140.324577,140.146532 140.511793,140.015607 140.773026,139.802312 C141.035129,139.592486 141.404338,139.30289 141.882394,138.93526 C133.805952,130.367919 129.764684,121.929769 129.764684,113.618208 C129.764684,105.41763 132.458863,98.7456647 137.841125,93.5910405 C143.335718,88.4407514 150.411638,85.8612717 159.067145,85.8612717 L159.067145,85.8612717 Z M156.851022,128.919075 L158.356592,127.816185 C160.942795,125.873988 163.079678,124.174566 164.773336,122.730925 C166.461769,121.282948 167.676501,120.058671 168.415789,119.061561 C169.996247,117.119364 170.791264,114.726301 170.791264,111.885838 C170.791264,108.682081 169.706278,106.079191 167.545885,104.077168 C165.375913,102.07948 162.472748,101.078035 158.828553,101.078035 C155.503932,101.078035 152.707002,102.107225 150.435149,104.156936 C148.166779,106.102601 147.030417,108.598844 147.030417,111.652601 C147.030417,115.224855 148.451523,118.745087 151.305054,122.218497 L155.896652,127.737283 C156.060358,127.997399 156.378191,128.392775 156.851022,128.919075 L156.851022,128.919075 Z M152.417905,195.399422 C159.539976,195.399422 167.756612,190.742486 177.048656,181.448555 L152.895089,152.182948 L151.861479,152.895665 C144.309245,158.101445 139.159479,162.278035 136.414795,165.430636 C133.725841,168.587572 132.378751,171.930925 132.378751,175.451156 C132.378751,180.499133 134.412883,185.117919 138.472437,189.327457 C142.700052,193.378324 147.343897,195.399422 152.417905,195.399422 L152.417905,195.399422 Z M159.067145,71.9884393 C146.788342,71.9884393 136.433952,75.8580925 128.292203,83.4890173 L128.238215,83.5401734 L128.184227,83.5913295 C120.103431,91.3289017 115.832278,101.712717 115.832278,113.618208 C115.832278,121.108671 117.94565,128.518497 122.135821,135.768786 C104.490429,148.878613 100.703427,164.730058 100.703427,175.916763 C100.703427,189.843353 106.050859,202.223988 116.165785,211.722543 L116.23806,211.79104 L116.311205,211.857803 C126.471412,221.129191 138.911308,225.830347 153.287809,225.830347 C164.84474,225.830347 175.961058,222.037861 186.480024,214.530058 L193.794537,223.465029 L252.609316,223.465029 L219.01132,182.189017 L219.899511,181.15896 C222.620684,178.009827 224.801105,175.259538 226.562684,172.749422 L231.526974,165.676879 L208.44272,123.887572 L195.453364,140.661561 C194.514668,141.872832 191.774338,144.937861 189.916103,147.016185 L187.045157,143.560983 C190.405479,140.358092 193.056119,137.350289 195.048453,134.48815 C199.703618,127.885549 202.06429,120.414162 202.06429,112.281214 C202.06429,100.801445 197.648588,90.7150289 189.296982,83.1135838 C181.184839,75.7315029 171.014183,71.9884393 159.067145,71.9884393 L159.067145,71.9884393 Z M146.992103,174.460116 C147.474513,173.91474 148.503769,172.865607 150.538771,171.179191 L157.475368,179.583526 C154.343189,181.437283 152.702648,181.52659 152.417905,181.52659 C151.838839,181.52659 150.505682,181.52659 148.333097,179.520231 C146.356437,177.39422 146.312028,176.084104 146.311157,175.490173 C146.345988,175.399133 146.497503,175.051445 146.992103,174.460116 L146.992103,174.460116 Z" id="Shape" fill="#FFFFFF"></path>
                <path d="M197.078231,126.712428 C201.399018,127.149422 205.411551,127.396532 209.077515,127.466763 C212.762636,127.545665 216.840477,127.578613 221.311038,127.578613 C225.63705,127.578613 230.037948,127.545665 234.508509,127.466763 C238.97907,127.396532 243.384322,127.149422 247.705109,126.712428 L247.705109,129.29711 C244.534616,129.584971 241.509543,130.525723 238.619439,132.099422 C235.738044,133.681792 234.297781,136.267341 234.297781,139.853468 C234.297781,142.730347 235.22864,146.57659 237.107773,151.382659 C238.97907,156.196532 241.176907,161.365029 243.703026,166.892486 C246.227404,172.433815 248.827539,178.059249 251.492982,183.81474 C254.16365,189.560694 256.290954,194.868786 257.872282,199.749422 C258.601992,198.323121 259.719197,195.949133 261.233475,192.643064 C262.749495,189.336994 264.480596,185.564451 266.425038,181.336705 C268.37035,177.100289 270.325241,172.67659 272.260974,168.084682 C274.225443,163.488439 276.020982,159.181792 277.685905,155.153468 C279.332541,151.134682 280.697917,147.619653 281.782903,144.59711 C282.876596,141.579769 283.410382,139.57341 283.410382,138.56763 C283.410382,136.839595 283.016791,135.475723 282.222644,134.470809 C281.426755,133.464162 280.45497,132.634393 279.295097,131.987572 C278.143932,131.350289 276.778557,130.846532 275.178942,130.484104 C273.608064,130.130347 272.074628,129.729769 270.643074,129.29711 L270.643074,126.712428 C273.964211,127.149422 277.284477,127.396532 280.594294,127.466763 C283.915431,127.545665 287.301006,127.578613 290.771046,127.578613 C294.082604,127.578613 297.336692,127.545665 300.508056,127.466763 C303.677678,127.396532 306.923058,127.149422 310.244195,126.712428 L310.244195,129.29711 C306.212505,129.873699 302.274859,132.350867 298.449543,136.727746 C294.624227,141.115029 291.098457,146.106647 287.862656,151.713006 C284.606827,157.309827 281.745459,162.804335 279.295097,168.186994 C276.843865,173.569653 274.973439,177.556358 273.673372,180.144509 C267.622354,192.643064 262.141694,203.343353 257.231392,212.256647 C252.325443,221.159538 247.882748,228.59104 243.922461,234.552023 C239.950855,240.511272 236.345845,245.223699 233.10569,248.670231 C229.859439,252.115029 226.755125,254.732659 223.794489,256.530058 C220.839078,258.32659 217.954199,259.472832 215.14769,259.98526 C212.336827,260.47948 209.414505,260.730058 206.379853,260.730058 C203.779718,260.730058 201.225734,260.366763 198.701356,259.649711 C196.17959,258.933526 193.935602,257.824566 191.994644,256.315029 C190.044978,254.807225 188.454942,252.897977 187.224537,250.607225 C186.008934,248.297399 185.391555,245.577457 185.391555,242.421387 C185.391555,239.542775 186.439097,236.953757 188.52025,234.663006 C190.61969,232.362717 193.103141,231.208671 195.993245,231.208671 C199.313511,231.208671 201.97373,232.036705 204.003507,233.694509 C206.019352,235.342775 207.019873,237.884971 207.019873,241.340173 C207.019873,243.780925 206.445161,245.828902 205.293996,247.485838 C204.144573,249.126301 203.563765,250.30896 203.563765,251.035549 C203.563765,251.901734 204.611308,252.43237 206.707264,252.655202 C208.792771,252.869364 210.84606,252.972543 212.874966,252.972543 C217.195753,252.972543 221.451233,251.211561 225.63705,247.691329 C229.817642,244.171965 233.526274,240.147977 236.776879,235.63237 C240.026612,231.105491 242.655483,226.793642 244.680036,222.704624 C246.700235,218.607803 247.705109,215.981503 247.705109,214.836127 C247.705109,214.406936 247.20006,212.926879 246.194314,210.421098 C245.179861,207.917052 243.814485,204.675145 242.088608,200.717919 C240.34967,196.777168 238.399133,192.363873 236.237869,187.474566 C234.077475,182.58526 231.917952,177.741908 229.756688,172.936705 C227.586716,168.116763 225.421968,163.447688 223.251996,158.926012 C221.091602,154.399133 219.220306,150.557225 217.631141,147.396821 C216.190008,144.099422 214.960473,141.44104 213.950374,139.424277 C212.941145,137.412717 211.71074,135.796532 210.279185,134.577457 C208.834569,133.360983 207.099113,132.38815 205.084139,131.666763 C203.058716,130.949711 200.388918,130.162428 197.078231,129.29711 L197.078231,126.712428" id="Shape" fill="#000000"></path>
                <path d="M315.733563,161.611272 C315.733563,169.090462 316.707089,175.265607 318.642823,180.144509 C320.606421,185.024277 323.048076,188.908671 326.012195,191.776879 C328.968477,194.654624 332.13897,196.666185 335.534123,197.811561 C338.919698,198.966474 342.053618,199.544798 344.942851,199.544798 C351.003447,199.544798 356.484107,198.566763 361.375252,196.628902 C366.286425,194.691908 370.831002,191.637283 375.022044,187.474566 L378.697586,190.920231 C372.786763,197.243642 366.726167,202.048844 360.525376,205.354913 C354.314135,208.660983 346.888163,210.318786 338.23701,210.318786 C332.017932,210.318786 326.470223,209.090173 321.569499,206.649422 C316.660068,204.209538 312.478604,200.978035 309.018143,196.954913 C305.557682,192.932659 302.929682,188.332081 301.124565,183.162717 C299.319447,177.993353 298.41297,172.67659 298.41297,167.218497 C298.41297,161.761272 299.319447,156.442775 301.124565,151.27948 C302.929682,146.106647 305.557682,141.510405 309.018143,137.487283 C312.478604,133.464162 316.660068,130.232659 321.569499,127.791908 C326.470223,125.35289 332.017932,124.127746 338.23701,124.127746 C349.629364,124.127746 358.795145,127.215318 365.725646,133.389595 C372.63699,139.57341 376.883761,148.979191 378.482505,161.611272 L315.733563,161.611272 L315.733563,161.611272 Z M357.933948,155.153468 C357.485499,151.27948 356.91427,147.796532 356.185431,144.704624 C355.474008,141.617919 354.314135,139.033237 352.733678,136.951445 C351.134934,134.865318 349.039849,133.287283 346.458,132.216474 C343.857865,131.131792 340.537598,130.590751 336.506779,130.590751 C333.476481,130.590751 330.689129,131.350289 328.173459,132.853757 C325.638632,134.358092 323.486946,136.304624 321.6827,138.669942 C319.876712,141.045665 318.502628,143.698844 317.557837,146.641618 C316.622624,149.588728 316.163726,152.430058 316.163726,155.153468 L357.933948,155.153468 L357.933948,155.153468 Z" id="Shape" fill="#000000"></path>
                <path d="M372.506374,134.25578 L372.506374,130.804913 C377.117129,130.665318 381.08264,129.515607 384.422064,127.359249 C387.732751,125.208092 390.603698,122.474277 393.064509,119.169075 C395.514,115.867341 397.572513,112.202312 399.236565,108.183526 C400.883201,104.169942 402.369614,100.291618 403.669682,96.5520231 L406.690402,96.5520231 L406.690402,127.791908 L436.340302,127.791908 L436.340302,134.25578 L406.690402,134.25578 L406.690402,184.457225 C406.690402,186.329191 406.81231,188.154335 407.028262,189.951734 C407.233765,191.749133 407.672636,193.360116 408.318751,194.803757 C408.963996,196.237861 409.899209,197.383237 411.133968,198.249422 C412.359149,199.106936 414.051936,199.544798 416.221038,199.544798 C420.551404,199.544798 424.15293,198.603179 427.033455,196.740751 C429.923559,194.868786 432.804083,192.512139 435.703765,189.625723 L437.639499,191.776879 C435.190008,193.937572 432.804083,196.136416 430.503495,198.351734 C428.193328,200.587861 425.78041,202.598555 423.263869,204.386416 C420.729913,206.184682 417.989583,207.617919 415.034171,208.688728 C412.069181,209.769942 408.860374,210.318786 405.399913,210.318786 C399.330608,210.318786 395.224903,208.484971 393.064509,204.824277 C390.893666,201.154913 389.80868,196.80578 389.80868,191.776879 L389.80868,134.25578 L372.506374,134.25578" id="Shape" fill="#000000"></path>
                <g transform="translate(274.440358, 212.358382)" fill="#000000">
                    <path d="M33.7371555,40.3927746 L42.6839083,40.3927746 L46.3309923,31.4460217 L63.1987555,31.4460217 L66.8458395,40.3927746 L76.0205351,40.3927746 L58.924829,0.21786541 L50.8328615,0.21786541 L33.7371555,40.3927746 Z M49.465205,23.6959683 L54.7648739,10.7602175 L60.0645428,23.6959683 L49.465205,23.6959683 Z" id="A"></path>
                    <path d="M0.200590927,40.3927746 L28.8643914,40.3927746 L28.8643914,32.4147784 L8.97638669,32.4147784 L8.97638669,0.502793844 L0.200590927,0.502793844 L0.200590927,40.3927746 Z" id="L"></path>
                    <path d="M138.768965,40.9626314 C147.373804,40.9626314 153.414287,36.5177479 153.414287,28.5967374 L153.414287,28.482766 C153.414287,21.5305123 148.855432,18.6242422 140.763464,16.5157718 C133.868196,14.7492155 132.158626,13.8944302 132.158626,11.2730886 L132.158626,11.1591173 C132.158626,9.22160392 133.925182,7.68299037 137.287337,7.68299037 C140.649493,7.68299037 144.12562,9.16461823 147.658732,11.6150028 L152.217587,5.0046631 C148.171604,1.75647895 143.213849,-0.0670630239 137.401309,-0.0670630239 C129.252356,-0.0670630239 123.439816,4.71973466 123.439816,11.9569169 L123.439816,12.0708883 C123.439816,19.9918987 128.625513,22.2143405 136.660495,24.2658252 C143.32782,25.9753958 144.695477,27.1151096 144.695477,29.3375513 L144.695477,29.4515227 C144.695477,31.7879359 142.530021,33.212578 138.939922,33.212578 C134.381067,33.212578 130.620012,31.3320504 127.029914,28.3687947 L121.844216,34.5802345 C126.631014,38.854161 132.728483,40.9626314 138.768965,40.9626314 L138.768965,40.9626314 Z" id="S"></path>
                    <path d="M82.6525671,40.3927746 L101.628801,40.3927746 C110.632539,40.3927746 116.559051,36.7456906 116.559051,29.4515227 L116.559051,29.3375513 C116.559051,23.9808968 113.709766,21.3025695 109.093926,19.5360132 C111.94321,17.940414 114.336609,15.4330438 114.336609,10.9311745 L114.336609,10.8172031 C114.336609,8.08189018 113.424838,5.8594484 111.601296,4.03590642 C109.321868,1.75647895 105.73177,0.502793844 101.172915,0.502793844 L82.6525671,0.502793844 L82.6525671,40.3927746 Z M91.2004201,16.6297432 L91.2004201,8.19586155 L99.8622445,8.19586155 C103.566314,8.19586155 105.617799,9.67748941 105.617799,12.298831 L105.617799,12.4128024 C105.617799,15.3760581 103.167414,16.6297432 99.2923876,16.6297432 L91.2004201,16.6297432 Z M91.2004201,32.6997069 L91.2004201,23.9239111 L101.343872,23.9239111 C105.845742,23.9239111 107.840241,25.576496 107.840241,28.2548233 L107.840241,28.3687947 C107.840241,31.3320504 105.503827,32.6997069 101.628801,32.6997069 L91.2004201,32.6997069 Z" id="B"></path>
                </g>
            </g>
        </g>
    </g>
</svg>