<svg xmlns="http://www.w3.org/2000/svg" viewBox="0 0 556 301"><path d="M125.6 140.6c.8.9 2.2 1 3 .1 2.7-3 8.4-9.3 11-12.4 3-3.5 10.1-11.3 14.1-16.1.9-1.1 2.6-.9 3.3.4l11.9 21.6c.8 1.4.7 3-.2 4.3-2.3 3.1-5 6.5-8.4 10.4-3.7 4.4-8.2 9.3-13.3 14.9-.7.7-.7 1.9-.1 2.7l34.4 42.4c1.1 1.3.1 3.3-1.6 3.3h-32.5c-1.2 0-2.4-.5-3.1-1.5l-17.9-22c-.7-.9-2.1-.9-3-.1-18.4 18.4-37.4 27.6-57.2 27.6-18.2 0-33.7-5.8-46.4-17.5C7.2 187 1 172.5 1 155.2c0-20.5 9.9-37.6 29.6-51.2 0 0 10.3-7.1 14.5-10.1 1-.7 1-2 .2-2.9-12.5-13.8-18.8-27.5-18.8-41.1 0-13.9 4.5-25.1 13.6-33.8C49.3 7.4 61.2 3 75.8 3c14.1 0 25.8 4.2 35.1 12.7 9.2 8.5 13.9 19.1 13.9 32 0 8.9-2.5 16.9-7.6 24.1-4.8 6.9-13.2 15.1-25.4 24.6-.9.7-1.1 2-.4 2.9l34.2 41.3zm-59-24c-.7-.8-1.8-1-2.7-.4-5.2 3.9-22.3 16.8-26.2 21.3-4.5 5.3-6.8 11-6.8 16.9 0 8.5 3.4 16.4 10.3 23.5 7.1 6.8 14.9 10.3 23.5 10.3 11.6 0 25-7.4 40.1-22.2.8-.7.8-2 .2-2.8l-38.4-46.6zm18.8-51.3c2.8-2.4 4.9-4.5 6.1-6.2 2.7-3.3 4-7.3 4-12.1 0-5.4-1.8-9.8-5.5-13.2-3.6-3.4-8.5-5.1-14.7-5.1-5.6 0-10.3 1.7-14.1 5.2-3.8 3.3-5.7 7.5-5.7 12.7 0 6 2.4 12 7.2 17.9 0 0 5.5 6.7 8.1 9.8.7.8 1.9 1 2.8.3l11.8-9.3z"/><path d="M331.6 80.9v-4.2c0-1-.8-1.8-1.8-1.8h-57.3c-1 0-1.8.8-1.8 1.8v4.2c0 1 .8 1.8 1.8 1.8 4.5 0 7.9 1.6 9.8 4.5 2.7 4.1 2.5 10.7-.6 18.1-1.6 3.8-24.1 56-34.2 79.3-.5 1.2-1.7 1.9-3 2-1.4 0-2.5-.8-3-2.1-10.1-24.7-31.5-82.8-32.8-86.8-1.1-3.4 0-6.3 1.2-8.1 2.4-3.7 7.2-6.5 11.9-6.9.9-.1 1.6-.8 1.6-1.8v-4.2c0-1-.8-1.8-1.8-1.8H150c-1 0-1.8.8-1.8 1.8v4.2c0 .8.5 1.5 1.3 1.7 5.2 1.4 17.7 5.6 22.7 15.7 1.5 3.1 49.7 111.5 51.5 116.1 2.1 5.2 2.3 6.4 2.3 6.6 0 .7-.5 3.4-4.7 12.1-10.3 20.8-25.2 45-49.3 47-6.2.5-7.3-4.3-8.4-12.4-.5-3.5-.9-6.8-2.2-9.3-2.3-4.5-6.7-7.6-12.1-8.5-5.5-1-10.9.5-14.6 4-7.3 6.8-7.5 18.8-3.4 26.4 4 7.5 11.5 13 21.5 15.7 4.8 1.3 9.9 1.9 15.2 1.9 10.5 0 21.2-2.6 29-7.3 13.5-8.2 24-22.4 33.4-36.5 16.3-24.6 28.3-51.6 40-77.7 8.6-19.3 17.5-39.2 28.1-58 13.3-23.7 22.8-34.5 31.6-35.8.8 0 1.5-.8 1.5-1.7zM388 70.7c-27.7 0-52.7 18.3-62.2 45.6-12.6 36.2 2.4 77 34.2 92.8 8.2 4.1 17.6 6.2 27.9 6.2h.2c32.9 0 58.8-25.6 60.2-29 .5-1.2-.2-2-.4-2.2-.1-.1-6-5.6-6-5.6-.6-.6-1.6-.6-2.3-.1-.2.2-21.2 15.6-41.9 15.6-2.8 0-5.7-.3-8.5-1-14-3.3-25.2-13.8-31.5-29.5-2.6-6.7-4.1-14.9-4.5-24.5 0-.9.3-1.7.9-2.4s1.5-1 2.4-1h87.6c2 0 3.9-.9 5.3-2.5 1.3-1.5 1.8-3.5 1.5-5.5-6.5-36.7-28.8-56.9-62.9-56.9zm28 48.9c-1.1 1.2-2.6 2-4.2 2h-53.4c-1 0-2-.5-2.6-1.2-.6-.8-.9-1.8-.6-2.8 2.4-10.6 5.1-19.9 13.8-26.2 5.7-4.1 12.8-6.4 19.8-6.4 2.2 0 4.4.2 6.5.7 11.9 2.6 19.2 12.6 22 29.7.1 1.4-.3 2.9-1.3 4.2zm137.3 58.9l-1.6-4.1c-.2-.5-.6-.9-1.2-1.1-.5-.2-1.1-.1-1.5.3-.1.1-13 9.6-17.7 12.6-6.1 3.9-12.5 5.4-17.3 3.9-3.5-1.1-6.1-3.8-7.7-7.9-4.6-12-3.1-56.2-2.3-80 .2-6.8.4-12.2.4-15.3 0-1.8 1.5-3.3 3.3-3.3H551c1 0 1.8-.8 1.8-1.8V68.6c0-1-.8-1.8-1.8-1.8h-43.3c-1.8 0-3.3-1.5-3.3-3.3v-46c0-1-.8-1.8-1.8-1.8h-11.2c-.9 0-1.6.7-1.7 1.5-6.7 52.4-32 53.2-42.9 53.5-1 0-1.7.8-1.7 1.8v9.3c0 1 .8 1.8 1.8 1.8H470c1.8 0 3.3 1.5 3.3 3.3v85.3c0 1.5 0 3.1-.1 4.7-.2 7.5-.3 15.3 2.6 22.2 3.9 9.3 10.1 14.8 18.4 16.3 1.6.3 3.1.4 4.8.4 20.9 0 46.6-22.1 55.3-31.3 1-.9 1-.9-1-6z"/></svg>