<?xml version="1.0" encoding="UTF-8" standalone="no"?>
<svg width="146px" height="100px" viewBox="0 0 146 100" version="1.1" xmlns="http://www.w3.org/2000/svg" xmlns:xlink="http://www.w3.org/1999/xlink" xmlns:sketch="http://www.bohemiancoding.com/sketch/ns">
    <!-- Generator: Sketch 3.0.3 (7891) - http://www.bohemiancoding.com/sketch -->
    <title>Untitled 2</title>
    <desc>Created with Sketch.</desc>
    <defs></defs>
    <g id="Page-1" stroke="none" stroke-width="1" fill="none" fill-rule="evenodd" sketch:type="MSPage">
        <g id="andyet-labs" sketch:type="MSLayerGroup">
            <g id="Group" transform="translate(0.424938, -0.416185)" sketch:type="MSShapeGroup">
                <path d="M66.6328907,89.4923892 C65.7658887,89.4923892 64.9148509,89.3712909 64.0731014,89.1322736 C63.9056223,89.0845857 63.742497,89.0305395 63.5825646,88.972447 C62.2946879,93.3845857 60.4027833,95.6906551 58.1712763,96.1504817 C58.0209225,96.1814066 57.8662147,96.2025048 57.7117972,96.2134875 C54.4040119,96.4527938 49.9299682,92.1597303 45.7435706,84.7285164 C44.7813638,83.0210019 43.8496342,81.1793834 42.9524453,79.2262042 C46.1275825,76.9611753 49.3866044,74.3588632 52.654334,71.4762042 L50.2152922,66.3493256 L50.2152922,65.6565511 C48.0665089,64.9941233 45.9040835,64.273025 43.7431093,63.4929672 C41.2410815,62.5897881 38.7962346,61.6322736 36.4230815,60.6296724 C35.7656461,58.1449904 35.1636501,55.5975915 34.6246402,53.005395 C34.1198807,50.5759152 33.682171,48.1629094 33.3109304,45.7828516 C34.8867435,43.955395 36.5362823,42.1348748 38.2514195,40.3354528 C40.3877217,38.0947013 42.5649503,35.9510597 44.7595944,33.9207129 C46.5676143,34.4455684 48.3895666,35.0184008 50.2152922,35.6282274 L50.2152922,31.4701349 C49.5476978,31.2530829 48.8806839,31.039499 48.2162823,30.8331407 C50.7734592,28.6267823 53.3381829,26.5863198 55.8756223,24.7461464 C56.9963101,27.4949904 58.0476262,30.4204239 59.0150577,33.4805395 L63.6397455,35.0923892 C62.3254553,30.6019268 60.8338171,26.3435453 59.2034354,22.43921 C59.3775905,22.3236031 59.552326,22.2045279 59.7261909,22.0915222 C66.3792048,17.7522158 72.3602704,15.1955684 76.5678569,14.8912331 C78.6173718,14.7429672 80.143841,15.1285164 81.1051769,16.0371869 C83.5143221,18.3137765 82.7642942,24.3007707 79.0986203,32.0525048 C78.2052048,33.9415222 77.1637575,35.8918112 75.9893718,37.8831407 L80.6689185,37.6545279 C81.4000795,36.3253372 82.0743499,35.0152216 82.6809901,33.7319846 C88.526505,21.3701349 86.5333002,15.7308285 83.830994,13.1776493 C82.0281988,11.473025 79.4878569,10.7267823 76.2807913,10.9585742 C71.2308748,11.3238921 64.6939642,14.1212909 57.576827,18.7597303 C56.7228867,16.9360308 55.8381789,15.2082852 54.9276382,13.5921002 C49.7476859,4.39874759 44.31666,-0.265414258 39.2194314,0.103082852 C38.8923101,0.126782274 38.5640278,0.172447013 38.2444533,0.23805395 C34.5959046,0.989788054 29.9166481,4.73400771 28.3376421,18.3068401 C28.048835,20.7906551 27.887161,23.4470135 27.8488469,26.238343 C22.973666,25.6022158 18.4798847,25.4074181 14.5628469,25.6906551 C4.81945129,26.3952794 1.5424334,29.9267823 0.509403579,32.7655106 C-0.760186879,36.2527938 -0.0104493042,42.1842967 10.77033,50.6366089 C13.4723459,52.755395 16.5752087,54.8415222 19.994163,56.8513487 C17.838994,60.171869 16.000497,63.4195568 14.5358529,66.5175337 C8.69033797,78.8796724 10.6835427,84.5186898 13.3849781,87.072158 C15.1880636,88.7767823 17.7284056,89.522736 20.9357614,89.2906551 C25.9853877,88.9256262 32.5228787,86.1279383 39.6403062,81.488632 C40.4942465,83.3131985 41.3792445,85.0412331 42.2897853,86.6579961 C47.4694473,95.8501927 52.9010537,100.515222 57.9985726,100.146435 C58.3254036,100.123025 58.6533956,100.07736 58.9729702,100.011464 C61.8810696,99.4126204 65.4437018,97.3282274 67.5695547,89.4652216 C67.2604294,89.4814066 66.9489821,89.4923892 66.6328907,89.4923892 L66.6328907,89.4923892 Z M35.3796024,37.6207129 C34.4348111,38.6117534 33.5100477,39.6097303 32.6044414,40.6117534 C32.2120119,37.256262 31.9612286,33.9938343 31.8561551,30.8712909 C34.5813917,31.3582852 37.4038648,31.9701349 40.2861312,32.7016378 C38.6412366,34.2767823 37.0024374,35.9184008 35.3796024,37.6207129 L35.3796024,37.6207129 Z M32.2712247,18.7605973 C33.2612962,10.2504817 35.7938012,4.76926782 39.0464374,4.09932563 C39.1970815,4.06868979 39.3512087,4.04701349 39.5059165,4.03574181 C42.8134115,3.79672447 47.287165,8.09007707 51.4735626,15.5212909 C52.4357694,17.2285164 53.367499,19.0695568 54.2643976,21.022447 C50.8172883,23.4816956 47.2709105,26.3342967 43.7219205,29.5169557 C39.616505,28.388343 35.6155825,27.4897881 31.8018767,26.8360308 C31.8242266,23.9831407 31.9783539,21.2764933 32.2712247,18.7605973 L32.2712247,18.7605973 Z M30.7467873,53.8039499 C31.0817455,55.4163776 31.4410855,57.0123314 31.8227753,58.58921 C29.6937296,57.5964355 27.6401511,56.5695568 25.6748111,55.5163776 C27.0117416,53.6244701 28.4482306,51.7155106 29.972668,49.805106 C30.2115507,51.1322736 30.4690099,52.4660886 30.7467873,53.8039499 L30.7467873,53.8039499 Z M13.2198211,47.538921 C6.46028231,42.238921 3.1002505,37.2184008 4.23196819,34.1088632 C5.11522465,31.6825626 8.98553082,30.0473025 14.8496223,29.6233141 C18.6073082,29.3516378 23.0378131,29.5741811 27.8772922,30.2397881 C27.99833,34.7842967 28.4200755,39.6166667 29.131499,44.5964355 C26.6152485,47.5912331 24.2949225,50.6019268 22.2085447,53.5759152 C18.8667992,51.6210019 15.8417256,49.5947013 13.2198211,47.538921 L13.2198211,47.538921 Z M37.4903618,78.1582852 C30.8370577,82.4973025 24.8562823,85.0539499 20.6489861,85.3582852 C18.5994712,85.5065511 17.0724215,85.1207129 16.111666,84.2129094 C13.7031014,81.9357418 14.452839,75.9487476 18.1179324,68.1975915 C19.5399085,65.1915222 21.3348668,62.0319846 23.4459165,58.7952794 C26.4782465,60.4342967 29.7125964,62.0100193 33.1010736,63.4952794 C34.5265328,68.5993256 36.1827475,73.4270713 38.0139881,77.8100193 C37.8392525,77.9256262 37.6645169,78.0447013 37.4903618,78.1582852 L37.4903618,78.1582852 Z M41.3418012,75.5025048 C40.0620517,72.3637765 38.8722823,68.9941233 37.7948429,65.4565511 C39.3056382,66.0568401 40.8393638,66.63921 42.3934076,67.1999037 C44.60866,67.9996146 46.8146243,68.7377649 49.0008509,69.4157996 C46.443674,71.621869 43.8789503,73.6629094 41.3418012,75.5025048 L41.3418012,75.5025048 Z" id="Shape" fill="#000000"></path>
                <path d="M51.0959364,72.9646435 C46.9031531,72.9646435 43.2842107,71.6019268 40.3392485,68.9143545 L40.3151571,68.8921002 C37.3789026,66.1348748 35.8898767,62.6854528 35.8898767,58.638921 C35.8898767,53.804817 38.1997535,49.7684008 42.7556501,46.6418112 L43.8928827,45.8686898 C41.926672,43.2296724 40.932827,40.5487476 40.932827,37.872736 C40.932827,34.5004817 42.0784771,31.6938343 44.3375586,29.5305395 C46.624505,27.3866089 49.5404414,26.3082852 53.0223817,26.3082852 C56.4067952,26.3082852 59.2696143,27.3522158 61.5321789,29.4108863 C63.854827,31.5250482 65.0326958,34.222158 65.0326958,37.4270713 C65.0326958,39.6594412 64.3839682,41.7079961 63.1047992,43.5160886 C62.2560835,44.739499 60.9481789,46.0935453 59.1381272,47.6169557 L63.2571849,52.5747592 C63.47633,52.3241811 63.6887992,52.0779383 63.8960437,51.8345857 C64.1607594,51.5250482 64.5662505,51.071869 65.0106362,50.5750482 C65.7284453,49.772736 66.6221511,48.7741811 66.9899085,48.2990366 L69.1549463,45.5033719 L74.4449066,55.0796724 L73.6173797,56.2585742 C73.0812724,57.022736 72.3794274,57.9071291 71.5315825,58.8874759 C71.0694911,59.4267823 70.5505089,60.0169557 69.9650577,60.6686898 L79.3319881,72.1762042 L65.701161,72.1762042 L62.5173161,68.2863198 C58.8966322,71.3929672 55.0640596,72.9646435 51.0959364,72.9646435 L51.0959364,72.9646435 Z M47.8009225,61.4747592 C48.7579046,62.3805395 49.7413002,62.8210019 50.8059682,62.8210019 C51.7942982,62.8210019 53.4209066,62.3412331 55.8390497,60.2753372 L50.541833,53.8571291 C48.5971014,55.2744701 47.6688549,56.1499037 47.2259205,56.6582852 C46.7080994,57.2663776 46.4483181,57.8698459 46.4483181,58.4837187 C46.4483181,59.5406551 46.8909622,60.5192678 47.8009225,61.4747592 L47.8009225,61.4747592 Z M52.9428509,36.004817 C52.2650974,36.004817 51.9246243,36.2334297 51.7040278,36.4322736 L51.6604891,36.4707129 C51.452664,36.6490366 51.3322068,36.8285164 51.3322068,37.2175337 C51.3322068,37.8649326 51.6265288,38.538343 52.2322982,39.2756262 L52.6528827,39.7811175 C52.9289185,39.5603083 53.1840557,39.3504817 53.4145209,39.1539499 C54.0089702,38.6438343 54.2202783,38.3816956 54.2710736,38.3134875 L54.301841,38.271869 L54.3343499,38.2316956 C54.4521948,38.0871869 54.6083539,37.8328516 54.6083539,37.2952794 C54.6083539,36.7736031 54.4440676,36.5493256 54.2664294,36.3845857 C54.1689026,36.2947013 53.8539722,36.004817 52.9428509,36.004817 L52.9428509,36.004817 Z" id="Shape" fill="#000000"></path>
                <path d="M53.0223817,28.6204239 C55.8207634,28.6204239 58.1355746,29.4522158 59.9656541,31.1178227 C61.7954433,32.7831407 62.7106282,34.8848748 62.7106282,37.4270713 C62.7106282,39.1779383 62.2102227,40.7657996 61.2065089,42.1845857 C60.2210815,43.604817 58.434831,45.3027938 55.8486282,47.2848748 L63.1860716,56.1166667 L63.424664,55.8527938 C64.2147475,54.9961464 64.9647753,54.155106 65.6674911,53.3290944 C66.3722386,52.5065511 68.1773559,50.5522158 68.8289861,49.7108863 L71.7141551,54.9340077 C71.2218767,55.6357418 70.5748907,56.4504817 69.7720358,57.3785164 C68.973825,58.3100193 68.0185845,59.3776493 66.9086362,60.5854528 L74.461161,69.8640655 L66.8041431,69.8640655 L62.7387833,64.8973025 C59.0054791,68.7374759 55.1253042,70.6525048 51.0959364,70.6525048 C47.4871531,70.6525048 44.4257972,69.5074181 41.9080954,67.2100193 C39.4452525,64.8973025 38.2119443,62.0415222 38.2119443,58.638921 C38.2119443,54.5923892 40.1653837,51.2276493 44.0734235,48.5455684 L46.7403181,46.7322736 C46.7748588,46.7155106 46.8372644,46.671869 46.9243419,46.6007707 C47.0117097,46.5308285 47.1347793,46.4342967 47.2941312,46.3117534 C44.6019841,43.455973 43.2548946,40.6432563 43.2548946,37.872736 C43.2548946,35.13921 44.1529543,32.9152216 45.9470417,31.1970135 C47.7785726,29.4802505 50.1372127,28.6204239 53.0223817,28.6204239 L53.0223817,28.6204239 Z M52.283674,42.973025 L52.7855308,42.605395 C53.6475984,41.9579961 54.3598926,41.3915222 54.9244453,40.9103083 C55.4872565,40.4276493 55.892167,40.0195568 56.1385964,39.6871869 C56.6654155,39.0397881 56.9304215,38.2421002 56.9304215,37.2952794 C56.9304215,36.2273603 56.5687594,35.3597303 55.8486282,34.6923892 C55.1253042,34.0264933 54.1575825,33.6926782 52.9428509,33.6926782 C51.8346441,33.6926782 50.902334,34.0357418 50.1450497,34.7189788 C49.3889264,35.3675337 49.0101392,36.1996146 49.0101392,37.2175337 C49.0101392,38.4082852 49.483841,39.5816956 50.4350179,40.739499 L51.9655507,42.5790944 C52.0201193,42.6657996 52.1260636,42.7975915 52.283674,42.973025 L52.283674,42.973025 Z M50.8059682,65.1331407 C53.179992,65.1331407 55.9188708,63.5808285 59.0162187,60.4828516 L50.9650298,50.7276493 L50.620493,50.9652216 C48.1030815,52.7004817 46.386493,54.0926782 45.4715984,55.1435453 C44.5752803,56.1958574 44.1262505,57.3103083 44.1262505,58.4837187 C44.1262505,60.1663776 44.8042942,61.705973 46.1574791,63.1091522 C47.5666839,64.4594412 49.1146322,65.1331407 50.8059682,65.1331407 L50.8059682,65.1331407 Z M53.0223817,23.9961464 C48.9294473,23.9961464 45.4779841,25.2860308 42.7640676,27.8296724 L42.7460716,27.8467245 L42.7280755,27.8637765 C40.0344771,30.4429672 38.6107594,33.9042389 38.6107594,37.872736 C38.6107594,40.3695568 39.3152167,42.839499 40.7119404,45.256262 C34.8301431,49.6262042 33.5678091,54.9100193 33.5678091,58.638921 C33.5678091,63.2811175 35.3502863,67.4079961 38.7219284,70.5741811 L38.7460199,70.5970135 L38.7704016,70.6192678 C42.1571372,73.7097303 46.3037694,75.2767823 51.0959364,75.2767823 C54.9482465,75.2767823 58.6536859,74.0126204 62.160008,71.5100193 L64.5981789,74.488343 L84.2031054,74.488343 L73.0037734,60.7296724 L73.299837,60.3863198 C74.2068946,59.3366089 74.9337018,58.4198459 75.5208946,57.5831407 L77.1756581,55.2256262 L69.4809066,41.2958574 L65.1511213,46.8871869 C64.8382227,47.2909441 63.9247793,48.3126204 63.3053678,49.005395 L62.3483857,47.8536609 C63.468493,46.7860308 64.3520398,45.7834297 65.0161511,44.8293834 C66.5678728,42.6285164 67.3547634,40.1380539 67.3547634,37.4270713 C67.3547634,33.6004817 65.8828628,30.238343 63.098994,27.7045279 C60.3949463,25.2438343 57.0047276,23.9961464 53.0223817,23.9961464 L53.0223817,23.9961464 Z M48.9973678,58.1533719 C49.158171,57.97158 49.5012565,57.621869 50.1795905,57.0597303 L52.4917893,59.8611753 C51.4477296,60.4790944 50.9008827,60.5088632 50.8059682,60.5088632 C50.6129463,60.5088632 50.1685606,60.5088632 49.4443658,59.8400771 C48.7854791,59.1314066 48.7706759,58.6947013 48.7703857,58.4967245 C48.781996,58.4663776 48.832501,58.3504817 48.9973678,58.1533719 L48.9973678,58.1533719 Z" id="Shape" fill="#FFFFFF"></path>
                <path d="M65.6927435,42.2374759 C67.133006,42.3831407 68.4705169,42.4655106 69.692505,42.488921 C70.9208787,42.5152216 72.280159,42.5262042 73.7703459,42.5262042 C75.2123499,42.5262042 76.6793161,42.5152216 78.169503,42.488921 C79.6596899,42.4655106 81.1281074,42.3831407 82.5683698,42.2374759 L82.5683698,43.0990366 C81.5115388,43.1949904 80.5031809,43.5085742 79.5398131,44.0331407 C78.5793479,44.5605973 78.0992604,45.422447 78.0992604,46.6178227 C78.0992604,47.5767823 78.4095467,48.8588632 79.0359245,50.4608863 C79.6596899,52.0655106 80.3923022,53.788343 81.2343419,55.6308285 C82.0758012,57.4779383 82.9425129,59.3530829 83.830994,61.27158 C84.7212167,63.1868979 85.4303181,64.956262 85.9574274,66.5831407 C86.200664,66.1077071 86.5730656,65.3163776 87.077825,64.2143545 C87.583165,63.1123314 88.1601988,61.854817 88.8083459,60.4455684 C89.4567833,59.0334297 90.1084135,57.5588632 90.7536581,56.0282274 C91.4084811,54.4961464 92.006994,53.0605973 92.5619682,51.7178227 C93.1108469,50.3782274 93.5659722,49.2065511 93.9276342,48.1990366 C94.2921988,47.1932563 94.4701272,46.5244701 94.4701272,46.18921 C94.4701272,45.6131985 94.3389304,45.1585742 94.0742147,44.8236031 C93.8089185,44.4880539 93.4849901,44.2114644 93.0983658,43.9958574 C92.7146441,43.7834297 92.2595189,43.6155106 91.7263141,43.4947013 C91.2026879,43.3767823 90.6915427,43.2432563 90.2143579,43.0990366 L90.2143579,42.2374759 C91.3214036,42.3831407 92.428159,42.4655106 93.5314314,42.488921 C94.6384771,42.5152216 95.767002,42.5262042 96.9236819,42.5262042 C98.0275348,42.5262042 99.1122306,42.5152216 100.169352,42.488921 C101.225893,42.4655106 102.307686,42.3831407 103.414732,42.2374759 L103.414732,43.0990366 C102.070835,43.2912331 100.758286,44.1169557 99.4831809,45.5759152 C98.2080755,47.038343 97.0328191,48.7022158 95.9542187,50.5710019 C94.8689423,52.4366089 93.9151531,54.2681118 93.0983658,56.0623314 C92.2812883,57.8565511 91.6578131,59.1854528 91.2244573,60.0481696 C89.2074513,64.2143545 87.3805646,67.7811175 85.7437972,70.7522158 C84.1084811,73.7198459 82.6275825,76.1970135 81.3074871,78.1840077 C79.9836183,80.1704239 78.7819483,81.7412331 77.7018966,82.8900771 C76.6198131,84.038343 75.5850417,84.9108863 74.598163,85.5100193 C73.6130258,86.1088632 72.6513996,86.4909441 71.7158966,86.6617534 C70.7789423,86.8264933 69.804835,86.9100193 68.7932843,86.9100193 C67.9265726,86.9100193 67.0752445,86.788921 66.2337853,86.5499037 C65.3931968,86.3111753 64.6452008,85.9415222 63.9982147,85.438343 C63.348326,84.9357418 62.8183141,84.2993256 62.4081789,83.5357418 C62.0029781,82.7657996 61.7971849,81.8591522 61.7971849,80.8071291 C61.7971849,79.8475915 62.1463658,78.9845857 62.8400835,78.2210019 C63.5398966,77.4542389 64.3677137,77.0695568 65.3310815,77.0695568 C66.437837,77.0695568 67.3245765,77.3455684 68.001169,77.8981696 C68.6731173,78.4475915 69.0066243,79.2949904 69.0066243,80.4467245 C69.0066243,81.2603083 68.8150537,81.9429672 68.431332,82.4952794 C68.0481909,83.0421002 67.8545885,83.4363198 67.8545885,83.6785164 C67.8545885,83.9672447 68.2037694,84.1441233 68.9024215,84.2184008 C69.5975905,84.2897881 70.2820199,84.3241811 70.9583221,84.3241811 C72.3985845,84.3241811 73.8170775,83.7371869 75.2123499,82.5637765 C76.6058807,81.3906551 77.8420915,80.0493256 78.9256262,78.5441233 C80.0088708,77.0351638 80.885161,75.5978805 81.5600119,74.2348748 C82.2334115,72.8692678 82.5683698,71.9938343 82.5683698,71.6120424 C82.5683698,71.4689788 82.4000199,70.9756262 82.0647714,70.1403661 C81.7266203,69.305684 81.271495,68.2250482 80.6962028,66.905973 C80.1165567,65.5923892 79.4663777,64.1212909 78.7459563,62.4915222 C78.025825,60.8617534 77.3059841,59.2473025 76.5855626,57.6455684 C75.8622386,56.038921 75.1406561,54.4825626 74.417332,52.9753372 C73.6972008,51.4663776 73.0734354,50.1857418 72.5437137,49.1322736 C72.063336,48.0331407 71.6534911,47.1470135 71.3167913,46.4747592 C70.9803817,45.8042389 70.5702465,45.2655106 70.0930616,44.8591522 C69.6115229,44.4536609 69.0330378,44.1293834 68.3613797,43.888921 C67.6862386,43.6499037 66.7963062,43.3874759 65.6927435,43.0990366 L65.6927435,42.2374759" id="Shape" fill="#000000"></path>
                <path d="M105.244521,53.8704239 C105.244521,56.3634875 105.56903,58.421869 106.214274,60.0481696 C106.868807,61.6747592 107.682692,62.9695568 108.670732,63.9256262 C109.656159,64.8848748 110.71299,65.555395 111.844708,65.9371869 C112.973233,66.322158 114.017873,66.5149326 114.98095,66.5149326 C117.001149,66.5149326 118.828036,66.188921 120.458417,65.5429672 C122.095475,64.8973025 123.610334,63.8790944 125.007348,62.4915222 L126.232529,63.6400771 C124.262254,65.7478805 122.242056,67.3496146 120.175125,68.4516378 C118.104712,69.5536609 115.629388,70.106262 112.74567,70.106262 C110.672644,70.106262 108.823408,69.6967245 107.189833,68.8831407 C105.553356,68.0698459 104.159535,66.9926782 103.006048,65.6516378 C101.852561,64.3108863 100.976561,62.7773603 100.374855,61.0542389 C99.7731491,59.3311175 99.4709901,57.5588632 99.4709901,55.739499 C99.4709901,53.9204239 99.7731491,52.1475915 100.374855,50.4264933 C100.976561,48.7022158 101.852561,47.1701349 103.006048,45.8290944 C104.159535,44.4880539 105.553356,43.4108863 107.189833,42.5973025 C108.823408,41.7842967 110.672644,41.3759152 112.74567,41.3759152 C116.543121,41.3759152 119.598382,42.405106 121.908549,44.4631985 C124.21233,46.5244701 125.62792,49.6597303 126.160835,53.8704239 L105.244521,53.8704239 L105.244521,53.8704239 Z M119.311316,51.7178227 C119.161833,50.4264933 118.971423,49.2655106 118.728477,48.2348748 C118.491336,47.205973 118.104712,46.3444123 117.577893,45.6504817 C117.044978,44.955106 116.346616,44.4290944 115.486,44.072158 C114.619288,43.7105973 113.512533,43.5302505 112.168926,43.5302505 C111.158827,43.5302505 110.22971,43.7834297 109.391153,44.2845857 C108.546211,44.7860308 107.828982,45.4348748 107.227567,46.2233141 C106.625571,47.0152216 106.167543,47.8996146 105.852612,48.8805395 C105.540875,49.8629094 105.387909,50.8100193 105.387909,51.7178227 L119.311316,51.7178227 L119.311316,51.7178227 Z" id="Shape" fill="#000000"></path>
                <path d="M124.168791,44.7519268 L124.168791,43.6016378 C125.70571,43.555106 127.027547,43.171869 128.140688,42.4530829 C129.24425,41.7360308 130.201233,40.8247592 131.021503,39.723025 C131.838,38.622447 132.524171,37.4007707 133.078855,36.0611753 C133.627734,34.7233141 134.123205,33.4305395 134.556561,32.1840077 L135.563467,32.1840077 L135.563467,42.5973025 L145.446767,42.5973025 L145.446767,44.7519268 L135.563467,44.7519268 L135.563467,61.4857418 C135.563467,62.1097303 135.604103,62.7181118 135.676087,63.3172447 C135.744588,63.9163776 135.890879,64.4533719 136.10625,64.9345857 C136.321332,65.4126204 136.63307,65.7944123 137.044656,66.0831407 C137.45305,66.3689788 138.017312,66.5149326 138.740346,66.5149326 C140.183801,66.5149326 141.38431,66.2010597 142.344485,65.5802505 C143.307853,64.956262 144.268028,64.1707129 145.234588,63.2085742 L145.879833,63.9256262 C145.063336,64.6458574 144.268028,65.3788054 143.501165,66.1172447 C142.731109,66.8626204 141.926803,67.5328516 141.087956,68.1288054 C140.243304,68.7282274 139.329861,69.205973 138.344724,69.5629094 C137.356394,69.9233141 136.286791,70.106262 135.133304,70.106262 C133.110203,70.106262 131.741634,69.4949904 131.021503,68.2747592 C130.297889,67.0516378 129.936227,65.6019268 129.936227,63.9256262 L129.936227,44.7519268 L124.168791,44.7519268" id="Shape" fill="#000000"></path>
                <g transform="translate(91.480119, 70.786127)" fill="#000000">
                    <path d="M11.2457185,13.4642582 L14.2279694,13.4642582 L15.4436641,10.4820072 L21.0662518,10.4820072 L22.2819465,13.4642582 L25.3401784,13.4642582 L19.6416097,0.0726218033 L16.9442872,0.0726218033 L11.2457185,13.4642582 Z M16.4884017,7.89865612 L18.254958,3.58673915 L20.0215143,7.89865612 L16.4884017,7.89865612 Z" id="A"></path>
                    <path d="M0.0668636424,13.4642582 L9.62146379,13.4642582 L9.62146379,10.8049261 L2.9921289,10.8049261 L2.9921289,0.167597948 L0.0668636424,0.167597948 L0.0668636424,13.4642582 Z" id="L"></path>
                    <path d="M46.2563218,13.6542105 C49.1246013,13.6542105 51.1380956,12.1725826 51.1380956,9.5322458 L51.1380956,9.49425535 C51.1380956,7.17683742 49.6184773,6.20808074 46.9211548,5.50525727 C44.6227321,4.91640518 44.0528752,4.63147674 44.0528752,3.75769621 L44.0528752,3.71970576 C44.0528752,3.07386797 44.6417273,2.56099679 45.7624458,2.56099679 C46.8831643,2.56099679 48.0418733,3.05487274 49.2195775,3.87166759 L50.7391958,1.66822103 C49.3905345,0.585492984 47.7379496,-0.0223543413 45.8004363,-0.0223543413 C43.0841185,-0.0223543413 41.1466052,1.57324489 41.1466052,3.98563896 L41.1466052,4.02362942 C41.1466052,6.66396624 42.875171,7.40478016 45.5534983,8.08860841 C47.7759401,8.65846527 48.2318256,9.03836985 48.2318256,9.77918378 L48.2318256,9.81717424 C48.2318256,10.5959786 47.5100069,11.0708593 46.3133075,11.0708593 C44.7936891,11.0708593 43.540004,10.4440168 42.3433046,9.45626489 L40.6147388,11.5267448 C42.210338,12.951387 44.2428275,13.6542105 46.2563218,13.6542105 L46.2563218,13.6542105 Z" id="S"></path>
                    <path d="M27.5508557,13.4642582 L33.8762669,13.4642582 C36.8775131,13.4642582 38.8530169,12.2485635 38.8530169,9.81717424 L38.8530169,9.77918378 C38.8530169,7.99363226 37.9032554,7.1008565 36.3646419,6.51200441 C37.3144034,5.980138 38.112203,5.14434792 38.112203,3.64372484 L38.112203,3.60573438 C38.112203,2.69396339 37.8082793,1.95314947 37.200432,1.34530214 C36.4406228,0.585492984 35.2439234,0.167597948 33.7243051,0.167597948 L27.5508557,0.167597948 L27.5508557,13.4642582 Z M30.40014,5.54324773 L30.40014,2.73195385 L33.2874148,2.73195385 C34.5221047,2.73195385 35.2059329,3.2258298 35.2059329,4.09961033 L35.2059329,4.13760079 C35.2059329,5.12535269 34.3891381,5.54324773 33.0974625,5.54324773 L30.40014,5.54324773 Z M30.40014,10.8999023 L30.40014,7.97463703 L33.7812908,7.97463703 C35.2819139,7.97463703 35.9467469,8.52549867 35.9467469,9.41827443 L35.9467469,9.45626489 C35.9467469,10.4440168 35.1679425,10.8999023 33.8762669,10.8999023 L30.40014,10.8999023 Z" id="B"></path>
                </g>
            </g>
        </g>
    </g>
</svg>