<svg xmlns="http://www.w3.org/2000/svg" viewBox="0 0 1116 603"><path d="M251.5 281.7c1.6 1.9 4.4 2.1 6.1.2 5.5-6.1 16.8-18.8 22.1-25 6.1-7.1 20.2-22.6 28.4-32.4 1.8-2.2 5.2-1.8 6.6.7l23.9 43.5c1.5 2.8 1.4 6.1-.4 8.6-4.6 6.2-10.1 13.1-16.8 20.9-7.5 8.8-16.4 18.8-26.6 30-1.3 1.5-1.5 3.8-.2 5.4l69.1 85.3c2.1 2.6.3 6.6-3.1 6.6h-65.4c-2.4 0-4.7-1.1-6.3-3l-36.1-44.3c-1.5-1.8-4.3-1.9-5.9-.2-36.9 37-75.3 55.5-115 55.5-36.7 0-67.7-11.7-93.3-35.1C13.5 374.8 1 345.7 1 311c0-41.3 19.8-75.6 59.5-102.9 0 0 20.7-14.3 29.2-20.3 2-1.4 2.1-4 .5-5.7-25.3-28-38-55.6-38-82.8 0-27.9 9.1-50.6 27.3-68.1C98.1 13.7 122 4.9 151.3 4.9c28.4 0 51.9 8.5 70.5 25.5s27.9 38.4 27.9 64.3c0 17.9-5.1 34.1-15.3 48.5-9.6 13.9-26.6 30.3-51 49.4-1.8 1.4-2.2 4.1-.7 5.8l68.8 83.3zm-118.6-48.4c-1.4-1.7-3.7-2-5.5-.7-10.4 7.8-44.9 33.7-52.7 42.8-9.1 10.7-13.7 22.1-13.7 34.1 0 17.2 6.9 32.9 20.6 47.2 14.3 13.8 30 20.6 47.2 20.6 23.4 0 50.3-14.9 80.6-44.7 1.5-1.5 1.7-4 .4-5.6l-76.9-93.7zm37.8-103.1c5.7-4.9 9.8-9.1 12.3-12.5 5.3-6.6 8-14.7 8-24.4 0-10.9-3.7-19.7-11-26.6-7.3-6.8-17.2-10.2-29.5-10.2-11.2 0-20.7 3.5-28.4 10.5-7.7 6.6-11.5 15.1-11.5 25.5 0 12.2 4.8 24.1 14.5 35.9 0 0 11 13.5 16.2 19.8 1.4 1.7 3.9 1.9 5.6.6l23.8-18.6z"/><path d="M665.7 161.6v-8.5c0-2-1.6-3.5-3.5-3.5H547c-2 0-3.5 1.6-3.5 3.5v8.5c0 2 1.6 3.5 3.5 3.5 9 0 15.8 3.1 19.8 9.1 5.5 8.3 5.1 21.5-1.1 36.4-3.2 7.6-48.4 112.7-68.7 159.4-1.1 2.5-3.4 3.9-6.1 4-2.8 0-5.1-1.6-6.1-4.2-20.3-49.6-63.3-166.4-66-174.6-2.3-6.8.1-12.6 2.5-16.2 4.9-7.5 14.5-13.1 23.8-13.9 1.8-.2 3.2-1.7 3.2-3.5v-8.5c0-2-1.6-3.5-3.5-3.5h-144c-2 0-3.5 1.6-3.5 3.5v8.5c0 1.6 1.1 3 2.6 3.4 10.4 2.7 35.6 11.3 45.7 31.5 3.1 6.2 99.8 224.3 103.5 233.4 4.2 10.5 4.6 12.8 4.7 13.2 0 1.5-.9 6.9-9.5 24.4-20.7 41.9-50.6 90.5-99.2 94.5-12.4 1-14.6-8.7-16.8-24.9-.9-7-1.8-13.6-4.4-18.6-4.6-9-13.4-15.2-24.3-17.1-11-1.9-22 1.1-29.4 8-14.7 13.7-15 37.8-6.8 53.2 8.1 15.2 23.1 26.1 43.3 31.6 9.6 2.6 20 3.9 30.5 3.9 21.2 0 42.7-5.1 58.3-14.7 27.1-16.5 48.3-45 67.1-73.4 32.8-49.5 57-103.7 80.4-156.2 17.3-38.8 35.2-78.9 56.4-116.7 26.8-47.7 45.8-69.3 63.5-72 1.5-.2 2.8-1.7 2.8-3.5zm113.4-20.5c-55.7 0-105.9 36.9-125 91.7-25.3 72.8 4.9 154.7 68.8 186.6 16.4 8.2 35.3 12.4 56.2 12.4h.3c66.1 0 118.2-51.5 121-58.2 1-2.4-.4-4-.8-4.4-.3-.2-12-11.3-12-11.3-1.3-1.2-3.2-1.3-4.5-.3-.5.4-42.7 31.4-84.3 31.4-5.7 0-11.4-.6-17-1.9-28.2-6.7-50.8-27.8-63.4-59.4-5.3-13.4-8.3-30-9.1-49.4-.1-1.7.6-3.4 1.8-4.7 1.3-1.3 3-2.1 4.8-2.1H892c4.1 0 7.9-1.8 10.6-5 2.6-3.1 3.7-7.1 3-11-13-73.7-57.8-114.4-126.5-114.4zm56.3 98.2c-2.1 2.5-5.2 3.9-8.5 3.9H719.5c-2 0-3.9-.9-5.2-2.5s-1.8-3.7-1.3-5.7c4.8-21.3 10.2-39.9 27.8-52.7 11.4-8.3 25.8-12.8 39.8-12.8 4.5 0 8.9.5 13.2 1.4 23.8 5.3 38.7 25.4 44.1 59.7.5 3.2-.4 6.2-2.5 8.7zm276.2 118.5l-3.2-8.2c-.4-1-1.3-1.8-2.3-2.1-1.1-.3-2.2-.1-3.1.5-.3.2-26.2 19.3-35.5 25.3-12.2 7.9-25.2 10.8-34.8 7.8-7-2.3-12.2-7.6-15.4-16-9.3-24.1-6.2-113.1-4.6-160.9.5-13.7.9-24.6.9-30.7 0-3.7 3-6.7 6.7-6.7h87c2 0 3.5-1.6 3.5-3.5v-26.5c0-2-1.6-3.5-3.5-3.5h-87c-3.7 0-6.7-3-6.7-6.7V34c0-2-1.6-3.5-3.5-3.5h-22.4c-1.8 0-3.3 1.3-3.5 3.1-13.4 105.5-64.4 107-86.2 107.6-1.9.1-3.4 1.6-3.4 3.5v18.6c0 2 1.6 3.5 3.5 3.5h46.5c3.7 0 6.7 3 6.7 6.7V345c0 3.1-.1 6.3-.1 9.5-.3 15.1-.6 30.7 5.3 44.7 7.9 18.7 20.3 29.7 36.9 32.7 3.1.6 6.3.8 9.6.8 42.1 0 93.7-44.5 111.2-62.9 1.4-1.7 1.4-1.7-2.6-12z"/></svg>