<?xml version="1.0" encoding="UTF-8" standalone="no"?>
<svg width="1269px" height="599px" viewBox="0 0 1269 599" version="1.1" xmlns="http://www.w3.org/2000/svg" xmlns:xlink="http://www.w3.org/1999/xlink" xmlns:sketch="http://www.bohemiancoding.com/sketch/ns">
    <!-- Generator: Sketch 3.0.3 (7891) - http://www.bohemiancoding.com/sketch -->
    <title>Untitled 2</title>
    <desc>Created with Sketch.</desc>
    <defs></defs>
    <g id="Page-1" stroke="none" stroke-width="1" fill="none" fill-rule="evenodd" sketch:type="MSPage">
        <g id="lift-large" sketch:type="MSLayerGroup" transform="translate(-1.000000, -1.000000)" fill="#000000">
            <path d="M532.957199,573.465642 C525.633783,570.879215 519.971083,566.991037 516.084665,561.924882 C512.164005,556.850192 509.685771,549.615877 508.718447,540.405463 C507.68264,530.448144 507.143335,517.520273 507.143335,501.988903 L507.143335,6.29107982 L376.798518,22.3047375 L376.798518,42.7059325 L382.431256,42.7059325 C410.273933,42.7059325 420.477921,48.3696116 424.150329,53.1156637 C429.817309,60.4737516 432.689321,74.2040121 432.689321,93.9521982 L432.689321,501.988903 C432.689321,517.392232 432.158576,530.32437 431.101368,540.405463 C430.121203,549.684165 427.754255,556.965429 424.051885,562.061459 C420.366636,567.148955 415.131956,570.887751 408.03539,573.486982 C400.455163,576.278276 390.058566,578.224499 377.128093,579.26163 L371.944776,579.667093 L371.944776,600.712761 L377.984133,600.28169 C392.853534,599.206146 407.911265,598.39522 422.746425,597.861716 C451.706233,596.777636 486.037687,596.798976 517.137593,597.861716 C533.539305,598.390952 549.688486,599.206146 565.122874,600.28169 L571.14939,600.699958 L571.14939,579.632949 L565.936111,579.248826 C551.914188,578.207427 540.819919,576.265472 532.965759,573.461375" id="Shape" sketch:type="MSShapeGroup"></path>
            <path d="M749.278319,576.107555 C742.079025,574.660692 736.210877,572.151088 731.806558,568.659838 C727.603403,565.347845 724.667192,560.465216 722.805302,553.696116 C720.789331,546.453265 719.774926,536.154503 719.774926,523.1242 L719.774926,278.109262 L585.376763,286.991037 L585.376763,308.689714 L590.367471,309.265898 C603.614679,310.80239 614.109718,313.593683 621.557259,317.57149 C628.722309,321.412719 634.128195,326.329492 637.6294,332.163893 C641.211925,338.164746 643.394823,345.817328 644.118178,354.92531 C644.918573,364.746052 645.325194,376.218523 645.325194,389.014084 L645.325194,523.115664 C645.325194,536.077678 644.302223,546.376441 642.281972,553.713188 C640.458606,560.392659 637.518115,565.454545 633.576052,568.758002 C629.441385,572.206573 623.99269,574.690568 617.379789,576.11609 C610.013574,577.673922 601.046561,578.736662 590.739848,579.248826 L585.376763,579.496372 L585.376763,600.810926 L591.506004,600.268886 C603.704563,599.206146 615.890282,598.382416 627.729303,597.848912 C639.071824,597.319676 651.248984,597.046522 663.918365,597.046522 C683.303373,597.046522 702.461532,597.319676 720.857812,597.861716 C740.007412,598.390952 759.17841,599.21895 777.818664,600.28169 L783.763859,600.631669 L783.763859,579.475032 L778.392211,579.248826 C766.981209,578.728126 757.183843,577.67819 749.274039,576.107555" id="Shape" sketch:type="MSShapeGroup"></path>
            <path d="M674.443365,140.243278 C687.878904,140.243278 699.482518,135.134443 708.933191,125.040546 C718.281139,115.049082 723.023591,103.213828 723.023591,89.8890309 C723.023591,76.5428939 718.281139,64.7204436 708.933191,54.7161758 C699.482518,44.6436193 687.883184,39.5390525 674.443365,39.5390525 C660.994987,39.5390525 649.404219,44.6478873 639.974944,54.7161758 C630.626996,64.6948358 625.884538,76.5172855 625.884538,89.8890309 C625.884538,103.247973 630.626996,115.070422 639.962105,125.040546 C649.399939,135.134443 660.990707,140.243278 674.439086,140.243278" id="Shape" sketch:type="MSShapeGroup"></path>
            <path d="M1254.14887,511.617584 L1249.94572,515.834401 C1239.43783,526.367904 1228.84863,535.151515 1218.45203,541.90781 C1208.64182,548.314127 1196.05804,551.5621 1181.02171,551.5621 C1174.152,551.5621 1168.836,550.273154 1165.24063,547.729407 C1161.4441,545.040546 1158.61917,541.536492 1156.59036,537.003841 C1154.40317,532.142552 1152.93079,526.559966 1152.18603,520.379855 C1151.40703,513.858301 1151.01326,507.110542 1151.01326,500.328639 L1151.01326,305.996585 L1261.98163,305.996585 L1261.98163,278.881776 L1151.01326,278.881776 L1151.01326,155.29236 L1130.02745,155.29236 L1128.70915,159.099445 C1123.9239,172.966282 1118.38104,187.639778 1112.21756,202.693128 C1106.20388,217.362356 1098.66646,230.904823 1089.81502,242.92787 C1081.37875,254.366197 1065.86731,266.299616 1052.09364,271.941955 C1039.60403,277.063594 1027.48252,278.326932 1009.49285,278.881776 L931.559038,278.881776 L931.559038,141.092616 C931.559038,132.129748 932.492116,121.199317 934.354006,108.574477 C936.134563,96.2099873 939.648607,84.2979085 944.806245,73.1626121 C949.865438,62.2449848 956.529702,52.8425096 964.632111,45.2326078 C972.23374,38.0665813 982.103872,34.5753308 994.794658,34.5753308 C1003.45777,34.5753308 1010.85823,36.2483995 1016.74779,39.5475885 C1022.7529,42.9278702 1027.58524,47.1532224 1031.10784,52.1169441 C1034.75885,57.238583 1037.32696,62.5138709 1038.75655,67.8062315 C1040.24178,73.2522406 1040.99938,77.6739224 1040.99938,80.9389673 C1040.99938,99.8591552 1042.84842,111.455399 1046.81188,117.400768 C1051.13916,123.922322 1058.43689,127.234315 1068.50392,127.234315 C1082.73129,127.234315 1092.32749,124.22962 1097.81042,118.023901 C1103.13926,112.031584 1105.71594,102.031584 1105.71594,87.4519848 C1105.71594,62.9278703 1095.82441,43.0772514 1076.32811,28.4635083 C1057.31548,14.2338882 1033.96701,7.02091333 1006.94185,7.02091333 C979.381671,7.02091333 955.626582,14.2210841 936.365698,28.4379001 C917.455792,42.3943662 901.94436,59.9487836 890.250861,80.5889885 C878.660092,101.092616 870.146778,123.209561 864.950622,146.359368 C859.634616,169.923175 857.122145,183.060179 857.122145,201.617584 L857.122145,278.881776 L823.749456,278.881776 L815.437311,305.996585 L857.122145,305.996585 L857.122145,503.619292 C857.122145,515.736236 856.715524,526.790439 855.927968,536.474605 C855.174655,545.356381 852.978912,553.043107 849.362149,559.304311 C845.916587,565.317968 840.73327,570.017072 833.966281,573.307725 C826.869718,576.743492 816.584405,578.745198 803.418518,579.24029 L797.991234,579.445156 L797.991234,600.670081 L803.970667,600.285958 C820.980165,599.210414 838.088109,598.399488 854.836516,597.865984 C888.43606,596.747759 927.646939,596.837388 961.413403,597.865984 C979.762607,598.39522 998.514146,599.223218 1017.14584,600.285958 L1023.09104,600.635937 L1023.09104,579.376867 L1017.59526,579.24029 C996.070155,578.732395 979.287505,576.619718 967.683892,572.991891 C956.645267,569.556125 948.40161,564.673496 943.184049,558.467776 C937.889448,552.227913 934.734942,544.938113 933.519367,536.158771 C932.213905,526.730687 931.546199,515.79172 931.546199,503.619292 L931.546199,305.996585 L1076.55497,305.996585 L1076.55497,527.964148 C1076.55497,547.831839 1080.89081,565.330773 1089.48544,579.987196 C1098.61081,595.59539 1115.78725,603.495519 1140.49682,603.495519 C1154.08216,603.495519 1166.8671,601.335894 1178.47928,597.063594 C1190.00157,592.838242 1200.80478,587.127614 1210.60215,580.110969 C1220.30108,573.149808 1229.64903,565.317968 1238.40202,556.807512 C1246.94958,548.467776 1255.87379,540.192061 1264.91784,532.202305 L1269.19804,528.429364 L1254.12747,511.621852" id="Shape" sketch:type="MSShapeGroup"></path>
            <path d="M126.91638,1.84805804 L200.017852,1.84805804 L321.857919,274.993598 L236.703414,274.993598 L164.20973,100.879215 L86.7852595,274.993598 L1.16849358,274.993598 L126.91638,1.84805804" id="Shape" sketch:type="MSShapeGroup"></path>
        </g>
    </g>
</svg>