<?xml version="1.0" encoding="UTF-8" standalone="no"?>
<svg width="636px" height="300px" viewBox="0 0 636 300" version="1.1" xmlns="http://www.w3.org/2000/svg" xmlns:xlink="http://www.w3.org/1999/xlink" xmlns:sketch="http://www.bohemiancoding.com/sketch/ns">
    <!-- Generator: Sketch 3.0.3 (7891) - http://www.bohemiancoding.com/sketch -->
    <title>Untitled 2</title>
    <desc>Created with Sketch.</desc>
    <defs></defs>
    <g id="Page-1" stroke="none" stroke-width="1" fill="none" fill-rule="evenodd" sketch:type="MSPage">
        <g id="lift-medium" sketch:type="MSLayerGroup" fill="#000000">
            <path d="M266.687931,286.732821 C263.023346,285.439607 260.189772,283.495518 258.245037,280.962441 C256.283167,278.425096 255.043076,274.807938 254.559034,270.202732 C254.040724,265.224072 253.77086,258.760137 253.77086,250.994452 L253.77086,3.14553991 L188.547255,11.1523688 L188.547255,21.3529663 L191.365837,21.3529663 C205.298111,21.3529663 210.404113,24.1848058 212.241759,26.5578318 C215.077475,30.2368758 216.514609,37.1020061 216.514609,46.9760991 L216.514609,250.994452 C216.514609,258.696116 216.249028,265.162185 215.720009,270.202732 C215.229541,274.842083 214.045138,278.482715 212.192498,281.03073 C210.348426,283.574477 207.729031,285.443875 204.17796,286.743491 C200.384869,288.139138 195.182488,289.112249 188.712172,289.630815 L186.118478,289.833547 L186.118478,300.356381 L189.140528,300.140845 C196.581069,299.603073 204.115849,299.19761 211.539256,298.930858 C226.030534,298.388818 243.209746,298.399488 258.771914,298.930858 C266.979213,299.195476 275.060146,299.603073 282.783402,300.140845 L285.799027,300.349979 L285.799027,289.816475 L283.19034,289.624413 C276.173871,289.103713 270.622379,288.132736 266.692214,286.730687" id="Shape" sketch:type="MSShapeGroup"></path>
            <path d="M374.933456,288.053777 C371.330981,287.330346 368.394602,286.075544 366.190713,284.329919 C364.087484,282.673922 362.618226,280.232608 361.686549,276.848058 C360.677772,273.226632 360.170171,268.077252 360.170171,261.5621 L360.170171,139.054631 L292.918301,143.495518 L292.918301,154.344857 L295.415616,154.632949 C302.044423,155.401195 307.296065,156.796842 311.022761,158.785745 C314.6081,160.706359 317.313166,163.164746 319.065143,166.081946 C320.857813,169.082373 321.950119,172.908664 322.312081,177.462655 C322.712593,182.373026 322.916063,188.109262 322.916063,194.507042 L322.916063,261.557832 C322.916063,268.038839 322.404176,273.18822 321.393257,276.856594 C320.480858,280.196329 319.009457,282.727273 317.036878,284.379001 C314.96792,286.103286 312.241433,287.345284 308.932384,288.058045 C305.246384,288.836961 300.759355,289.368331 295.601951,289.624413 L292.918301,289.748186 L292.918301,300.405463 L295.985329,300.134443 C302.0894,299.603073 308.187046,299.191208 314.111206,298.924456 C319.786922,298.659838 325.880285,298.523261 332.219952,298.523261 C341.920069,298.523261 351.506674,298.659838 360.71204,298.930858 C370.294361,299.195476 379.88739,299.609475 389.214838,300.140845 L392.189771,300.315835 L392.189771,289.737516 L389.501837,289.624413 C383.791854,289.364063 378.889323,288.839095 374.931314,288.053777" id="Shape" sketch:type="MSShapeGroup"></path>
            <path d="M337.486586,70.1216388 C344.209632,70.1216388 350.015997,67.5672215 354.745045,62.520273 C359.422691,57.5245412 361.79578,51.6069142 361.79578,44.9445155 C361.79578,38.271447 359.422691,32.3602218 354.745045,27.3580879 C350.015997,22.3218096 344.211774,19.7695262 337.486586,19.7695262 C330.757115,19.7695262 324.957178,22.3239437 320.238837,27.3580879 C315.561191,32.3474179 313.188099,38.2586427 313.188099,44.9445155 C313.188099,51.6239864 315.561191,57.5352112 320.232412,62.520273 C324.955036,67.5672215 330.754973,70.1216388 337.484444,70.1216388" id="Shape" sketch:type="MSShapeGroup"></path>
            <path d="M627.567031,255.808792 L625.463803,257.9172 C620.205735,263.183952 614.906971,267.575758 609.704592,270.953905 C604.795634,274.157064 598.498801,275.78105 590.97473,275.78105 C587.537174,275.78105 584.877087,275.136577 583.077992,273.864703 C581.178234,272.520273 579.764658,270.768246 578.749456,268.501921 C577.655005,266.071276 576.918233,263.279983 576.545564,260.189928 C576.155759,256.929151 575.958717,253.555271 575.958717,250.164319 L575.958717,152.998293 L631.486486,152.998293 L631.486486,139.440888 L575.958717,139.440888 L575.958717,77.64618 L565.457571,77.64618 L564.797903,79.5497227 C562.403396,86.4831412 559.629792,93.8198891 556.545629,101.346564 C553.536429,108.681178 549.764755,115.452412 545.335557,121.463935 C541.11411,127.183098 533.352301,133.149808 526.460055,135.970977 C520.210345,138.531797 514.144825,139.163466 505.142926,139.440888 L466.14541,139.440888 L466.14541,70.5463082 C466.14541,66.0648742 466.612316,60.5996585 467.543992,54.2872385 C468.43497,48.1049936 470.193372,42.1489542 472.774217,36.5813061 C475.305801,31.1224924 478.64055,26.4212548 482.694937,22.6163039 C486.498737,19.0332907 491.43768,17.2876654 497.788057,17.2876654 C502.123018,17.2876654 505.826154,18.1241998 508.773244,19.7737943 C511.778158,21.4639351 514.196228,23.5766112 515.958913,26.058472 C517.78585,28.6192915 519.070916,31.2569355 519.78627,33.9031158 C520.52947,36.6261203 520.908564,38.8369612 520.908564,40.4694836 C520.908564,49.9295776 521.833812,55.7276994 523.8171,58.7003842 C525.982439,61.9611609 529.634172,63.6171576 534.671637,63.6171576 C541.790913,63.6171576 546.59278,62.11481 549.3364,59.0119506 C552.002915,56.0157918 553.292267,51.0157918 553.292267,43.7259924 C553.292267,31.4639352 548.342616,21.5386257 538.586809,14.2317542 C529.073026,7.11694409 517.389621,3.51045667 503.866427,3.51045667 C490.07551,3.51045667 478.188635,7.11054203 468.550628,14.2189501 C459.088248,21.1971831 451.326439,29.9743918 445.475097,40.2944942 C439.67516,50.5463082 435.415159,61.6047803 432.81504,73.1796842 C430.154949,84.9615876 428.897727,91.5300897 428.897727,100.808792 L428.897727,139.440888 L412.198274,139.440888 L408.038937,152.998293 L428.897727,152.998293 L428.897727,251.809646 C428.897727,257.868118 428.694257,263.39522 428.300169,268.237303 C427.923217,272.67819 426.824483,276.521554 425.014681,279.652155 C423.290546,282.658984 420.696852,285.008536 417.3107,286.653862 C413.759631,288.371746 408.612935,289.372599 402.02482,289.620145 L399.309046,289.722578 L399.309046,300.335041 L402.301111,300.142979 C410.812542,299.605207 419.373233,299.199744 427.754015,298.932992 C444.566983,298.37388 464.187824,298.418694 481.084319,298.932992 C490.266128,299.19761 499.649262,299.611609 508.972428,300.142979 L511.94736,300.317968 L511.94736,289.688434 L509.197316,289.620145 C498.426307,289.366197 490.02839,288.309859 484.222026,286.495945 C478.698378,284.778062 474.573311,282.336748 471.962482,279.233888 C469.313102,276.113956 467.73461,272.469057 467.126345,268.079385 C466.473101,263.365344 466.138985,257.89586 466.138985,251.809646 L466.138985,152.998293 L538.700326,152.998293 L538.700326,263.982074 C538.700326,273.91592 540.869948,282.665386 545.170638,289.993598 C549.736912,297.797695 558.331874,301.747759 570.696366,301.747759 C577.494372,301.747759 583.891866,300.667947 589.702513,298.531797 C595.468185,296.419121 600.874034,293.563807 605.776568,290.055485 C610.629841,286.574904 615.307487,282.658984 619.687423,278.403756 C623.964556,274.233888 628.430166,270.096031 632.955748,266.101152 L635.097527,264.214682 L627.55632,255.810926" id="Shape" sketch:type="MSShapeGroup"></path>
            <path d="M63.5080391,0.924029021 L100.087488,0.924029021 L161.055377,137.496799 L118.444678,137.496799 L82.1693621,50.4396073 L43.4267167,137.496799 L0.584705743,137.496799 L63.5080391,0.924029021" id="Shape" sketch:type="MSShapeGroup"></path>
        </g>
    </g>
</svg>