<?xml version="1.0" encoding="UTF-8" standalone="no"?>
<svg width="1766px" height="598px" viewBox="0 0 1766 598" version="1.1" xmlns="http://www.w3.org/2000/svg" xmlns:xlink="http://www.w3.org/1999/xlink" xmlns:sketch="http://www.bohemiancoding.com/sketch/ns">
    <!-- Generator: Sketch 3.0.3 (7891) - http://www.bohemiancoding.com/sketch -->
    <title>Untitled 2</title>
    <desc>Created with Sketch.</desc>
    <defs></defs>
    <g id="Page-1" stroke="none" stroke-width="1" fill="none" fill-rule="evenodd" sketch:type="MSPage">
        <g id="otalk-small" sketch:type="MSLayerGroup" transform="translate(0.000000, -2.000000)" fill="#000000">
            <g id="otalk" sketch:type="MSShapeGroup">
                <path d="M517.519459,470.209901 L517.519459,247.562376 L464.009473,247.562376 L464.009473,164.269307 L517.519459,164.269307 L517.519459,48.1306931 L614.17593,48.1306931 L614.17593,164.269307 L727.614246,164.269307 L727.614246,247.562376 L614.17593,247.562376 L614.17593,454.99604 C614.17593,492.641584 633.353472,507.879208 666.11262,507.879208 C687.679908,507.879208 706.827648,503.055446 726.017106,493.461386 L726.017106,572.738614 C702.060084,586.372277 674.884944,594.350495 638.943444,594.350495 C567.847094,594.350495 517.519459,563.144554 517.519459,470.209901" id="Shape"></path>
                <path d="M1033.97813,587.168317 L1033.97813,535.093069 C1005.23566,569.542574 961.29657,595.978218 897.369444,595.978218 C817.482894,595.978218 747.202986,550.330693 747.202986,465.421782 L747.202986,463.829703 C747.202986,370.122772 819.90243,325.259406 918.156042,325.259406 C969.270324,325.259406 1002.03543,332.453465 1034.78266,342.867327 L1034.78266,334.877228 C1034.78266,276.392079 998.030676,244.366337 930.927162,244.366337 C883.799754,244.366337 848.662782,254.780198 810.313662,270.790099 L783.949014,193.10495 C830.295732,172.289109 875.820042,157.871287 944.514732,157.871287 C1069.13299,157.871287 1129.84796,223.538614 1129.84796,336.487129 L1129.84796,587.168317 L1033.98409,587.168317 L1033.97813,587.168317 L1033.97813,587.168317 Z M1036.36788,410.156435 C1011.60037,400.538614 977.256,393.356435 939.711408,393.356435 C879.01431,393.356435 843.066852,418.164356 843.066852,459.035644 L843.066852,460.627723 C843.066852,500.673268 879.01431,523.093069 924.550542,523.093069 C988.447866,523.093069 1036.36788,487.051485 1036.36788,434.186138 L1036.36788,410.162376 L1036.36788,410.156435 L1036.36788,410.156435 Z" id="Shape"></path>
                <path d="M1201.14097,2.48316832 L1297.78553,2.48316832 L1297.78553,587.162376 L1201.14097,587.162376 L1201.14097,2.48316832 L1201.14097,2.48316832 Z" id="Shape"></path>
                <path d="M1371.37293,2.48316832 L1468.02941,2.48316832 L1468.02941,351.69505 L1642.9753,164.269307 L1760.39453,164.269307 L1592.65362,336.481188 L1765.99642,587.162376 L1654.16716,587.162376 L1527.1532,404.548515 L1468.02941,466.217822 L1468.02941,587.168317 L1371.37293,587.168317 L1371.37293,2.48910891" id="Shape"></path>
                <path d="M125.315513,571.170297 C70.7507028,613.82376 -1.72228378,599.447525 -1.72228378,599.447525 C-1.72228378,599.447525 61.924743,529.259406 44.1715135,497.815841 C23.8735946,461.952475 8.7782838,422.19802 8.7782838,378.118812 L8.7782838,376.514851 C8.7782838,255.594059 104.654068,155.459406 234.05777,155.459406 C363.461473,155.459406 458.520811,253.990099 458.520811,374.922772 L458.520811,376.514851 C458.520811,496.669307 362.656946,596.786138 232.460635,596.786138 C192.991135,596.786138 156.680149,587.506931 125.315513,571.170297 L125.315513,571.170297 L125.315513,571.170297 Z M361.864338,378.112871 L361.864338,376.508911 C361.864338,302.025743 308.354351,240.350495 232.460635,240.350495 C154.963825,240.350495 105.446675,301.247525 105.446675,374.916832 L105.446675,376.508911 C105.446675,450.219802 158.968581,512.667327 234.05777,512.667327 C312.33527,512.667327 361.864338,450.99802 361.864338,378.112871 L361.864338,378.112871 L361.864338,378.112871 Z" id="Shape"></path>
            </g>
        </g>
    </g>
</svg>