<?xml version="1.0" encoding="UTF-8" standalone="no"?>
<svg width="883px" height="299px" viewBox="0 0 883 299" version="1.1" xmlns="http://www.w3.org/2000/svg" xmlns:xlink="http://www.w3.org/1999/xlink" xmlns:sketch="http://www.bohemiancoding.com/sketch/ns">
    <!-- Generator: Sketch 3.0.3 (7891) - http://www.bohemiancoding.com/sketch -->
    <title>Untitled 2</title>
    <desc>Created with Sketch.</desc>
    <defs></defs>
    <g id="Page-1" stroke="none" stroke-width="1" fill="none" fill-rule="evenodd" sketch:type="MSPage">
        <g id="otalk-small" sketch:type="MSLayerGroup" transform="translate(0.000000, -1.000000)" fill="#000000">
            <g id="otalk" sketch:type="MSShapeGroup">
                <path d="M258.75973,235.10495 L258.75973,123.781188 L232.004737,123.781188 L232.004737,82.1346534 L258.75973,82.1346534 L258.75973,24.0653465 L307.087965,24.0653465 L307.087965,82.1346534 L363.807123,82.1346534 L363.807123,123.781188 L307.087965,123.781188 L307.087965,227.49802 C307.087965,246.320792 316.676736,253.939604 333.05631,253.939604 C343.839954,253.939604 353.413824,251.527723 363.008553,246.730693 L363.008553,286.369307 C351.030042,293.186139 337.442472,297.175247 319.471722,297.175247 C283.923547,297.175247 258.75973,281.572277 258.75973,235.10495" id="Shape"></path>
                <path d="M516.989067,293.584158 L516.989067,267.546535 C502.617831,284.771287 480.648285,297.989109 448.684722,297.989109 C408.741447,297.989109 373.601493,275.165347 373.601493,232.710891 L373.601493,231.914851 C373.601493,185.061386 409.951215,162.629703 459.078021,162.629703 C484.635162,162.629703 501.017715,166.226733 517.391331,171.433663 L517.391331,167.438614 C517.391331,138.196039 499.015338,122.183168 465.463581,122.183168 C441.899877,122.183168 424.331391,127.390099 405.156831,135.39505 L391.974507,96.5524752 C415.147866,86.1445545 437.910021,78.9356436 472.257366,78.9356436 C534.566493,78.9356436 564.923979,111.769307 564.923979,168.243564 L564.923979,293.584158 L516.992046,293.584158 L516.989067,293.584158 L516.989067,293.584158 Z M518.18394,205.078218 C505.800183,200.269307 488.628,196.678218 469.855704,196.678218 C439.507155,196.678218 421.533426,209.082178 421.533426,229.517822 L421.533426,230.313861 C421.533426,250.336634 439.507155,261.546535 462.275271,261.546535 C494.223933,261.546535 518.18394,243.525742 518.18394,217.093069 L518.18394,205.081188 L518.18394,205.078218 L518.18394,205.078218 Z" id="Shape"></path>
                <path d="M600.570486,1.24158416 L648.892764,1.24158416 L648.892764,293.581188 L600.570486,293.581188 L600.570486,1.24158416 L600.570486,1.24158416 Z" id="Shape"></path>
                <path d="M685.686465,1.24158416 L734.014704,1.24158416 L734.014704,175.847525 L821.487648,82.1346534 L880.197264,82.1346534 L796.32681,168.240594 L882.998208,293.581188 L827.083581,293.581188 L763.576602,202.274258 L734.014704,233.108911 L734.014704,293.584158 L685.686465,293.584158 L685.686465,1.24455445" id="Shape"></path>
                <path d="M62.6577567,285.585148 C35.3753514,306.91188 -0.861141891,299.723762 -0.861141891,299.723762 C-0.861141891,299.723762 30.9623715,264.629703 22.0857568,248.907921 C11.9367973,230.976238 4.3891419,211.09901 4.3891419,189.059406 L4.3891419,188.257426 C4.3891419,127.79703 52.3270338,77.729703 117.028885,77.729703 C181.730737,77.729703 229.260405,126.99505 229.260405,187.461386 L229.260405,188.257426 C229.260405,248.334653 181.328473,298.393069 116.230318,298.393069 C96.4955676,298.393069 78.3400743,293.753465 62.6577567,285.585148 L62.6577567,285.585148 L62.6577567,285.585148 Z M180.932169,189.056436 L180.932169,188.254455 C180.932169,151.012871 154.177176,120.175247 116.230318,120.175247 C77.4819123,120.175247 52.7233377,150.623762 52.7233377,187.458416 L52.7233377,188.254455 C52.7233377,225.109901 79.4842905,256.333663 117.028885,256.333663 C156.167635,256.333663 180.932169,225.49901 180.932169,189.056436 L180.932169,189.056436 L180.932169,189.056436 Z" id="Shape"></path>
            </g>
        </g>
    </g>
</svg>