<?xml version="1.0" encoding="UTF-8" standalone="no"?>
<svg width="974px" height="600px" viewBox="0 0 974 600" version="1.1" xmlns="http://www.w3.org/2000/svg" xmlns:xlink="http://www.w3.org/1999/xlink" xmlns:sketch="http://www.bohemiancoding.com/sketch/ns">
    <!-- Generator: Sketch 3.0.3 (7891) - http://www.bohemiancoding.com/sketch -->
    <title>Untitled 2</title>
    <desc>Created with Sketch.</desc>
    <defs></defs>
    <g id="Page-1" stroke="none" stroke-width="1" fill="none" fill-rule="evenodd" sketch:type="MSPage">
        <g id="talky-logo" sketch:type="MSLayerGroup" fill="#000000">
            <path d="M30.2995976,459.325663 L30.2995976,333.020454 L0.312375,333.020454 L0.312375,285.770987 L30.2995976,285.770987 L30.2995976,219.895263 L84.4486162,219.895263 L84.4486162,285.770987 L147.994566,285.770987 L147.994566,333.020454 L84.4486162,333.020454 L84.4486162,450.69636 C84.4486162,472.048782 95.187531,480.68113 113.53915,480.68113 C125.620048,480.68113 136.362013,477.951919 147.100928,472.502635 L147.100928,517.482836 C133.678047,525.204432 118.458738,529.749056 98.3228916,529.749056 C58.4934428,529.749056 30.2995976,512.024414 30.2995976,459.325663 L30.2995976,459.325663 L30.2995976,459.325663 Z M319.310911,525.658285 L319.310911,496.127368 C303.201013,515.664377 278.584773,530.659808 242.784324,530.659808 C198.032237,530.659808 158.648082,504.759717 158.648082,456.605589 L158.648082,455.694837 C158.648082,402.539187 199.37727,377.099041 254.419927,377.099041 C283.062117,377.099041 301.410686,381.180673 319.756205,387.086857 L319.756205,382.542233 C319.756205,349.377444 299.168964,331.205041 261.578187,331.205041 C235.171619,331.205041 215.481067,337.111224 194.000188,346.200472 L179.232273,302.124931 C205.187447,290.318657 230.697326,282.137115 269.184791,282.137115 C338.998413,282.137115 373.011585,319.392674 373.011585,383.456031 L373.011585,525.664377 L319.310911,525.664377 L319.310911,525.658285 L319.310911,525.658285 Z M320.652894,425.250122 C306.778618,419.797792 287.53641,415.707021 266.503875,415.707021 C232.493753,415.707021 212.354857,429.794746 212.354857,452.959534 L212.354857,453.870286 C212.354857,476.584267 232.493753,489.310433 258.003632,489.310433 C293.804081,489.310433 320.655944,468.862671 320.655944,438.874855 L320.652894,425.250122 L320.652894,425.250122 Z M412.624486,193.998218 L466.776555,193.998218 L466.776555,525.658285 L412.624486,525.658285 L412.624486,193.998218 L412.624486,193.998218 Z M507.63689,193.998218 L561.788959,193.998218 L561.788959,392.08838 L659.799476,285.774033 L725.581048,285.774033 L631.60563,383.449939 L728.719458,525.661331 L666.067147,525.661331 L594.908492,422.07315 L561.792009,457.053351 L561.792009,525.655239 L507.63689,525.655239 L507.63689,193.998218 L507.63689,193.998218 Z M743.71002,585.173972 L762.058589,544.281496 C771.906915,549.73078 782.64583,553.367697 793.833089,553.367697 C809.049347,553.367697 818.446279,546.553807 827.397916,525.652193 L728.942105,285.770987 L786.671779,285.770987 L853.801434,463.86724 L915.117862,285.770987 L971.502503,285.770987 L877.527086,532.472175 C858.730172,581.537055 837.697637,599.709458 799.655466,599.709458 C776.829553,599.712504 760.268261,594.26322 743.71002,585.173972 L743.71002,585.173972 L743.71002,585.173972 Z M852.715648,-0.27226622 C780.919551,-2.49584222 726.142241,52.0701036 724.168915,119.986643 L724.123166,120.869982 C723.482674,143.526089 728.795707,164.972936 738.845331,183.565687 C738.159089,200.866936 723.226477,226.093862 700.202317,244.695751 C749.742844,253.562641 773.212298,235.987253 787.571518,232.469129 C803.913212,242.039644 823.545815,246.812717 844.55395,247.470652 C916.795341,249.71555 971.587902,195.158742 973.570377,127.693009 L973.588677,126.767027 C975.552852,58.8809473 924.450745,1.94826378 852.715648,-0.27226622 L852.715648,-0.27226622 L852.715648,-0.27226622 Z M909.484583,120.434405 L835.376616,191.613204 C829.938534,196.815763 824.777999,195.493801 823.863011,188.67382 L806.868625,61.820332 C805.950586,54.9790283 810.589578,52.3290131 817.189695,55.8867347 L907.34961,104.525175 C913.907028,108.070713 914.879965,115.234892 909.484583,120.434405 L909.484583,120.434405 L909.484583,120.434405 Z" id="talky" sketch:type="MSShapeGroup"></path>
        </g>
    </g>
</svg>