<?xml version="1.0" encoding="UTF-8" standalone="no"?>
<svg width="488px" height="300px" viewBox="0 0 488 300" version="1.1" xmlns="http://www.w3.org/2000/svg" xmlns:xlink="http://www.w3.org/1999/xlink" xmlns:sketch="http://www.bohemiancoding.com/sketch/ns">
    <!-- Generator: Sketch 3.0.3 (7891) - http://www.bohemiancoding.com/sketch -->
    <title>Untitled 2</title>
    <desc>Created with Sketch.</desc>
    <defs></defs>
    <g id="Page-1" stroke="none" stroke-width="1" fill="none" fill-rule="evenodd" sketch:type="MSPage">
        <g id="talky-logo" sketch:type="MSLayerGroup" fill="#000000">
            <path d="M15.321396,229.647015 L15.321396,166.494411 L0.312375,166.494411 L0.312375,142.869677 L15.321396,142.869677 L15.321396,109.931815 L42.4237311,109.931815 L42.4237311,142.869677 L74.2293609,142.869677 L74.2293609,166.494411 L42.4237311,166.494411 L42.4237311,225.332364 C42.4237311,236.008574 47.7987069,240.324749 56.9839469,240.324749 C63.030604,240.324749 68.4071064,238.960143 73.7820823,236.235501 L73.7820823,258.725602 C67.0637441,262.5864 59.446269,264.858712 49.3679984,264.858712 C29.4328067,264.858712 15.321396,255.99639 15.321396,229.647015 L15.321396,229.647015 L15.321396,229.647015 Z M159.975568,262.813326 L159.975568,248.047868 C151.912341,257.816372 139.591571,265.314088 121.672949,265.314088 C99.2739091,265.314088 79.5615934,252.364042 79.5615934,228.286978 L79.5615934,227.831602 C79.5615934,201.253777 99.9471168,188.533704 127.49673,188.533704 C141.832544,188.533704 151.016257,190.57452 160.198444,193.527612 L160.198444,191.2553 C160.198444,174.672906 149.894244,165.586704 131.079539,165.586704 C117.862685,165.586704 108.007291,168.539796 97.2558125,173.08442 L89.8642666,151.046649 C102.855191,145.143512 115.623239,141.052741 134.88675,141.052741 C169.829436,141.052741 186.853501,159.680521 186.853501,191.712199 L186.853501,262.816372 L159.975568,262.816372 L159.975568,262.813326 L159.975568,262.813326 Z M160.647249,212.609245 C153.702982,209.88308 144.07199,207.837694 133.544914,207.837694 C116.522376,207.837694 106.442579,214.881557 106.442579,226.463951 L106.442579,226.919327 C106.442579,238.276317 116.522376,244.6394 129.290425,244.6394 C147.209046,244.6394 160.648776,234.415519 160.648776,219.421611 L160.647249,212.609245 L160.647249,212.609245 Z M206.680307,96.9832927 L233.784169,96.9832927 L233.784169,262.813326 L206.680307,262.813326 L206.680307,96.9832927 L206.680307,96.9832927 Z M254.235334,96.9832927 L281.339196,96.9832927 L281.339196,196.028373 L330.394819,142.8712 L363.319409,142.8712 L316.283408,191.709153 L364.890227,262.814849 L333.531875,262.814849 L297.915981,211.020758 L281.340722,228.510859 L281.340722,262.811803 L254.235334,262.811803 L254.235334,96.9832927 L254.235334,96.9832927 Z M372.39321,292.57117 L381.576924,272.124931 C386.506148,274.849574 391.881124,276.668032 397.480502,276.668032 C405.096451,276.668032 409.799745,273.261087 414.280164,262.81028 L365.001665,142.869677 L393.896167,142.869677 L427.495491,231.917804 L458.185214,142.869677 L486.406509,142.869677 L439.370509,266.220271 C429.962393,290.752711 419.435317,299.838913 400.394682,299.838913 C388.969996,299.840436 380.68084,297.115793 372.39321,292.57117 L372.39321,292.57117 L372.39321,292.57117 Z M426.95204,-0.151949436 C391.017097,-1.26373744 363.600293,26.0192355 362.612617,59.9775053 L362.589719,60.4191745 C362.269143,71.7472281 364.92839,82.4706518 369.958366,91.7670271 C369.614893,100.417652 362.140913,113.031115 350.617002,122.332059 C375.412723,126.765504 387.15951,117.97781 394.346499,116.218748 C402.525744,121.004005 412.352134,123.390542 422.866997,123.71951 C459.024816,124.841959 486.449252,97.5635547 487.441509,63.8306884 L487.450668,63.3676972 C488.433765,29.4246573 462.856451,0.958315565 426.95204,-0.151949436 L426.95204,-0.151949436 L426.95204,-0.151949436 Z M455.36568,60.2013859 L418.273614,95.7907859 C415.551779,98.3920652 412.968859,97.7310844 412.510895,94.3210935 L404.004969,30.8943497 C403.545478,27.4736978 405.867357,26.1486902 409.170807,27.927551 L454.297096,52.2467712 C457.579174,54.0195401 458.066143,57.6016296 455.36568,60.2013859 L455.36568,60.2013859 L455.36568,60.2013859 Z" id="talky" sketch:type="MSShapeGroup"></path>
        </g>
    </g>
</svg>