<svg xmlns="http://www.w3.org/2000/svg" viewBox="0 0 165 102"><path d="M6 77.8V56.6H1v-7.9h5v-11h9.1v11.1h10.6v7.9H15v19.7c0 3.6 1.8 5 4.8 5 2.1 0 3.8-.4 5.6-1.4v7.5c-2.2 1.3-4.8 2.1-8.2 2.1C10.8 89.5 6 86.5 6 77.8zM54.4 88.8v-4.9c-2.8 3.3-6.8 5.7-12.8 5.7-7.5 0-14-4.3-14-12.4v-.1c0-8.9 6.8-13.1 16-13.1 4.8 0 7.9.7 11 1.7V65c0-5.5-3.5-8.6-9.8-8.6-4.4 0-7.7 1-11.4 2.6l-2.5-7.4c4.3-2 8.6-3.4 15.1-3.4 11.6 0 17.4 6.3 17.4 17V89l-9-.2zm.2-16.8c-2.4-.9-5.5-1.6-9.1-1.6-5.7 0-9.1 2.4-9.1 6.3v.1c0 3.8 3.4 5.9 7.7 5.9 6 0 10.5-3.5 10.5-8.4V72zM70 33.2h9v55.6h-9.1l.1-55.6zM85.9 33.2H95v33.2l16.4-17.8h11.1L106.6 65l16.3 23.8h-10.5l-11.9-17.4-5.5 6v11.5h-9.1V33.2zM125.4 98.8l3.1-6.8c1.7.9 3.5 1.5 5.3 1.5 2.6 0 4.1-1.2 5.6-4.6l-16.5-40.2h9.7l11.3 29.8 10.3-29.8h9.5L147.9 90c-3.2 8.2-6.6 11.3-13 11.3-4 0-6.7-.9-9.5-2.5zM143.7.8c-12-.4-21.1 8.8-21.5 20.1v.1c-.1 3.8.8 7.4 2.5 10.5-.1 3-2.6 7.1-6.4 10.3 8.3 1.5 12.2-1.5 14.6-2.1 2.8 1.6 6 2.4 9.6 2.6 12.1.4 21.3-8.8 21.6-20v-.1c.1-11.6-8.5-21.1-20.4-21.4zm9.4 20.1l-12.4 11.9c-.9.9-1.8.6-1.9-.5L136 11c-.1-1.2.6-1.6 1.7-1l15.1 8.2c1.1.7 1.2 1.9.3 2.7z"/><g><path d="M153.3 84.9c0-2.3 1.9-4.2 4.1-4.2 2.4 0 4.1 1.9 4.1 4.1 0 2.3-1.9 4.2-4.1 4.2-2.2 0-4.1-1.9-4.1-4.1zm7.9-.1c0-2.1-1.6-3.8-3.8-3.8-2.1 0-3.8 1.7-3.8 3.8 0 2.1 1.6 3.8 3.8 3.8s3.8-1.8 3.8-3.8zm-5.4-2.2h2.1c1 0 1.8.5 1.8 1.5 0 .7-.4 1.2-1 1.4l1.1 1.6h-1.3l-1-1.4h-.7V87h-1.1l.1-4.4zm2 2.1c.5 0 .8-.2.8-.6s-.3-.6-.8-.6h-.9v1.2h.9z"/></g></svg>