<?xml version="1.0" encoding="UTF-8" standalone="no"?>
<svg width="164px" height="100px" viewBox="0 0 164 100" version="1.1" xmlns="http://www.w3.org/2000/svg" xmlns:xlink="http://www.w3.org/1999/xlink" xmlns:sketch="http://www.bohemiancoding.com/sketch/ns">
    <!-- Generator: Sketch 3.0.3 (7891) - http://www.bohemiancoding.com/sketch -->
    <title>Untitled 2</title>
    <desc>Created with Sketch.</desc>
    <defs></defs>
    <g id="Page-1" stroke="none" stroke-width="1" fill="none" fill-rule="evenodd" sketch:type="MSPage">
        <g id="talky-logo" sketch:type="MSLayerGroup" fill="#000000">
            <path d="M5.33592822,76.5279165 L5.33592822,55.4770484 L0.312375,55.4770484 L0.312375,47.6021373 L5.33592822,47.6021373 L5.33592822,36.62285 L14.407141,36.62285 L14.407141,47.6021373 L25.0525571,47.6021373 L25.0525571,55.4770484 L14.407141,55.4770484 L14.407141,75.0896995 C14.407141,78.6484364 16.2061576,80.0871611 19.2804781,80.0871611 C21.3043079,80.0871611 23.1038354,79.6322926 24.902852,78.7240786 L24.902852,86.2207788 C22.654209,87.5077114 20.1046229,88.2651487 16.731403,88.2651487 C10.0590493,88.2651487 5.33592822,85.3110417 5.33592822,76.5279165 L5.33592822,76.5279165 L5.33592822,76.5279165 Z M53.7520063,87.5833536 L53.7520063,82.6615342 C51.053226,85.9177023 46.9294365,88.4169408 40.9320334,88.4169408 C33.435024,88.4169408 26.8372674,84.1002589 26.8372674,76.074571 L26.8372674,75.922779 C26.8372674,67.0635039 33.6603481,62.8234795 42.8812661,62.8234795 C47.6794951,62.8234795 50.7533048,63.5037516 53.8266034,64.4881155 L53.8266034,63.7306782 C53.8266034,58.2032135 50.3777645,55.1744796 44.0804401,55.1744796 C39.6567294,55.1744796 36.3581066,56.1588435 32.7595625,57.6737181 L30.2855954,50.3277947 C34.6336871,48.3600822 38.9071817,46.996492 45.3547222,46.996492 C57.0501182,46.996492 62.7481111,53.2057519 62.7481111,63.882978 L62.7481111,87.584369 L53.7520063,87.584369 L53.7520063,87.5833536 L53.7520063,87.5833536 Z M53.9768195,70.8486598 C51.6525576,69.9399381 48.4290428,69.258143 44.9056068,69.258143 C39.2081249,69.258143 35.834394,71.6060971 35.834394,75.4668951 L35.834394,75.6186872 C35.834394,79.4043507 39.2081249,81.5253782 43.4816195,81.5253782 C49.4790226,81.5253782 53.9773305,78.117418 53.9773305,73.1194487 L53.9768195,70.8486598 L53.9768195,70.8486598 Z M69.3841881,32.3066758 L78.4559118,32.3066758 L78.4559118,87.5833536 L69.3841881,87.5833536 L69.3841881,32.3066758 L69.3841881,32.3066758 Z M85.3009629,32.3066758 L94.3726866,32.3066758 L94.3726866,65.3217027 L110.791715,47.6026449 L121.811649,47.6026449 L106.068594,63.8819626 L122.337405,87.5838613 L111.841694,87.5838613 L99.9209743,70.3191644 L94.3731975,76.1491979 L94.3731975,87.582846 L85.3009629,87.582846 L85.3009629,32.3066758 L85.3009629,32.3066758 Z M124.848671,97.5026348 L127.922481,90.6872221 C129.572303,91.5954361 131.37132,92.201589 133.245444,92.201589 C135.794519,92.201589 137.368723,91.0659407 138.868329,87.5823383 L122.374704,47.6021373 L132.045759,47.6021373 L143.291529,77.2848462 L153.563448,47.6021373 L163.00918,47.6021373 L147.266124,88.7190019 C144.117206,96.8964819 140.59377,99.9252158 134.220827,99.9252158 C130.396959,99.9257234 127.622559,99.0175094 124.848671,97.5026348 L124.848671,97.5026348 L124.848671,97.5026348 Z M143.109634,-0.0717382475 C131.082128,-0.442334247 121.905662,8.65199005 121.575084,19.9714133 L121.56742,20.1186364 C121.460123,23.8946543 122.350179,27.4691288 124.033723,30.5679206 C123.918762,33.4514621 121.417204,37.6559498 117.560125,40.7562646 C125.859309,42.2340796 129.790985,39.3048482 132.196486,38.7184943 C134.934098,40.3135801 138.223013,41.1090923 141.742361,41.2187481 C153.844465,41.5928978 163.023486,32.5000965 163.355596,21.2558077 L163.358662,21.1014773 C163.687707,9.78713067 155.126922,0.298350086 143.109634,-0.0717382475 L143.109634,-0.0717382475 L143.109634,-0.0717382475 Z M152.619744,20.0460402 L140.204946,31.9091735 C139.293941,32.7762666 138.429432,32.5559397 138.276151,31.4192761 L135.429198,10.2770281 C135.275405,9.13681084 136.052544,8.69514164 137.158216,9.28809524 L152.262087,17.394502 C153.360606,17.9854249 153.523595,19.1794548 152.619744,20.0460402 L152.619744,20.0460402 L152.619744,20.0460402 Z" id="talky" sketch:type="MSShapeGroup"></path>
        </g>
    </g>
</svg>