<?xml version="1.0" encoding="UTF-8" standalone="no"?>
<svg width="341px" height="300px" viewBox="0 0 341 300" version="1.1" xmlns="http://www.w3.org/2000/svg" xmlns:xlink="http://www.w3.org/1999/xlink" xmlns:sketch="http://www.bohemiancoding.com/sketch/ns">
    <!-- Generator: Sketch 3.0.3 (7891) - http://www.bohemiancoding.com/sketch -->
    <title>Untitled 2</title>
    <desc>Created with Sketch.</desc>
    <defs></defs>
    <g id="Page-1" stroke="none" stroke-width="1" fill="none" fill-rule="evenodd" sketch:type="MSPage">
        <g id="andbang" sketch:type="MSLayerGroup">
            <g id="Group" sketch:type="MSShapeGroup">
                <path d="M179.273473,193.824913 C197.944262,174.422491 214.136564,159.179585 220.927454,149.768512 L252.224601,182.488235 C241.249183,196.849827 222.178134,215.140484 209.578808,228.23564 L262.367271,291.82526 L196.930619,291.82526 L172.185247,263.2609 C141.82897,294.06436 119.673326,298.160554 90.4097043,298.160554 C41.2287713,298.160554 0.293176829,264.985121 0.257829268,217.675433 C0.227679878,175.72526 29.0182683,151.813495 60.720872,131.537024 C40.3981037,107.882699 32.0415244,92.2536332 32.0415244,72.400692 C32.0415244,31.8487889 65.0135213,4.78027682 108.09596,4.78027682 C150.367485,4.78027682 183.109723,28.3089965 183.109723,66.7484429 C183.109723,94.2041522 164.949393,115.325606 130.402351,136.446021 L179.273473,193.824913 L179.273473,193.824913 Z M54.5433659,211.955709 C54.5433659,234.342561 71.3864787,250.622491 95.3666799,250.622491 C108.78004,250.622491 125.194823,247.611073 142.921625,228.200346 L88.5872256,164.874394 C59.729061,184.727336 54.5433659,197.59308 54.5433659,211.955709 L54.5433659,211.955709 Z M135.051595,70.4823529 C135.051595,54.0083045 123.67072,40.5259516 106.599927,40.5259516 C91.5616189,40.5259516 80.5872409,54.4307958 80.5872409,70.0598616 C80.5872409,86.53391 94.1794177,96.5107266 103.121311,108.339446 C126.287479,92.2878893 135.051595,84.8439446 135.051595,70.4823529 L135.051595,70.4823529 Z" id="Shape" fill="#EE0788"></path>
                <path d="M306.549643,231.776471 C325.373259,231.776471 340.34711,247.041176 340.34711,266.231834 C340.34711,284.986505 325.373259,300.252249 306.549643,300.252249 C288.151238,300.252249 273.177387,284.986505 273.177387,266.231834 C273.177387,247.041176 288.151238,231.776471 306.549643,231.776471 L306.549643,231.776471 Z M277.677963,0.287543253 L334.650954,0.287543253 L334.650954,201.750519 L277.677963,201.750519 L277.677963,0.287543253 L277.677963,0.287543253 Z" id="Shape" fill="#00B0E9"></path>
            </g>
        </g>
    </g>
</svg>