<?xml version="1.0" encoding="UTF-8" standalone="no"?>
<svg width="680px" height="600px" viewBox="0 0 680 600" version="1.1" xmlns="http://www.w3.org/2000/svg" xmlns:xlink="http://www.w3.org/1999/xlink" xmlns:sketch="http://www.bohemiancoding.com/sketch/ns">
    <!-- Generator: Sketch 3.0.3 (7891) - http://www.bohemiancoding.com/sketch -->
    <title>Untitled 2</title>
    <desc>Created with Sketch.</desc>
    <defs></defs>
    <g id="Page-1" stroke="none" stroke-width="1" fill="none" fill-rule="evenodd" sketch:type="MSPage">
        <g id="andbang-large" sketch:type="MSLayerGroup">
            <g id="Group" sketch:type="MSShapeGroup">
                <path d="M358.021216,387.649827 C395.308043,348.844983 427.645162,318.35917 441.207027,299.537024 L503.70954,364.976471 C481.79089,393.699654 443.70472,430.280969 418.543015,456.47128 L523.965137,583.650519 L393.283729,583.650519 L343.865552,526.521799 C283.242018,588.12872 238.995704,596.321107 180.554277,596.321107 C82.3366372,596.321107 0.585493902,529.970242 0.514902439,435.350865 C0.454692073,351.450519 57.951439,303.62699 121.263677,263.074048 C80.6777378,215.765398 63.9890854,184.507266 63.9890854,144.801384 C63.9890854,63.6975779 129.836387,9.56055363 215.874924,9.56055363 C300.294009,9.56055363 365.682466,56.6179931 365.682466,133.496886 C365.682466,188.408304 329.415064,230.651211 260.42229,272.892042 L358.021216,387.649827 L358.021216,387.649827 Z M108.92678,423.911419 C108.92678,468.685121 142.563613,501.244983 190.453692,501.244983 C217.241076,501.244983 250.022506,495.222145 285.424125,456.400692 L176.914665,329.748789 C119.282963,369.454671 108.92678,395.186159 108.92678,423.911419 L108.92678,423.911419 Z M269.707143,140.964706 C269.707143,108.016609 246.978768,81.0519031 212.887244,81.0519031 C182.854729,81.0519031 160.938155,108.861592 160.938155,140.119723 C160.938155,173.06782 188.082649,193.021453 205.940213,216.678893 C252.204613,184.575779 269.707143,169.687889 269.707143,140.964706 L269.707143,140.964706 Z" id="Shape" fill="#EE0788"></path>
                <path d="M612.200314,463.552941 C649.792345,463.552941 679.696134,494.082353 679.696134,532.463668 C679.696134,569.97301 649.792345,600.504498 612.200314,600.504498 C575.457457,600.504498 545.553668,569.97301 545.553668,532.463668 C545.553668,494.082353 575.457457,463.552941 612.200314,463.552941 L612.200314,463.552941 Z M554.541622,0.575086505 L668.320527,0.575086505 L668.320527,403.501038 L554.541622,403.501038 L554.541622,0.575086505 L554.541622,0.575086505 Z" id="Shape" fill="#00B0E9"></path>
            </g>
        </g>
    </g>
</svg>