<?xml version="1.0" encoding="UTF-8" standalone="no"?>
<svg width="114px" height="100px" viewBox="0 0 114 100" version="1.1" xmlns="http://www.w3.org/2000/svg" xmlns:xlink="http://www.w3.org/1999/xlink" xmlns:sketch="http://www.bohemiancoding.com/sketch/ns">
    <!-- Generator: Sketch 3.0.3 (7891) - http://www.bohemiancoding.com/sketch -->
    <title>Untitled 2</title>
    <desc>Created with Sketch.</desc>
    <defs></defs>
    <g id="Page-1" stroke="none" stroke-width="1" fill="none" fill-rule="evenodd" sketch:type="MSPage">
        <g id="andbang-small" sketch:type="MSLayerGroup">
            <g id="Page-1" sketch:type="MSShapeGroup">
                <g id="andbang">
                    <g id="Group">
                        <path d="M59.9330671,64.6083045 C66.1749147,58.1408305 71.5881767,53.0598616 73.8584453,49.9228374 L84.3214207,60.8294117 C80.6522193,65.616609 74.2765607,71.7134947 70.0644693,76.0785467 L87.7122253,97.2750867 L65.8360427,97.2750867 L57.5633963,87.7536333 C47.4149634,98.0214533 40.0080915,99.3868513 30.2249451,99.3868513 C13.7832256,99.3868513 0.0980121953,88.328374 0.086195122,72.5584773 C0.0761158533,58.5750865 9.70112193,50.6044983 20.2996463,43.8456747 C13.5055244,35.9608997 10.7118293,30.7512111 10.7118293,24.133564 C10.7118293,10.616263 21.7347256,1.59342561 36.1376525,1.59342561 C50.2694817,1.59342561 61.2155671,9.4363322 61.2155671,22.249481 C61.2155671,31.4013841 55.1443719,38.4418685 43.5949207,45.4820069 L59.9330671,64.6083045 L59.9330671,64.6083045 Z M18.234439,70.6519033 C18.234439,78.1141867 23.8652744,83.5408307 31.8821159,83.5408307 C36.3663475,83.5408307 41.8539878,82.537024 47.78025,76.066782 L29.6156707,54.9581315 C19.9680732,61.5757785 18.234439,65.8643599 18.234439,70.6519033 L18.234439,70.6519033 L18.234439,70.6519033 Z M45.1492134,23.4941177 C45.1492134,18.0027681 41.3444634,13.5086505 35.6375122,13.5086505 C30.6100427,13.5086505 26.941189,18.1435986 26.941189,23.3532872 C26.941189,28.8446367 31.4852012,32.1702422 34.4745732,36.1131488 C42.2192744,30.7626297 45.1492134,28.2813149 45.1492134,23.4941177 L45.1492134,23.4941177 L45.1492134,23.4941177 Z" id="Shape" fill="#EE0788"></path>
                        <path d="M102.482872,77.2588233 C108.775811,77.2588233 113.781732,82.3470587 113.781732,88.7439447 C113.781732,94.995502 108.775811,100.084083 102.482872,100.084083 C96.3320853,100.084083 91.3261647,94.995502 91.3261647,88.7439447 C91.3261647,82.3470587 96.3320853,77.2588233 102.482872,77.2588233 L102.482872,77.2588233 L102.482872,77.2588233 Z M92.830756,0.0958477507 L111.877445,0.0958477507 L111.877445,67.2501733 L92.830756,67.2501733 L92.830756,0.0958477507 L92.830756,0.0958477507 Z" id="Shape" fill="#00B0E9"></path>
                    </g>
                </g>
            </g>
        </g>
    </g>
</svg>