<svg version="1.1" id="Layer_1" xmlns="http://www.w3.org/2000/svg" x="0" y="0" viewBox="0 0 186 101" xml:space="preserve"><style>.st1{fill:#12acef}</style><path d="M42.4 47.2c.3.3.7.3 1 0 .9-1 2.8-3.1 3.7-4.1 1-1.2 3.3-3.7 4.7-5.3.3-.4.9-.3 1.1.1l3.9 7.2c.3.5.2 1-.1 1.4-.8 1-1.7 2.2-2.8 3.4-1.2 1.5-2.7 3.1-4.4 5-.2.2-.2.6 0 .9l11.4 14.1c.4.4 0 1.1-.5 1.1H49.6c-.4 0-.8-.2-1-.5l-6-7.3c-.2-.3-.7-.3-1 0-6.1 6.1-12.4 9.2-19 9.2-6.1 0-11.2-1.9-15.4-5.8-4.1-4-6.2-8.8-6.2-14.5 0-6.8 3.3-12.5 9.8-17 0 0 3.4-2.4 4.8-3.3.3-.2.3-.7.1-.9-4.2-4.6-6.3-9.2-6.3-13.7 0-4.6 1.5-8.4 4.5-11.2C17 3 21 1.5 25.8 1.5c4.7 0 8.6 1.4 11.6 4.2C40.5 8.5 42 12 42 16.3c0 2.9-.8 5.6-2.5 8-1.6 2.3-4.4 5-8.4 8.2-.3.2-.4.7-.1 1l11.4 13.7zm-19.6-8c-.2-.3-.6-.3-.9-.1-1.7 1.3-7.4 5.6-8.7 7.1-1.5 1.8-2.3 3.6-2.3 5.6 0 2.8 1.1 5.4 3.4 7.8 2.4 2.3 5 3.4 7.8 3.4 3.9 0 8.3-2.5 13.3-7.4.2-.2.3-.7.1-.9L22.8 39.2zm6.2-17c.9-.8 1.6-1.5 2-2.1.9-1.1 1.3-2.4 1.3-4 0-1.8-.6-3.3-1.8-4.4-1.2-1.1-2.8-1.7-4.9-1.7-1.9 0-3.4.6-4.7 1.7-1.3 1.1-1.9 2.5-1.9 4.2 0 2 .8 4 2.4 5.9l2.7 3.3c.2.3.6.3.9.1l4-3z" fill="#ea0091"/><path class="st1" d="M110.8 27.4V26c0-.3-.3-.6-.6-.6h-19c-.3 0-.6.3-.6.6v1.4c0 .3.3.6.6.6 1.5 0 2.6.5 3.3 1.5.9 1.4.8 3.6-.2 6-.5 1.3-8 18.6-11.4 26.3-.2.4-.6.6-1 .7-.5 0-.8-.3-1-.7C77.5 53.6 70.4 34.3 70 33c-.4-1.1 0-2.1.4-2.7.8-1.2 2.4-2.2 3.9-2.3.3 0 .5-.3.5-.6V26c0-.3-.3-.6-.6-.6H50.5c-.3 0-.6.3-.6.6v1.4c0 .3.2.5.4.6 1.7.5 5.9 1.9 7.6 5.2.5 1 16.5 37 17.1 38.6.7 1.7.8 2.1.8 2.2 0 .2-.2 1.1-1.6 4-3.4 6.9-8.4 14.9-16.4 15.6-2 .2-2.4-1.4-2.8-4.1-.2-1.2-.3-2.2-.7-3.1-.8-1.5-2.2-2.5-4-2.8-1.8-.3-3.6.2-4.9 1.3-2.4 2.3-2.5 6.2-1.1 8.8 1.3 2.5 3.8 4.3 7.1 5.2 1.6.4 3.3.6 5 .6 3.5 0 7.1-.8 9.6-2.4 4.5-2.7 8-7.4 11.1-12.1 5.4-8.2 9.4-17.1 13.3-25.8 2.9-6.4 5.8-13 9.3-19.3 4.4-7.9 7.6-11.4 10.5-11.9.4-.1.6-.3.6-.6zM129.5 24c-9.2 0-17.5 6.1-20.6 15.2-4.2 12 .8 25.6 11.4 30.8 2.7 1.4 5.8 2 9.3 2.1h.1c10.9 0 19.5-8.5 20-9.6.2-.4-.1-.7-.1-.7l-2-1.9c-.2-.2-.5-.2-.8 0-.1.1-7 5.2-13.9 5.2-.9 0-1.9-.1-2.8-.3-4.7-1.1-8.4-4.6-10.5-9.8-.9-2.2-1.4-5-1.5-8.2 0-.3.1-.6.3-.8.2-.2.5-.3.8-.3h29.1c.7 0 1.3-.3 1.7-.8.4-.5.6-1.2.5-1.8-2.2-12.4-9.6-19.1-21-19.1zm9.3 16.2c-.4.4-.9.7-1.4.7h-17.7c-.3 0-.6-.2-.9-.4-.2-.3-.3-.6-.2-.9.8-3.5 1.7-6.6 4.6-8.7 1.9-1.4 4.3-2.1 6.6-2.1.7 0 1.5.1 2.2.2 3.9.9 6.4 4.2 7.3 9.9 0 .4-.1.9-.5 1.3zM184.4 59.8l-.5-1.4c-.1-.2-.2-.3-.4-.3-.2-.1-.4 0-.5.1 0 0-4.3 3.2-5.9 4.2-2 1.3-4.2 1.8-5.7 1.3-1.2-.4-2-1.3-2.5-2.6-1.5-4-1-18.7-.8-26.6.1-2.3.1-4.1.1-5.1 0-.6.5-1.1 1.1-1.1h14.4c.3 0 .6-.3.6-.6v-4.4c0-.3-.3-.6-.6-.6h-14.4c-.6 0-1.1-.5-1.1-1.1V6.3c0-.3-.3-.6-.6-.6H164c-.3 0-.5.2-.6.5-2.2 17.4-10.6 17.7-14.2 17.8-.3 0-.6.3-.6.6v3.1c0 .3.3.6.6.6h7.7c.6 0 1.1.5 1.1 1.1V59.3c-.1 2.5-.1 5.1.9 7.4 1.3 3.1 3.4 4.9 6.1 5.4.5.1 1 .1 1.6.1 6.9 0 15.5-7.3 18.4-10.4.1-.3.1-.3-.6-2z"/></svg>