<svg width="186" height="101" xmlns="http://www.w3.org/2000/svg" xmlns:sketch="http://www.bohemiancoding.com/sketch/ns"><title>Untitled 3</title><desc>Created with Sketch.</desc><g sketch:type="MSShapeGroup" fill="none"><path d="M30.516 32.025l12.664 15.153.41-.452c1.366-1.471 2.66-2.911 3.873-4.329 1.217-1.41 4.333-4.767 5.456-6.209l4.98 8.961c-.852 1.203-1.969 2.6-3.353 4.194-1.379 1.596-3.027 3.427-4.943 5.501l13.034 15.922h-13.212l-7.018-8.524c-6.442 6.586-13.137 9.877-20.09 9.877-6.231 0-11.516-1.966-15.858-5.91-4.253-3.966-6.379-8.867-6.379-14.7 0-6.947 3.369-12.719 10.114-17.32l4.602-3.111c.061-.029.167-.106.317-.228l.637-.492c-4.645-4.903-6.97-9.727-6.97-14.481 0-4.691 1.551-8.509 4.647-11.455 3.16-2.947 7.232-4.422 12.21-4.422 4.833 0 8.824 1.427 11.983 4.284 3.159 2.862 4.739 6.466 4.739 10.824 0 3.007-.864 5.731-2.597 8.165-1.701 2.438-4.785 5.352-9.248 8.751zm-8.43 5.909l-.593.406c-4.344 2.978-7.306 5.367-8.884 7.167-1.55 1.807-2.322 3.718-2.322 5.731 0 2.888 1.169 5.534 3.507 7.936 2.428 2.317 5.101 3.473 8.021 3.473 4.098 0 8.824-2.659 14.167-7.98l-13.895-16.733zm2.28-13.305l.864-.633c1.489-1.106 2.719-2.08 3.691-2.905.97-.828 1.672-1.527 2.097-2.1.909-1.109 1.366-2.481 1.366-4.101 0-1.835-.623-3.322-1.868-4.468-1.246-1.141-2.918-1.715-5.014-1.715-1.913 0-3.521.588-4.829 1.759-1.305 1.115-1.961 2.541-1.961 4.286 0 2.046.822 4.058 2.462 6.045l2.641 3.156c.092.149.275.378.55.676z" id="Shape" fill="#EE0788"/><path d="M47.505 23.367c2.487.248 4.793.39 6.906.431 2.118.046 4.466.064 7.038.064 2.483 0 5.016-.019 7.589-.064 2.572-.04 5.105-.182 7.592-.431v1.478c-1.823.166-3.564.702-5.227 1.603-1.655.905-2.486 2.385-2.486 4.435 0 1.645.535 3.845 1.618 6.593 1.075 2.756 2.338 5.711 3.793 8.872 1.451 3.166 2.949 6.389 4.48 9.675 1.534 3.287 2.759 6.326 3.671 9.119.418-.823 1.061-2.177 1.932-4.068.872-1.89 1.868-4.047 2.986-6.467 1.119-2.42 2.246-4.95 3.361-7.576 1.124-2.629 2.159-5.093 3.118-7.395.95-2.303 1.738-4.311 2.358-6.036.629-1.728.939-2.877.939-3.454 0-.984-.23-1.766-.685-2.34-.457-.575-1.015-1.048-1.683-1.421-.666-.363-1.451-.651-2.366-.861-.91-.202-1.789-.429-2.612-.678v-1.478c1.904.248 3.818.39 5.723.431 1.909.046 3.859.064 5.853.064 1.904 0 3.779-.019 5.603-.064 1.82-.04 3.689-.182 5.599-.431v1.478c-2.323.331-4.585 1.747-6.785 4.249-2.197 2.509-4.225 5.365-6.093 8.569-1.872 3.203-3.516 6.345-4.924 9.422-1.409 3.082-2.488 5.364-3.237 6.845-3.478 7.142-6.639 13.264-9.46 18.357-2.822 5.095-5.376 9.347-7.655 12.753-2.284 3.413-4.36 6.104-6.223 8.073-1.866 1.976-3.653 3.47-5.356 4.497-1.7 1.029-3.36 1.682-4.973 1.975-1.618.285-3.3.43-5.047.43-1.493 0-2.963-.209-4.416-.617-1.451-.41-2.741-1.046-3.856-1.907-1.125-.865-2.039-1.955-2.747-3.267-.699-1.321-1.054-2.875-1.054-4.683 0-1.644.601-3.12 1.8-4.434 1.208-1.315 2.636-1.975 4.302-1.975 1.908 0 3.438.473 4.604 1.42 1.162.941 1.739 2.4 1.739 4.375 0 1.393-.333 2.565-.996 3.511-.661.942-.993 1.621-.993 2.032 0 .494.602.801 1.807.927 1.201.121 2.381.182 3.548.182 2.485 0 4.936-1.007 7.339-3.019 2.407-2.01 4.543-4.311 6.409-6.895 1.873-2.59 3.385-5.058 4.549-7.395 1.165-2.34 1.74-3.844 1.74-4.5 0-.247-.29-1.091-.868-2.526-.586-1.436-1.372-3.284-2.363-5.549-1.001-2.256-2.121-4.776-3.365-7.573-1.243-2.796-2.487-5.567-3.729-8.318-1.246-2.752-2.492-5.422-3.743-8.01-1.241-2.586-2.319-4.786-3.235-6.591-.828-1.884-1.535-3.41-2.115-4.562-.582-1.149-1.288-2.073-2.113-2.772-.829-.697-1.829-1.251-2.989-1.663-1.164-.41-2.7-.861-4.606-1.356v-1.48h.001z" id="Shape" fill="#00B0E9"/><path d="M115.763 43.327c0 4.275.563 7.806 1.673 10.603 1.13 2.79 2.537 5.01 4.245 6.65 1.696 1.647 3.518 2.797 5.471 3.45 1.951.659 12.059.433 14.872-.675 2.825-1.108 5.439-2.856 7.85-5.237l2.113 1.971c-3.399 3.615-6.888 6.367-10.455 8.255-3.569 1.889-7.843 2.835-12.822 2.835-3.573 0-6.765-.699-9.587-2.097-2.823-1.392-5.227-3.243-7.22-5.546-1.989-2.297-3.502-4.93-4.542-7.886-1.041-2.954-1.555-5.997-1.555-9.119 0-3.119.515-6.161 1.555-9.116 1.04-2.958 2.553-5.587 4.542-7.886 1.993-2.301 4.397-4.15 7.22-5.547 2.823-1.394 6.014-2.096 9.587-2.096 6.553 0 11.828 1.766 15.815 5.3 3.978 3.535 6.421 8.916 7.339 16.141h-36.1zm24.279-3.693c-.257-2.219-.587-4.209-1.002-5.978-.413-1.767-1.078-3.242-1.986-4.434-.923-1.192-2.126-2.095-3.612-2.71-1.499-.618-3.405-.928-5.728-.928-1.739 0-3.343.437-4.793 1.297-1.456.86-2.696 1.97-3.734 3.326-1.039 1.356-1.831 2.875-2.369 4.56-.54 1.685-.806 3.308-.806 4.868h24.03z" fill="#00B0E9"/><path d="M148.425 27.68v-1.972c2.654-.079 4.935-.736 6.852-1.97 1.909-1.233 3.56-2.794 4.973-4.683 1.415-1.889 2.592-3.984 3.548-6.285.952-2.297 1.805-4.514 2.555-6.653h1.735v17.866h17.057v3.698h-17.056v28.71c0 1.07.068 2.117.193 3.144.121 1.028.372 1.953.744 2.772.374.821.911 1.481 1.618 1.971.707.495 1.683.742 2.927.742 2.492 0 4.567-.535 6.221-1.6 1.665-1.071 3.32-2.423 4.988-4.071l1.119 1.232c-1.416 1.234-2.787 2.488-4.107 3.756-1.331 1.28-2.721 2.429-4.166 3.455-1.457 1.028-3.033 1.847-4.735 2.46-1.708.618-3.547.929-5.543.929-3.487 0-5.85-1.049-7.095-3.144-1.247-2.096-1.87-4.581-1.87-7.457v-32.9h-9.958z" fill="#00B0E9"/></g></svg>