<svg width="875" height="601" xmlns="http://www.w3.org/2000/svg" xmlns:sketch="http://www.bohemiancoding.com/sketch/ns"><title>Untitled 3</title><desc>Created with Sketch.</desc><g sketch:type="MSShapeGroup" fill="none"><path d="M400.222 536.538c-5.202 0-10.308-.727-15.359-2.161-1.005-.286-1.984-.61-2.943-.959-7.727 26.473-19.079 40.309-32.468 43.068-.902.186-1.83.312-2.757.378-19.847 1.436-46.691-24.323-71.809-68.91-5.773-10.245-11.364-21.295-16.747-33.014 19.051-13.59 38.605-29.204 58.211-46.5l-14.634-30.761v-4.157c-12.893-3.975-25.867-8.301-38.833-12.982-15.012-5.419-29.681-11.164-43.92-17.18-3.945-14.908-7.557-30.192-10.791-45.746-3.029-14.577-5.655-29.055-7.882-43.335 9.455-10.965 19.352-21.888 29.643-32.684 12.818-13.445 25.881-26.306 39.049-38.488 10.848 3.149 21.78 6.586 32.734 10.245v-24.949c-4.006-1.302-8.008-2.584-11.994-3.822 15.343-13.238 30.731-25.481 45.956-36.522 6.724 16.493 13.032 34.046 18.837 52.406l27.748 9.671c-7.886-26.943-16.836-52.493-26.618-75.919 1.045-.694 2.093-1.408 3.137-2.086 39.918-26.036 75.804-41.376 101.05-43.202 12.297-.89 21.456 1.424 27.224 6.876 14.455 13.66 9.955 49.582-12.039 96.092-5.36 11.334-11.609 23.036-18.655 34.984l28.077-1.372c4.387-7.975 8.433-15.836 12.072-23.535 35.073-74.171 23.114-108.007 6.9-123.326-10.817-10.228-26.059-14.705-45.301-13.314-30.299 2.192-69.521 18.976-112.224 46.807-5.124-10.942-10.432-21.309-15.895-31.006-31.08-55.16-63.666-83.145-94.249-80.934-1.963.142-3.932.416-5.85.81-21.891 4.51-49.967 26.976-59.441 108.413-1.733 14.903-2.703 30.841-2.933 47.589-29.251-3.817-56.214-4.986-79.716-3.286-58.46 4.228-78.122 25.417-84.321 42.449-7.618 20.924-3.119 56.513 61.566 107.227 16.212 12.713 34.829 25.229 55.343 37.288-12.931 19.923-23.962 39.409-32.75 57.997-35.073 74.173-23.114 108.007-6.905 123.328 10.819 10.228 26.061 14.703 45.305 13.311 30.298-2.19 69.523-18.976 112.227-46.812 5.124 10.947 10.434 21.316 15.897 31.016 31.078 55.153 63.668 83.143 94.253 80.931 1.961-.14 3.929-.414 5.846-.81 17.449-3.593 38.824-16.099 51.58-63.277-1.855.097-3.723.163-5.62.163zm-187.52-311.23c-5.669 5.946-11.217 11.934-16.651 17.946-2.355-20.133-3.859-39.708-4.49-58.443 16.351 2.922 33.286 6.593 50.58 10.982-9.869 9.451-19.702 19.301-29.439 29.514zm-18.65-113.161c5.94-51.061 21.135-83.948 40.651-87.968.904-.184 1.829-.314 2.757-.382 19.845-1.434 46.687 24.326 71.806 68.913 5.773 10.243 11.364 21.29 16.745 33.007-20.683 14.755-41.961 31.871-63.255 50.967-24.632-6.772-48.638-12.163-71.52-16.086.134-17.117 1.059-33.357 2.816-48.453zm-9.147 210.26c2.01 9.675 4.166 19.25 6.456 28.712-12.774-5.957-25.096-12.118-36.888-18.437 8.022-11.351 16.641-22.805 25.787-34.268 1.433 7.963 2.978 15.966 4.645 23.993zm-105.162-37.59c-40.557-31.8-60.717-61.923-53.927-80.58 5.3-14.558 28.521-24.369 63.706-26.913 22.546-1.63 49.129-.295 78.166 3.699.726 27.267 3.257 56.261 7.525 86.14-15.098 17.969-29.019 36.033-41.538 53.877-20.05-11.729-38.201-23.887-53.932-36.222zm145.623 183.716c-39.92 26.034-75.804 41.374-101.048 43.2-12.297.89-21.459-1.425-27.224-6.872-14.451-13.663-9.953-49.585 12.038-96.092 8.532-18.036 19.302-36.994 31.968-56.414 18.194 9.834 37.6 19.288 57.931 28.2 8.553 30.624 18.49 59.591 29.477 85.888-1.048.694-2.097 1.408-3.142 2.09zm23.109-15.935c-7.678-18.832-14.817-39.05-21.282-60.276 9.065 3.602 18.267 7.096 27.591 10.46 13.292 4.798 26.527 9.227 39.645 13.295-15.343 13.236-30.731 25.483-45.954 36.52z" id="Shape" fill="#00B0E9"/><path d="M307.001 437.372c-25.157 0-46.87-8.176-64.54-24.302l-.145-.134c-17.618-16.543-26.552-37.24-26.552-61.519 0-29.005 13.859-53.223 41.195-71.983l6.823-4.639c-11.797-15.834-17.76-31.92-17.76-47.976 0-20.234 6.874-37.073 20.428-50.053 13.722-12.864 31.217-19.334 52.109-19.334 20.306 0 37.483 6.264 51.059 18.616 13.936 12.685 21.003 28.868 21.003 48.097 0 13.394-3.892 25.686-11.567 36.534-5.092 7.34-12.94 15.465-23.8 24.605l24.714 29.747c1.315-1.503 2.59-2.981 3.833-4.441 1.588-1.857 4.021-4.576 6.688-7.557 4.307-4.814 9.669-10.805 11.876-13.656l12.99-16.774 31.74 57.458-4.965 7.073c-3.217 4.585-7.428 9.891-12.515 15.773-2.773 3.236-5.886 6.777-9.399 10.687l56.202 69.045h-81.785l-19.103-23.339c-21.724 18.64-44.72 28.07-68.528 28.07zm-19.77-68.939c5.742 5.435 11.642 8.077 18.03 8.077 5.93 0 15.69-2.879 30.198-15.274l-31.783-38.509c-11.668 8.504-17.238 13.757-19.895 16.807-3.107 3.649-4.666 7.269-4.666 10.953 0 6.342 2.656 12.213 8.116 17.946zm30.852-152.82c-4.067 0-6.109 1.372-7.433 2.565l-.261.231c-1.247 1.07-1.97 2.147-1.97 4.481 0 3.884 1.766 7.925 5.401 12.349l2.524 3.033c1.656-1.325 3.187-2.584 4.57-3.763 3.567-3.061 4.835-4.634 5.139-5.043l.185-.25.195-.241c.707-.867 1.644-2.393 1.644-5.618 0-3.13-.986-4.476-2.052-5.464-.585-.539-2.475-2.279-7.941-2.279z" id="Shape" fill="#EE0788"/><path d="M318.559 171.307c16.79 0 30.679 4.991 41.66 14.984 10.979 9.992 16.47 22.602 16.47 37.855 0 10.505-3.002 20.032-9.025 28.545-5.913 8.521-16.63 18.709-32.147 30.602l44.025 52.991 1.432-1.583c4.741-5.14 9.241-10.186 13.457-15.142 4.228-4.935 15.059-16.661 18.969-21.709l17.311 31.339c-2.954 4.21-6.836 9.099-11.653 14.667-4.789 5.589-10.521 11.995-17.18 19.242l45.315 55.672h-45.942l-24.392-29.801c-22.4 23.041-45.681 34.531-69.857 34.531-21.653 0-40.021-6.871-55.127-20.655-14.777-13.876-22.177-31.011-22.177-51.427 0-24.279 11.721-44.468 35.169-60.56l16.001-10.88c.207-.101.582-.362 1.104-.789.524-.42 1.263-.999 2.219-1.734-16.153-17.135-24.235-34.011-24.235-50.634 0-16.401 5.388-29.745 16.153-40.054 10.989-10.301 25.141-15.46 42.452-15.46zm-4.432 86.116l3.011-2.206c5.172-3.884 9.446-7.283 12.833-10.171 3.377-2.896 5.806-5.345 7.285-7.339 3.161-3.884 4.751-8.671 4.751-14.351 0-6.408-2.17-11.613-6.491-15.617-4.34-3.995-10.146-5.998-17.435-5.998-6.649 0-12.243 2.058-16.787 6.158-4.537 3.891-6.809 8.884-6.809 14.991 0 7.145 2.842 14.185 8.549 21.132l9.183 11.038c.327.52.963 1.311 1.909 2.364zm-8.866 132.961c14.244 0 30.677-9.314 49.262-27.902l-48.307-58.531-2.067 1.425c-15.104 10.412-25.404 18.765-30.893 25.07-5.378 6.314-8.072 13.001-8.072 20.041 0 10.096 4.068 19.334 12.187 27.753 8.455 8.102 17.743 12.144 27.891 12.144zm13.298-246.822c-24.558 0-45.266 7.739-61.55 23.001l-.108.102-.108.102c-16.162 15.475-24.704 36.243-24.704 60.054 0 14.981 4.227 29.801 12.607 44.301-35.291 26.22-42.865 57.923-42.865 80.296 0 27.853 10.695 52.614 30.925 71.612l.145.137.146.134c20.32 18.543 45.2 27.945 73.953 27.945 23.114 0 45.346-7.585 66.384-22.601l14.629 17.87h117.63l-67.196-82.552 1.776-2.06c5.442-6.298 9.803-11.799 13.326-16.819l9.929-14.145-46.169-83.579-25.979 33.548c-1.877 2.423-7.358 8.553-11.075 12.709l-5.742-6.91c6.721-6.406 12.022-12.421 16.007-18.146 9.31-13.205 14.032-28.148 14.032-44.414 0-22.96-8.831-43.132-25.535-58.335-16.224-14.764-36.566-22.25-60.46-22.25zm-24.15 204.943c.965-1.091 3.023-3.189 7.093-6.562l13.873 16.809c-6.264 3.708-9.545 3.886-10.115 3.886-1.158 0-3.824 0-8.17-4.013-3.953-4.252-4.042-6.872-4.044-8.06.07-.182.373-.877 1.362-2.06z" id="Shape" fill="#fff"/><path d="M394.581 253.009c8.642.874 16.667 1.368 23.999 1.509 7.37.158 15.526.224 24.467.224 8.652 0 17.454-.066 26.395-.224 8.941-.14 17.752-.635 26.393-1.509v5.169c-6.341.576-12.391 2.457-18.171 5.605-5.763 3.165-8.643 8.336-8.643 15.508 0 5.754 1.862 13.446 5.62 23.058 3.743 9.628 8.138 19.965 13.191 31.02 5.049 11.083 10.249 22.334 15.58 33.845 5.341 11.492 9.596 22.108 12.759 31.869 1.459-2.853 3.694-7.601 6.722-14.213 3.032-6.612 6.494-14.157 10.383-22.613 3.891-8.473 7.8-17.32 11.672-26.504 3.929-9.192 7.52-17.806 10.85-25.862 3.293-8.038 6.024-15.068 8.194-21.113 2.187-6.035 3.255-10.047 3.255-12.059 0-3.456-.787-6.184-2.375-8.194-1.592-2.013-3.535-3.673-5.855-4.966-2.302-1.275-5.033-2.282-8.232-3.007-3.142-.708-6.209-1.509-9.072-2.374v-5.169c6.642.874 13.283 1.368 19.902 1.509 6.642.158 13.413.224 20.354.224 6.623 0 13.131-.066 19.474-.224 6.339-.14 12.83-.635 19.472-1.509v5.169c-8.063 1.153-15.939 6.108-23.589 14.861-7.651 8.775-14.702 18.758-21.174 29.971-6.512 11.194-12.234 22.183-17.135 32.948-4.902 10.765-8.643 18.739-11.243 23.915-12.102 24.997-23.063 46.398-32.884 64.224-9.812 17.806-18.697 32.669-26.618 44.591-7.943 11.918-15.153 21.343-21.634 28.236-6.493 6.89-12.701 12.125-18.622 15.72-5.911 3.593-11.681 5.886-17.294 6.91-5.622.988-11.466 1.49-17.536 1.49-5.2 0-10.308-.727-15.357-2.161-5.044-1.432-9.532-3.65-13.413-6.669-3.899-3.016-7.079-6.834-9.54-11.416-2.431-4.62-3.666-10.06-3.666-16.372 0-5.757 2.095-10.935 6.257-15.517 4.199-4.601 9.166-6.909 14.946-6.909 6.641 0 11.961 1.656 16.021 4.972 4.032 3.297 6.033 8.381 6.033 15.291 0 4.882-1.149 8.977-3.452 12.291-2.299 3.281-3.46 5.646-3.46 7.099 0 1.732 2.095 2.794 6.287 3.239 4.171.428 8.278.635 12.335.635 8.642 0 17.153-3.522 25.524-10.562 8.361-7.039 15.778-15.087 22.28-24.118 6.499-9.054 11.757-17.677 15.806-25.855 4.04-8.194 6.05-13.446 6.05-15.737 0-.858-1.01-3.818-3.022-8.83-2.029-5.008-4.76-11.492-8.211-19.406-3.478-7.882-7.379-16.708-11.701-26.487-4.321-9.779-8.64-19.465-12.962-29.076-4.34-9.64-8.669-18.978-13.009-28.021-4.321-9.054-8.063-16.738-11.242-23.058-2.882-6.595-5.341-11.912-7.362-15.945-2.018-4.023-4.479-7.255-7.342-9.694-2.889-2.433-6.36-4.379-10.39-5.821-4.051-1.434-9.39-3.009-16.012-4.739v-5.169" fill="#00B0E9"/><path d="M631.892 322.807c0 14.958 1.947 27.309 5.819 37.066 3.927 9.76 8.811 17.528 14.739 23.265 5.913 5.755 12.254 9.779 19.044 12.069 6.771 2.31 13.039 3.466 18.817 3.466 12.121 0 23.083-1.956 32.865-5.832 9.822-3.874 18.911-9.983 27.294-18.309l7.351 6.891c-11.822 12.647-23.943 22.257-36.344 28.869-12.422 6.612-27.274 9.928-44.577 9.928-12.438 0-23.534-2.457-33.335-7.339-9.819-4.88-18.182-11.343-25.103-19.389-6.921-8.045-12.177-17.246-15.787-27.584-3.61-10.339-5.423-20.972-5.423-31.888 0-10.914 1.813-21.551 5.423-31.878 3.61-10.346 8.866-19.538 15.787-27.584 6.921-8.046 15.284-14.509 25.103-19.391 9.801-4.878 20.897-7.328 33.335-7.328 22.785 0 41.116 6.175 54.977 18.524 13.823 12.368 22.316 31.179 25.514 56.443h-125.498zm84.401-12.916c-.897-7.748-2.039-14.714-3.497-20.898-1.423-6.173-3.743-11.343-6.904-15.506-3.197-4.172-7.388-7.328-12.551-9.47-5.2-2.169-11.841-3.251-19.902-3.251-6.061 0-11.635 1.519-16.667 4.526-5.07 3.009-9.373 6.902-12.982 11.632-3.612 4.751-6.36 10.058-8.25 15.943-1.87 5.894-2.788 11.577-2.788 17.024h83.54z" fill="#00B0E9"/><path d="M745.438 268.096v-6.902c9.222-.279 17.153-2.579 23.831-6.891 6.621-4.302 12.363-9.77 17.285-16.38 4.899-6.603 9.016-13.934 12.344-21.971 3.293-8.027 6.266-15.784 8.866-23.263h6.041v62.48h59.3v12.928h-59.3v100.403c0 3.744.244 7.394.676 10.989.411 3.595 1.289 6.817 2.581 9.704 1.29 2.868 3.161 5.159 5.63 6.891 2.45 1.715 5.836 2.591 10.174 2.591 8.661 0 15.864-1.883 21.625-5.608 5.78-3.744 11.541-8.457 17.341-14.23l3.871 4.302c-4.899 4.321-9.671 8.719-14.272 13.15-4.62 4.472-9.446 8.494-14.479 12.069-5.068 3.597-10.549 6.463-16.459 8.605-5.93 2.162-12.348 3.26-19.269 3.26-12.139 0-20.35-3.668-24.671-10.989-4.342-7.339-6.512-16.037-6.512-26.095v-115.042h-34.605" fill="#00B0E9"/><path d="M616.78 505.086h17.894l7.294-17.894h33.736l7.294 17.894h18.349l-34.191-80.35h-16.184l-34.191 80.35zm31.456-33.394l10.599-25.872 10.599 25.872h-21.199zm-98.529 33.394h57.328v-15.956h-39.776v-63.824h-17.552v79.78zm277.137 1.14c17.21 0 29.291-8.89 29.291-24.732v-.228c0-13.905-9.118-19.717-25.302-23.934-13.791-3.533-17.21-5.243-17.21-10.485v-.228c0-3.875 3.533-6.952 10.257-6.952s13.677 2.963 20.743 7.864l9.118-13.221c-8.092-6.496-18.007-10.143-29.633-10.143-16.298 0-27.923 9.574-27.923 24.048v.228c0 15.842 10.371 20.287 26.441 24.39 13.335 3.419 16.07 5.699 16.07 10.143v.228c0 4.673-4.331 7.522-11.511 7.522-9.118 0-16.64-3.761-23.82-9.688l-10.371 12.423c9.574 8.548 21.769 12.765 33.849 12.765zm-112.233-1.14h37.952c18.007 0 29.86-7.294 29.86-21.883v-.228c0-10.713-5.699-16.07-14.93-19.603 5.699-3.191 10.485-8.206 10.485-17.21v-.228c0-5.471-1.824-9.916-5.471-13.563-4.559-4.559-11.739-7.066-20.857-7.066h-37.041v79.78zm17.096-47.526v-16.868h17.324c7.408 0 11.511 2.963 11.511 8.206v.228c0 5.927-4.901 8.434-12.651 8.434h-16.184zm0 32.14v-17.552h20.287c9.004 0 12.993 3.305 12.993 8.662v.228c0 5.927-4.673 8.662-12.423 8.662h-20.857z" fill="#EE0788"/></g></svg>