<svg width="147" height="101" xmlns="http://www.w3.org/2000/svg" xmlns:sketch="http://www.bohemiancoding.com/sketch/ns"><title>Untitled 3</title><desc>Created with Sketch.</desc><g sketch:type="MSShapeGroup" fill="none"><path d="M67.058 90.076c-.867 0-1.718-.121-2.56-.36l-.491-.16c-1.288 4.412-3.18 6.718-5.411 7.178-.15.031-.305.052-.459.063-3.308.239-7.782-4.054-11.968-11.485-.962-1.708-1.894-3.549-2.791-5.502 3.175-2.265 6.434-4.867 9.702-7.75l-2.439-5.127v-.693c-2.149-.662-4.311-1.384-6.472-2.164-2.502-.903-4.947-1.861-7.32-2.863-.657-2.485-1.259-5.032-1.798-7.624-.505-2.429-.942-4.842-1.314-7.223 1.576-1.827 3.225-3.648 4.94-5.447 2.136-2.241 4.314-4.384 6.508-6.415 1.808.525 3.63 1.098 5.456 1.708v-4.158c-.668-.217-1.335-.431-1.999-.637 2.557-2.206 5.122-4.247 7.659-6.087 1.121 2.749 2.172 5.674 3.139 8.734l4.625 1.612c-1.314-4.49-2.806-8.749-4.436-12.653l.523-.348c6.653-4.339 12.634-6.896 16.842-7.2 2.05-.148 3.576.237 4.537 1.146 2.409 2.277 1.659 8.264-2.007 16.015-.893 1.889-1.935 3.839-3.109 5.831l4.68-.229c.731-1.329 1.405-2.639 2.012-3.923 5.846-12.362 3.852-18.001 1.15-20.554-1.803-1.705-4.343-2.451-7.55-2.219-5.05.365-11.587 3.163-18.704 7.801-.854-1.824-1.739-3.551-2.649-5.168-5.18-9.193-10.611-13.858-15.708-13.489-.327.024-.655.069-.975.135-3.649.752-8.328 4.496-9.907 18.069-.289 2.484-.45 5.14-.489 7.932-4.875-.636-9.369-.831-13.286-.548-9.743.705-13.02 4.236-14.053 7.075-1.27 3.487-.52 9.419 10.261 17.871 2.702 2.119 5.805 4.205 9.224 6.215-2.155 3.321-3.994 6.568-5.458 9.666-5.846 12.362-3.852 18.001-1.151 20.555 1.803 1.705 4.343 2.451 7.551 2.218 5.05-.365 11.587-3.163 18.705-7.802.854 1.825 1.739 3.553 2.649 5.169 5.18 9.192 10.611 13.857 15.709 13.488.327-.023.655-.069.974-.135 2.908-.599 6.471-2.683 8.597-10.546-.309.016-.621.027-.937.027zm-31.253-51.872c-.945.991-1.87 1.989-2.775 2.991-.392-3.355-.643-6.618-.748-9.74 2.725.487 5.548 1.099 8.43 1.83-1.645 1.575-3.284 3.217-4.907 4.919zm-3.108-18.86c.99-8.51 3.523-13.991 6.775-14.661.151-.031.305-.052.459-.064 3.307-.239 7.781 4.054 11.968 11.486.962 1.707 1.894 3.548 2.791 5.501-3.447 2.459-6.993 5.312-10.542 8.495-4.105-1.129-8.106-2.027-11.92-2.681.022-2.853.176-5.56.469-8.075zm-1.524 35.043c.335 1.612.694 3.208 1.076 4.785-2.129-.993-4.183-2.02-6.148-3.073 1.337-1.892 2.773-3.801 4.298-5.711.239 1.327.496 2.661.774 3.999zm-17.527-6.265c-6.76-5.3-10.12-10.321-8.988-13.43.883-2.426 4.754-4.062 10.618-4.486 3.758-.272 8.188-.049 13.028.616.121 4.545.543 9.377 1.254 14.357-2.516 2.995-4.837 6.005-6.923 8.979-3.342-1.955-6.367-3.981-8.989-6.037zm24.271 30.619c-6.653 4.339-12.634 6.896-16.841 7.2-2.05.148-3.577-.238-4.537-1.145-2.409-2.277-1.659-8.264 2.006-16.015 1.422-3.006 3.217-6.166 5.328-9.402 3.032 1.639 6.267 3.215 9.655 4.7 1.425 5.104 3.082 9.932 4.913 14.315l-.524.348zm3.851-2.656c-1.28-3.139-2.47-6.508-3.547-10.046 1.511.6 3.045 1.183 4.599 1.743 2.215.8 4.421 1.538 6.607 2.216-2.557 2.206-5.122 4.247-7.659 6.087z" id="Shape" fill="#00B0E9"/><path d="M51.521 73.549c-4.193 0-7.812-1.363-10.757-4.05l-.024-.022c-2.936-2.757-4.425-6.207-4.425-10.253 0-4.834 2.31-8.871 6.866-11.997l1.137-.773c-1.966-2.639-2.96-5.32-2.96-7.996 0-3.372 1.146-6.179 3.405-8.342 2.287-2.144 5.203-3.222 8.685-3.222 3.384 0 6.247 1.044 8.51 3.103 2.323 2.114 3.501 4.811 3.501 8.016 0 2.232-.649 4.281-1.928 6.089-.849 1.223-2.157 2.577-3.967 4.101l4.119 4.958.639-.74c.265-.31.67-.763 1.115-1.26.718-.802 1.612-1.801 1.979-2.276l2.165-2.796 5.29 9.576-.828 1.179c-.536.764-1.238 1.649-2.086 2.629-.462.539-.981 1.129-1.567 1.781l9.367 11.508h-13.631l-3.184-3.89c-3.621 3.107-7.453 4.678-11.421 4.678zm-3.295-11.49c.957.906 1.94 1.346 3.005 1.346.988 0 2.615-.48 5.033-2.546l-5.297-6.418c-1.945 1.417-2.873 2.293-3.316 2.801-.518.608-.778 1.212-.778 1.825 0 1.057.443 2.036 1.353 2.991zm5.142-25.47c-.678 0-1.018.229-1.239.427l-.044.038c-.208.178-.328.358-.328.747 0 .647.294 1.321.9 2.058l.421.505c.276-.221.531-.431.762-.627.594-.51.806-.772.857-.84l.031-.042.033-.04c.118-.145.274-.399.274-.936 0-.522-.164-.746-.342-.911-.098-.09-.412-.38-1.324-.38z" id="Shape" fill="#EE0788"/><path d="M53.447 29.204c2.798 0 5.113.832 6.943 2.497 1.83 1.665 2.745 3.767 2.745 6.309 0 1.751-.5 3.339-1.504 4.758-.985 1.42-2.772 3.118-5.358 5.1l7.337 8.832.239-.264c.79-.857 1.54-1.698 2.243-2.524.705-.823 2.51-2.777 3.161-3.618l2.885 5.223c-.492.702-1.139 1.516-1.942 2.445-.798.932-1.753 1.999-2.863 3.207l7.553 9.279h-7.657l-4.065-4.967c-3.733 3.84-7.613 5.755-11.643 5.755-3.609 0-6.67-1.145-9.188-3.442-2.463-2.313-3.696-5.168-3.696-8.571 0-4.047 1.953-7.411 5.861-10.093l2.667-1.813.184-.132.37-.289c-2.692-2.856-4.039-5.668-4.039-8.439 0-2.734.898-4.958 2.692-6.676 1.832-1.717 4.19-2.577 7.075-2.577zm-.739 14.353l.502-.368c.862-.647 1.574-1.214 2.139-1.695.563-.483.968-.891 1.214-1.223.527-.647.792-1.445.792-2.392 0-1.068-.362-1.936-1.082-2.603-.723-.666-1.691-1-2.906-1-1.108 0-2.041.343-2.798 1.026-.756.649-1.135 1.481-1.135 2.499 0 1.191.474 2.364 1.425 3.522l1.531 1.84c.055.087.161.218.318.394zm-1.478 22.16c2.374 0 5.113-1.552 8.21-4.65l-8.051-9.755-.345.238c-2.517 1.735-4.234 3.127-5.149 4.178-.896 1.052-1.345 2.167-1.345 3.34 0 1.683.678 3.222 2.031 4.625 1.409 1.35 2.957 2.024 4.648 2.024zm2.216-41.137c-4.093 0-7.544 1.29-10.258 3.834l-.018.017-.018.017c-2.694 2.579-4.117 6.04-4.117 10.009 0 2.497.704 4.967 2.101 7.384-5.882 4.37-7.144 9.654-7.144 13.383 0 4.642 1.782 8.769 5.154 11.935l.024.023.024.022c3.387 3.09 7.533 4.658 12.326 4.658 3.852 0 7.558-1.264 11.064-3.767l2.438 2.978h19.605l-11.199-13.759.296-.343c.907-1.05 1.634-1.966 2.221-2.803l1.655-2.358-7.695-13.93-4.33 5.591c-.313.404-1.226 1.425-1.846 2.118l-.957-1.152c1.12-1.068 2.004-2.07 2.668-3.024 1.552-2.201 2.339-4.691 2.339-7.402 0-3.827-1.472-7.189-4.256-9.723-2.704-2.461-6.094-3.708-10.077-3.708zm-4.025 34.157c.161-.182.504-.532 1.182-1.094l2.312 2.801c-1.044.618-1.591.648-1.686.648-.193 0-.637 0-1.362-.669-.659-.709-.674-1.145-.674-1.343.012-.03.062-.146.227-.343z" id="Shape" fill="#fff"/><path d="M66.118 42.821c1.44.146 2.778.228 4 .251 1.228.026 2.588.037 4.078.037 1.442 0 2.909-.011 4.399-.037 1.49-.023 2.959-.106 4.399-.251v.862c-1.057.096-2.065.41-3.029.934-.96.527-1.441 1.389-1.441 2.585 0 .959.31 2.241.937 3.843.624 1.605 1.356 3.327 2.198 5.17.841 1.847 1.708 3.722 2.597 5.641.89 1.915 1.599 3.685 2.126 5.312.243-.475.616-1.267 1.12-2.369.505-1.102 1.082-2.36 1.731-3.769.648-1.412 1.3-2.887 1.945-4.417.655-1.532 1.253-2.968 1.808-4.31.549-1.34 1.004-2.511 1.366-3.519.365-1.006.542-1.675.542-2.01 0-.576-.131-1.031-.396-1.366-.265-.336-.589-.612-.976-.828-.384-.212-.839-.38-1.372-.501-.524-.118-1.035-.251-1.512-.396v-.862c1.107.146 2.214.228 3.317.251 1.107.026 2.236.037 3.392.037 1.104 0 2.189-.011 3.246-.037 1.057-.023 2.138-.106 3.245-.251v.862c-1.344.192-2.656 1.018-3.932 2.477-1.275 1.462-2.45 3.126-3.529 4.995-1.085 1.866-2.039 3.697-2.856 5.491-.817 1.794-1.441 3.123-1.874 3.986-2.017 4.166-3.844 7.733-5.481 10.704-1.635 2.968-3.116 5.445-4.436 7.432-1.324 1.986-2.526 3.557-3.606 4.706-1.082 1.148-2.117 2.021-3.104 2.62-.985.599-1.947.981-2.882 1.152-.937.165-1.911.248-2.923.248-.867 0-1.718-.121-2.559-.36-.841-.239-1.589-.608-2.236-1.112-.65-.503-1.18-1.139-1.59-1.903-.405-.77-.611-1.677-.611-2.729 0-.96.349-1.823 1.043-2.586.7-.767 1.528-1.151 2.491-1.151 1.107 0 1.993.276 2.67.829.672.549 1.005 1.397 1.005 2.549 0 .814-.192 1.496-.575 2.049-.383.547-.577.941-.577 1.183 0 .289.349.466 1.048.54.695.071 1.38.106 2.056.106 1.44 0 2.859-.587 4.254-1.76 1.394-1.173 2.63-2.514 3.713-4.02 1.083-1.509 1.96-2.946 2.634-4.309.673-1.366 1.008-2.241 1.008-2.623 0-.143-.168-.636-.504-1.472-.338-.835-.793-1.915-1.369-3.234l-1.95-4.414c-.72-1.63-1.44-3.244-2.16-4.846-.723-1.607-1.445-3.163-2.168-4.67-.72-1.509-1.344-2.79-1.874-3.843-.48-1.099-.89-1.985-1.227-2.658-.336-.671-.747-1.209-1.224-1.616-.482-.405-1.06-.73-1.732-.97-.675-.239-1.565-.501-2.669-.79v-.862" fill="#00B0E9"/><path d="M105.67 54.454c0 2.493.325 4.551.97 6.178.655 1.627 1.468 2.921 2.456 3.877.985.959 2.042 1.63 3.174 2.012 1.129.385 2.173.578 3.136.578 2.02 0 3.847-.326 5.477-.972 1.637-.646 3.152-1.664 4.549-3.051l1.225 1.149c-1.97 2.108-3.99 3.71-6.057 4.812-2.07 1.102-4.546 1.655-7.429 1.655-2.073 0-3.922-.41-5.556-1.223-1.636-.813-3.03-1.89-4.184-3.232-1.153-1.341-2.029-2.874-2.631-4.597-.602-1.723-.904-3.495-.904-5.315 0-1.819.302-3.592.904-5.313.602-1.724 1.478-3.256 2.631-4.597 1.153-1.341 2.547-2.418 4.184-3.232 1.634-.813 3.483-1.221 5.556-1.221 3.797 0 6.853 1.029 9.163 3.087 2.304 2.061 3.719 5.197 4.252 9.407h-20.916zm14.067-2.153c-.149-1.291-.34-2.452-.583-3.483-.237-1.029-.624-1.89-1.151-2.584-.533-.695-1.231-1.221-2.092-1.578-.867-.362-1.973-.542-3.317-.542-1.01 0-1.939.253-2.778.754-.845.501-1.562 1.15-2.164 1.939-.602.792-1.06 1.676-1.375 2.657-.312.982-.465 1.929-.465 2.837h13.923z" fill="#00B0E9"/><path d="M124.594 45.336v-1.15c1.537-.047 2.859-.43 3.972-1.149 1.104-.717 2.061-1.628 2.881-2.73.816-1.101 1.503-2.322 2.057-3.662.549-1.338 1.044-2.631 1.478-3.877h1.007v10.413h9.883v2.155h-9.883v16.734c0 .624.041 1.232.113 1.832.069.599.215 1.136.43 1.617.215.478.527.86.938 1.149.408.286.973.432 1.696.432 1.443 0 2.644-.314 3.604-.935.963-.624 1.924-1.41 2.89-2.372l.645.717c-.816.72-1.612 1.453-2.379 2.192-.77.745-1.574 1.416-2.413 2.012-.845.599-1.758 1.077-2.743 1.434-.988.36-2.058.543-3.211.543-2.023 0-3.392-.611-4.112-1.832-.724-1.223-1.085-2.673-1.085-4.349v-19.174h-5.767" fill="#00B0E9"/><path d="M103.151 84.834h2.982l1.216-2.982h5.623l1.216 2.982h3.058l-5.699-13.392h-2.697l-5.699 13.392zm5.243-5.566l1.767-4.312 1.767 4.312h-3.533zm-16.422 5.566h9.555v-2.659h-6.629v-10.637h-2.925v13.297zm46.189.19c2.868 0 4.882-1.482 4.882-4.122v-.038c0-2.317-1.52-3.286-4.217-3.989-2.298-.589-2.868-.874-2.868-1.748v-.038c0-.646.589-1.159 1.71-1.159s2.279.494 3.457 1.311l1.52-2.203c-1.349-1.083-3.001-1.691-4.939-1.691-2.716 0-4.654 1.596-4.654 4.008v.038c0 2.64 1.729 3.381 4.407 4.065 2.222.57 2.678.95 2.678 1.691v.038c0 .779-.722 1.254-1.919 1.254-1.52 0-2.773-.627-3.97-1.615l-1.729 2.07c1.596 1.425 3.628 2.127 5.642 2.127zm-18.705-.19h6.325c3.001 0 4.977-1.216 4.977-3.647v-.038c0-1.786-.95-2.678-2.488-3.267.95-.532 1.748-1.368 1.748-2.868v-.038c0-.912-.304-1.653-.912-2.26-.76-.76-1.957-1.178-3.476-1.178h-6.173v13.297zm2.849-7.921v-2.811h2.887c1.235 0 1.919.494 1.919 1.368v.038c0 .988-.817 1.406-2.108 1.406h-2.697zm0 5.357v-2.925h3.381c1.501 0 2.165.551 2.165 1.444v.038c0 .988-.779 1.444-2.07 1.444h-3.476z" fill="#EE0788"/></g></svg>