<svg width="1116" height="603" xmlns="http://www.w3.org/2000/svg" xmlns:sketch="http://www.bohemiancoding.com/sketch/ns"><title>Untitled 3</title><desc>Created with Sketch.</desc><g sketch:type="MSShapeGroup" fill="none"><path d="M183.096 193.109l75.985 91.373 2.457-2.725c8.196-8.872 15.957-17.555 23.236-26.101 7.3-8.5 25.996-28.745 32.738-37.438l29.881 54.036c-5.114 7.252-11.815 15.681-20.119 25.292-8.273 9.621-18.163 20.667-29.656 33.17l78.202 96.012h-79.272l-42.106-51.398c-38.65 39.715-78.821 59.557-120.538 59.557-37.386 0-69.095-11.856-95.147-35.64-25.52-23.916-38.272-53.471-38.272-88.643 0-41.889 20.216-76.695 60.684-104.441l27.613-18.762c.369-.173 1.003-.637 1.904-1.375l3.824-2.969c-27.869-29.565-41.819-58.655-41.819-87.319 0-28.286 9.307-51.311 27.885-69.071 18.957-17.769 43.391-26.662 73.262-26.662 28.996 0 52.943 8.602 71.895 25.831 18.952 17.255 28.432 38.987 28.432 65.271 0 18.131-5.186 34.556-15.583 49.234-10.208 14.703-28.709 32.274-55.488 52.768zm-50.578 35.63l-3.558 2.45c-26.062 17.958-43.836 32.361-53.302 43.219-9.297 10.894-13.935 22.419-13.935 34.556 0 17.413 7.013 33.369 21.04 47.853 14.569 13.97 30.608 20.942 48.126 20.942 24.588 0 52.943-16.033 85-48.118l-83.372-100.901zm13.679-80.229l5.186-3.82c8.933-6.672 16.315-12.544 22.146-17.52 5.821-4.991 10.034-9.208 12.583-12.661 5.457-6.687 8.196-14.958 8.196-24.731 0-11.067-3.737-20.031-11.206-26.942-7.474-6.881-17.508-10.339-30.081-10.339-11.477 0-21.127 3.545-28.975 10.609-7.827 6.723-11.764 15.325-11.764 25.847 0 12.335 4.93 24.472 14.774 36.45l15.844 19.032c.553.901 1.648 2.277 3.297 4.074z" id="Shape" fill="#EE0788"/><path d="M285.03 140.901c14.923 1.497 28.76 2.353 41.435 2.597 12.706.275 26.794.387 42.229.387 14.897 0 30.096-.112 45.536-.387 15.435-.244 30.629-1.1 45.551-2.597v8.913c-10.94.998-21.383 4.232-31.361 9.666-9.931 5.46-14.918 14.382-14.918 26.743 0 9.921 3.21 23.183 9.711 39.756 6.45 16.618 14.027 34.439 22.76 53.496 8.708 19.093 17.692 38.528 26.881 58.34 9.204 19.822 16.556 38.146 22.023 54.989 2.508-4.961 6.368-13.13 11.59-24.533 5.232-11.398 11.206-24.405 17.917-38.997 6.716-14.591 13.474-29.85 20.165-45.684 6.742-15.854 12.952-30.71 18.706-44.589 5.698-13.888 10.428-25.994 14.15-36.399 3.773-10.42 5.636-17.347 5.636-20.825 0-5.933-1.377-10.649-4.111-14.113-2.744-3.468-6.092-6.32-10.1-8.566-3.993-2.19-8.708-3.927-14.196-5.19-5.462-1.217-10.735-2.587-15.67-4.09v-8.913c11.426 1.497 22.909 2.353 34.34 2.597 11.452.275 23.154.387 35.118.387 11.421 0 22.673-.112 33.618-.387 10.919-.244 22.136-1.1 33.593-2.597v8.913c-13.94 1.996-27.511 10.532-40.708 25.623-13.182 15.131-25.351 32.35-36.557 51.673-11.232 19.312-21.096 38.263-29.543 56.812-8.452 18.584-14.928 32.345-19.422 41.273-20.871 43.066-39.833 79.98-56.757 110.69-16.935 30.721-32.256 56.364-45.93 76.903-13.704 20.581-26.159 36.807-37.34 48.683-11.196 11.917-21.916 20.927-32.134 27.115-10.203 6.203-20.16 10.145-29.84 11.907-9.706 1.721-19.801 2.592-30.28 2.592-8.959 0-17.779-1.258-26.497-3.723-8.708-2.475-16.448-6.31-23.139-11.5-6.747-5.215-12.235-11.79-16.479-19.7-4.193-7.965-6.322-17.336-6.322-28.24 0-9.911 3.604-18.813 10.797-26.738 7.249-7.93 15.819-11.907 25.811-11.907 11.447 0 20.626 2.852 27.624 8.561 6.972 5.674 10.433 14.474 10.433 26.381 0 8.398-1.997 15.467-5.974 21.171-3.967 5.679-5.959 9.773-5.959 12.254 0 2.979 3.609 4.828 10.843 5.587 7.208.728 14.288 1.095 21.291 1.095 14.907 0 29.615-6.071 44.031-18.207 14.441-12.121 27.255-25.994 38.456-41.579 11.237-15.615 20.308-30.502 27.296-44.589 6.988-14.113 10.443-23.178 10.443-27.135 0-1.492-1.741-6.58-5.206-15.233-3.517-8.658-8.232-19.801-14.18-33.461-6.005-13.603-12.726-28.801-20.19-45.668-7.459-16.858-14.923-33.568-22.376-50.16-7.479-16.593-14.953-32.697-22.458-48.302-7.443-15.595-13.914-28.857-19.407-39.745-4.966-11.362-9.21-20.56-12.691-27.507-3.491-6.931-7.725-12.503-12.675-16.715-4.976-4.202-10.976-7.543-17.933-10.028-6.983-2.47-16.202-5.19-27.634-8.179v-8.923h.005z" id="Shape" fill="#00B0E9"/><path d="M694.577 261.263c0 25.78 3.379 47.069 10.039 63.937 6.783 16.822 15.225 30.211 25.473 40.097 10.177 9.931 21.107 16.863 32.825 20.805 11.708 3.972 72.356 2.613 89.234-4.069 16.95-6.682 32.635-17.224 47.097-31.581l12.675 11.887c-20.395 21.798-41.328 38.391-62.731 49.778-21.414 11.388-47.056 17.097-76.932 17.097-21.439 0-40.591-4.217-57.525-12.646-16.935-8.393-31.361-19.557-43.319-33.44-11.933-13.853-21.009-29.728-27.25-47.553-6.246-17.81-9.332-36.16-9.332-54.989 0-18.808 3.092-37.153 9.332-54.968 6.24-17.835 15.317-33.69 27.25-47.553 11.959-13.878 26.385-25.022 43.319-33.45 16.94-8.408 36.086-12.641 57.525-12.641 39.316 0 70.968 10.649 94.891 31.958 23.871 21.319 38.528 53.766 44.031 97.331h-216.601zm145.674-22.266c-1.541-13.379-3.522-25.383-6.015-36.048-2.478-10.654-6.466-19.552-11.913-26.738-5.539-7.186-12.757-12.631-21.67-16.343-8.995-3.728-20.431-5.597-34.366-5.597-10.433 0-20.057 2.633-28.76 7.818-8.733 5.185-16.177 11.882-22.407 20.056-6.235 8.179-10.986 17.336-14.216 27.497-3.24 10.16-4.833 19.949-4.833 29.356h144.179z" fill="#00B0E9"/><path d="M890.548 166.911v-11.892c15.926-.479 29.61-4.441 41.113-11.882 11.457-7.436 21.363-16.847 29.84-28.24 8.488-11.388 15.552-24.023 21.291-37.897 5.713-13.853 10.827-27.222 15.332-40.117h10.413v107.731h102.344v22.297h-102.339v173.119c0 6.453.41 12.763 1.157 18.961.727 6.198 2.232 11.775 4.464 16.715 2.242 4.95 5.467 8.928 9.706 11.887 4.244 2.984 10.1 4.472 17.564 4.472 14.953 0 27.403-3.224 37.325-9.651 9.988-6.458 19.919-14.612 29.927-24.548l6.711 7.431c-8.498 7.441-16.72 15.004-24.644 22.648-7.986 7.721-16.325 14.647-24.997 20.835-8.739 6.198-18.199 11.138-28.412 14.836-10.249 3.728-21.281 5.602-33.26 5.602-20.922 0-35.098-6.325-42.567-18.956-7.484-12.641-11.221-27.624-11.221-44.966v-198.386h-59.747z" fill="#00B0E9"/></g></svg>