<svg width="556" height="301" xmlns="http://www.w3.org/2000/svg" xmlns:sketch="http://www.bohemiancoding.com/sketch/ns"><title>Untitled 3</title><desc>Created with Sketch.</desc><g sketch:type="MSShapeGroup" fill="none"><path d="M91.22 96.074l37.856 45.459 1.224-1.356c4.083-4.414 7.95-8.734 11.576-12.986 3.637-4.229 12.951-14.301 16.31-18.626l14.887 26.884c-2.548 3.608-5.886 7.801-10.023 12.583-4.122 4.787-9.049 10.282-14.775 16.502l38.961 47.767h-39.494l-20.978-25.571c-19.256 19.759-39.269 29.63-60.053 29.63-18.626 0-34.424-5.899-47.403-17.731-12.714-11.899-19.067-26.602-19.067-44.101 0-20.84 10.072-38.157 30.233-51.961l13.757-9.334c.184-.086.5-.317.949-.684l1.905-1.477c-13.885-14.709-20.835-29.182-20.835-43.442 0-14.073 4.637-25.528 13.893-34.364 9.445-8.84 21.618-13.265 36.5-13.265 14.446 0 26.377 4.28 35.819 12.851 9.442 8.585 14.165 19.397 14.165 32.473 0 9.02-2.584 17.192-7.764 24.495-5.086 7.315-14.303 16.057-27.645 26.253h.001zm-25.198 17.726l-1.773 1.219c-12.984 8.934-21.839 16.1-26.555 21.502-4.632 5.42-6.943 11.154-6.943 17.192 0 8.663 3.494 16.601 10.482 23.807 7.258 6.95 15.249 10.419 23.977 10.419 12.25 0 26.377-7.977 42.348-23.939l-41.537-50.2zm6.815-39.915l2.584-1.9c4.45-3.319 8.128-6.241 11.033-8.716 2.9-2.483 4.999-4.581 6.269-6.299 2.719-3.327 4.083-7.442 4.083-12.304 0-5.506-1.862-9.966-5.583-13.404-3.724-3.423-8.723-5.144-14.987-5.144-5.718 0-10.526 1.764-14.436 5.278-3.899 3.345-5.861 7.624-5.861 12.859 0 6.137 2.456 12.175 7.361 18.134l7.894 9.469c.276.448.821 1.133 1.643 2.027z" id="Shape" fill="#EE0788"/><path d="M142.004 70.1c7.435.745 14.328 1.171 20.643 1.292 6.33.137 13.349.193 21.039.193 7.422 0 14.994-.056 22.686-.193 7.69-.121 15.26-.547 22.694-1.292v4.434c-5.45.497-10.653 2.105-15.624 4.809-4.948 2.716-7.432 7.155-7.432 13.305 0 4.936 1.599 11.534 4.838 19.779 3.213 8.268 6.988 17.134 11.339 26.615 4.338 9.499 8.814 19.168 13.392 29.025 4.586 9.862 8.248 18.978 10.972 27.358 1.25-2.468 3.173-6.532 5.774-12.205 2.607-5.671 5.583-12.142 8.926-19.401 3.346-7.259 6.713-14.851 10.046-22.728 3.359-7.888 6.453-15.279 9.319-22.184 2.839-6.909 5.195-12.932 7.05-18.109 1.88-5.184 2.808-8.63 2.808-10.361 0-2.952-.686-5.298-2.048-7.021-1.367-1.725-3.035-3.144-5.032-4.262-1.989-1.09-4.338-1.954-7.073-2.582-2.721-.605-5.348-1.287-7.807-2.035v-4.434c5.693.745 11.413 1.171 17.108 1.292 5.705.137 11.536.193 17.496.193 5.69 0 11.296-.056 16.749-.193 5.44-.121 11.028-.547 16.736-1.292v4.434c-6.945.993-13.706 5.24-20.281 12.748-6.567 7.528-12.63 16.095-18.213 25.708-5.596 9.608-10.51 19.036-14.719 28.265-4.211 9.246-7.437 16.092-9.676 20.534-10.398 21.426-19.845 39.791-28.277 55.07-8.437 15.284-16.07 28.042-22.883 38.26-6.827 10.239-13.033 18.312-18.603 24.22-5.578 5.929-10.919 10.411-16.009 13.49-5.083 3.086-10.044 5.047-14.867 5.924-4.836.856-9.865 1.29-15.086 1.29-4.463 0-8.858-.626-13.201-1.852-4.338-1.231-8.195-3.139-11.528-5.721-3.361-2.595-6.096-5.866-8.21-9.801-2.089-3.963-3.15-8.625-3.15-14.05 0-4.931 1.796-9.36 5.379-13.302 3.612-3.945 7.881-5.924 12.859-5.924 5.703 0 10.276 1.419 13.762 4.259 3.474 2.823 5.198 7.201 5.198 13.125 0 4.178-.995 7.695-2.976 10.533-1.976 2.825-2.969 4.862-2.969 6.097 0 1.482 1.798 2.402 5.402 2.78 3.591.362 7.118.545 10.607.545 7.427 0 14.754-3.02 21.937-9.058 7.195-6.03 13.579-12.932 19.159-20.686 5.598-7.769 10.118-15.175 13.599-22.184 3.481-7.021 5.203-11.531 5.203-13.5 0-.742-.867-3.274-2.594-7.579-1.752-4.307-4.101-9.851-7.065-16.647-2.992-6.768-6.34-14.329-10.059-22.72-3.716-8.387-7.435-16.7-11.148-24.955-3.726-8.255-7.45-16.267-11.189-24.031-3.708-7.759-6.932-14.357-9.669-19.774-2.474-5.653-4.588-10.229-6.323-13.685-1.739-3.448-3.849-6.22-6.315-8.316-2.479-2.091-5.468-3.753-8.934-4.989-3.479-1.229-8.072-2.582-13.767-4.069v-4.439h.002l-.001.001z" id="Shape" fill="#00B0E9"/><path d="M346.044 129.982c0 12.826 1.683 23.417 5.002 31.809 3.379 8.369 7.585 15.03 12.691 19.949 5.07 4.941 10.516 8.39 16.354 10.351 5.833 1.976 36.048 1.3 44.457-2.024 8.445-3.324 16.259-8.569 23.464-15.712l6.315 5.914c-10.161 10.845-20.59 19.1-31.253 24.765-10.669 5.666-23.444 8.506-38.328 8.506-10.681 0-20.223-2.098-28.659-6.292-8.437-4.176-15.624-9.73-21.582-16.637-5.945-6.892-10.467-14.79-13.576-23.658-3.112-8.861-4.649-17.99-4.649-27.358 0-9.357 1.54-18.484 4.649-27.347 3.109-8.873 7.631-16.761 13.576-23.658 5.958-6.904 13.145-12.449 21.582-16.642 8.44-4.183 17.978-6.289 28.659-6.289 19.588 0 35.357 5.298 47.275 15.9 11.893 10.606 19.195 26.749 21.937 48.423h-107.912zm72.576-11.078c-.768-6.656-1.755-12.628-2.997-17.934-1.235-5.3-3.221-9.727-5.935-13.302-2.76-3.575-6.356-6.284-10.796-8.131-4.481-1.855-10.179-2.785-17.121-2.785-5.198 0-9.993 1.31-14.328 3.89-4.351 2.58-8.06 5.911-11.163 9.978-3.106 4.069-5.473 8.625-7.083 13.68-1.614 5.055-2.408 9.925-2.408 14.605h71.831z" fill="#00B0E9"/><path d="M443.678 83.04v-5.916c7.934-.238 14.752-2.209 20.483-5.911 5.708-3.7 10.643-8.382 14.867-14.05 4.229-5.666 7.748-11.952 10.607-18.854 2.846-6.892 5.394-13.543 7.639-19.959h5.188v53.598h50.989v11.093h-50.986v86.129c0 3.21.204 6.35.576 9.433.362 3.084 1.112 5.858 2.224 8.316 1.117 2.463 2.724 4.442 4.836 5.914 2.114 1.485 5.032 2.225 8.751 2.225 7.45 0 13.652-1.604 18.596-4.801 4.976-3.213 9.924-7.27 14.91-12.213l3.343 3.697c-4.234 3.702-8.33 7.465-12.278 11.268-3.979 3.841-8.133 7.287-12.454 10.366-4.354 3.084-9.067 5.541-14.155 7.381-5.106 1.855-10.602 2.787-16.57 2.787-10.424 0-17.486-3.147-21.207-9.431-3.729-6.289-5.59-13.743-5.59-22.371v-98.7h-29.766z" fill="#00B0E9"/></g></svg>