<svg width="509" height="350" xmlns="http://www.w3.org/2000/svg" xmlns:sketch="http://www.bohemiancoding.com/sketch/ns"><title>andyet-labs</title><g sketch:type="MSLayerGroup" transform="translate(1.488 2.52)" fill="none"><path d="M229.564 310.067c-2.987 0-5.919-.419-8.819-1.246-.577-.165-1.139-.352-1.69-.553-4.437 15.266-10.955 23.245-18.643 24.836-.518.107-1.051.18-1.583.218-11.396.828-26.81-14.026-41.233-39.738-3.315-5.908-6.525-12.28-9.616-19.038 10.939-7.837 22.167-16.841 33.425-26.815l-8.403-17.739v-2.397c-7.403-2.292-14.853-4.787-22.298-7.486-8.62-3.125-17.043-6.438-25.219-9.907-2.265-8.597-4.339-17.411-6.196-26.38-1.739-8.406-3.247-16.755-4.526-24.99 5.429-6.323 11.112-12.622 17.021-18.848 7.36-7.753 14.861-15.17 22.422-22.195 6.229 1.816 12.506 3.798 18.796 5.908v-14.387c-2.3-.751-4.598-1.49-6.887-2.204 8.81-7.634 17.646-14.694 26.388-21.061 3.861 9.511 7.483 19.633 10.816 30.221l15.933 5.577c-4.528-15.537-9.667-30.271-15.284-43.78.6-.4 1.202-.812 1.801-1.203 22.921-15.014 43.527-23.86 58.023-24.913 7.061-.513 12.32.821 15.632 3.965 8.3 7.877 5.716 28.592-6.913 55.413-3.078 6.536-6.666 13.284-10.712 20.174l16.122-.791c2.519-4.599 4.842-9.132 6.932-13.572 20.139-42.772 13.272-62.284 3.962-71.118-6.211-5.898-14.963-8.48-26.012-7.678-17.398 1.264-39.919 10.943-64.439 26.992-2.942-6.31-5.99-12.288-9.127-17.88-17.846-31.809-36.557-47.947-54.118-46.672-1.127.082-2.258.24-3.359.467-12.57 2.601-28.691 15.556-34.131 62.518-.995 8.594-1.552 17.785-1.684 27.443-16.796-2.201-32.278-2.875-45.773-1.895-33.568 2.438-44.858 14.657-48.417 24.479-4.374 12.066-1.791 32.589 35.351 61.834 9.309 7.331 19.999 14.549 31.778 21.503-7.425 11.489-13.759 22.726-18.805 33.445-20.139 42.773-13.272 62.284-3.965 71.119 6.212 5.898 14.964 8.479 26.014 7.676 17.397-1.263 39.92-10.943 64.441-26.995 2.942 6.313 5.991 12.292 9.128 17.886 17.845 31.805 36.558 47.946 54.12 46.67 1.126-.081 2.256-.239 3.357-.467 10.019-2.072 22.293-9.284 29.617-36.49-1.065.056-2.138.094-3.227.094zm-107.674-179.476c-3.255 3.429-6.441 6.882-9.561 10.349-1.352-11.61-2.216-22.898-2.578-33.702 9.389 1.685 19.113 3.802 29.043 6.333-5.667 5.45-11.313 11.13-16.904 17.02zm-10.709-65.256c3.411-29.445 12.136-48.41 23.342-50.728.519-.106 1.05-.181 1.583-.22 11.395-.827 26.808 14.028 41.231 39.74 3.315 5.907 6.525 12.277 9.615 19.034-11.876 8.509-24.094 18.379-36.321 29.391-14.144-3.905-27.928-7.014-41.067-9.276.077-9.871.608-19.236 1.617-27.941zm-5.252 121.25c1.154 5.579 2.392 11.101 3.707 16.557-7.335-3.435-14.41-6.988-21.181-10.632 4.606-6.546 9.555-13.151 14.807-19.761.823 4.592 1.71 9.207 2.667 13.836zm-60.384-21.677c-23.288-18.338-34.864-35.709-30.965-46.468 3.043-8.395 16.377-14.053 36.58-15.52 12.946-.94 28.21-.17 44.883 2.133.417 15.724 1.87 32.444 4.321 49.674-8.669 10.362-16.663 20.779-23.851 31.069-11.513-6.764-21.935-13.775-30.968-20.888zm83.617 105.943c-22.922 15.013-43.527 23.859-58.022 24.912-7.061.513-12.322-.822-15.632-3.963-8.298-7.879-5.715-28.594 6.912-55.413 4.899-10.401 11.083-21.333 18.356-32.532 10.447 5.671 21.59 11.123 33.264 16.262 4.911 17.66 10.617 34.364 16.926 49.529-.602.4-1.204.812-1.804 1.205zm13.269-9.189c-4.409-10.86-8.508-22.519-12.22-34.759 5.205 2.077 10.489 4.092 15.843 6.032 7.632 2.767 15.232 5.321 22.764 7.667-8.81 7.633-17.646 14.695-26.387 21.06zm0 0" fill="#00A3DB" sketch:type="MSShapeGroup"/><path d="M176.036 252.881c-14.445 0-26.913-4.715-37.059-14.014l-.083-.077c-10.116-9.54-15.246-21.475-15.246-35.476 0-16.726 7.958-30.692 23.654-41.51l3.918-2.675c-6.774-9.131-10.198-18.407-10.198-27.666 0-11.668 3.947-21.379 11.73-28.864 7.879-7.418 17.925-11.149 29.921-11.149 11.66 0 21.523 3.612 29.318 10.735 8.002 7.315 12.06 16.647 12.06 27.736 0 7.724-2.235 14.812-6.642 21.068-2.924 4.233-7.43 8.918-13.666 14.189l14.191 17.154c.755-.867 1.487-1.719 2.201-2.561.912-1.071 2.309-2.639 3.84-4.358 2.473-2.776 5.552-6.231 6.819-7.875l7.459-9.673 18.225 33.134-2.851 4.079c-1.847 2.644-4.265 5.704-7.186 9.096-1.592 1.866-3.38 3.908-5.397 6.163l32.271 39.816h-46.961l-10.969-13.459c-12.474 10.749-25.678 16.187-39.349 16.187zm-11.352-39.755c3.297 3.134 6.685 4.658 10.353 4.658 3.405 0 9.009-1.66 17.34-8.808l-18.25-22.207c-6.7 4.904-9.898 7.933-11.424 9.692-1.784 2.104-2.679 4.192-2.679 6.316 0 3.657 1.525 7.043 4.66 10.349zm17.715-88.126c-2.335 0-3.508.791-4.268 1.479l-.15.133c-.716.617-1.131 1.238-1.131 2.584 0 2.24 1.014 4.57 3.101 7.121l1.449 1.749c.951-.764 1.83-1.49 2.624-2.17 2.048-1.765 2.776-2.672 2.951-2.908l.106-.144.112-.139c.406-.5.944-1.38.944-3.24 0-1.805-.566-2.581-1.178-3.151-.336-.311-1.421-1.314-4.56-1.314zm0 0" fill="#D8117D" sketch:type="MSShapeGroup"/><path d="M182.673 99.45c9.641 0 17.616 2.878 23.921 8.641 6.304 5.762 9.457 13.034 9.457 21.83 0 6.058-1.724 11.552-5.182 16.461-3.395 4.914-9.549 10.789-18.459 17.647l25.279 30.558.822-.913c2.722-2.964 5.306-5.874 7.727-8.732 2.428-2.846 8.647-9.608 10.892-12.519l9.94 18.072c-1.696 2.428-3.925 5.247-6.691 8.458-2.75 3.223-6.041 6.917-9.865 11.096l26.02 32.104h-26.38l-14.006-17.185c-12.862 13.287-26.23 19.913-40.112 19.913-12.433 0-22.98-3.962-31.654-11.911-8.485-8.002-12.734-17.883-12.734-29.656 0-14.001 6.73-25.643 20.194-34.923l9.188-6.274c.119-.058.334-.209.634-.455.301-.242.725-.576 1.274-1-9.275-9.881-13.916-19.613-13.916-29.199 0-9.458 3.094-17.153 9.275-23.098 6.31-5.94 14.436-8.915 24.376-8.915zm-2.545 49.66l1.729-1.272c2.97-2.24 5.424-4.2 7.369-5.865 1.939-1.67 3.334-3.082 4.183-4.232 1.815-2.24 2.728-5 2.728-8.276 0-3.695-1.246-6.697-3.727-9.006-2.492-2.304-5.826-3.459-10.011-3.459-3.818 0-7.03 1.187-9.639 3.551-2.605 2.244-3.91 5.123-3.91 8.645 0 4.12 1.632 8.18 4.909 12.186l5.273 6.365c.188.3.553.756 1.096 1.363zm-5.091 76.674c8.179 0 17.615-5.371 28.286-16.09l-27.738-33.753-1.187.822c-8.673 6.004-14.587 10.821-17.739 14.457-3.088 3.641-4.635 7.497-4.635 11.557 0 5.822 2.336 11.149 6.998 16.004 4.855 4.672 10.188 7.003 16.015 7.003zm7.636-142.334c-14.101 0-25.992 4.463-35.342 13.264l-.062.059-.062.059c-9.28 8.924-14.185 20.9-14.185 34.631 0 8.639 2.427 17.185 7.239 25.547-20.264 15.12-24.613 33.402-24.613 46.304 0 16.062 6.141 30.341 17.757 41.296l.083.079.084.077c11.668 10.693 25.954 16.115 42.464 16.115 13.272 0 26.038-4.374 38.118-13.033l8.4 10.305h67.543l-38.584-47.605 1.02-1.188c3.125-3.632 5.629-6.804 7.652-9.699l5.701-8.157-26.51-48.197-14.917 19.346c-1.078 1.397-4.225 4.932-6.359 7.329l-3.297-3.985c3.859-3.694 6.903-7.163 9.191-10.464 5.346-7.615 8.057-16.232 8.057-25.612 0-13.24-5.071-24.873-14.662-33.64-9.316-8.514-20.996-12.831-34.716-12.831zm-13.867 118.184c.554-.629 1.736-1.839 4.073-3.784l7.966 9.693c-3.597 2.138-5.481 2.241-5.808 2.241-.665 0-2.196 0-4.691-2.314-2.27-2.452-2.321-3.963-2.322-4.648.04-.105.214-.506.782-1.188zm0 0" fill="#fff" sketch:type="MSShapeGroup"/><path d="M226.325 146.565c4.962.504 9.57.789 13.78.87 4.232.091 8.915.129 14.049.129 4.968 0 10.022-.038 15.156-.129 5.134-.081 10.193-.366 15.155-.87v2.981c-3.641.332-7.115 1.417-10.434 3.232-3.309 1.825-4.963 4.807-4.963 8.943 0 3.318 1.069 7.754 3.227 13.297 2.149 5.552 4.673 11.513 7.574 17.888 2.899 6.391 5.885 12.879 8.946 19.517 3.067 6.627 5.51 12.749 7.326 18.378.838-1.645 2.121-4.383 3.86-8.196 1.741-3.813 3.729-8.164 5.962-13.04 2.234-4.886 4.479-9.988 6.702-15.284 2.256-5.301 4.318-10.268 6.23-14.914 1.891-4.635 3.459-8.689 4.705-12.175 1.256-3.48 1.869-5.794 1.869-6.954 0-1.993-.452-3.566-1.364-4.725-.914-1.161-2.03-2.118-3.362-2.864-1.322-.735-2.89-1.316-4.727-1.734-1.804-.408-3.565-.87-5.209-1.369v-2.981c3.814.504 7.627.789 11.428.87 3.814.091 7.702.129 11.687.129 3.803 0 7.54-.038 11.182-.129 3.64-.081 7.367-.366 11.181-.87v2.981c-4.63.665-9.152 3.522-13.545 8.57-4.393 5.06-8.442 10.817-12.158 17.283-3.739 6.455-7.025 12.792-9.839 19-2.815 6.208-4.963 10.806-6.456 13.791-6.949 14.415-13.243 26.756-18.882 37.036-5.634 10.268-10.736 18.839-15.284 25.714-4.561 6.873-8.701 12.308-12.422 16.283-3.728 3.973-7.293 6.992-10.693 9.065-3.394 2.072-6.707 3.394-9.93 3.985-3.228.57-6.584.859-10.069.859-2.986 0-5.919-.419-8.818-1.246-2.896-.826-5.473-2.105-7.702-3.846-2.239-1.739-4.065-3.941-5.478-6.583-1.396-2.664-2.105-5.801-2.105-9.441 0-3.32 1.203-6.306 3.593-8.948 2.411-2.653 5.263-3.984 8.582-3.984 3.813 0 6.868.955 9.199 2.867 2.315 1.901 3.464 4.833 3.464 8.818 0 2.815-.66 5.177-1.982 7.088-1.32 1.892-1.987 3.256-1.987 4.094 0 .999 1.203 1.611 3.61 1.868 2.395.247 4.753.366 7.083.366 4.962 0 9.849-2.031 14.656-6.091 4.801-4.059 9.06-8.7 12.793-13.908 3.732-5.221 6.751-10.194 9.076-14.91 2.32-4.725 3.474-7.754 3.474-9.075 0-.495-.58-2.202-1.735-5.092-1.165-2.888-2.733-6.627-4.715-11.191-1.997-4.545-4.237-9.635-6.719-15.274-2.481-5.639-4.961-11.225-7.443-16.767-2.492-5.559-4.978-10.944-7.47-16.159-2.481-5.221-4.63-9.652-6.455-13.297-1.655-3.803-3.067-6.869-4.227-9.195-1.159-2.32-2.572-4.184-4.216-5.59-1.659-1.403-3.652-2.525-5.966-3.357-2.326-.827-5.392-1.735-9.194-2.733v-2.981" fill="#00A3DB" sketch:type="MSShapeGroup"/><path d="M362.589 186.815c0 8.626 1.118 15.748 3.341 21.375 2.255 5.628 5.059 10.108 8.463 13.416 3.395 3.319 7.036 5.639 10.935 6.96 3.888 1.332 7.487 1.999 10.805 1.999 6.96 0 13.254-1.128 18.871-3.363 5.64-2.234 10.859-5.757 15.672-10.558l4.221 3.974c-6.788 7.293-13.748 12.835-20.869 16.648-7.133 3.813-15.661 5.725-25.596 5.725-7.142 0-13.513-1.417-19.141-4.232-5.638-2.814-10.44-6.541-14.414-11.181-3.974-4.639-6.992-9.945-9.065-15.907-2.073-5.962-3.114-12.094-3.114-18.389 0-6.294 1.041-12.428 3.114-18.383 2.073-5.966 5.091-11.267 9.065-15.907 3.974-4.64 8.776-8.367 14.414-11.182 5.628-2.813 11.999-4.226 19.141-4.226 13.083 0 23.609 3.561 31.568 10.682 7.937 7.132 12.814 17.98 14.65 32.549h-72.061zm48.463-7.448c-.515-4.468-1.171-8.485-2.008-12.051-.817-3.56-2.149-6.541-3.964-8.942-1.836-2.406-4.242-4.226-7.207-5.461-2.986-1.251-6.799-1.875-11.428-1.875-3.48 0-6.681.876-9.57 2.61-2.911 1.735-5.382 3.98-7.454 6.708-2.074 2.74-3.652 5.8-4.737 9.194-1.074 3.399-1.601 6.676-1.601 9.817h47.969zm0 0" fill="#00A3DB" sketch:type="MSShapeGroup"/><path d="M427.787 155.265v-3.98c5.295-.161 9.849-1.487 13.684-3.974 3.802-2.481 7.099-5.634 9.925-9.446 2.813-3.808 5.177-8.035 7.088-12.67 1.891-4.629 3.598-9.102 5.091-13.415h3.469v36.03h34.05v7.455h-34.05v57.899c0 2.159.14 4.264.388 6.337.236 2.073.74 3.931 1.482 5.596.741 1.654 1.815 2.975 3.233 3.974 1.407.989 3.351 1.494 5.842 1.494 4.973 0 9.109-1.086 12.417-3.234 3.319-2.159 6.627-4.877 9.957-8.206l2.223 2.481c-2.813 2.492-5.553 5.028-8.195 7.583-2.653 2.579-5.424 4.898-8.314 6.96-2.91 2.074-6.057 3.727-9.451 4.962-3.405 1.247-7.09 1.88-11.064 1.88-6.97 0-11.685-2.115-14.166-6.337-2.493-4.232-3.739-9.248-3.739-15.048v-66.341h-19.87" fill="#00A3DB" sketch:type="MSShapeGroup"/><text fill="#D8117D" sketch:type="MSTextLayer" font-family="Gotham" font-size="68.548" font-weight="bold" letter-spacing=".008"><tspan x="309.901" y="294.453">L</tspan><tspan x="352.341" y="294.453" letter-spacing="-1.905">A</tspan><tspan x="404.589" y="294.453" letter-spacing="-1.342">B</tspan><tspan x="452.738" y="294.453">S</tspan></text></g></svg>