<svg width="438" height="300" xmlns="http://www.w3.org/2000/svg" xmlns:sketch="http://www.bohemiancoding.com/sketch/ns"><title>Untitled 3</title><desc>Created with Sketch.</desc><g sketch:type="MSShapeGroup" fill="none"><path d="M200.324 268.061c-2.601 0-5.154-.363-7.679-1.08-.502-.143-.992-.305-1.472-.479-3.864 13.236-9.539 20.155-16.234 21.534-.451.093-.915.156-1.378.189-9.923.718-23.345-12.161-35.905-34.455-2.887-5.123-5.682-10.647-8.373-16.507 9.525-6.795 19.302-14.602 29.106-23.25l-7.317-15.381v-2.078c-6.446-1.987-12.934-4.151-19.417-6.491-7.506-2.71-14.841-5.582-21.96-8.59-1.972-7.454-3.778-15.096-5.395-22.873-1.514-7.288-2.827-14.527-3.941-21.668 4.727-5.482 9.676-10.944 14.821-16.342 6.409-6.722 12.941-13.153 19.525-19.244 5.424 1.575 10.89 3.293 16.367 5.123v-12.474c-2.003-.651-4.004-1.292-5.997-1.911 7.672-6.619 15.366-12.74 22.978-18.261 3.362 8.247 6.516 17.023 9.418 26.203l13.874 4.836c-3.943-13.471-8.418-26.247-13.309-37.96.522-.347 1.047-.704 1.568-1.043 19.959-13.018 37.902-20.688 50.525-21.601 6.149-.445 10.728.712 13.612 3.438 7.227 6.83 4.977 24.791-6.02 48.046-2.68 5.667-5.805 11.518-9.328 17.492l14.039-.686c2.193-3.988 4.216-7.918 6.036-11.768 17.537-37.086 11.557-54.003 3.45-61.663-5.408-5.114-13.029-7.353-22.651-6.657-15.15 1.096-34.76 9.488-56.112 23.403-2.562-5.471-5.216-10.654-7.948-15.503-15.54-27.58-31.833-41.573-47.125-40.467-.981.071-1.966.208-2.925.405-10.946 2.255-24.983 13.488-29.72 54.206-.866 7.451-1.351 15.421-1.466 23.795-14.626-1.908-28.107-2.493-39.858-1.643-29.23 2.114-39.061 12.708-42.16 21.225-3.809 10.462-1.56 28.256 30.783 53.613 8.106 6.356 17.415 12.615 27.671 18.644-6.466 9.962-11.981 19.705-16.375 28.999-17.537 37.086-11.557 54.003-3.453 61.664 5.409 5.114 13.03 7.352 22.652 6.655 15.149-1.095 34.761-9.488 56.114-23.406 2.562 5.474 5.217 10.658 7.948 15.508 15.539 27.577 31.834 41.572 47.126 40.465.98-.07 1.964-.207 2.923-.405 8.724-1.797 19.412-8.05 25.79-31.639-.927.049-1.862.082-2.81.082zm-93.76-155.615c-2.834 2.973-5.609 5.967-8.325 8.973-1.177-10.066-1.93-19.854-2.245-29.221 8.176 1.461 16.643 3.297 25.29 5.491-4.935 4.725-9.851 9.65-14.72 14.757zm-9.325-56.58c2.97-25.53 10.568-41.974 20.326-43.984.452-.092.914-.157 1.378-.191 9.922-.717 23.344 12.163 35.903 34.457 2.887 5.122 5.682 10.645 8.373 16.503-10.341 7.378-20.98 15.936-31.627 25.484-12.316-3.386-24.319-6.082-35.76-8.043.067-8.559.529-16.679 1.408-24.226zm-4.573 105.13c1.005 4.837 2.083 9.625 3.228 14.356-6.387-2.978-12.548-6.059-18.444-9.218 4.011-5.676 8.32-11.403 12.894-17.134.717 3.982 1.489 7.983 2.322 11.997zm-52.581-18.795c-20.279-15.9-30.359-30.962-26.964-40.29 2.65-7.279 14.261-12.185 31.853-13.457 11.273-.815 24.565-.147 39.083 1.849.363 13.634 1.628 28.131 3.763 43.07-7.549 8.984-14.51 18.016-20.769 26.938-10.025-5.865-19.1-11.944-26.966-18.111zm72.812 91.858c-19.96 13.017-37.902 20.687-50.524 21.6-6.149.445-10.73-.713-13.612-3.436-7.226-6.832-4.976-24.792 6.019-48.046 4.266-9.018 9.651-18.497 15.984-28.207 9.097 4.917 18.8 9.644 28.965 14.1 4.276 15.312 9.245 29.795 14.739 42.944-.524.347-1.048.704-1.571 1.045zm11.554-7.967c-3.839-9.416-7.409-19.525-10.641-30.138 4.532 1.801 9.134 3.548 13.796 5.23 6.646 2.399 13.264 4.614 19.822 6.648-7.672 6.618-15.366 12.741-22.977 18.26z" id="Shape" fill="#00B0E9"/><path d="M153.713 218.478c-12.578 0-23.435-4.088-32.27-12.151l-.072-.067c-8.809-8.272-13.276-18.62-13.276-30.76 0-14.502 6.93-26.612 20.597-35.991l3.412-2.319c-5.899-7.917-8.88-15.96-8.88-23.988 0-10.117 3.437-18.537 10.214-25.027 6.861-6.432 15.609-9.667 26.054-9.667 10.153 0 18.742 3.132 25.529 9.308 6.968 6.342 10.502 14.434 10.502 24.049 0 6.697-1.946 12.843-5.784 18.267-2.546 3.67-6.47 7.732-11.9 12.303l12.357 14.873c.657-.752 1.295-1.49 1.917-2.221.794-.929 2.011-2.288 3.344-3.779 2.153-2.407 4.835-5.403 5.938-6.828l6.495-8.387 15.87 28.729-2.483 3.537c-1.608 2.292-3.714 4.946-6.257 7.887-1.386 1.618-2.943 3.388-4.7 5.344l28.101 34.523h-40.892l-9.552-11.67c-10.862 9.32-22.36 14.035-34.264 14.035zm-9.885-34.47c2.871 2.717 5.821 4.039 9.015 4.039 2.965 0 7.845-1.439 15.099-7.637l-15.892-19.255c-5.834 4.252-8.619 6.878-9.948 8.403-1.553 1.824-2.333 3.635-2.333 5.476 0 3.171 1.328 6.107 4.058 8.973zm15.426-76.41c-2.033 0-3.055.686-3.716 1.282l-.131.115c-.623.535-.985 1.073-.985 2.24 0 1.942.883 3.962 2.7 6.174l1.262 1.516c.828-.662 1.594-1.292 2.285-1.882 1.783-1.53 2.417-2.317 2.57-2.521l.092-.125.098-.121c.354-.434.822-1.197.822-2.809 0-1.565-.493-2.238-1.026-2.732-.293-.27-1.237-1.139-3.971-1.139z" id="Shape" fill="#EE0788"/><path d="M159.492 85.445c8.395 0 15.34 2.495 20.83 7.492 5.489 4.996 8.235 11.301 8.235 18.928 0 5.253-1.501 10.016-4.512 14.273-2.956 4.261-8.315 9.355-16.074 15.301l22.012 26.495.716-.792c2.37-2.57 4.62-5.093 6.728-7.571 2.114-2.468 7.53-8.331 9.484-10.855l8.656 15.669c-1.477 2.105-3.418 4.549-5.826 7.334-2.395 2.795-5.26 5.997-8.59 9.621l22.658 27.836h-22.971l-12.196-14.9c-11.2 11.521-22.84 17.266-34.929 17.266-10.826 0-20.01-3.435-27.564-10.327-7.389-6.938-11.088-15.505-11.088-25.713 0-12.14 5.86-22.234 17.584-30.28l8.001-5.44c.104-.05.291-.181.552-.395.262-.21.631-.499 1.109-.867-8.076-8.567-12.118-17.005-12.118-25.317 0-8.201 2.694-14.873 8.076-20.027 5.495-5.15 12.571-7.73 21.226-7.73zm-2.216 43.058l1.506-1.103c2.586-1.942 4.723-3.642 6.417-5.085 1.688-1.448 2.903-2.672 3.642-3.669 1.58-1.942 2.375-4.335 2.375-7.176 0-3.204-1.085-5.807-3.245-7.809-2.17-1.998-5.073-2.999-8.717-2.999-3.325 0-6.122 1.029-8.393 3.079-2.268 1.946-3.405 4.442-3.405 7.496 0 3.572 1.421 7.092 4.275 10.566l4.592 5.519c.164.26.482.655.954 1.182zm-4.433 66.48c7.122 0 15.339-4.657 24.631-13.951l-24.154-29.266-1.034.713c-7.552 5.206-12.702 9.382-15.447 12.535-2.689 3.157-4.036 6.5-4.036 10.021 0 5.048 2.034 9.667 6.094 13.876 4.228 4.051 8.871 6.072 13.945 6.072zm6.649-123.411c-12.279 0-22.633 3.87-30.775 11.501l-.054.051-.054.051c-8.081 7.738-12.352 18.121-12.352 30.027 0 7.49 2.113 14.9 6.304 22.151-17.645 13.11-21.432 28.961-21.432 40.148 0 13.927 5.347 26.307 15.462 35.806l.072.068.073.067c10.16 9.271 22.6 13.973 36.977 13.973 11.557 0 22.673-3.792 33.192-11.3l7.315 8.935h58.815l-33.598-41.276.888-1.03c2.721-3.149 4.902-5.899 6.663-8.41l4.964-7.073-23.084-41.789-12.989 16.774c-.939 1.211-3.679 4.276-5.537 6.355l-2.871-3.455c3.36-3.203 6.011-6.211 8.003-9.073 4.655-6.603 7.016-14.074 7.016-22.207 0-11.48-4.416-21.566-12.767-29.168-8.112-7.382-18.283-11.125-30.23-11.125zm-12.075 102.472c.482-.545 1.512-1.595 3.547-3.281l6.937 8.404c-3.132 1.854-4.773 1.943-5.057 1.943-.579 0-1.912 0-4.085-2.006-1.977-2.126-2.021-3.436-2.022-4.03.035-.091.186-.439.681-1.03z" id="Shape" fill="#fff"/><path d="M197.503 126.296c4.321.437 8.333.684 11.999.754 3.685.079 7.763.112 12.234.112 4.326 0 8.727-.033 13.197-.112 4.471-.07 8.876-.317 13.197-.754v2.585c-3.17.288-6.196 1.229-9.086 2.802-2.881 1.582-4.322 4.168-4.322 7.754 0 2.877.931 6.723 2.81 11.529 1.871 4.814 4.069 9.982 6.595 15.51 2.524 5.541 5.125 11.167 7.79 16.922 2.671 5.746 4.798 11.054 6.379 15.935.73-1.426 1.847-3.8 3.361-7.106 1.516-3.306 3.247-7.079 5.192-11.306 1.945-4.236 3.9-8.66 5.836-13.252 1.964-4.596 3.76-8.903 5.425-12.931 1.647-4.019 3.012-7.534 4.097-10.556 1.094-3.017 1.627-5.024 1.627-6.029 0-1.728-.394-3.092-1.188-4.097-.796-1.007-1.768-1.836-2.928-2.483-1.151-.637-2.517-1.141-4.116-1.503-1.571-.354-3.104-.754-4.536-1.187v-2.585c3.321.437 6.641.684 9.951.754 3.321.079 6.707.112 10.177.112 3.312 0 6.566-.033 9.737-.112 3.17-.07 6.415-.317 9.736-.754v2.585c-4.032.577-7.969 3.054-11.795 7.431-3.825 4.387-7.351 9.379-10.587 14.985-3.256 5.597-6.117 11.091-8.568 16.474-2.451 5.383-4.322 9.369-5.622 11.958-6.051 12.499-11.532 23.199-16.442 32.112-4.906 8.903-9.349 16.334-13.309 22.295-3.972 5.959-7.577 10.672-10.817 14.118-3.246 3.445-6.351 6.062-9.311 7.86-2.955 1.797-5.84 2.943-8.647 3.455-2.811.494-5.733.745-8.768.745-2.6 0-5.154-.363-7.678-1.08-2.522-.716-4.766-1.825-6.707-3.335-1.95-1.508-3.54-3.417-4.77-5.708-1.216-2.31-1.833-5.03-1.833-8.186 0-2.879 1.048-5.468 3.129-7.758 2.099-2.3 4.583-3.454 7.473-3.454 3.32 0 5.98.828 8.01 2.486 2.016 1.648 3.016 4.19 3.016 7.646 0 2.441-.575 4.489-1.726 6.146-1.149 1.64-1.73 2.823-1.73 3.55 0 .866 1.048 1.397 3.143 1.62 2.086.214 4.139.317 6.168.317 4.321 0 8.576-1.761 12.762-5.281 4.181-3.519 7.889-7.543 11.14-12.059 3.25-4.527 5.879-8.839 7.903-12.928 2.02-4.097 3.025-6.723 3.025-7.868 0-.429-.505-1.909-1.511-4.415-1.014-2.504-2.38-5.746-4.106-9.703-1.739-3.941-3.689-8.354-5.851-13.243-2.16-4.889-4.32-9.733-6.481-14.538-2.17-4.82-4.335-9.489-6.505-14.011-2.16-4.527-4.032-8.369-5.621-11.529-1.441-3.297-2.671-5.956-3.681-7.973-1.009-2.012-2.24-3.628-3.671-4.847-1.445-1.216-3.18-2.189-5.195-2.911-2.025-.717-4.695-1.504-8.006-2.37v-2.585" fill="#00B0E9"/><path d="M316.159 161.195c0 7.479.974 13.654 2.909 18.533 1.964 4.88 4.405 8.764 7.369 11.632 2.956 2.878 6.127 4.889 9.522 6.035 3.386 1.155 6.519 1.733 9.409 1.733 6.061 0 11.541-.978 16.432-2.916 4.911-1.937 9.456-4.992 13.647-9.154l3.676 3.446c-5.911 6.323-11.971 11.129-18.172 14.435-6.211 3.306-13.637 4.964-22.288 4.964-6.219 0-11.767-1.229-16.668-3.669-4.909-2.44-9.091-5.671-12.551-9.695-3.46-4.022-6.088-8.623-7.894-13.792-1.805-5.169-2.712-10.486-2.712-15.944 0-5.457.906-10.776 2.712-15.939 1.805-5.173 4.433-9.769 7.894-13.792 3.46-4.023 7.642-7.255 12.551-9.695 4.901-2.439 10.448-3.664 16.668-3.664 11.392 0 20.558 3.088 27.489 9.262 6.911 6.184 11.158 15.59 12.757 28.222h-62.749zm42.2-6.458c-.448-3.874-1.02-7.357-1.749-10.449-.711-3.087-1.871-5.671-3.452-7.753-1.599-2.086-3.694-3.664-6.276-4.735-2.6-1.085-5.92-1.626-9.951-1.626-3.03 0-5.818.76-8.333 2.263-2.535 1.504-4.687 3.451-6.491 5.816-1.806 2.376-3.18 5.029-4.125 7.972-.935 2.947-1.394 5.788-1.394 8.512h41.77z" fill="#00B0E9"/><path d="M372.931 133.84v-3.451c4.611-.14 8.576-1.289 11.916-3.446 3.311-2.151 6.182-4.885 8.642-8.19 2.449-3.302 4.508-6.967 6.172-10.986 1.647-4.014 3.133-7.892 4.433-11.632h3.021v31.24h29.65v6.464h-29.65v50.201c0 1.872.122 3.697.338 5.495.206 1.797.644 3.408 1.29 4.852.645 1.434 1.58 2.579 2.815 3.446 1.225.858 2.918 1.295 5.087 1.295 4.33 0 7.932-.942 10.812-2.804 2.89-1.872 5.771-4.229 8.67-7.115l1.936 2.151c-2.449 2.161-4.835 4.36-7.136 6.575-2.31 2.236-4.723 4.247-7.24 6.035-2.534 1.798-5.274 3.232-8.23 4.302-2.965 1.081-6.174 1.63-9.634 1.63-6.069 0-10.175-1.834-12.335-5.495-2.171-3.669-3.256-8.018-3.256-13.047v-57.521h-17.302" fill="#00B0E9"/><path d="M308.603 252.335h8.947l3.647-8.947h16.868l3.647 8.947h9.175l-17.096-40.175h-8.092l-17.096 40.175zm15.728-16.697l5.3-12.936 5.3 12.936h-10.599zm-49.265 16.697h28.664v-7.978h-19.888v-31.912h-8.776v39.89zm138.568.57c8.605 0 14.645-4.445 14.645-12.366v-.114c0-6.952-4.559-9.859-12.651-11.967-6.895-1.767-8.605-2.621-8.605-5.243v-.114c0-1.938 1.767-3.476 5.129-3.476 3.362 0 6.838 1.482 10.371 3.932l4.559-6.61c-4.046-3.248-9.004-5.072-14.816-5.072-8.149 0-13.961 4.787-13.961 12.024v.114c0 7.921 5.186 10.143 13.221 12.195 6.667 1.71 8.035 2.849 8.035 5.072v.114c0 2.336-2.165 3.761-5.756 3.761-4.559 0-8.32-1.881-11.91-4.844l-5.186 6.211c4.787 4.274 10.884 6.382 16.925 6.382zm-56.116-.57h18.976c9.004 0 14.93-3.647 14.93-10.941v-.114c0-5.357-2.849-8.035-7.465-9.802 2.849-1.596 5.243-4.103 5.243-8.605v-.114c0-2.735-.912-4.958-2.735-6.781-2.279-2.279-5.87-3.533-10.428-3.533h-18.52v39.89zm8.548-23.763v-8.434h8.662c3.704 0 5.756 1.482 5.756 4.103v.114c0 2.963-2.45 4.217-6.325 4.217h-8.092zm0 16.07v-8.776h10.143c4.502 0 6.496 1.653 6.496 4.331v.114c0 2.963-2.336 4.331-6.211 4.331h-10.428z" fill="#EE0788"/></g></svg>