<svg width="626" height="300" xmlns="http://www.w3.org/2000/svg" xmlns:sketch="http://www.bohemiancoding.com/sketch/ns"><title>Untitled 3</title><desc>Created with Sketch.</desc><g sketch:type="MSShapeGroup" fill="none"><path d="M262.337 283.865c-3.619-1.28-6.417-3.205-8.337-5.713-1.937-2.512-3.162-6.093-3.64-10.652-.512-4.929-.778-11.328-.778-19.016v-245.37l-64.404 7.927v10.099h2.783c13.757 0 18.799 2.804 20.614 5.153 2.8 3.642 4.219 10.439 4.219 20.214v201.978c0 7.625-.262 14.026-.785 19.016-.484 4.593-1.654 8.197-3.483 10.72-1.821 2.518-4.407 4.369-7.914 5.656-3.745 1.382-8.882 2.345-15.271 2.858l-2.561.201v10.418l2.984-.213c7.347-.532 14.787-.934 22.117-1.198 14.309-.537 31.273-.526 46.639 0 8.104.262 16.084.665 23.71 1.198l2.978.207v-10.428l-2.576-.19c-6.928-.515-12.41-1.477-16.291-2.865" id="Shape" fill="#00B0E9"/><path d="M369.222 285.173c-3.557-.716-6.457-1.958-8.633-3.687-2.077-1.639-3.528-4.056-4.448-7.407-.996-3.585-1.497-8.683-1.497-15.133v-121.282l-66.407 4.396v10.741l2.466.285c6.546.761 11.731 2.142 15.411 4.111 3.54 1.901 6.211 4.335 7.941 7.223 1.77 2.97 2.849 6.758 3.206 11.267.395 4.861.596 10.54.596 16.874v66.38c0 6.416-.505 11.514-1.504 15.146-.901 3.306-2.354 5.812-4.302 7.447-2.043 1.707-4.735 2.937-8.003 3.642-3.64.771-8.07 1.297-13.163 1.551l-2.65.123v10.551l3.028-.268c6.027-.526 12.048-.934 17.898-1.198 5.604-.262 11.621-.397 17.881-.397 9.578 0 19.044.135 28.134.404 9.462.262 18.934.672 28.145 1.198l2.938.173v-10.473l-2.654-.112c-5.638-.258-10.479-.777-14.387-1.555" id="Shape" fill="#00B0E9"/><path d="M332.246 69.42c6.639 0 12.372-2.529 17.042-7.525 4.619-4.946 6.962-10.804 6.962-17.4 0-6.606-2.343-12.458-6.962-17.411-4.67-4.986-10.401-7.513-17.042-7.513-6.645 0-12.372 2.529-17.031 7.513-4.619 4.939-6.962 10.792-6.962 17.411 0 6.613 2.343 12.465 6.956 17.4 4.663 4.996 10.39 7.525 17.035 7.525" id="Shape" fill="#38A1CF"/><path d="M618.681 253.251l-2.077 2.087c-5.192 5.214-10.424 9.562-15.561 12.906-4.847 3.171-11.065 4.779-18.494 4.779-3.394 0-6.021-.638-7.798-1.897-1.876-1.331-3.272-3.065-4.274-5.309-1.081-2.406-1.808-5.17-2.176-8.229-.385-3.228-.579-6.568-.579-9.925v-96.194h54.83v-13.422h-54.83v-61.177h-10.369l-.651 1.885c-2.364 6.864-5.103 14.127-8.149 21.579-2.971 7.261-6.696 13.965-11.069 19.916-4.168 5.662-11.833 11.569-18.638 14.362-6.171 2.535-12.16 3.161-21.049 3.435h-38.507v-68.206c0-4.437.461-9.847 1.381-16.096.88-6.12 2.616-12.017 5.164-17.529 2.5-5.404 5.793-10.058 9.796-13.825 3.756-3.547 8.633-5.275 14.903-5.275 4.28 0 7.937.828 10.847 2.461 2.967 1.673 5.355 3.765 7.095 6.222 1.804 2.535 3.073 5.146 3.779 7.766.734 2.696 1.108 4.885 1.108 6.501 0 9.365.914 15.106 2.872 18.049 2.138 3.228 5.744 4.868 10.718 4.868 7.03 0 11.771-1.487 14.48-4.559 2.633-2.966 3.906-7.916 3.906-15.133 0-12.139-4.887-21.965-14.521-29.199-9.394-7.044-20.931-10.614-34.284-10.614-13.618 0-25.355 3.564-34.872 10.601-9.343 6.908-17.008 15.598-22.786 25.815-5.727 10.149-9.934 21.097-12.501 32.556-2.627 11.664-3.868 18.167-3.868 27.353v38.246h-16.49l-4.107 13.422h20.597v97.823c0 5.998-.201 11.47-.59 16.263-.372 4.396-1.457 8.201-3.244 11.301-1.702 2.977-4.264 5.303-7.607 6.932-3.506 1.701-8.588 2.692-15.094 2.937l-2.682.101v10.506l2.954-.19c8.404-.532 16.858-.934 25.133-1.198 16.602-.554 35.976-.509 52.66 0 9.066.262 18.332.672 27.538 1.198l2.938.173v-10.523l-2.715-.068c-10.636-.251-18.928-1.297-24.661-3.093-5.454-1.701-9.527-4.118-12.105-7.189-2.616-3.089-4.175-6.697-4.775-11.043-.645-4.667-.975-10.082-.975-16.107v-97.823h71.65v109.874c0 9.835 2.142 18.496 6.389 25.751 4.509 7.726 12.996 11.637 25.205 11.637 6.713 0 13.03-1.069 18.767-3.184 5.693-2.092 11.031-4.918 15.872-8.392 4.792-3.446 9.411-7.323 13.736-11.535 4.223-4.128 8.633-8.225 13.102-12.18l2.115-1.868-7.446-8.32" fill="#00B0E9"/><path d="M61.71.915h36.12l60.202 135.207h-42.075l-35.819-86.187-38.256 86.187h-42.304l62.133-135.207" fill="#EE0788"/></g></svg>