<?xml version="1.0" encoding="UTF-8" standalone="no"?>
<svg width="1250px" height="597px" viewBox="0 0 1250 597" version="1.1" xmlns="http://www.w3.org/2000/svg" xmlns:xlink="http://www.w3.org/1999/xlink" xmlns:sketch="http://www.bohemiancoding.com/sketch/ns">
    <!-- Generator: Sketch 3.0.3 (7891) - http://www.bohemiancoding.com/sketch -->
    <title>Untitled 2</title>
    <desc>Created with Sketch.</desc>
    <defs></defs>
    <g id="Page-1" stroke="none" stroke-width="1" fill="none" fill-rule="evenodd" sketch:type="MSPage">
        <g id="lift" sketch:type="MSLayerGroup" transform="translate(-1.000000, -1.000000)">
            <g id="Group" sketch:type="MSShapeGroup">
                <path d="M526.252591,567.730986 C519.021304,565.170423 513.429841,561.321127 509.592314,556.305634 C505.720976,551.28169 503.273919,544.119718 502.318764,535.001408 C501.295986,525.143662 500.763466,512.34507 500.763466,496.969014 L500.763466,6.22816901 L372.058389,22.0816901 L372.058389,42.2788732 L377.620267,42.2788732 C405.112682,42.2788732 415.188304,47.8859155 418.814514,52.584507 C424.410203,59.8690141 427.246084,73.4619718 427.246084,93.0126761 L427.246084,496.969014 C427.246084,512.21831 426.722017,525.021127 425.678108,535.001408 C424.710274,544.187324 422.373101,551.395775 418.717307,556.440845 C415.078419,561.477465 409.909591,565.178873 402.902301,567.752113 C395.417432,570.515493 385.151625,572.442254 372.383818,573.469014 L367.265706,573.870423 L367.265706,594.705634 L373.229088,594.278873 C387.911432,593.214085 402.779736,592.411268 417.42827,591.883099 C446.023764,590.809859 479.923328,590.830986 510.631997,591.883099 C526.827375,592.407042 542.773399,593.214085 558.013622,594.278873 L563.964324,594.692958 L563.964324,573.83662 L558.816628,573.456338 C544.971101,572.425352 534.016399,570.502817 526.261044,567.726761" id="Shape" fill="#38A1CF"></path>
                <path d="M739.852389,570.346479 C732.743666,568.914085 726.949338,566.429577 722.600422,562.973239 C718.450145,559.694366 715.550868,554.860563 713.712405,548.159155 C711.721794,540.988732 710.720149,530.792958 710.720149,517.892958 L710.720149,275.328169 L578.012716,284.121127 L578.012716,305.602817 L582.940642,306.173239 C596.021199,307.694366 606.384213,310.457746 613.738064,314.395775 C620.812976,318.198592 626.150858,323.066197 629.608014,328.842254 C633.14547,334.783099 635.300909,342.359155 636.015162,351.376056 C636.80549,361.098592 637.206993,372.456338 637.206993,385.123944 L637.206993,517.884507 C637.206993,530.716901 636.196895,540.912676 634.202057,548.176056 C632.401632,554.788732 629.498128,559.8 625.605659,563.070423 C621.523003,566.484507 616.142858,568.943662 609.613145,570.35493 C602.339595,571.897183 593.485389,572.949296 583.308334,573.456338 L578.012716,573.701408 L578.012716,594.802817 L584.064851,594.266197 C596.109953,593.214085 608.142375,592.398592 619.832463,591.870423 C631.032294,591.346479 643.056264,591.076056 655.566264,591.076056 C674.707409,591.076056 693.624557,591.346479 711.789416,591.883099 C730.698111,592.407042 749.627939,593.226761 768.033699,594.278873 L773.904101,594.625352 L773.904101,573.680282 L768.60003,573.456338 C757.332578,572.940845 747.658459,571.901408 739.848162,570.346479" id="Shape" fill="#38A1CF"></path>
                <path d="M665.958861,138.840845 C679.225378,138.840845 690.683017,133.783099 700.014801,123.790141 C709.245152,113.898592 713.927949,102.18169 713.927949,88.9901408 C713.927949,75.7774648 709.245152,64.0732394 700.014801,54.1690141 C690.683017,44.1971831 679.229605,39.143662 665.958861,39.143662 C652.679666,39.143662 641.234706,44.2014085 631.924054,54.1690141 C622.693703,64.0478873 618.010905,75.7521127 618.010905,88.9901408 C618.010905,102.215493 622.693703,113.919718 631.911375,123.790141 C641.23048,133.783099 652.675439,138.840845 665.954635,138.840845" id="Shape" fill="#38A1CF"></path>
                <path d="M1238.37166,506.501408 L1234.22139,510.676056 C1223.84569,521.104225 1213.3897,529.8 1203.12389,536.488732 C1193.43709,542.830986 1181.01162,546.046479 1166.16445,546.046479 C1159.38116,546.046479 1154.13203,544.770423 1150.58189,542.252113 C1146.83312,539.590141 1144.04373,536.121127 1142.04044,531.633803 C1139.88077,526.821127 1138.42691,521.294366 1137.69152,515.176056 C1136.92232,508.719718 1136.5335,502.039437 1136.5335,495.325352 L1136.5335,302.93662 L1246.10589,302.93662 L1246.10589,276.092958 L1136.5335,276.092958 L1136.5335,153.739437 L1115.8117,153.739437 L1114.50998,157.508451 C1109.78492,171.23662 1104.3118,185.76338 1098.22585,200.666197 C1092.28783,215.188732 1084.84522,228.595775 1076.10513,240.498592 C1067.77499,251.822535 1052.45869,263.63662 1038.85829,269.222535 C1026.5258,274.292958 1014.55677,275.543662 996.793419,276.092958 L919.840014,276.092958 L919.840014,139.68169 C919.840014,130.808451 920.761358,119.987324 922.599821,107.488732 C924.357983,95.2478873 927.827818,83.4549296 932.920571,72.4309859 C937.916118,61.6225352 944.496547,52.3140845 952.49703,44.7802817 C960.00303,37.6859155 969.748997,34.2295775 982.280128,34.2295775 C990.834264,34.2295775 998.141625,35.8859155 1003.95708,39.1521127 C1009.88666,42.4985915 1014.65821,46.6816901 1018.13649,51.5957746 C1021.74157,56.6661972 1024.27738,61.8887324 1025.68898,67.128169 C1027.15553,72.5197183 1027.90359,76.8971831 1027.90359,80.1295775 C1027.90359,98.8605634 1029.72937,110.340845 1033.64298,116.226761 C1037.91582,122.683099 1045.12175,125.961972 1055.06212,125.961972 C1069.11052,125.961972 1078.586,122.987324 1083.99995,116.843662 C1089.26176,110.911268 1091.80602,101.011268 1091.80602,86.5774648 C1091.80602,62.2985915 1082.03893,42.6464789 1062.7879,28.1788732 C1044.01444,14.0915493 1020.9597,6.95070423 994.274514,6.95070423 C967.061037,6.95070423 943.604787,14.0788732 924.586206,28.1535211 C905.914186,41.9704225 890.597889,59.3492958 879.051497,79.7830986 C867.606537,100.08169 859.200324,121.977465 854.069534,144.895775 C848.820405,168.223944 846.339537,181.229577 846.339537,199.601408 L846.339537,276.092958 L813.386676,276.092958 L805.179101,302.93662 L846.339537,302.93662 L846.339537,498.583099 C846.339537,510.578873 845.938034,521.522535 845.160385,531.109859 C844.416547,539.902817 842.248429,547.512676 838.677162,553.711268 C835.274949,559.664789 830.156838,564.316901 823.474976,567.574648 C816.467686,570.976056 806.311764,572.957746 793.311507,573.447887 L787.952493,573.650704 L787.952493,594.66338 L793.856706,594.283099 C810.652226,593.21831 827.544953,592.415493 844.082666,591.887324 C877.259524,590.780282 915.977128,590.869014 949.318814,591.887324 C967.437182,592.411268 985.952828,593.230986 1004.35014,594.283099 L1010.22054,594.629577 L1010.22054,573.583099 L1004.7939,573.447887 C983.539581,572.94507 966.968057,570.853521 955.510419,567.261972 C944.610659,563.860563 936.470706,559.026761 931.318784,552.883099 C926.090787,546.705634 922.975966,539.488732 921.775682,530.797183 C920.486645,521.46338 919.827334,510.633803 919.827334,498.583099 L919.827334,302.93662 L1063.01189,302.93662 L1063.01189,522.684507 C1063.01189,542.353521 1067.29319,559.677465 1075.7797,574.187324 C1084.79028,589.639437 1101.75063,597.460563 1126.14935,597.460563 C1139.56379,597.460563 1152.18791,595.322535 1163.654,591.092958 C1175.03133,586.909859 1185.69865,581.256338 1195.37276,574.309859 C1204.94968,567.41831 1214.18003,559.664789 1222.82292,551.239437 C1231.26294,542.983099 1240.07488,534.790141 1249.00516,526.880282 L1253.23151,523.14507 L1238.35053,506.505634" id="Shape" fill="#38A1CF"></path>
                <path d="M125.31977,1.82957746 L197.501625,1.82957746 L317.808943,272.243662 L233.725682,272.243662 L162.14397,99.8704225 L85.6935,272.243662 L1.15379392,272.243662 L125.31977,1.82957746" id="Shape" fill="#D7197D"></path>
            </g>
        </g>
    </g>
</svg>