<?xml version="1.0" encoding="UTF-8" standalone="no"?>
<svg width="626px" height="299px" viewBox="0 0 626 299" version="1.1" xmlns="http://www.w3.org/2000/svg" xmlns:xlink="http://www.w3.org/1999/xlink" xmlns:sketch="http://www.bohemiancoding.com/sketch/ns">
    <!-- Generator: Sketch 3.0.3 (7891) - http://www.bohemiancoding.com/sketch -->
    <title>Untitled 2</title>
    <desc>Created with Sketch.</desc>
    <defs></defs>
    <g id="Page-1" stroke="none" stroke-width="1" fill="none" fill-rule="evenodd" sketch:type="MSPage">
        <g id="lift" sketch:type="MSLayerGroup">
            <g id="Group" sketch:type="MSShapeGroup">
                <path d="M263.336628,283.865493 C259.718095,282.585211 256.920128,280.660563 254.999831,278.152817 C253.062615,275.640845 251.838108,272.059859 251.360149,267.500704 C250.848351,262.571831 250.581878,256.172535 250.581878,248.484507 L250.581878,3.11408451 L186.177899,11.0408451 L186.177899,21.1394366 L188.961061,21.1394366 C202.718257,21.1394366 207.760095,23.9429577 209.574649,26.2922535 C212.37473,29.934507 213.793804,36.7309859 213.793804,46.506338 L213.793804,248.484507 C213.793804,256.109155 213.531561,262.510563 213.009189,267.500704 C212.524885,272.093662 211.355365,275.697887 209.526007,278.220423 C207.705108,280.738732 205.118628,282.589437 201.612182,283.876056 C197.866757,285.257746 192.72975,286.221127 186.340743,286.734507 L183.779642,286.935211 L183.779642,297.352817 L186.763716,297.139437 C194.110757,296.607042 201.550851,296.205634 208.880973,295.941549 C223.190149,295.40493 240.15348,295.415493 255.520088,295.941549 C263.62425,296.203521 271.603635,296.607042 279.229838,297.139437 L282.207568,297.346479 L282.207568,286.91831 L279.631662,286.728169 C272.703365,286.212676 267.221635,285.251408 263.340858,283.86338" id="Shape" fill="#38A1CF"></path>
                <path d="M370.221899,285.173239 C366.664696,284.457042 363.765216,283.214789 361.58902,281.48662 C359.512223,279.847183 358.061426,277.430282 357.141459,274.079577 C356.145358,270.494366 355.644135,265.396479 355.644135,258.946479 L355.644135,137.664085 L289.237378,142.060563 L289.237378,152.801408 L291.703311,153.08662 C298.248818,153.847183 303.434466,155.228873 307.114331,157.197887 C310.654615,159.099296 313.325689,161.533099 315.055649,164.421127 C316.825791,167.391549 317.904372,171.179577 318.261784,175.688028 C318.657264,180.549296 318.858176,186.228169 318.858176,192.561972 L318.858176,258.942254 C318.858176,265.358451 318.352723,270.456338 317.354507,274.088028 C316.453574,277.394366 315.000662,279.9 313.052872,281.535211 C311.009912,283.242254 308.317689,284.471831 305.050223,285.177465 C301.410541,285.948592 296.979899,286.474648 291.887304,286.728169 L289.237378,286.850704 L289.237378,297.401408 L292.265865,297.133099 C298.29323,296.607042 304.31425,296.199296 310.163966,295.935211 C315.768358,295.673239 321.785149,295.538028 328.045149,295.538028 C337.623372,295.538028 347.089507,295.673239 356.179196,295.941549 C365.641101,296.203521 375.113581,296.61338 384.323818,297.139437 L387.261365,297.312676 L387.261365,286.840141 L384.607209,286.728169 C378.96898,286.470423 374.128054,285.950704 370.219784,285.173239" id="Shape" fill="#38A1CF"></path>
                <path d="M333.245601,69.4204225 C339.884162,69.4204225 345.617561,66.8915493 350.287182,61.8950704 C354.906047,56.9492958 357.249318,51.0908451 357.249318,44.4950704 C357.249318,37.8887324 354.906047,32.0366197 350.287182,27.084507 C345.617561,22.0985915 339.886277,19.571831 333.245601,19.571831 C326.600696,19.571831 320.873642,22.1007042 316.214595,27.084507 C311.59573,32.0239437 309.252459,37.8760563 309.252459,44.4950704 C309.252459,51.1077465 311.59573,56.9598592 316.20825,61.8950704 C320.871527,66.8915493 326.598581,69.4204225 333.243486,69.4204225" id="Shape" fill="#38A1CF"></path>
                <path d="M619.680784,253.250704 L617.603986,255.338028 C612.411993,260.552113 607.179818,264.9 602.042811,268.244366 C597.195541,271.415493 590.977838,273.023239 583.548318,273.023239 C580.153959,273.023239 577.527297,272.385211 575.750811,271.126056 C573.874926,269.79507 572.479115,268.060563 571.476669,265.816901 C570.395973,263.410563 569.668459,260.647183 569.300473,257.588028 C568.915568,254.359859 568.721,251.019718 568.721,247.662676 L568.721,151.46831 L623.550986,151.46831 L623.550986,138.046479 L568.721,138.046479 L568.721,76.8697183 L558.351818,76.8697183 L557.700439,78.7542254 C555.33602,85.6183099 552.59727,92.8816901 549.551865,100.333099 C546.58048,107.594366 542.856203,114.297887 538.482662,120.249296 C534.314264,125.911268 526.649993,131.81831 519.844358,134.611268 C513.673182,137.146479 507.683885,137.771831 498.795108,138.046479 L460.287649,138.046479 L460.287649,69.8408451 C460.287649,65.4042254 460.748689,59.993662 461.668655,53.7443662 C462.548439,47.6239437 464.284743,41.7274648 466.833155,36.215493 C469.332926,30.8112676 472.62577,26.1570423 476.629209,22.3901408 C480.385209,18.8429577 485.262088,17.1147887 491.532662,17.1147887 C495.813149,17.1147887 499.46975,17.9429577 502.379804,19.5760563 C505.346959,21.2492958 507.734642,23.3408451 509.475176,25.7978873 C511.279155,28.3330986 512.548074,30.9443662 513.254439,33.5640845 C513.988297,36.2598592 514.362628,38.4485915 514.362628,40.0647887 C514.362628,49.4302817 515.27625,55.1704225 517.234615,58.1133803 C519.372743,61.3415493 522.978588,62.9809859 527.95275,62.9809859 C534.982561,62.9809859 539.724088,61.493662 542.43323,58.421831 C545.066236,55.4556338 546.339385,50.5056338 546.339385,43.2887324 C546.339385,31.1492958 541.451932,21.3232394 531.818723,14.0894366 C522.424493,7.04577465 510.887905,3.47535211 497.534649,3.47535211 C483.917034,3.47535211 472.179534,7.03943662 462.662642,14.0767606 C453.319169,20.9852113 445.654899,29.6746479 439.877088,39.8915493 C434.150034,50.0408451 429.943568,60.9887324 427.376122,72.4478873 C424.749459,84.1119718 423.508034,90.6147887 423.508034,99.8007042 L423.508034,138.046479 L407.018432,138.046479 L402.911365,151.46831 L423.508034,151.46831 L423.508034,249.291549 C423.508034,255.289437 423.307122,260.761268 422.917986,265.55493 C422.54577,269.951408 421.460845,273.756338 419.673784,276.855634 C417.971318,279.832394 415.410216,282.158451 412.066615,283.787324 C408.560169,285.488028 403.478149,286.478873 396.972824,286.723944 L394.291176,286.825352 L394.291176,297.33169 L397.245642,297.141549 C405.650115,296.609155 414.10323,296.207746 422.378696,295.943662 C438.980385,295.390141 458.354662,295.434507 475.038831,295.943662 C484.105257,296.205634 493.37048,296.615493 502.576486,297.141549 L505.514034,297.314789 L505.514034,286.791549 L502.798547,286.723944 C492.162892,286.472535 483.870507,285.426761 478.137108,283.630986 C472.682872,281.930282 468.609642,279.51338 466.031622,276.441549 C463.415534,273.352817 461.856878,269.744366 461.256257,265.398592 C460.611223,260.73169 460.281304,255.316901 460.281304,249.291549 L460.281304,151.46831 L531.930811,151.46831 L531.930811,261.342254 C531.930811,271.176761 534.073169,279.838732 538.319818,287.093662 C542.828709,294.819718 551.315662,298.730282 563.524777,298.730282 C570.237358,298.730282 576.554459,297.661268 582.292088,295.546479 C587.985304,293.45493 593.323223,290.628169 598.164149,287.15493 C602.956432,283.709155 607.575297,279.832394 611.900196,275.619718 C616.123581,271.491549 620.533074,267.39507 625.001784,263.440141 L627.116649,261.572535 L619.670209,253.252817" id="Shape" fill="#38A1CF"></path>
                <path d="M62.709973,0.914788732 L98.82975,0.914788732 L159.031493,136.121831 L116.956257,136.121831 L81.1367905,49.9352113 L42.881,136.121831 L0.577358108,136.121831 L62.709973,0.914788732" id="Shape" fill="#D7197D"></path>
            </g>
        </g>
    </g>
</svg>