<svg width="1255" height="605" xmlns="http://www.w3.org/2000/svg" xmlns:sketch="http://www.bohemiancoding.com/sketch/ns"><title>Untitled 3</title><desc>Created with Sketch.</desc><g sketch:type="MSShapeGroup" fill="none"><path d="M526.253 571.528c-7.231-2.578-12.823-6.453-16.66-11.502-3.871-5.058-6.318-12.268-7.274-21.447-1.023-9.924-1.555-22.808-1.555-38.288v-494.034l-128.705 15.96v20.333h5.562c27.492 0 37.568 5.645 41.194 10.375 5.596 7.333 8.432 21.018 8.432 40.699v406.667c0 15.352-.524 28.24-1.568 38.288-.968 9.248-3.305 16.504-6.961 21.583-3.639 5.07-8.808 8.797-15.815 11.387-7.485 2.782-17.751 4.722-30.518 5.755l-5.118.404v20.975l5.963-.43c14.682-1.072 29.551-1.88 44.199-2.412 28.595-1.08 62.495-1.059 93.204 0 16.195.527 32.141 1.34 47.382 2.412l5.951.417v-20.996l-5.148-.383c-13.846-1.038-24.8-2.973-32.556-5.768" id="Shape" fill="#00B0E9"/><path d="M739.852 574.161c-7.109-1.442-12.903-3.943-17.252-7.423-4.15-3.301-7.05-8.167-8.888-14.914-1.991-7.219-2.992-17.483-2.992-30.469v-244.193l-132.707 8.852v21.626l4.928.574c13.081 1.531 23.444 4.313 30.797 8.278 7.075 3.828 12.413 8.729 15.87 14.543 3.537 5.981 5.693 13.608 6.407 22.685.79 9.788 1.192 21.222 1.192 33.974v133.652c0 12.919-1.01 23.183-3.005 30.495-1.8 6.657-4.704 11.702-8.596 14.994-4.083 3.437-9.463 5.913-15.993 7.333-7.274 1.553-16.128 2.612-26.305 3.122l-5.296.247v21.243l6.052-.54c12.045-1.059 24.078-1.88 35.768-2.412 11.2-.527 23.224-.8 35.734-.8 19.141 0 38.058.272 56.223.812 18.909.527 37.839 1.353 56.244 2.412l5.87.349v-21.086l-5.304-.225c-11.267-.519-20.942-1.565-28.752-3.131" id="Shape" fill="#00B0E9"/><path d="M665.959 139.759c13.267 0 24.724-5.092 34.056-15.152 9.23-9.958 13.913-21.753 13.913-35.034 0-13.301-4.683-25.084-13.913-35.055-9.332-10.039-20.785-15.126-34.056-15.126-13.279 0-24.724 5.092-34.035 15.126-9.23 9.945-13.913 21.728-13.913 35.055 0 13.314 4.683 25.097 13.9 35.034 9.319 10.06 20.764 15.152 34.043 15.152" id="Shape" fill="#00B0E9"/><path d="M1238.372 509.887l-4.15 4.203c-10.376 10.498-20.832 19.252-31.097 25.986-9.687 6.385-22.112 9.622-36.959 9.622-6.783 0-12.032-1.285-15.583-3.82-3.749-2.68-6.538-6.172-8.541-10.69-2.16-4.845-3.614-10.409-4.349-16.568-.769-6.5-1.158-13.225-1.158-19.984v-193.68h109.572v-27.024h-109.572v-123.175h-20.722l-1.302 3.794c-4.725 13.82-10.198 28.445-16.284 43.447-5.938 14.62-13.381 28.117-22.121 40.1-8.33 11.4-23.646 23.293-37.247 28.917-12.332 5.104-24.302 6.364-42.065 6.917h-76.953v-137.327c0-8.933.921-19.827 2.76-32.409 1.758-12.323 5.228-24.195 10.321-35.293 4.996-10.881 11.576-20.252 19.576-27.836 7.506-7.142 17.252-10.622 29.783-10.622 8.554 0 15.861 1.667 21.677 4.956 5.93 3.369 10.701 7.58 14.179 12.527 3.605 5.104 6.141 10.362 7.552 15.637 1.467 5.428 2.215 9.835 2.215 13.089 0 18.857 1.826 30.414 5.739 36.339 4.273 6.5 11.479 9.801 21.419 9.801 14.048 0 23.524-2.995 28.938-9.18 5.262-5.972 7.806-15.939 7.806-30.469 0-24.442-9.767-44.226-29.018-58.791-18.773-14.182-41.828-21.371-68.513-21.371-27.213 0-50.67 7.176-69.688 21.345-18.672 13.91-33.988 31.405-45.535 51.976-11.445 20.435-19.851 42.478-24.982 65.55-5.249 23.485-7.73 36.578-7.73 55.073v77.005h-32.953l-8.208 27.024h41.16v196.96c0 12.076-.402 23.093-1.179 32.745-.744 8.852-2.912 16.513-6.483 22.753-3.402 5.993-8.52 10.677-15.202 13.956-7.007 3.424-17.163 5.419-30.163 5.913l-5.359.204v21.154l5.904-.383c16.796-1.072 33.688-1.88 50.226-2.412 33.177-1.114 71.894-1.025 105.236 0 18.118.527 36.634 1.353 55.031 2.412l5.87.349v-21.188l-5.427-.136c-21.254-.506-37.826-2.612-49.283-6.227-10.9-3.424-19.04-8.29-24.192-14.475-5.228-6.219-8.343-13.484-9.543-22.234-1.289-9.396-1.948-20.299-1.948-32.43v-196.96h143.185v221.223c0 19.801 4.281 37.241 12.768 51.848 9.011 15.556 25.971 23.429 50.37 23.429 13.414 0 26.039-2.152 37.505-6.41 11.377-4.211 22.045-9.903 31.719-16.896 9.577-6.938 18.807-14.743 27.45-23.225 8.44-8.312 17.252-16.56 26.182-24.523l4.226-3.76-14.881-16.751" fill="#00B0E9"/><path d="M125.32 1.828h72.182l120.307 272.229h-84.083l-71.582-173.53-76.45 173.53h-84.54l124.166-272.229" fill="#EE0788"/></g></svg>