<svg width="210" height="100" xmlns="http://www.w3.org/2000/svg" xmlns:sketch="http://www.bohemiancoding.com/sketch/ns"><title>Untitled 3</title><desc>Created with Sketch.</desc><g sketch:type="MSShapeGroup" fill="none"><path d="M87.919 94.622c-1.208-.427-2.142-1.068-2.783-1.904-.647-.837-1.056-2.031-1.215-3.551-.171-1.643-.26-3.776-.26-6.339v-81.79l-21.502 2.642v3.366h.929c4.593 0 6.276.935 6.882 1.718.935 1.214 1.409 3.48 1.409 6.738v67.326c0 2.542-.088 4.675-.262 6.339-.162 1.531-.552 2.732-1.163 3.573-.608.839-1.471 1.456-2.642 1.885-1.25.461-2.966.782-5.099.953l-.855.067v3.473l.996-.071c2.453-.177 4.937-.311 7.384-.399 4.777-.179 10.441-.175 15.571 0 2.706.087 5.37.222 7.916.399l.994.069v-3.476l-.86-.063c-2.313-.172-4.143-.492-5.439-.955" id="Shape" fill="#00B0E9"/><path d="M123.604 95.058c-1.188-.239-2.156-.653-2.882-1.229-.693-.546-1.178-1.352-1.485-2.469-.333-1.195-.5-2.894-.5-5.044v-40.427l-22.171 1.465v3.58l.823.095c2.185.254 3.917.714 5.145 1.37 1.182.634 2.074 1.445 2.651 2.408.591.99.951 2.253 1.07 3.756.132 1.62.199 3.513.199 5.625v22.127c0 2.139-.169 3.838-.502 5.049-.301 1.102-.786 1.937-1.436 2.482-.682.569-1.581.979-2.672 1.214-1.215.257-2.694.432-4.395.517l-.885.041v3.517l1.011-.089c2.012-.175 4.023-.311 5.976-.399 1.871-.087 3.88-.132 5.97-.132 3.198 0 6.358.045 9.393.135 3.159.087 6.322.224 9.397.399l.981.058v-3.491l-.886-.037c-1.882-.086-3.499-.259-4.803-.518" id="Shape" fill="#00B0E9"/><path d="M111.259 23.14c2.216 0 4.131-.843 5.69-2.508 1.542-1.649 2.324-3.601 2.324-5.8 0-2.202-.782-4.153-2.324-5.804-1.559-1.662-3.473-2.504-5.69-2.504-2.219 0-4.131.843-5.686 2.504-1.542 1.646-2.324 3.597-2.324 5.804 0 2.204.782 4.155 2.322 5.8 1.557 1.665 3.469 2.508 5.687 2.508" id="Shape" fill="#00B0E9"/><path d="M206.89 84.417l-.693.696c-1.733 1.738-3.48 3.187-5.195 4.302-1.618 1.057-3.694 1.593-6.175 1.593-1.133 0-2.01-.213-2.603-.632-.626-.444-1.092-1.022-1.427-1.77-.361-.802-.604-1.723-.727-2.743-.129-1.076-.193-2.189-.193-3.308v-32.065h18.306v-4.474h-18.306v-20.392h-3.462l-.217.628c-.789 2.288-1.704 4.709-2.721 7.193-.992 2.42-2.235 4.655-3.696 6.639-1.392 1.887-3.951 3.856-6.223 4.787-2.06.845-4.06 1.054-7.028 1.145h-12.856v-22.735c0-1.479.154-3.282.461-5.365.294-2.04.873-4.006 1.724-5.843.835-1.801 1.934-3.353 3.271-4.608 1.254-1.182 2.882-1.758 4.976-1.758 1.429 0 2.65.276 3.621.82.991.558 1.788 1.255 2.369 2.074.602.845 1.026 1.715 1.262 2.589.245.899.37 1.628.37 2.167 0 3.122.305 5.035.959 6.016.714 1.076 1.918 1.623 3.578 1.623 2.347 0 3.93-.496 4.835-1.52.879-.989 1.304-2.639 1.304-5.044 0-4.046-1.632-7.322-4.848-9.733-3.136-2.348-6.988-3.538-11.446-3.538-4.546 0-8.465 1.188-11.643 3.534-3.119 2.303-5.678 5.199-7.607 8.605-1.912 3.383-3.316 7.032-4.174 10.852-.877 3.888-1.291 6.056-1.291 9.118v12.749h-5.505l-1.371 4.474h6.877v32.608c0 1.999-.067 3.823-.197 5.421-.124 1.465-.486 2.734-1.083 3.767-.568.992-1.423 1.768-2.54 2.311-1.171.567-2.867.897-5.039.979l-.895.034v3.502l.986-.063c2.806-.177 5.628-.311 8.391-.399 5.543-.185 12.011-.17 17.581 0 3.027.087 6.12.224 9.194.399l.981.058v-3.508l-.907-.023c-3.551-.084-6.319-.432-8.234-1.031-1.821-.567-3.181-1.373-4.042-2.396-.873-1.03-1.394-2.232-1.594-3.681-.215-1.556-.326-3.361-.326-5.369v-32.608h23.921v36.625c0 3.278.715 6.165 2.133 8.584 1.505 2.575 4.339 3.879 8.415 3.879 2.241 0 4.35-.356 6.266-1.061 1.901-.697 3.683-1.639 5.299-2.797 1.6-1.149 3.142-2.441 4.586-3.845 1.41-1.376 2.882-2.742 4.374-4.06l.706-.623-2.486-2.773" fill="#00B0E9"/><path d="M20.937.305h12.059l20.099 45.069h-14.047l-11.959-28.729-12.772 28.729h-14.124l20.744-45.069" fill="#EE0788"/></g></svg>