<svg width="882" height="302" xmlns="http://www.w3.org/2000/svg" xmlns:sketch="http://www.bohemiancoding.com/sketch/ns"><title>Untitled 3</title><desc>Created with Sketch.</desc><g sketch:type="MSShapeGroup" fill="none"><path d="M259.173 234.105v-111.324h-26.694v-41.647h26.694v-58.069h48.219v58.069h56.591v41.647h-56.591v103.717c0 18.823 9.567 26.442 25.909 26.442 10.759 0 20.311-2.412 29.884-7.209v39.639c-11.951 6.817-25.508 10.806-43.438 10.806-35.468 0-60.574-15.603-60.574-62.07" id="Shape" fill="#00B0E9"/><path d="M516.817 292.584v-26.038c-14.339 17.225-36.258 30.443-68.149 30.443-39.853 0-74.913-22.824-74.913-65.278v-.796c0-46.853 36.267-69.285 85.283-69.285 25.499 0 41.845 3.597 58.181 8.804v-3.995c0-29.243-18.334-45.255-51.81-45.255-23.51 0-41.039 5.207-60.17 13.212l-13.152-38.843c23.121-10.408 45.831-17.617 80.101-17.617 62.168 0 92.456 32.834 92.456 89.308v125.341h-47.826zm1.192-88.506c-12.356-4.809-29.489-8.4-48.219-8.4-30.28 0-48.213 12.404-48.213 32.84v.796c0 20.023 17.933 31.233 40.649 31.233 31.876 0 55.782-18.021 55.782-44.453v-12.015z" id="Shape" fill="#00B0E9"/><path d="M600.209.242h48.213v292.34h-48.213v-292.34z" id="Shape" fill="#00B0E9"/><path d="M685.132.242h48.219v174.606l87.275-93.713h58.576l-83.68 86.106 86.475 125.341h-55.788l-63.363-91.307-29.495 30.835v60.475h-48.219v-292.34" fill="#00B0E9"/><path d="M63.516 284.585c-27.221 21.327-63.375 14.139-63.375 14.139s31.751-35.094 22.895-50.816c-10.126-17.932-17.656-37.809-17.656-59.849v-.802c0-60.46 47.829-110.528 112.384-110.528s111.977 49.265 111.977 109.732v.796c0 60.077-47.823 110.136-112.774 110.136-19.69 0-37.804-4.64-53.451-12.808zm118.006-96.529v-.802c0-37.242-26.694-68.079-64.555-68.079-38.661 0-63.363 30.449-63.363 67.283v.796c0 36.855 26.7 68.079 64.16 68.079 39.05 0 63.758-30.835 63.758-67.277z" fill="#EE0788"/></g></svg>