<?xml version="1.0" encoding="UTF-8" standalone="no"?>
<svg width="1759px" height="598px" viewBox="0 0 1759 598" version="1.1" xmlns="http://www.w3.org/2000/svg" xmlns:xlink="http://www.w3.org/1999/xlink" xmlns:sketch="http://www.bohemiancoding.com/sketch/ns">
    <!-- Generator: Sketch 3.0.3 (7891) - http://www.bohemiancoding.com/sketch -->
    <title>Untitled 2</title>
    <desc>Created with Sketch.</desc>
    <defs></defs>
    <g id="Page-1" stroke="none" stroke-width="1" fill="none" fill-rule="evenodd" sketch:type="MSPage">
        <g id="otalk" sketch:type="MSLayerGroup" transform="translate(0.000000, -2.000000)">
            <g id="Group" sketch:type="MSShapeGroup">
                <path d="M516.052568,470.209901 L516.052568,247.562376 L462.694253,247.562376 L462.694253,164.269307 L516.052568,164.269307 L516.052568,48.1306931 L612.435071,48.1306931 L612.435071,164.269307 L725.551845,164.269307 L725.551845,247.562376 L612.435071,247.562376 L612.435071,454.99604 C612.435071,492.641584 631.558253,507.879208 664.224547,507.879208 C685.730699,507.879208 704.824169,503.055446 723.959236,493.461386 L723.959236,572.738614 C700.070115,586.372277 672.972007,594.350495 637.132382,594.350495 C566.237551,594.350495 516.052568,563.144554 516.052568,470.209901" id="Shape" fill="#00A3DB"></path>
                <path d="M1031.04736,587.168317 L1031.04736,535.093069 C1002.38635,569.542574 958.571804,595.978218 894.825882,595.978218 C815.165764,595.978218 745.085064,550.330693 745.085064,465.421782 L745.085064,463.829703 C745.085064,370.122772 817.578446,325.259406 915.553557,325.259406 C966.522959,325.259406 999.195196,332.453465 1031.8496,342.867327 L1031.8496,334.877228 C1031.8496,276.392079 995.201791,244.366337 928.28848,244.366337 C881.294655,244.366337 846.257277,254.780198 808.016855,270.790099 L781.726936,193.10495 C827.942284,172.289109 873.337557,157.871287 941.837534,157.871287 C1066.10256,157.871287 1126.64544,223.538614 1126.64544,336.487129 L1126.64544,587.168317 L1031.0533,587.168317 L1031.04736,587.168317 Z M1033.43033,410.156436 C1008.73302,400.538614 974.486,393.356436 937.047824,393.356436 C876.522774,393.356436 840.677206,418.164356 840.677206,459.035644 L840.677206,460.627723 C840.677206,500.673267 876.522774,523.093069 921.929932,523.093069 C985.646142,523.093069 1033.43033,487.051485 1033.43033,434.186139 L1033.43033,410.162376 L1033.43033,410.156436 Z" id="Shape" fill="#00A3DB"></path>
                <path d="M1197.73638,2.48316832 L1294.107,2.48316832 L1294.107,587.162376 L1197.73638,587.162376 L1197.73638,2.48316832 L1197.73638,2.48316832 Z" id="Shape" fill="#00A3DB"></path>
                <path d="M1367.48582,2.48316832 L1463.86832,2.48316832 L1463.86832,351.69505 L1638.31834,164.269307 L1755.40475,164.269307 L1588.1393,336.481188 L1760.99076,587.162376 L1649.47848,587.162376 L1522.82454,404.548515 L1463.86832,466.217822 L1463.86832,587.168317 L1367.48582,587.168317 L1367.48582,2.48910891" id="Shape" fill="#00A3DB"></path>
                <path d="M124.960311,571.170297 C70.5501622,613.823762 -1.71740203,599.447525 -1.71740203,599.447525 C-1.71740203,599.447525 61.7492196,529.259406 44.0463108,497.815842 C23.8059257,461.952475 8.75340203,422.19802 8.75340203,378.118812 L8.75340203,376.514851 C8.75340203,255.594059 104.357429,155.459406 233.394341,155.459406 C362.431253,155.459406 457.221149,253.990099 457.221149,374.922772 L457.221149,376.514851 C457.221149,496.669307 361.629007,596.786139 231.801733,596.786139 C192.444108,596.786139 156.236044,587.506931 124.960311,571.170297 L124.960311,571.170297 Z M360.838645,378.112871 L360.838645,376.508911 C360.838645,302.025743 307.480331,240.350495 231.801733,240.350495 C154.524584,240.350495 105.147791,301.247525 105.147791,374.916832 L105.147791,376.508911 C105.147791,450.219802 158.51799,512.667327 233.394341,512.667327 C311.449966,512.667327 360.838645,450.99802 360.838645,378.112871 L360.838645,378.112871 Z" id="Shape" fill="#D8117D"></path>
            </g>
        </g>
    </g>
</svg>