<svg width="1763" height="602" xmlns="http://www.w3.org/2000/svg" xmlns:sketch="http://www.bohemiancoding.com/sketch/ns"><title>Untitled 3</title><desc>Created with Sketch.</desc><g sketch:type="MSShapeGroup" fill="none"><path d="M518.053 468.21v-222.648h-53.358v-83.293h53.358v-116.139h96.383v116.139h113.117v83.293h-113.117v207.434c0 37.646 19.123 52.883 51.789 52.883 21.506 0 40.6-4.824 59.735-14.418v79.277c-23.889 13.634-50.987 21.612-86.827 21.612-70.895 0-121.08-31.206-121.08-124.141" id="Shape" fill="#00B0E9"/><path d="M1033.047 585.168v-52.075c-28.661 34.45-72.476 60.885-136.221 60.885-79.66 0-149.741-45.648-149.741-130.556v-1.592c0-93.707 72.493-138.57 170.468-138.57 50.969 0 83.642 7.194 116.296 17.608v-7.99c0-58.485-36.648-90.511-103.561-90.511-46.994 0-82.031 10.414-120.272 26.424l-26.29-77.685c46.215-20.816 91.611-35.234 160.111-35.234 124.265 0 184.808 65.667 184.808 178.616v250.681h-95.598zm2.383-177.012c-24.697-9.618-58.944-16.8-96.383-16.8-60.525 0-96.371 24.808-96.371 65.679v1.592c0 40.046 35.846 62.465 81.253 62.465 63.716 0 111.5-36.042 111.5-88.907v-24.03z" id="Shape" fill="#00B0E9"/><path d="M1199.736.483h96.371v584.679h-96.371v-584.679z" id="Shape" fill="#00B0E9"/><path d="M1369.486.483h96.382v349.212l174.45-187.426h117.086l-167.265 172.212 172.851 250.681h-111.512l-126.654-182.614-58.956 61.669v120.95h-96.382v-584.679" fill="#00B0E9"/><path d="M126.96 569.17c-54.41 42.653-126.678 28.277-126.678 28.277s63.467-70.188 45.764-101.632c-20.24-35.863-35.293-75.618-35.293-119.697v-1.604c0-120.921 95.604-221.055 224.641-221.055 129.037 0 223.827 98.531 223.827 219.463v1.592c0 120.154-95.592 220.271-225.419 220.271-39.358 0-75.566-9.279-106.841-25.616zm235.878-193.057v-1.604c0-74.483-53.358-136.158-129.037-136.158-77.277 0-126.654 60.897-126.654 134.566v1.592c0 73.711 53.37 136.158 128.247 136.158 78.056 0 127.444-61.669 127.444-134.554z" fill="#EE0788"/></g></svg>