<svg width="295" height="101" xmlns="http://www.w3.org/2000/svg" xmlns:sketch="http://www.bohemiancoding.com/sketch/ns"><title>Untitled 3</title><desc>Created with Sketch.</desc><g sketch:type="MSShapeGroup" fill="none"><path d="M86.253 78.368v-37.108h-8.918v-13.882h8.918v-19.356h16.109v19.356h18.906v13.882h-18.906v34.572c0 6.274 3.196 8.814 8.656 8.814 3.595 0 6.786-.804 9.984-2.403v13.213c-3.993 2.272-8.522 3.602-14.512 3.602-11.849 0-20.237-5.201-20.237-20.69" id="Shape" fill="#00B0E9"/><path d="M172.33 97.861v-8.679c-4.79 5.742-12.114 10.148-22.768 10.148-13.314 0-25.028-7.608-25.028-21.759v-.265c0-15.618 12.117-23.095 28.492-23.095 8.519 0 13.98 1.199 19.438 2.935v-1.332c0-9.748-6.125-15.085-17.309-15.085-7.855 0-13.711 1.736-20.102 4.404l-4.394-12.948c7.724-3.469 15.312-5.872 26.761-5.872 20.77 0 30.889 10.945 30.889 29.769v41.78h-15.978zm.398-29.502c-4.128-1.603-9.852-2.8-16.109-2.8-10.116 0-16.107 4.135-16.107 10.947v.265c0 6.674 5.991 10.411 13.581 10.411 10.65 0 18.636-6.007 18.636-14.818v-4.005z" id="Shape" fill="#00B0E9"/><path d="M200.19.414h16.107v97.447h-16.107v-97.447z" id="Shape" fill="#00B0E9"/><path d="M228.562.414h16.109v58.202l29.158-31.238h19.57l-27.957 28.702 28.89 41.78h-18.638l-21.169-30.436-9.854 10.278v20.158h-16.109v-97.447" fill="#00B0E9"/><path d="M20.886 95.195c-9.094 7.109-21.173 4.713-21.173 4.713s10.608-11.698 7.649-16.939c-3.383-5.977-5.899-12.603-5.899-19.95v-.267c0-20.153 15.979-36.843 37.547-36.843 21.567 0 37.411 16.422 37.411 36.577v.265c0 20.026-15.977 36.712-37.677 36.712-6.578 0-12.63-1.547-17.858-4.269zm39.425-32.176v-.267c0-12.414-8.918-22.693-21.567-22.693-12.916 0-21.169 10.15-21.169 22.428v.265c0 12.285 8.92 22.693 21.435 22.693 13.046 0 21.301-10.278 21.301-22.426z" fill="#EE0788"/></g></svg>