<?xml version="1.0" encoding="UTF-8" standalone="no"?>
<svg width="880px" height="299px" viewBox="0 0 880 299" version="1.1" xmlns="http://www.w3.org/2000/svg" xmlns:xlink="http://www.w3.org/1999/xlink" xmlns:sketch="http://www.bohemiancoding.com/sketch/ns">
    <!-- Generator: Sketch 3.0.3 (7891) - http://www.bohemiancoding.com/sketch -->
    <title>Untitled 2</title>
    <desc>Created with Sketch.</desc>
    <defs></defs>
    <g id="Page-1" stroke="none" stroke-width="1" fill="none" fill-rule="evenodd" sketch:type="MSPage">
        <g id="otalk" sketch:type="MSLayerGroup" transform="translate(0.000000, -1.000000)">
            <g id="Group" sketch:type="MSShapeGroup">
                <path d="M258.172973,235.10495 L258.172973,123.781188 L231.478649,123.781188 L231.478649,82.1346535 L258.172973,82.1346535 L258.172973,24.0653465 L306.391622,24.0653465 L306.391622,82.1346535 L362.982162,82.1346535 L362.982162,123.781188 L306.391622,123.781188 L306.391622,227.49802 C306.391622,246.320792 315.958649,253.939604 332.301081,253.939604 C343.06027,253.939604 352.612432,251.527723 362.185405,246.730693 L362.185405,286.369307 C350.234054,293.186139 336.677297,297.175248 318.747297,297.175248 C283.27973,297.175248 258.172973,281.572277 258.172973,235.10495" id="Shape" fill="#00A3DB"></path>
                <path d="M515.816757,293.584158 L515.816757,267.546535 C501.478108,284.771287 479.558378,297.989109 447.667297,297.989109 C407.814595,297.989109 372.754324,275.165347 372.754324,232.710891 L372.754324,231.914851 C372.754324,185.061386 409.021622,162.629703 458.037027,162.629703 C483.536216,162.629703 499.881622,166.226733 516.218108,171.433663 L516.218108,167.438614 C516.218108,138.19604 497.883784,122.183168 464.408108,122.183168 C440.897838,122.183168 423.369189,127.390099 404.238108,135.39505 L391.085676,96.5524752 C414.206486,86.1445545 436.917027,78.9356436 471.186486,78.9356436 C533.354324,78.9356436 563.642973,111.769307 563.642973,168.243564 L563.642973,293.584158 L515.81973,293.584158 L515.816757,293.584158 Z M517.008919,205.078218 C504.653243,200.269307 487.52,196.678218 468.79027,196.678218 C438.510541,196.678218 420.577568,209.082178 420.577568,229.517822 L420.577568,230.313861 C420.577568,250.336634 438.510541,261.546535 461.227027,261.546535 C493.103243,261.546535 517.008919,243.525743 517.008919,217.093069 L517.008919,205.081188 L517.008919,205.078218 Z" id="Shape" fill="#00A3DB"></path>
                <path d="M599.208649,1.24158416 L647.421351,1.24158416 L647.421351,293.581188 L599.208649,293.581188 L599.208649,1.24158416 L599.208649,1.24158416 Z" id="Shape" fill="#00A3DB"></path>
                <path d="M684.131622,1.24158416 L732.35027,1.24158416 L732.35027,175.847525 L819.624865,82.1346535 L878.201351,82.1346535 L794.521081,168.240594 L880.995946,293.581188 L825.208108,293.581188 L761.845135,202.274257 L732.35027,233.108911 L732.35027,293.584158 L684.131622,293.584158 L684.131622,1.24455446" id="Shape" fill="#00A3DB"></path>
                <path d="M62.5156757,285.585149 C35.2951351,306.911881 -0.859189189,299.723762 -0.859189189,299.723762 C-0.859189189,299.723762 30.8921622,264.629703 22.0356757,248.907921 C11.9097297,230.976238 4.37918919,211.09901 4.37918919,189.059406 L4.37918919,188.257426 C4.37918919,127.79703 52.2083784,77.729703 116.763514,77.729703 C181.318649,77.729703 228.740541,126.99505 228.740541,187.461386 L228.740541,188.257426 C228.740541,248.334653 180.917297,298.393069 115.966757,298.393069 C96.2767568,298.393069 78.1624324,293.753465 62.5156757,285.585149 L62.5156757,285.585149 Z M180.521892,189.056436 L180.521892,188.254455 C180.521892,151.012871 153.827568,120.175248 115.966757,120.175248 C77.3062162,120.175248 52.6037838,150.623762 52.6037838,187.458416 L52.6037838,188.254455 C52.6037838,225.109901 79.3040541,256.333663 116.763514,256.333663 C155.813514,256.333663 180.521892,225.49901 180.521892,189.056436 L180.521892,189.056436 Z" id="Shape" fill="#D8117D"></path>
            </g>
        </g>
    </g>
</svg>