<svg version="1.1" id="Layer_1" xmlns="http://www.w3.org/2000/svg" x="0" y="0" viewBox="0 0 491 304" xml:space="preserve"><style>.st0{fill:#31a8df}</style><path class="st0" d="M16.5 232.1v-63.4h-15V145h15v-33h27.1v33h31.9v23.8H43.6v59c0 10.6 5.3 15 14.6 15 6.1 0 11.4-1.3 16.9-4.2v22.6c-6.7 3.8-14.4 6.1-24.5 6.1-19.9.1-34.1-8.9-34.1-35.2zM161.4 265.3v-14.8c-8.2 9.8-20.5 17.3-38.4 17.3-22.4 0-42-13.1-42-37.3v-.4c0-26.7 20.5-39.5 48-39.5 14.4 0 23.6 2.1 32.8 5v-2.1c0-16.7-10.2-25.8-29.2-25.8-13.3 0-23.2 3.1-34 7.6l-7.4-22.2c13.1-5.9 25.8-10 45.1-10 34.9 0 52 18.8 52 50.9v71.4h-26.9v-.1zm.6-50.3c-7.1-2.7-16.5-4.8-27.1-4.8-17.1 0-27.1 7.1-27.1 18.8v.4c0 11.4 10 17.8 23 17.8 18 0 31.5-10.2 31.5-25.2v-7.1l-.3.1zM208.2 98.9h27.1v166.4h-27.1V98.9zM255.8 98.9h27.1v99.4L332 145h33l-47 49 48.8 71.4h-31.5l-35.7-52-16.5 17.7v34.2H256V98.9h-.2zM374.2 295.2l9.1-20.5c5 2.7 10.2 4.6 15.9 4.6 7.6 0 12.3-3.4 16.9-13.8L366.8 145h29l33.6 89.4 30.7-89.4h28.2l-47 124c-9.4 24.7-19.9 33.8-39.1 33.8-11.5-.3-19.7-3-28-7.6z"/><path d="M428.8 1.3c-36.1-1.1-63.4 26.1-64.5 60.3v.4c-.4 11.4 2.3 22.2 7.4 31.5-.4 8.7-7.8 21.3-19.4 30.7 24.9 4.4 36.6-4.4 43.8-6.1 8.2 4.8 18 7.3 28.6 7.6 36.3 1.1 63.7-26.1 64.7-60.1v-.4c.9-34.1-24.7-62.7-60.6-63.9zm28.5 60.5l-37.2 35.7c-2.7 2.7-5.3 1.9-5.7-1.5l-8.5-63.7c-.4-3.4 1.9-4.8 5.2-3.1l45.1 24.5c3.4 2 3.8 5.7 1.1 8.1z" fill="#e91289"/><g><path class="st0" d="M458 253.4c0-7 5.6-12.7 12.5-12.7 7.1 0 12.5 5.7 12.5 12.5v.1c0 6.9-5.6 12.6-12.5 12.6-7.1 0-12.5-5.7-12.5-12.5zm23.6-.1c0-6.2-4.8-11.2-11.1-11.2s-11.1 5.1-11.1 11.2v.1c0 6.2 4.8 11.1 11.1 11.1s11.1-5.1 11.1-11.2zm-16.3-6.8h6.2c3 0 5.3 1.4 5.3 4.4 0 2.1-1.2 3.5-2.9 4.1l3.3 4.7h-3.8l-2.8-4.1h-2v4.1h-3.2l-.1-13.2zm5.9 6.4c1.5 0 2.2-.7 2.2-1.8 0-1.2-.9-1.8-2.2-1.8h-2.8v3.6h2.8z"/></g></svg>