<svg width="982" height="610" xmlns="http://www.w3.org/2000/svg" xmlns:sketch="http://www.bohemiancoding.com/sketch/ns"><title>Untitled 3</title><desc>Created with Sketch.</desc><g sketch:type="MSShapeGroup" fill="none"><path d="M32.423 466.622v-126.937h-30.111v-47.486h30.111v-66.205h54.372v66.205h63.807v47.486h-63.807v118.264c0 21.459 10.783 30.135 29.21 30.135 12.131 0 22.917-2.743 33.7-8.219v45.205c-13.478 7.76-28.76 12.328-48.979 12.328-39.993 0-68.303-17.813-68.303-70.776zm290.199 66.664v-29.679c-16.176 19.635-40.894 34.705-76.841 34.705-44.936 0-84.482-26.03-84.482-74.424v-.915c0-53.421 40.897-78.989 96.166-78.989 28.76 0 47.184 4.102 65.605 10.038v-4.567c0-33.331-20.672-51.594-58.417-51.594-26.515 0-46.287 5.936-67.856 15.07l-14.829-44.296c26.062-11.865 51.677-20.088 90.322-20.088 70.101 0 104.254 37.442 104.254 101.826v142.919h-53.921v-.006zm1.347-100.91c-13.931-5.48-33.253-9.591-54.372-9.591-34.15 0-54.372 14.158-54.372 37.439v.915c0 22.828 20.222 35.617 45.836 35.617 35.948 0 62.91-20.55 62.91-50.688l-.003-13.693zm92.35-232.408h54.375v333.318h-54.375v-333.318zm95.403 0h54.375v199.081l98.413-106.846h66.052l-94.362 98.164 97.513 142.922h-62.91l-71.451-104.106-33.253 35.155v68.945h-54.378v-333.315zm237.044 393.132l18.424-41.097c9.889 5.477 20.672 9.132 31.905 9.132 15.279 0 24.714-6.848 33.703-27.854l-98.861-241.081h57.967l67.406 178.987 61.569-178.987h56.616l-94.362 247.935c-18.874 49.31-39.993 67.573-78.192 67.573-22.92.003-39.549-5.473-56.175-14.608z" fill="#00B0E9"/><path d="M858.22 4.727c-72.091-2.235-127.094 52.604-129.075 120.86l-.046.888c-.643 22.769 4.692 44.323 14.783 63.009-.689 17.388-15.683 42.741-38.802 61.436 49.744 8.911 73.31-8.752 87.728-12.288 16.409 9.618 36.122 14.415 57.217 15.077 72.538 2.256 127.556-52.573 129.547-120.377l.018-.931c1.972-68.226-49.34-125.443-121.37-127.674zm57.002 121.31l-74.413 71.535c-5.46 5.229-10.642 3.9-11.561-2.954l-17.064-127.488c-.922-6.876 3.736-9.539 10.363-5.963l90.531 48.882c6.584 3.563 7.561 10.763 2.144 15.989z" fill="#EE0788"/></g></svg>