<svg width="165" height="102" xmlns="http://www.w3.org/2000/svg" xmlns:sketch="http://www.bohemiancoding.com/sketch/ns"><title>Untitled 3</title><desc>Created with Sketch.</desc><g sketch:type="MSShapeGroup" fill="none"><path d="M6.091 77.77v-21.156h-5.039v-7.914h5.039v-11.034h9.099v11.034h10.678v7.914h-10.678v19.711c0 3.577 1.805 5.022 4.888 5.022 2.03 0 3.835-.457 5.64-1.37v7.534c-2.256 1.293-4.813 2.055-8.196 2.055-6.693 0-11.43-2.969-11.43-11.796zm48.564 11.111v-4.946c-2.707 3.272-6.843 5.784-12.859 5.784-7.52 0-14.138-4.338-14.138-12.404v-.153c0-8.904 6.844-13.165 16.093-13.165 4.813 0 7.896.684 10.979 1.673v-.761c0-5.555-3.459-8.599-9.776-8.599-4.437 0-7.746.989-11.355 2.512l-2.482-7.383c4.361-1.978 8.648-3.348 15.115-3.348 11.731 0 17.447 6.24 17.447 16.971v23.82h-9.024v-.001zm.225-16.818c-2.331-.913-5.565-1.598-9.099-1.598-5.715 0-9.099 2.36-9.099 6.24v.153c0 3.805 3.384 5.936 7.671 5.936 6.016 0 10.528-3.425 10.528-8.448l-.001-2.282zm15.454-38.735h9.099v55.553h-9.099v-55.553zm15.965 0h9.099v33.18l16.469-17.808h11.054l-15.791 16.361 16.319 23.82h-10.528l-11.957-17.351-5.565 5.859v11.491h-9.1v-55.553zm39.669 65.522l3.083-6.849c1.655.913 3.459 1.522 5.339 1.522 2.557 0 4.136-1.141 5.64-4.642l-16.544-40.18h9.701l11.28 29.831 10.303-29.831h9.475l-15.791 41.322c-3.159 8.218-6.693 11.262-13.085 11.262-3.836.001-6.618-.912-9.401-2.435z" fill="#00B0E9"/><path d="M144.286.788c-12.064-.372-21.269 8.767-21.6 20.143l-.008.148c-.108 3.795.785 7.387 2.474 10.502-.115 2.898-2.625 7.123-6.493 10.239 8.325 1.485 12.268-1.459 14.681-2.048 2.746 1.603 6.045 2.403 9.575 2.513 12.139.376 21.346-8.762 21.679-20.063l.003-.155c.33-11.371-8.257-20.907-20.311-21.279zm9.539 20.218l-12.453 11.922c-.914.871-1.781.65-1.935-.492l-2.856-21.248c-.154-1.146.625-1.59 1.734-.994l15.15 8.147c1.102.594 1.265 1.794.359 2.665z" fill="#EE0788"/></g></svg>