<svg width="491" height="304" xmlns="http://www.w3.org/2000/svg" xmlns:sketch="http://www.bohemiancoding.com/sketch/ns"><title>Untitled 3</title><desc>Created with Sketch.</desc><g sketch:type="MSShapeGroup" fill="none"><path d="M16.211 232.311v-63.468h-15.055v-23.743h15.055v-33.103h27.186v33.103h31.904v23.743h-31.904v59.132c0 10.73 5.392 15.067 14.605 15.067 6.065 0 11.458-1.371 16.85-4.11v22.603c-6.739 3.88-14.38 6.164-24.489 6.164-19.997 0-34.151-8.907-34.151-35.388zm145.1 33.332v-14.839c-8.088 9.817-20.447 17.353-38.421 17.353-22.468 0-42.241-13.015-42.241-37.212v-.458c0-26.711 20.448-39.494 48.083-39.494 14.38 0 23.592 2.051 32.802 5.019v-2.284c0-16.665-10.336-25.797-29.209-25.797-13.258 0-23.143 2.968-33.928 7.535l-7.414-22.148c13.031-5.933 25.838-10.044 45.161-10.044 35.05 0 52.127 18.721 52.127 50.913v71.46h-26.961v-.003zm.674-50.455c-6.966-2.74-16.626-4.795-27.186-4.795-17.075 0-27.186 7.079-27.186 18.719v.458c0 11.414 10.111 17.809 22.918 17.809 17.974 0 31.455-10.275 31.455-25.344l-.002-6.846zm46.175-116.204h27.187v166.659h-27.187v-166.659zm47.702 0h27.187v99.54l49.207-53.423h33.026l-47.181 49.082 48.757 71.461h-31.455l-35.726-52.053-16.626 17.578v34.472h-27.189v-166.658zm118.522 196.566l9.212-20.548c4.944 2.738 10.336 4.566 15.953 4.566 7.639 0 12.357-3.424 16.851-13.927l-49.43-120.54h28.983l33.703 89.493 30.784-89.493h28.308l-47.181 123.967c-9.437 24.655-19.997 33.787-39.096 33.787-11.46.002-19.775-2.737-28.088-7.304z" fill="#00B0E9"/><path d="M429.11 1.363c-36.046-1.117-63.547 26.302-64.538 60.43l-.023.444c-.322 11.385 2.346 22.162 7.391 31.505-.345 8.694-7.842 21.37-19.401 30.718 24.872 4.456 36.655-4.376 43.864-6.144 8.204 4.809 18.061 7.208 28.608 7.538 36.269 1.128 63.778-26.287 64.773-60.188l.009-.465c.986-34.113-24.67-62.721-60.685-63.837zm28.501 60.655l-37.206 35.767c-2.73 2.614-5.321 1.95-5.78-1.477l-8.532-63.744c-.461-3.438 1.868-4.769 5.182-2.982l45.265 24.441c3.292 1.782 3.781 5.382 1.072 7.994z" fill="#EE0788"/></g></svg>