<?xml version="1.0" encoding="UTF-8" standalone="no"?>
<svg width="164px" height="100px" viewBox="0 0 164 100" version="1.1" xmlns="http://www.w3.org/2000/svg" xmlns:xlink="http://www.w3.org/1999/xlink" xmlns:sketch="http://www.bohemiancoding.com/sketch/ns">
    <!-- Generator: Sketch 3.0.3 (7891) - http://www.bohemiancoding.com/sketch -->
    <title>Untitled 2</title>
    <desc>Created with Sketch.</desc>
    <defs></defs>
    <g id="Page-1" stroke="none" stroke-width="1" fill="none" fill-rule="evenodd" sketch:type="MSPage">
        <g id="talky" sketch:type="MSLayerGroup">
            <g id="Page-1" sketch:type="MSShapeGroup">
                <g id="talky-logo">
                    <path d="M5.091175,76.7704082 L5.091175,55.6142857 L0.052275,55.6142857 L0.052275,47.7 L5.091175,47.7 L5.091175,36.6658163 L14.1901,36.6658163 L14.1901,47.7 L24.8680375,47.7 L24.8680375,55.6142857 L14.1901,55.6142857 L14.1901,75.325 C14.1901,78.9015306 15.9946125,80.347449 19.078325,80.347449 C21.1083375,80.347449 22.9133625,79.8903061 24.717875,78.977551 L24.717875,86.5117347 C22.4623625,87.805102 19.9049875,88.5663265 16.5214625,88.5663265 C9.828725,88.5663265 5.091175,85.597449 5.091175,76.7704082 L5.091175,76.7704082 L5.091175,76.7704082 Z M53.6551625,87.8811224 L53.6551625,82.9346939 C50.9481375,86.2071429 46.81175,88.7188776 40.796025,88.7188776 C33.2761125,88.7188776 26.6582,84.3806122 26.6582,76.3147959 L26.6582,76.1622449 C26.6582,67.2586735 33.502125,62.997449 42.7512125,62.997449 C47.5641,62.997449 50.6473,63.6811224 53.7299875,64.6704082 L53.7299875,63.9091837 C53.7299875,58.3540816 50.2706125,55.3102041 43.95405,55.3102041 C39.516825,55.3102041 36.208125,56.2994898 32.5985875,57.8219388 L30.1170625,50.4392857 C34.4784375,48.4617347 38.7649875,47.0913265 45.232225,47.0913265 C56.96335,47.0913265 62.67875,53.3316327 62.67875,64.0622449 L62.67875,87.8821429 L53.6551625,87.8821429 L53.6551625,87.8811224 L53.6551625,87.8811224 Z M53.8806625,71.0627551 C51.5493,70.1494898 48.3159375,69.4642857 44.7817375,69.4642857 C39.06685,69.4642857 35.6828125,71.8239796 35.6828125,75.7040816 L35.6828125,75.8566327 C35.6828125,79.6612245 39.06685,81.7928571 43.3534,81.7928571 C49.369125,81.7928571 53.881175,78.3678571 53.881175,73.344898 L53.8806625,71.0627551 L53.8806625,71.0627551 Z M69.3351,32.3280612 L78.4345375,32.3280612 L78.4345375,87.8811224 L69.3351,87.8811224 L69.3351,32.3280612 L69.3351,32.3280612 Z M85.3005,32.3280612 L94.3999375,32.3280612 L94.3999375,65.5081633 L110.869125,47.7005102 L121.922725,47.7005102 L106.131575,64.0612245 L122.450087,87.8816327 L111.922312,87.8816327 L99.965175,70.5306122 L94.40045,76.3897959 L94.40045,87.8806122 L85.3005,87.8806122 L85.3005,32.3280612 L85.3005,32.3280612 Z M124.969025,97.85 L128.052225,91.0005102 C129.707087,91.9132653 131.5116,92.522449 133.39145,92.522449 C135.948312,92.522449 137.527325,91.3811224 139.031512,87.880102 L122.4875,47.7 L132.1881,47.7 L143.468225,77.5311224 L153.771525,47.7 L163.246112,47.7 L147.454962,89.022449 C144.296425,97.2408163 140.762225,100.284694 134.369812,100.284694 C130.534262,100.285204 127.751387,99.372449 124.969025,97.85 L124.969025,97.85 L124.969025,97.85 Z" id="Shape" fill="#31A8DF"></path>
                    <path d="M143.285775,-0.212244898 C131.221525,-0.584693878 122.017025,8.55510204 121.685437,19.9311224 L121.67775,20.0790816 C121.570125,23.8739796 122.4629,27.4663265 124.151587,30.5806122 C124.036275,33.4785714 121.527075,37.7040816 117.658212,40.819898 C125.98275,42.305102 129.926437,39.3612245 132.339287,38.7719388 C135.085262,40.375 138.384225,41.1744898 141.914325,41.2846939 C154.0534,41.6607143 163.260462,32.522449 163.593587,21.2219388 L163.596662,21.0668367 C163.926713,9.69591837 155.339775,0.159693878 143.285775,-0.212244898 L143.285775,-0.212244898 L143.285775,-0.212244898 Z M152.824937,20.0061224 L140.372212,31.9285714 C139.458425,32.8 138.591275,32.5785714 138.437525,31.4362245 L135.581875,10.1882653 C135.427612,9.04234694 136.207125,8.59846939 137.316175,9.19438776 L152.466187,17.3413265 C153.568062,17.9352041 153.73155,19.1352041 152.824937,20.0061224 L152.824937,20.0061224 L152.824937,20.0061224 Z" id="Shape" fill="#E91289"></path>
                </g>
            </g>
        </g>
    </g>
</svg>