<svg version="1.1" id="Layer_1" xmlns="http://www.w3.org/2000/svg" x="0" y="0" viewBox="0 0 982 610" xml:space="preserve"><style>.st0{fill:#31a8df}</style><path class="st0" d="M31.1 465.2V337.9H1v-47.6h30.1V224h54.5v66.3h64v47.6h-64v118.4c0 21.4 10.7 30.1 29.3 30.1 12.2 0 22.9-2.7 33.9-8.4v45.3c-13.4 7.6-28.9 12.2-49.2 12.2-39.9.5-68.5-17.4-68.5-70.3zM322.1 531.8v-29.7c-16.4 19.9-41.1 34.6-76.9 34.6-45 0-84.6-26.2-84.6-74.6v-.8c0-53.7 41.1-79.2 96.4-79.2 28.9 0 47.2 4.2 65.9 9.9v-4.2c0-33.5-20.6-51.8-58.7-51.8-26.6 0-46.5 6.1-68.2 15.3l-14.9-44.6c26.2-11.8 51.8-20.2 90.7-20.2 70 0 104.4 37.7 104.4 102.1v143.3h-54.1v-.1zm1.2-100.9c-14.1-5.3-33.1-9.5-54.5-9.5-34.3 0-54.5 14.1-54.5 37.7v.8c0 22.9 20.2 35.8 46.1 35.8 36.2 0 63.3-20.6 63.3-50.7v-14l-.4-.1zM415.9 197.7h54.5v334.2h-54.5V197.7zM511.5 197.7H566v199.7l98.7-107.1H731l-94.5 98.3 97.9 143.3H671l-71.6-104.4-33.1 35.4v69h-54.4V197.7h-.4zM749.2 592l18.3-41.1c9.9 5.3 20.6 9.2 32 9.2 15.3 0 24.7-6.9 33.9-27.8l-99.1-241.9h58.3L860 469.8l61.8-179.4h56.8L884.1 539c-19.1 49.5-40 67.9-78.4 67.9-23.3-.4-39.8-5.8-56.5-14.9z"/><path d="M858.9 1.9C786.6-.4 731.7 54.5 729.4 123v.8c-.8 22.9 4.6 44.6 14.9 63.3-.8 17.6-15.7 42.7-38.8 61.8 49.9 8.8 73.5-8.8 88-12.2 16.4 9.5 36.2 14.5 57.6 15.3 72.7 2.3 128-52.6 129.9-120.7v-.8C982.4 61.7 931 4.2 858.9 1.9zm57.2 121.5L841.5 195c-5.3 5.3-10.7 3.8-11.5-3.1L812.8 64c-.8-6.9 3.8-9.5 10.3-6.1l90.7 49.2c6.8 4.2 7.6 11.3 2.3 16.3z" fill="#e91289"/><g><path class="st0" d="M917.4 507.9c0-13.9 11.2-25.4 25.1-25.4 14.2 0 25.1 11.5 25.1 25.1v.1c0 13.8-11.2 25.3-25.1 25.3-14.1 0-25.1-11.4-25.1-25.1zm47.5-.2c0-12.4-9.6-22.6-22.3-22.6-12.6 0-22.3 10.3-22.3 22.6v.1c0 12.3 9.6 22.5 22.3 22.5 12.5 0 22.3-10.3 22.3-22.6zm-32.7-13.6h12.3c6.1 0 10.6 2.8 10.6 8.7 0 4.2-2.3 7-5.8 8.1l6.7 9.4h-7.7l-5.7-8.3h-4.1v8.3h-6.4l.1-26.2zm11.9 12.7c2.9 0 4.5-1.5 4.5-3.6 0-2.3-1.7-3.6-4.5-3.6h-5.5v7.3l5.5-.1z"/></g></svg>