<?xml version="1.0" encoding="UTF-8" standalone="no"?>
<svg width="489px" height="300px" viewBox="0 0 489 300" version="1.1" xmlns="http://www.w3.org/2000/svg" xmlns:xlink="http://www.w3.org/1999/xlink" xmlns:sketch="http://www.bohemiancoding.com/sketch/ns">
    <!-- Generator: Sketch 3.0.3 (7891) - http://www.bohemiancoding.com/sketch -->
    <title>Untitled 2</title>
    <desc>Created with Sketch.</desc>
    <defs></defs>
    <g id="Page-1" stroke="none" stroke-width="1" fill="none" fill-rule="evenodd" sketch:type="MSPage">
        <g id="talky" sketch:type="MSLayerGroup">
            <g id="Page-1" sketch:type="MSShapeGroup">
                <g id="talky-logo">
                    <path d="M15.2114375,230.311224 L15.2114375,166.842857 L0.1561875,166.842857 L0.1561875,143.1 L15.2114375,143.1 L15.2114375,109.997449 L42.39725,109.997449 L42.39725,143.1 L74.3008438,143.1 L74.3008438,166.842857 L42.39725,166.842857 L42.39725,225.975 C42.39725,236.704592 47.7887812,241.042347 57.0023125,241.042347 C63.0675938,241.042347 68.4606563,239.670918 73.8521875,236.932653 L73.8521875,259.535204 C67.1131563,263.415306 59.4722188,265.69898 49.3629063,265.69898 C29.3663125,265.69898 15.2114375,256.792347 15.2114375,230.311224 L15.2114375,230.311224 L15.2114375,230.311224 Z M160.311156,263.643367 L160.311156,248.804082 C152.223094,258.621429 139.864375,266.156633 121.890563,266.156633 C99.4225313,266.156633 79.6495,253.141837 79.6495,228.944388 L79.6495,228.486735 C79.6495,201.77602 100.097813,188.992347 127.732281,188.992347 C142.11225,188.992347 151.32425,191.043367 160.534719,194.011224 L160.534719,191.727551 C160.534719,175.062245 150.198781,165.930612 131.326125,165.930612 C118.068562,165.930612 108.182812,168.898469 97.3982187,173.465816 L89.9839063,151.317857 C103.014844,145.385204 115.822219,141.27398 135.145062,141.27398 C170.195375,141.27398 187.271875,159.994898 187.271875,192.186735 L187.271875,263.646429 L160.311156,263.646429 L160.311156,263.643367 L160.311156,263.643367 Z M160.984906,213.188265 C154.01925,210.448469 144.358594,208.392857 133.799094,208.392857 C116.724125,208.392857 106.613281,215.471939 106.613281,227.112245 L106.613281,227.569898 C106.613281,238.983673 116.724125,245.378571 129.5315,245.378571 C147.505312,245.378571 160.986437,235.103571 160.986437,220.034694 L160.984906,213.188265 L160.984906,213.188265 Z M207.15975,96.9841837 L234.347094,96.9841837 L234.347094,263.643367 L207.15975,263.643367 L207.15975,96.9841837 L207.15975,96.9841837 Z M254.86125,96.9841837 L282.048594,96.9841837 L282.048594,196.52449 L331.255312,143.101531 L364.281312,143.101531 L317.100437,192.183673 L365.856969,263.644898 L334.402031,263.644898 L298.676437,211.591837 L282.050125,229.169388 L282.050125,263.641837 L254.86125,263.641837 L254.86125,96.9841837 L254.86125,96.9841837 Z M373.383062,293.55 L382.595062,273.001531 C387.539469,275.739796 392.931,277.567347 398.547625,277.567347 C406.187031,277.567347 410.904812,274.143367 415.399031,263.640306 L365.96875,143.1 L394.95225,143.1 L428.655062,232.593367 L459.439312,143.1 L487.747531,143.1 L440.566656,267.067347 C431.129562,291.722449 420.570063,300.854082 401.470781,300.854082 C390.010906,300.855612 381.696219,298.117347 373.383062,293.55 L373.383062,293.55 L373.383062,293.55 Z" id="Shape" fill="#31A8DF"></path>
                    <path d="M428.109937,-0.636734694 C392.064312,-1.75408163 364.563062,25.6653061 363.572344,59.7933673 L363.549375,60.2372449 C363.227812,71.6219388 365.89525,82.3989796 370.940719,91.7418367 C370.596187,100.435714 363.099187,113.112245 351.539781,122.459694 C376.411875,126.915306 388.194844,118.083673 395.403969,116.315816 C403.608406,121.125 413.465062,123.523469 424.012312,123.854082 C460.2815,124.982143 487.790406,97.5673469 488.785719,63.6658163 L488.794906,63.2005102 C489.781031,29.0877551 464.124937,0.479081633 428.109937,-0.636734694 L428.109937,-0.636734694 L428.109937,-0.636734694 Z M456.611094,60.0183673 L419.404781,95.7857143 C416.674562,98.4 414.083687,97.7357143 413.624312,94.3086735 L405.092187,30.5647959 C404.631281,27.1270408 406.960312,25.7954082 410.273937,27.5831633 L455.539219,52.0239796 C458.831406,53.8056122 459.319875,57.4056122 456.611094,60.0183673 L456.611094,60.0183673 L456.611094,60.0183673 Z" id="Shape" fill="#E91289"></path>
                </g>
            </g>
        </g>
    </g>
</svg>