<?xml version="1.0" encoding="UTF-8" standalone="no"?>
<svg width="978px" height="600px" viewBox="0 0 978 600" version="1.1" xmlns="http://www.w3.org/2000/svg" xmlns:xlink="http://www.w3.org/1999/xlink" xmlns:sketch="http://www.bohemiancoding.com/sketch/ns">
    <!-- Generator: Sketch 3.0.3 (7891) - http://www.bohemiancoding.com/sketch -->
    <title>Untitled 2</title>
    <desc>Created with Sketch.</desc>
    <defs></defs>
    <g id="Page-1" stroke="none" stroke-width="1" fill="none" fill-rule="evenodd" sketch:type="MSPage">
        <g id="talky" sketch:type="MSLayerGroup">
            <g id="Page-1" sketch:type="MSShapeGroup">
                <g id="talky-logo">
                    <path d="M30.422875,460.622449 L30.422875,333.685714 L0.312375,333.685714 L0.312375,286.2 L30.422875,286.2 L30.422875,219.994898 L84.7945,219.994898 L84.7945,286.2 L148.601688,286.2 L148.601688,333.685714 L84.7945,333.685714 L84.7945,451.95 C84.7945,473.409184 95.5775625,482.084694 114.004625,482.084694 C126.135188,482.084694 136.921313,479.341837 147.704375,473.865306 L147.704375,519.070408 C134.226313,526.830612 118.944438,531.397959 98.7258125,531.397959 C58.732625,531.397959 30.422875,513.584694 30.422875,460.622449 L30.422875,460.622449 L30.422875,460.622449 Z M320.622312,527.286735 L320.622312,497.608163 C304.446187,517.242857 279.72875,532.313265 243.781125,532.313265 C198.845063,532.313265 159.299,506.283673 159.299,457.888776 L159.299,456.973469 C159.299,403.552041 200.195625,377.984694 255.464562,377.984694 C284.2245,377.984694 302.6485,382.086735 321.069437,388.022449 L321.069437,383.455102 C321.069437,350.12449 300.397562,331.861224 262.65225,331.861224 C236.137125,331.861224 216.365625,337.796939 194.796437,346.931633 L179.967813,302.635714 C206.029687,290.770408 231.644437,282.547959 270.290125,282.547959 C340.39075,282.547959 374.54375,319.989796 374.54375,384.373469 L374.54375,527.292857 L320.622312,527.292857 L320.622312,527.286735 L320.622312,527.286735 Z M321.969812,426.376531 C308.0385,420.896939 288.717187,416.785714 267.598187,416.785714 C233.44825,416.785714 213.226562,430.943878 213.226562,454.22449 L213.226562,455.139796 C213.226562,477.967347 233.44825,490.757143 259.063,490.757143 C295.010625,490.757143 321.972875,470.207143 321.972875,440.069388 L321.969812,426.376531 L321.969812,426.376531 Z M414.3195,193.968367 L468.694187,193.968367 L468.694187,527.286735 L414.3195,527.286735 L414.3195,193.968367 L414.3195,193.968367 Z M509.7225,193.968367 L564.097187,193.968367 L564.097187,393.04898 L662.510625,286.203061 L728.562625,286.203061 L634.200875,384.367347 L731.713937,527.289796 L668.804062,527.289796 L597.352875,423.183673 L564.10025,458.338776 L564.10025,527.283673 L509.7225,527.283673 L509.7225,193.968367 L509.7225,193.968367 Z M746.766125,587.1 L765.190125,546.003061 C775.078937,551.479592 785.862,555.134694 797.09525,555.134694 C812.374062,555.134694 821.809625,548.286735 830.798063,527.280612 L731.9375,286.2 L789.9045,286.2 L857.310125,465.186735 L918.878625,286.2 L975.495062,286.2 L881.133312,534.134694 C862.259125,583.444898 841.140125,601.708163 802.941562,601.708163 C780.021812,601.711224 763.392437,596.234694 746.766125,587.1 L746.766125,587.1 L746.766125,587.1 Z" id="Shape" fill="#31A8DF"></path>
                    <path d="M856.219875,-1.27346939 C784.128625,-3.50816327 729.126125,51.3306122 727.144687,119.586735 L727.09875,120.47449 C726.455625,143.243878 731.7905,164.797959 741.881437,183.483673 C741.192375,200.871429 726.198375,226.22449 703.079562,244.919388 C752.82375,253.830612 776.389687,236.167347 790.807937,232.631633 C807.216812,242.25 826.930125,247.046939 848.024625,247.708163 C920.563,249.964286 975.580812,195.134694 977.571437,127.331633 L977.589812,126.40102 C979.562062,58.1755102 928.249875,0.958163265 856.219875,-1.27346939 L856.219875,-1.27346939 L856.219875,-1.27346939 Z M913.222187,120.036735 L838.809562,191.571429 C833.349125,196.8 828.167375,195.471429 827.248625,188.617347 L810.184375,61.1295918 C809.262562,54.2540816 813.920625,51.5908163 820.547875,55.1663265 L911.078437,104.047959 C917.662812,107.611224 918.63975,114.811224 913.222187,120.036735 L913.222187,120.036735 L913.222187,120.036735 Z" id="Shape" fill="#E91289"></path>
                </g>
            </g>
        </g>
    </g>
</svg>