<svg width="328" height="290" xmlns="http://www.w3.org/2000/svg" xmlns:sketch="http://www.bohemiancoding.com/sketch/ns"><title>andbang-logo</title><g sketch:type="MSLayerGroup" fill="none"><path d="M172.439 186.718c17.959-18.691 33.534-33.375 40.066-42.441l30.104 31.52c-10.557 13.835-28.901 31.455-41.02 44.07l50.776 61.258h-62.942l-23.802-27.517c-29.199 29.674-50.51 33.62-78.658 33.62-47.306 0-86.681-31.959-86.715-77.534-.029-40.412 27.664-63.447 58.158-82.98-19.548-22.787-27.586-37.843-27.586-56.968 0-39.065 31.715-65.141 73.155-65.141 40.66 0 72.154 22.666 72.154 59.696 0 26.449-17.468 46.796-50.698 67.142l47.008 55.275zm-119.975 17.466c0 21.566 16.201 37.249 39.267 37.249 12.902 0 28.691-2.901 45.742-21.6l-52.263-61.004c-27.758 19.125-32.746 31.519-32.746 45.355zm77.439-136.286c0-15.87-10.947-28.858-27.367-28.858-14.465 0-25.021 13.395-25.021 28.451 0 15.87 13.074 25.481 21.675 36.876 22.283-15.463 30.713-22.634 30.713-36.469zm0 0" fill="#EE0788" sketch:type="MSShapeGroup"/><path d="M294.863 223.278c18.106 0 32.509 14.705 32.509 33.192 0 18.067-14.403 32.773-32.509 32.773-17.697 0-32.1-14.706-32.1-32.773 0-18.487 14.403-33.192 32.1-33.192zm-27.771-223.001h54.801v194.076h-54.801v-194.076zm0 0" fill="#00B0E9" sketch:type="MSShapeGroup"/></g></svg>