<svg width="295" height="139" xmlns="http://www.w3.org/2000/svg" xmlns:sketch="http://www.bohemiancoding.com/sketch/ns"><title>lift-logo</title><g sketch:type="MSLayerGroup" fill="none"><path d="M129.517 133.363c-1.711-.606-3.034-1.517-3.942-2.704-.916-1.189-1.495-2.884-1.721-5.042-.242-2.333-.368-5.362-.368-9.001v-116.142l-30.453 3.752v4.78h1.316c6.505 0 8.889 1.327 9.747 2.439 1.324 1.724 1.995 4.941 1.995 9.568v95.603c0 3.609-.124 6.639-.371 9.001-.229 2.174-.782 3.88-1.647 5.074-.861 1.192-2.084 2.068-3.742 2.677-1.771.654-4.2 1.11-7.221 1.353l-1.211.095v4.931l1.411-.101c3.474-.252 6.992-.442 10.458-.567 6.766-.254 14.787-.249 22.053 0 3.832.124 7.605.315 11.211.567l1.408.098v-4.936l-1.218-.09c-3.276-.244-5.868-.699-7.703-1.356" fill="#38A1CF" sketch:type="MSShapeGroup"/><path d="M180.057 133.982c-1.682-.339-3.053-.927-4.082-1.745-.982-.776-1.668-1.92-2.103-3.506-.471-1.697-.708-4.11-.708-7.163v-57.407l-31.4 2.081v5.084l1.166.135c3.095.36 5.547 1.014 7.287 1.946 1.674.9 2.937 2.052 3.755 3.419.837 1.406 1.347 3.199 1.516 5.333.187 2.301.282 4.989.282 7.987v31.42c0 3.037-.239 5.45-.711 7.169-.426 1.565-1.113 2.751-2.034 3.525-.966.808-2.239 1.39-3.784 1.724-1.721.365-3.816.614-6.224.734l-1.253.058v4.994l1.432-.127c2.85-.249 5.697-.442 8.463-.567 2.65-.124 5.495-.188 8.455-.188 4.529 0 9.005.064 13.303.191 4.474.124 8.953.318 13.308.567l1.389.082v-4.957l-1.255-.053c-2.666-.122-4.955-.368-6.803-.736" fill="#38A1CF" sketch:type="MSShapeGroup"/><path d="M162.573 31.859c3.139 0 5.85-1.197 8.058-3.562 2.184-2.341 3.292-5.114 3.292-8.236 0-3.127-1.108-5.897-3.292-8.241-2.208-2.36-4.918-3.556-8.058-3.556-3.142 0-5.85 1.197-8.053 3.556-2.184 2.338-3.292 5.108-3.292 8.241 0 3.13 1.108 5.9 3.289 8.236 2.205 2.365 4.913 3.562 8.055 3.562" fill="#38A1CF" sketch:type="MSShapeGroup"/><path d="M298.012 118.872l-.982.988c-2.455 2.468-4.929 4.526-7.358 6.109-2.292 1.501-5.232 2.262-8.745 2.262-1.605 0-2.847-.302-3.687-.898-.887-.63-1.547-1.451-2.021-2.513-.511-1.139-.855-2.447-1.029-3.895-.182-1.528-.274-3.109-.274-4.698v-45.532h25.926v-6.353h-25.926v-28.957h-4.903l-.308.892c-1.118 3.249-2.413 6.687-3.853 10.214-1.405 3.437-3.166 6.61-5.234 9.427-1.971 2.68-5.595 5.476-8.813 6.798-2.918 1.2-5.75 1.496-9.953 1.626h-18.208v-32.284c0-2.1.218-4.661.653-7.619.416-2.897 1.237-5.688 2.442-8.297 1.182-2.558 2.739-4.761 4.632-6.544 1.776-1.679 4.082-2.497 7.047-2.497 2.024 0 3.753.392 5.129 1.165 1.403.792 2.532 1.782 3.355 2.945.853 1.2 1.453 2.436 1.787 3.676.347 1.276.524 2.312.524 3.077 0 4.433.432 7.15 1.358 8.543 1.011 1.528 2.716 2.304 5.068 2.304 3.324 0 5.566-.704 6.847-2.158 1.245-1.404 1.847-3.747 1.847-7.163 0-5.746-2.311-10.397-6.866-13.821-4.442-3.334-9.897-5.024-16.211-5.024-6.439 0-11.989 1.687-16.489 5.018-4.418 3.27-8.042 7.383-10.774 12.219-2.708 4.804-4.697 9.986-5.911 15.41-1.242 5.521-1.829 8.599-1.829 12.947v18.103h-7.797l-1.942 6.353h9.739v46.303c0 2.839-.095 5.429-.279 7.698-.176 2.081-.689 3.882-1.534 5.349-.805 1.409-2.016 2.51-3.597 3.281-1.658.805-4.061 1.274-7.137 1.39l-1.268.048v4.973l1.397-.09c3.974-.252 7.971-.442 11.884-.567 7.85-.262 17.011-.241 24.9 0 4.287.124 8.668.318 13.021.567l1.389.082v-4.981l-1.284-.032c-5.029-.119-8.95-.614-11.661-1.464-2.579-.805-4.505-1.949-5.724-3.403-1.237-1.462-1.974-3.17-2.258-5.227-.305-2.209-.461-4.772-.461-7.624v-46.303h33.879v52.007c0 4.655 1.013 8.755 3.021 12.189 2.132 3.657 6.145 5.508 11.918 5.508 3.174 0 6.161-.506 8.874-1.507 2.692-.99 5.216-2.328 7.505-3.972 2.266-1.631 4.45-3.466 6.495-5.46 1.997-1.954 4.082-3.893 6.195-5.765l1-.884-3.521-3.938" fill="#38A1CF" sketch:type="MSShapeGroup"/><path d="M34.652-.567h17.079l28.466 63.998h-19.895l-16.937-40.795-18.089 40.795h-20.003l29.379-63.998" fill="#D7197D" sketch:type="MSShapeGroup"/></g></svg>