<svg width="218" height="119" xmlns="http://www.w3.org/2000/svg" xmlns:sketch="http://www.bohemiancoding.com/sketch/ns"><title>andyet-logo</title><g sketch:type="MSShapeGroup" fill="none"><path d="M35.766 37.917l14.843 17.941.48-.535c1.601-1.742 3.117-3.447 4.539-5.125 1.426-1.669 5.078-5.644 6.395-7.351l5.837 10.61c-.999 1.424-2.308 3.079-3.93 4.966-1.616 1.889-3.548 4.058-5.793 6.513l15.276 18.852h-15.485l-8.225-10.092c-7.55 7.798-15.397 11.694-23.546 11.694-7.303 0-13.497-2.328-18.586-6.998-4.985-4.696-7.476-10.499-7.476-17.405 0-8.225 3.949-15.059 11.854-20.507l5.394-3.684c.072-.034.196-.125.372-.27l.747-.583c-5.444-5.805-8.169-11.517-8.169-17.145 0-5.554 1.818-10.075 5.447-13.562 3.703-3.489 8.476-5.235 14.311-5.235 5.664 0 10.342 1.689 14.044 5.072 3.702 3.388 5.554 7.655 5.554 12.816 0 3.56-1.013 6.785-3.044 9.667-1.994 2.887-5.608 6.337-10.839 10.361zm-9.88 6.996l-.695.481c-5.091 3.526-8.563 6.354-10.412 8.486-1.816 2.139-2.722 4.402-2.722 6.785 0 3.419 1.37 6.552 4.11 9.396 2.846 2.743 5.979 4.112 9.401 4.112 4.803 0 10.342-3.148 16.604-9.448l-16.286-19.812zm2.672-15.753l1.013-.75c1.745-1.31 3.187-2.463 4.326-3.44 1.137-.98 1.96-1.808 2.458-2.486 1.066-1.313 1.601-2.937 1.601-4.856 0-2.173-.73-3.933-2.189-5.29-1.46-1.351-3.42-2.03-5.876-2.03-2.242 0-4.127.696-5.66 2.083-1.529 1.32-2.298 3.009-2.298 5.075 0 2.422.963 4.805 2.886 7.157l3.095 3.737c.108.177.322.447.644.8zm0 0" id="Shape" fill="#EB3B95"/><path d="M55.678 27.666c2.915.294 5.618.462 8.094.51 2.482.054 5.234.076 8.249.076 2.91 0 5.879-.022 8.895-.076 3.015-.048 5.983-.216 8.898-.51v1.75c-2.137.196-4.177.831-6.126 1.898-1.94 1.072-2.914 2.824-2.914 5.251 0 1.948.627 4.552 1.897 7.806 1.26 3.263 2.74 6.762 4.446 10.504 1.701 3.749 3.456 7.565 5.251 11.455 1.798 3.892 3.234 7.49 4.302 10.797.49-.974 1.244-2.578 2.264-4.817 1.022-2.238 2.189-4.792 3.5-7.657 1.312-2.865 2.632-5.861 3.939-8.97 1.317-3.113 2.53-6.03 3.654-8.755 1.113-2.727 2.037-5.104 2.764-7.147.737-2.046 1.101-3.406 1.101-4.089 0-1.165-.269-2.091-.803-2.771-.536-.681-1.19-1.241-1.973-1.682-.78-.43-1.701-.771-2.773-1.019-1.067-.239-2.097-.508-3.061-.803v-1.75c2.232.294 4.475.462 6.708.51 2.237.054 4.523.076 6.86.076 2.231 0 4.429-.022 6.567-.076 2.133-.048 4.324-.216 6.562-.51v1.75c-2.723.392-5.374 2.068-7.952 5.031-2.575 2.971-4.952 6.352-7.141 10.146-2.194 3.792-4.121 7.513-5.771 11.155-1.651 3.649-2.916 6.351-3.794 8.104-4.077 8.456-7.781 15.704-11.087 21.734-3.308 6.032-6.301 11.067-8.972 15.1-2.677 4.041-5.11 7.227-7.294 9.559-2.187 2.34-4.281 4.109-6.277 5.324-1.993 1.218-3.938 1.992-5.829 2.338-1.896.338-3.868.509-5.915.509-1.75 0-3.473-.247-5.176-.731-1.701-.486-3.213-1.239-4.52-2.258-1.318-1.024-2.39-2.315-3.219-3.868-.819-1.564-1.235-3.404-1.235-5.545 0-1.946.704-3.694 2.109-5.25 1.416-1.557 3.09-2.338 5.042-2.338 2.236 0 4.029.56 5.396 1.681 1.362 1.114 2.038 2.842 2.038 5.18 0 1.649-.39 3.037-1.167 4.157-.775 1.115-1.164 1.919-1.164 2.406 0 .585.705.948 2.118 1.097 1.408.143 2.791.215 4.159.215 2.912 0 5.785-1.192 8.601-3.575 2.821-2.38 5.324-5.104 7.512-8.164 2.195-3.066 3.967-5.989 5.332-8.755 1.365-2.771 2.04-4.551 2.04-5.328 0-.293-.34-1.292-1.017-2.991-.687-1.7-1.608-3.888-2.77-6.57-1.173-2.671-2.486-5.655-3.944-8.967-1.457-3.31-2.915-6.591-4.371-9.849-1.461-3.258-2.921-6.42-4.387-9.484-1.454-3.062-2.718-5.666-3.791-7.804-.97-2.231-1.799-4.037-2.479-5.401-.682-1.361-1.509-2.455-2.476-3.282-.972-.825-2.144-1.481-3.503-1.969-1.364-.485-3.165-1.019-5.398-1.606v-1.752h.001zm0 0" id="Shape" fill="#11BAEE"/><path d="M135.679 51.299c0 5.062.66 9.242 1.961 12.554 1.325 3.303 2.974 5.932 4.976 7.873 1.988 1.95 4.123 3.311 6.412 4.085 2.287.78 14.134.513 17.431-.799 3.311-1.312 6.375-3.382 9.2-6.201l2.476 2.334c-3.984 4.28-8.073 7.538-12.254 9.774-4.183 2.236-9.192 3.357-15.028 3.357-4.188 0-7.929-.828-11.237-2.483-3.308-1.648-6.126-3.84-8.462-6.566-2.331-2.72-4.104-5.837-5.323-9.337-1.22-3.497-1.823-7.1-1.823-10.797 0-3.693.604-7.295 1.823-10.793 1.219-3.502 2.992-6.615 5.323-9.337 2.336-2.725 5.154-4.913 8.462-6.568 3.309-1.651 7.049-2.482 11.237-2.482 7.68 0 13.863 2.091 18.536 6.275 4.663 4.186 7.526 10.557 8.601 19.111h-42.311zm28.456-4.372c-.301-2.627-.688-4.984-1.175-7.078-.484-2.092-1.263-3.839-2.327-5.25-1.082-1.411-2.492-2.48-4.233-3.209-1.757-.732-3.991-1.099-6.713-1.099-2.038 0-3.918.517-5.618 1.535-1.706 1.018-3.16 2.333-4.377 3.938-1.218 1.606-2.146 3.404-2.777 5.399-.633 1.995-.944 3.917-.944 5.764h28.164zm0 0" fill="#11BAEE"/><path d="M173.96 32.773v-2.335c3.111-.094 5.784-.872 8.031-2.333 2.238-1.46 4.173-3.308 5.829-5.545 1.658-2.236 3.038-4.717 4.159-7.441 1.116-2.72 2.115-5.345 2.995-7.877h2.034v21.153h19.992v4.378h-19.991v33.992c0 1.267.08 2.506.226 3.723.142 1.217.436 2.312.872 3.282.438.972 1.068 1.753 1.896 2.334.829.586 1.973.878 3.431.878 2.921 0 5.353-.633 7.291-1.895 1.951-1.268 3.891-2.869 5.846-4.82l1.311 1.459c-1.66 1.461-3.266 2.946-4.814 4.447-1.56 1.516-3.189 2.876-4.883 4.091-1.707 1.217-3.555 2.187-5.55 2.913-2.002.732-4.157 1.1-6.497 1.1-4.087 0-6.856-1.242-8.315-3.722-1.462-2.482-2.192-5.424-2.192-8.829v-38.953h-11.671zm0 0" fill="#11BAEE"/></g></svg>