<svg width="301" height="116" xmlns="http://www.w3.org/2000/svg" xmlns:sketch="http://www.bohemiancoding.com/sketch/ns"><title>otalk-logo</title><g sketch:type="MSLayerGroup" fill="none"><path d="M84.84 87.152v-37.479h-8.979v-14.021h8.979v-19.55h16.219v19.55h19.035v14.021h-19.035v34.918c0 6.337 3.218 8.902 8.715 8.902 3.619 0 6.832-.812 10.052-2.427v13.345c-4.02 2.295-8.58 3.638-14.611 3.638-11.93 0-20.375-5.253-20.375-20.897" fill="#00A3DB" sketch:type="MSShapeGroup"/><path d="M171.502 106.84v-8.766c-4.823 5.799-12.196 10.249-22.923 10.249-13.405 0-25.198-7.684-25.198-21.977v-.268c0-15.774 12.199-23.326 28.686-23.326 8.577 0 14.075 1.211 19.57 2.964v-1.345c0-9.845-6.167-15.236-17.427-15.236-7.908 0-13.804 1.753-20.239 4.448l-4.424-13.077c7.777-3.504 15.416-5.931 26.943-5.931 20.911 0 31.099 11.054 31.099 30.067v42.198h-16.086zm.401-29.797c-4.156-1.619-9.919-2.828-16.219-2.828-10.185 0-16.217 4.176-16.217 11.056v.268c0 6.741 6.032 10.515 13.673 10.515 10.722 0 18.763-6.067 18.763-14.966v-4.044zm0 0" fill="#00A3DB" sketch:type="MSShapeGroup"/><path d="M199.552 8.418h16.217v98.421h-16.217v-98.421zm0 0" fill="#00A3DB" sketch:type="MSShapeGroup"/><path d="M228.117 8.418h16.219v58.784l29.356-31.55h19.703l-28.147 28.989 29.087 42.198h-18.765l-21.313-30.74-9.921 10.381v20.36h-16.219v-98.421" fill="#00A3DB" sketch:type="MSShapeGroup"/><path d="M19.028 104.147c-9.156 7.18-21.317 4.76-21.317 4.76s10.68-11.815 7.701-17.108c-3.406-6.037-5.939-12.729-5.939-20.149v-.27c0-20.355 16.088-37.211 37.802-37.211s37.665 16.586 37.665 36.943v.268c0 20.226-16.086 37.079-37.933 37.079-6.623 0-12.716-1.562-17.979-4.312zm39.693-32.498v-.27c0-12.538-8.979-22.92-21.714-22.92-13.004 0-21.313 10.251-21.313 22.652v.268c0 12.408 8.981 22.92 21.581 22.92 13.135 0 21.446-10.381 21.446-22.65zm0 0" fill="#D8117D" sketch:type="MSShapeGroup"/></g></svg>