<?xml version="1.0" encoding="UTF-8" standalone="no"?>
<svg width="320px" height="196px" viewBox="0 0 320 196" version="1.1" xmlns="http://www.w3.org/2000/svg" xmlns:xlink="http://www.w3.org/1999/xlink" xmlns:sketch="http://www.bohemiancoding.com/sketch/ns">
    <!-- Generator: Sketch 3.0.3 (7891) - http://www.bohemiancoding.com/sketch -->
    <title>Untitled 2</title>
    <desc>Created with Sketch.</desc>
    <defs></defs>
    <g id="Page-1" stroke="none" stroke-width="1" fill="none" fill-rule="evenodd" sketch:type="MSPage">
        <g id="talky-logo" sketch:type="MSLayerGroup">
            <path d="M9.934,150.47 L9.934,109.004 L0.102,109.004 L0.102,93.492 L9.934,93.492 L9.934,71.865 L27.688,71.865 L27.688,93.492 L48.523,93.492 L48.523,109.004 L27.688,109.004 L27.688,147.637 C27.688,154.647 31.209,157.481 37.226,157.481 C41.187,157.481 44.709,156.585 48.23,154.796 L48.23,169.563 C43.829,172.098 38.839,173.59 32.237,173.59 C19.178,173.59 9.934,167.771 9.934,150.47 L9.934,150.47 Z M104.693,172.247 L104.693,162.552 C99.411,168.966 91.34,173.889 79.602,173.889 C64.929,173.889 52.016,165.386 52.016,149.577 L52.016,149.278 C52.016,131.827 65.37,123.475 83.417,123.475 C92.808,123.475 98.824,124.815 104.839,126.754 L104.839,125.262 C104.839,114.374 98.089,108.408 85.764,108.408 C77.106,108.408 70.65,110.347 63.607,113.331 L58.765,98.861 C67.275,94.985 75.639,92.299 88.258,92.299 C111.148,92.299 122.3,104.53 122.3,125.562 L122.3,172.249 L104.693,172.249 L104.693,172.247 L104.693,172.247 Z M105.133,139.283 C100.584,137.493 94.275,136.15 87.379,136.15 C76.228,136.15 69.625,140.775 69.625,148.38 L69.625,148.679 C69.625,156.136 76.228,160.314 84.592,160.314 C96.33,160.314 105.134,153.601 105.134,143.756 L105.133,139.283 L105.133,139.283 Z M135.288,63.363 L153.043,63.363 L153.043,172.247 L135.288,172.247 L135.288,63.363 L135.288,63.363 Z M166.44,63.363 L184.195,63.363 L184.195,128.396 L216.33,93.493 L237.898,93.493 L207.086,125.56 L238.927,172.248 L218.385,172.248 L195.054,138.24 L184.196,149.724 L184.196,172.246 L166.44,172.246 L166.44,63.363 L166.44,63.363 Z M243.842,191.786 L249.858,178.361 C253.087,180.15 256.608,181.344 260.276,181.344 C265.265,181.344 268.346,179.107 271.281,172.245 L239,93.492 L257.928,93.492 L279.938,151.961 L300.042,93.492 L318.529,93.492 L287.717,174.484 C281.554,190.592 274.658,196.558 262.185,196.558 C254.701,196.559 249.271,194.77 243.842,191.786 L243.842,191.786 Z" id="Shape" fill="#31A8DF" sketch:type="MSShapeGroup"></path>
            <path d="M279.582,-0.416 C256.042,-1.146 238.082,16.768 237.435,39.065 L237.42,39.355 C237.21,46.793 238.952,53.834 242.247,59.938 C242.022,65.618 237.126,73.9 229.577,80.007 C245.82,82.918 253.515,77.148 258.223,75.993 C263.581,79.135 270.018,80.702 276.906,80.918 C300.592,81.655 318.557,63.744 319.207,41.595 L319.213,41.291 C319.857,19.004 303.102,0.313 279.582,-0.416 L279.582,-0.416 Z M298.195,39.212 L273.897,62.58 C272.114,64.288 270.422,63.854 270.122,61.615 L264.55,19.969 C264.249,17.723 265.77,16.853 267.934,18.021 L297.495,33.989 C299.645,35.153 299.964,37.505 298.195,39.212 L298.195,39.212 Z" id="Shape" fill="#E91289" sketch:type="MSShapeGroup"></path>
        </g>
    </g>
</svg>