<svg xmlns="http://www.w3.org/2000/svg" width="578.299" height="241.488" viewBox="606.184 754.062 578.299 241.488" enable-background="new 606.184 754.062 578.299 241.488"><path d="M29.934 235.47v-41.466h-9.832v-15.512h9.832v-21.627h17.754v21.627h20.835v15.512h-20.835v38.633c0 7.01 3.521 9.844 9.538 9.844 3.961 0 7.483-.896 11.004-2.685v14.767c-4.401 2.535-9.391 4.027-15.993 4.027-13.059 0-22.303-5.819-22.303-23.12zm94.759 21.777v-9.695c-5.282 6.414-13.353 11.337-25.091 11.337-14.673 0-27.586-8.503-27.586-24.312v-.299c0-17.451 13.354-25.803 31.401-25.803 9.391 0 15.407 1.34 21.422 3.279v-1.492c0-10.888-6.75-16.854-19.075-16.854-8.658 0-15.114 1.939-22.157 4.923l-4.842-14.47c8.51-3.876 16.874-6.562 29.493-6.562 22.89 0 34.042 12.231 34.042 33.263v46.687h-17.607v-.002zm.44-32.964c-4.549-1.79-10.858-3.133-17.754-3.133-11.151 0-17.754 4.625-17.754 12.23v.299c0 7.457 6.603 11.635 14.967 11.635 11.738 0 20.542-6.713 20.542-16.558l-.001-4.473zm30.155-75.92h17.755v108.884h-17.755v-108.884zm31.152 0h17.755v65.033l32.135-34.903h21.568l-30.812 32.067 31.841 46.688h-20.542l-23.331-34.008-10.858 11.484v22.522h-17.756v-108.883zm77.402 128.423l6.016-13.425c3.229 1.789 6.75 2.983 10.418 2.983 4.989 0 8.07-2.237 11.005-9.099l-32.281-78.753h18.928l22.01 58.469 20.104-58.469h18.487l-30.812 80.992c-6.163 16.108-13.059 22.074-25.532 22.074-7.484.001-12.914-1.788-18.343-4.772z" fill="#31A8DF"/><path fill="#E91289" d="M299.582 84.584c-23.54-.73-41.5 17.184-42.147 39.481l-.015.29c-.21 7.438 1.532 14.479 4.827 20.583-.225 5.68-5.121 13.962-12.67 20.069 16.243 2.911 23.938-2.859 28.646-4.014 5.358 3.142 11.795 4.709 18.683 4.925 23.686.737 41.651-17.174 42.301-39.323l.006-.304c.644-22.287-16.111-40.978-39.631-41.707zm18.613 39.628l-24.298 23.368c-1.783 1.708-3.475 1.274-3.775-.965l-5.572-41.646c-.301-2.246 1.22-3.116 3.384-1.948l29.561 15.968c2.15 1.164 2.469 3.516.7 5.223z"/><path fill="#E91289" d="M684.283 84.795c-.024-.588-.459-1.033-1.052-1.047-10.819-.382-21.612 1.327-31.283 6.338-7.255 3.761-13.349 9.396-18.137 15.964-4.928.267-9.574 1.988-13.98 4.129-2.754 1.354-5.132 2.488-6.823 5.077-3.734 5.672-5.145 13.336-5.869 19.992-.065.56.631.841 1.045.6 4.214-2.283 9.34-3.113 14.134-3.317-.219 1.097-.41 2.194-.562 3.29l-.051.409c-.096.217-.107.445-.018.676.068.279.254.471.496.546l.363.321c-.363 1.044-.725 2.079-1.082 3.124-.078.204 0 .535.172.676 3.11 2.462 6.229 4.907 9.339 7.343.249.217.555.293.847.115.741-.434 1.487-.867 2.231-1.312.816.458 1.646.673 2.44.418.716-.202 1.431-.434 2.138-.675.345 4.539.123 9.334-1.467 13.554-.197.521.383.981.86.855 6.345-1.595 13.381-4.031 18.496-8.2 2.358-1.924 3.059-3.797 4.098-6.629 1.601-4.374 2.735-9.052 2.666-13.73.848-.767 1.683-1.57 2.498-2.373 10.686-10.762 16.786-25.539 18.247-40.519.198-1.979.333-3.649.254-5.625zm-24.122 28.866c-4.49 0-8.123-3.645-8.123-8.134 0-4.486 3.633-8.123 8.123-8.123 4.487 0 8.126 3.637 8.126 8.123 0 4.489-3.638 8.134-8.126 8.134z"/><path fill="#E4148A" d="M625.767 150.509c-.059-.103-.129-.165-.197-.229-3.418-3.8-8.977-4.68-13.114-1.375l-.19.113c-4.235 3.353.262 10.749-5.668 12.254-.442.127-.567.918-.186 1.314 2.984 3.021 7.331 4.436 11.514 3.772 7.529-1.212 12.208-8.989 7.982-15.633l-.141-.216z"/><path d="M445.215 245.357l8.262-12.547c8.722 6.58 18.207 9.945 26.47 9.945 7.956 0 12.546-3.365 12.546-8.721v-.307c0-6.272-8.568-8.414-18.054-11.321-11.935-3.366-25.245-8.263-25.245-23.716v-.305c0-15.301 12.698-24.634 28.764-24.634 10.098 0 21.114 3.519 29.682 9.181l-7.344 13.158c-7.803-4.744-16.065-7.65-22.797-7.65-7.191 0-11.322 3.365-11.322 8.109v.305c0 5.814 8.722 8.263 18.207 11.322 11.781 3.672 25.092 9.027 25.092 23.562v.306c0 16.983-13.157 25.397-29.987 25.397-11.477.002-24.175-4.129-34.274-12.084zm74.358-101.133h18.513v43.452c5.202-7.649 12.699-14.229 25.245-14.229 18.207 0 28.765 12.24 28.765 31.059v51.408h-18.514v-45.9c0-12.545-6.272-19.736-17.289-19.736-10.71 0-18.207 7.496-18.207 20.043v45.594h-18.513v-111.691zm86.705 30.906h18.513v80.784h-18.513v-80.784zm33.322 0h18.513v13.464c5.968-8.414 14.383-15.146 27.388-15.146 19.125 0 37.638 15.146 37.638 41.922v.307c0 26.774-18.36 41.922-37.638 41.922-13.312 0-21.727-6.732-27.388-14.229v37.026h-18.513v-105.266zm64.719 40.546v-.307c0-15.605-10.557-25.857-23.103-25.857s-23.562 10.404-23.562 25.857v.307c0 15.605 11.017 25.856 23.562 25.856 12.699 0 23.103-9.945 23.103-25.856zm29.361-40.546h18.513v13.464c5.968-8.414 14.383-15.146 27.388-15.146 19.125 0 37.638 15.146 37.638 41.922v.307c0 26.774-18.36 41.922-37.638 41.922-13.312 0-21.727-6.732-27.388-14.229v37.026h-18.513v-105.266zm64.719 40.546v-.307c0-15.605-10.557-25.857-23.103-25.857s-23.562 10.404-23.562 25.857v.307c0 15.605 11.017 25.856 23.562 25.856 12.699 0 23.103-9.945 23.103-25.856zm21.726 60.281l6.272-13.77c3.366 1.836 7.038 3.06 10.863 3.06 5.202 0 8.415-2.295 11.475-9.333l-33.66-80.784h19.737l22.95 59.976 20.961-59.976h19.278l-32.13 83.079c-6.427 16.523-13.617 22.645-26.622 22.645-7.802 0-13.463-1.836-19.124-4.897z" fill="#31A8DF"/><path d="M518.934 633.47v-41.466h-9.832v-15.512h9.832v-21.627h17.754v21.627h20.835v15.512h-20.835v38.633c0 7.01 3.521 9.844 9.538 9.844 3.961 0 7.483-.896 11.004-2.685v14.767c-4.401 2.535-9.391 4.027-15.993 4.027-13.059 0-22.303-5.819-22.303-23.12zm94.759 21.777v-9.695c-5.282 6.414-13.353 11.337-25.091 11.337-14.673 0-27.586-8.503-27.586-24.312v-.299c0-17.451 13.354-25.803 31.401-25.803 9.391 0 15.407 1.34 21.422 3.279v-1.492c0-10.888-6.75-16.854-19.075-16.854-8.658 0-15.114 1.939-22.157 4.923l-4.842-14.47c8.51-3.877 16.874-6.562 29.493-6.562 22.89 0 34.042 12.231 34.042 33.263v46.687h-17.607v-.002zm.44-32.964c-4.549-1.79-10.858-3.133-17.754-3.133-11.151 0-17.754 4.625-17.754 12.23v.299c0 7.457 6.603 11.635 14.967 11.635 11.738 0 20.542-6.713 20.542-16.558l-.001-4.473zm30.155-75.92h17.755v108.884h-17.755v-108.884zm31.152 0h17.755v65.033l32.135-34.903h21.568l-30.812 32.067 31.841 46.688h-20.542l-23.331-34.008-10.858 11.484v22.522h-17.756v-108.883zm77.402 128.423l6.016-13.425c3.229 1.789 6.75 2.983 10.418 2.983 4.989 0 8.07-2.237 11.005-9.099l-32.281-78.753h18.928l22.01 58.469 20.104-58.469h18.487l-30.812 80.992c-6.163 16.108-13.059 22.074-25.532 22.074-7.484.001-12.914-1.788-18.343-4.772z" fill="#31A8DF"/><path fill="#E91289" d="M788.582 482.584c-23.54-.73-41.5 17.184-42.147 39.48l-.015.291c-.21 7.438 1.532 14.479 4.827 20.582-.225 5.681-5.121 13.963-12.67 20.069 16.243 2.911 23.938-2.858 28.646-4.014 5.358 3.142 11.795 4.709 18.683 4.925 23.686.737 41.651-17.174 42.301-39.322l.006-.305c.644-22.286-16.111-40.978-39.631-41.706zm18.613 39.628l-24.298 23.368c-1.783 1.708-3.475 1.273-3.775-.965l-5.572-41.646c-.301-2.245 1.22-3.116 3.384-1.948l29.561 15.969c2.15 1.162 2.469 3.515.7 5.222z"/><path fill="#E91289" d="M1154.904 483.661c-.024-.588-.459-1.033-1.052-1.047-10.819-.382-21.612 1.326-31.283 6.338-7.255 3.761-13.349 9.396-18.137 15.965-4.928.266-9.574 1.988-13.98 4.129-2.754 1.354-5.132 2.488-6.823 5.076-3.734 5.673-5.145 13.337-5.869 19.992-.065.561.631.841 1.045.6 4.214-2.283 9.34-3.113 14.134-3.316-.219 1.097-.41 2.193-.562 3.289l-.051.409c-.096.217-.107.445-.018.676.068.279.254.471.496.546.122.117.235.219.363.32-.363 1.045-.725 2.079-1.082 3.125-.078.203 0 .535.172.676 3.11 2.461 6.229 4.906 9.339 7.343.249.218.555.293.847.114.741-.434 1.487-.866 2.231-1.311.816.458 1.646.673 2.44.418.716-.202 1.431-.435 2.138-.676.345 4.539.123 9.335-1.467 13.555-.197.521.383.98.86.855 6.345-1.596 13.381-4.031 18.496-8.201 2.358-1.924 3.059-3.797 4.098-6.629 1.601-4.373 2.735-9.053 2.666-13.73.848-.767 1.683-1.57 2.498-2.373 10.686-10.762 16.786-25.539 18.247-40.52.197-1.976.332-3.646.254-5.623zm-24.123 28.865c-4.49 0-8.123-3.645-8.123-8.133 0-4.486 3.633-8.123 8.123-8.123 4.487 0 8.126 3.637 8.126 8.123 0 4.489-3.638 8.133-8.126 8.133z"/><path fill="#E4148A" d="M1096.387 549.375c-.059-.103-.129-.165-.197-.229-3.418-3.801-8.977-4.68-13.114-1.375l-.19.112c-4.235 3.353.262 10.749-5.668 12.255-.442.127-.567.918-.186 1.314 2.984 3.02 7.331 4.436 11.514 3.771 7.529-1.211 12.208-8.988 7.982-15.633l-.141-.215z"/><path d="M915.835 644.408l7.986-12.128c8.431 6.36 17.599 9.613 25.586 9.613 7.69 0 12.127-3.253 12.127-8.43v-.296c0-6.063-8.282-8.134-17.451-10.944-11.536-3.254-24.402-7.986-24.402-22.924v-.295c0-14.79 12.274-23.812 27.804-23.812 9.761 0 20.409 3.401 28.691 8.874l-7.099 12.72c-7.543-4.586-15.529-7.396-22.036-7.396-6.952 0-10.944 3.253-10.944 7.839v.295c0 5.62 8.431 7.986 17.599 10.944 11.389 3.549 24.255 8.726 24.255 22.775v.296c0 16.417-12.718 24.55-28.986 24.55-11.094.002-23.368-3.991-33.13-11.681zm71.877-97.758h17.895v42.001c5.028-7.394 12.275-13.753 24.402-13.753 17.6 0 27.805 11.831 27.805 30.021v49.692h-17.896v-44.368c0-12.126-6.063-19.078-16.712-19.078-10.353 0-17.6 7.246-17.6 19.374v44.072h-17.895v-107.961zm83.811 29.874h17.895v78.088h-17.895v-78.088zm32.21 0h17.895v13.015c5.769-8.133 13.903-14.641 26.474-14.641 18.487 0 36.382 14.641 36.382 40.522v.296c0 25.881-17.748 40.523-36.382 40.523-12.867 0-21.001-6.508-26.474-13.755v35.791h-17.895v-101.751zm62.558 39.193v-.296c0-15.085-10.204-24.994-22.331-24.994-12.128 0-22.776 10.057-22.776 24.994v.296c0 15.085 10.648 24.994 22.776 24.994 12.276 0 22.331-9.613 22.331-24.994zm28.382-39.193h17.895v13.015c5.769-8.133 13.902-14.641 26.474-14.641 18.486 0 36.382 14.641 36.382 40.522v.296c0 25.881-17.748 40.523-36.382 40.523-12.867 0-21.002-6.508-26.474-13.755v35.791h-17.895v-101.751zm62.559 39.193v-.296c0-15.085-10.204-24.994-22.332-24.994-12.127 0-22.775 10.057-22.775 24.994v.296c0 15.085 10.648 24.994 22.775 24.994 12.275 0 22.332-9.613 22.332-24.994zm21.001 58.269l6.063-13.31c3.254 1.774 6.804 2.957 10.501 2.957 5.028 0 8.134-2.218 11.092-9.021l-32.537-78.088h19.078l22.185 57.974 20.262-57.974h18.635l-31.058 80.307c-6.213 15.972-13.163 21.889-25.733 21.889-7.545 0-13.016-1.775-18.488-4.734z" fill="#31A8DF"/><path d="M705.326 917.344l8.262-12.547c8.722 6.58 18.207 9.945 26.47 9.945 7.956 0 12.546-3.365 12.546-8.721v-.307c0-6.272-8.568-8.414-18.054-11.321-11.935-3.366-25.245-8.263-25.245-23.716v-.305c0-15.301 12.698-24.634 28.764-24.634 10.098 0 21.114 3.519 29.682 9.181l-7.344 13.158c-7.803-4.744-16.065-7.65-22.797-7.65-7.191 0-11.322 3.365-11.322 8.109v.305c0 5.814 8.722 8.263 18.207 11.322 11.781 3.672 25.092 9.027 25.092 23.562v.306c0 16.983-13.157 25.397-29.987 25.397-11.477.002-24.175-4.129-34.274-12.084zm74.359-101.133h18.513v43.451c5.202-7.649 12.699-14.229 25.245-14.229 18.207 0 28.765 12.24 28.765 31.059v51.408h-18.514v-45.9c0-12.545-6.272-19.736-17.289-19.736-10.71 0-18.207 7.496-18.207 20.043v45.593h-18.513v-111.689zm86.704 30.905h18.513v80.784h-18.513v-80.784zm33.322 0h18.513v13.464c5.968-8.414 14.383-15.146 27.388-15.146 19.125 0 37.638 15.146 37.638 41.922v.307c0 26.774-18.36 41.922-37.638 41.922-13.312 0-21.727-6.732-27.388-14.229v37.026h-18.513v-105.266zm64.719 40.546v-.307c0-15.605-10.557-25.857-23.103-25.857s-23.562 10.404-23.562 25.857v.307c0 15.605 11.017 25.856 23.562 25.856 12.7.001 23.103-9.945 23.103-25.856zm29.361-40.546h18.513v13.464c5.968-8.414 14.383-15.146 27.388-15.146 19.125 0 37.638 15.146 37.638 41.922v.307c0 26.774-18.36 41.922-37.638 41.922-13.312 0-21.727-6.732-27.388-14.229v37.026h-18.513v-105.266zm64.719 40.546v-.307c0-15.605-10.557-25.857-23.103-25.857s-23.562 10.404-23.562 25.857v.307c0 15.605 11.017 25.856 23.562 25.856 12.7.001 23.103-9.945 23.103-25.856zm21.727 60.281l6.272-13.77c3.366 1.836 7.038 3.06 10.863 3.06 5.202 0 8.415-2.295 11.475-9.333l-33.66-80.784h19.737l22.95 59.976 20.961-59.976h19.278l-32.13 83.079c-6.427 16.523-13.617 22.645-26.622 22.645-7.803 0-13.463-1.836-19.124-4.897z" fill="#31A8DF"/><path fill="#E91289" d="M710.638 815.309c-.024-.588-.459-1.033-1.052-1.047-10.819-.382-21.612 1.326-31.283 6.338-7.255 3.761-13.349 9.396-18.137 15.965-4.928.266-9.574 1.988-13.98 4.129-2.754 1.354-5.132 2.488-6.823 5.076-3.734 5.673-5.145 13.337-5.869 19.992-.065.561.631.841 1.045.6 4.214-2.283 9.34-3.113 14.134-3.316-.219 1.097-.41 2.193-.562 3.289l-.051.409c-.096.217-.107.445-.018.676.068.279.254.471.496.546.122.117.235.219.363.32-.363 1.045-.725 2.079-1.082 3.125-.078.203 0 .535.172.676 3.11 2.461 6.229 4.906 9.339 7.343.249.218.555.293.847.114.741-.434 1.487-.866 2.231-1.311.816.458 1.646.673 2.44.418.716-.202 1.431-.435 2.138-.676.345 4.539.123 9.335-1.467 13.555-.197.521.383.98.86.855 6.345-1.596 13.381-4.031 18.496-8.201 2.358-1.924 3.059-3.797 4.098-6.629 1.601-4.373 2.735-9.053 2.666-13.73.848-.767 1.683-1.57 2.498-2.373 10.686-10.762 16.786-25.539 18.247-40.52.197-1.977.332-3.647.254-5.623zm-24.122 28.865c-4.49 0-8.123-3.645-8.123-8.133 0-4.486 3.633-8.123 8.123-8.123 4.487 0 8.126 3.637 8.126 8.123 0 4.488-3.639 8.133-8.126 8.133z"/><path fill="#E4148A" d="M652.121 881.022c-.059-.103-.129-.165-.197-.229-3.418-3.801-8.977-4.68-13.114-1.375l-.19.112c-4.235 3.353.262 10.749-5.668 12.255-.442.127-.567.918-.186 1.314 2.984 3.02 7.331 4.436 11.514 3.771 7.529-1.211 12.208-8.988 7.982-15.633l-.141-.215z"/><circle fill="#31A8DF" cx="875.645" cy="829.057" r="10.686"/><path fill="#E91289" d="M1665.869 876.227c-.005-.116-.091-.204-.208-.207-2.135-.075-4.265.262-6.173 1.251-1.432.742-2.634 1.854-3.579 3.15-.973.052-1.89.393-2.759.814-.543.268-1.013.491-1.346 1.002-.737 1.119-1.016 2.632-1.159 3.944-.013.111.125.167.206.119.832-.45 1.844-.614 2.79-.654-.044.216-.081.433-.112.649l-.009.08-.004.134c.013.055.05.093.098.107l.071.063-.213.616c-.016.04 0 .105.033.134.614.485 1.229.968 1.844 1.448.049.043.109.059.167.023l.44-.259c.161.09.324.132.481.082l.422-.133c.067.896.024 1.842-.29 2.674-.038.104.076.194.171.169 1.251-.314 2.64-.795 3.649-1.618.465-.38.604-.749.809-1.308.315-.863.54-1.787.525-2.71l.493-.468c2.108-2.124 3.312-5.04 3.601-7.996.041-.387.068-.717.052-1.106zm-4.759 5.695c-.887 0-1.604-.719-1.604-1.604s.717-1.604 1.604-1.604c.885 0 1.604.718 1.604 1.604s-.72 1.604-1.604 1.604z"/><path fill="#E4148A" d="M1654.322 889.193l-.038-.045c-.675-.75-1.771-.924-2.589-.271l-.037.022c-.836.661.052 2.121-1.118 2.418-.088.025-.112.182-.037.26.589.596 1.447.875 2.272.744 1.485-.239 2.409-1.773 1.575-3.085l-.028-.043z"/><path d="M1618.694 907.946l1.576-2.393c1.663 1.255 3.473 1.896 5.049 1.896 1.518 0 2.393-.642 2.393-1.663v-.059c0-1.196-1.635-1.604-3.443-2.159-2.276-.642-4.815-1.576-4.815-4.523v-.059c0-2.918 2.422-4.698 5.486-4.698 1.926 0 4.027.671 5.662 1.751l-1.401 2.51c-1.488-.905-3.064-1.46-4.349-1.46-1.372 0-2.159.643-2.159 1.548v.058c0 1.109 1.663 1.576 3.473 2.16 2.248.7 4.786 1.722 4.786 4.494v.059c0 3.239-2.509 4.845-5.72 4.845-2.191 0-4.613-.788-6.538-2.307zm14.183-19.29h3.531v8.288c.992-1.459 2.422-2.714 4.814-2.714 3.474 0 5.487 2.335 5.487 5.924v9.807h-3.531v-8.756c0-2.393-1.196-3.765-3.298-3.765-2.043 0-3.473 1.43-3.473 3.823v8.697h-3.531v-21.304zm16.538 5.895h3.531v15.41h-3.531v-15.41zm6.357 0h3.531v2.568c1.139-1.604 2.743-2.889 5.224-2.889 3.648 0 7.18 2.889 7.18 7.996v.059c0 5.107-3.502 7.997-7.18 7.997-2.539 0-4.144-1.284-5.224-2.715v7.063h-3.531v-20.079zm12.343 7.734v-.059c0-2.977-2.013-4.932-4.406-4.932s-4.494 1.984-4.494 4.932v.059c0 2.977 2.102 4.933 4.494 4.933 2.423 0 4.406-1.898 4.406-4.933zm5.602-7.734h3.531v2.568c1.139-1.604 2.743-2.889 5.224-2.889 3.648 0 7.18 2.889 7.18 7.996v.059c0 5.107-3.502 7.997-7.18 7.997-2.539 0-4.144-1.284-5.224-2.715v7.063h-3.531v-20.079zm12.345 7.734v-.059c0-2.977-2.014-4.932-4.407-4.932-2.393 0-4.493 1.984-4.493 4.932v.059c0 2.977 2.101 4.933 4.493 4.933 2.422 0 4.407-1.898 4.407-4.933zm4.144 11.499l1.196-2.627c.642.351 1.343.583 2.072.583.992 0 1.604-.438 2.188-1.779l-6.42-15.41h3.764l4.378 11.44 3.999-11.44h3.677l-6.129 15.848c-1.227 3.151-2.598 4.319-5.078 4.319-1.488 0-2.568-.351-3.647-.934z" fill="#31A8DF"/><path d="M1620.43 943.333l1.544-2.345c1.63 1.229 3.403 1.858 4.948 1.858 1.486 0 2.345-.629 2.345-1.63v-.058c0-1.172-1.602-1.572-3.375-2.116-2.23-.629-4.718-1.544-4.718-4.433v-.057c0-2.859 2.373-4.604 5.376-4.604 1.887 0 3.946.658 5.548 1.716l-1.373 2.46c-1.458-.887-3.003-1.43-4.261-1.43-1.345 0-2.116.629-2.116 1.516v.057c0 1.087 1.63 1.544 3.403 2.116 2.202.687 4.689 1.688 4.689 4.404v.057c0 3.175-2.459 4.747-5.604 4.747-2.145.001-4.518-.771-6.406-2.258zm13.898-18.902h3.46v8.121c.973-1.43 2.374-2.659 4.719-2.659 3.403 0 5.376 2.287 5.376 5.805v9.609h-3.46v-8.58c0-2.345-1.173-3.688-3.231-3.688-2.002 0-3.403 1.401-3.403 3.746v8.522h-3.46v-20.876zm16.206 5.776h3.46v15.1h-3.46v-15.1zm6.229 0h3.46v2.517c1.115-1.573 2.688-2.831 5.119-2.831 3.574 0 7.035 2.831 7.035 7.835v.058c0 5.005-3.433 7.836-7.035 7.836-2.488 0-4.062-1.259-5.119-2.66v6.921h-3.46v-19.676zm12.097 7.578v-.058c0-2.916-1.974-4.833-4.318-4.833-2.346 0-4.404 1.945-4.404 4.833v.058c0 2.917 2.059 4.833 4.404 4.833 2.372 0 4.318-1.859 4.318-4.833zm5.487-7.578h3.46v2.517c1.116-1.573 2.688-2.831 5.119-2.831 3.575 0 7.035 2.831 7.035 7.835v.058c0 5.005-3.432 7.836-7.035 7.836-2.487 0-4.061-1.259-5.119-2.66v6.921h-3.46v-19.676zm12.097 7.578v-.058c0-2.916-1.973-4.833-4.318-4.833-2.345 0-4.403 1.945-4.403 4.833v.058c0 2.917 2.059 4.833 4.403 4.833 2.373 0 4.318-1.859 4.318-4.833zm4.061 11.268l1.172-2.574c.629.344 1.315.572 2.03.572.973 0 1.573-.429 2.145-1.744l-6.291-15.1h3.689l4.289 11.21 3.918-11.21h3.604l-6.006 15.528c-1.201 3.088-2.545 4.232-4.976 4.232-1.458.001-2.516-.342-3.574-.914z" fill="#31A8DF"/><circle fill="#31A8DF" cx="1652.264" cy="926.831" r="1.998"/></svg>